<?xml version="1.0" encoding="UTF-8"?>
<svg id="Layer_2" data-name="Layer 2" xmlns="http://www.w3.org/2000/svg" viewBox="0 0 199.93 761.64">
  <defs>
    <style>
      .cls-1 {
        stroke-width: 0px;
      }
    </style>
  </defs>
  <g id="Layer_1-2" data-name="Layer 1">
    <path class="cls-1" d="m185.01,381.68c-.77-3.51-1.17-7.53-1.19-12.06-.04-11.27-.05-22.56-.04-33.86,0-.4.18-.69.55-.86l4.47-2.09c.53-.25.67-.63.41-1.15l-1.28-2.56c-.13-.25-.08-.56.12-.77,4.42-4.61,12.4-13.08,11.85-19.87-.58-7.11-1.29-13.96-2.52-21.28-7.2-42.96-13.28-86.04-22.04-128.73-2.42-11.79-7.57-23.39-19.18-28.32-4.68-1.99-9.44-3.78-14.29-5.37-1.65-.55-2.44-.23-3.76.67-.26.18-.55.27-.86.26-9.38-.17-20.21-5.04-19.03-16.04.05-.51.27-.59.64-.24.59.55.88,1.26.87,2.14,0,.06,0,.12.02.18.09.48.56.79,1.03.69l6.54-1.3c.26-.05.49,0,.69.16.09.08.19.14.29.19.32.17.69.23,1.11.19,2.16-.21,4.24-.75,6.25-1.63.31-.14.68-.04.89.24l.4.54c.19.26.44.36.75.3,5.61-1.14,9.06-4.27,10.33-9.39,2.23-8.99,2.03-17.73-.6-26.23-.33-1.05-.24-1.09.25-.1,3.21,6.37,4.54,14.16,4.08,20.89-.34,4.92-2.22,9.29-5.65,13.11-.14.16-.11.22.1.17,3.4-.86,5.54-3.06,6.43-6.6,3.72-14.91-2.97-26.5-7.9-39.59-.89-2.36-.73-2.43.46-.21,2.48,4.63,4.8,9.55,6.97,14.76,4.25,10.21,5.67,18.01,1.34,27.73-.17.4-.09.47.26.22,2.81-2.03,3.58-7.15,3.73-10.69.28-6.93-1.07-13.52-4.04-19.78-2.7-5.69-5.3-11.42-7.8-17.19-4.18-9.65-6.85-19.82-9.73-30.02-3.17-11.23-9.94-21.16-21.13-25.6-3.17-1.26-6.24-1.45-9.21-.58-.33.09-.63.05-.92-.14-1.45-.97-2.47-1.5-3.06-1.57-14.78-1.77-25.76,4.36-33.01,16.69-2.67,4.54-4.44,8.52-5.29,11.95-3.53,14.18-8.43,27.84-14.69,40.99-4.75,9.99-9.1,21.95-4.45,32.6.07.16.25.25.42.21.19-.05.31-.24.26-.44-1.82-7.64-1.16-14.11,1.58-21.89,2.25-6.38,4.83-12.36,7.74-17.95.79-1.5.91-1.45.38.16-2.07,6.3-4.23,12.92-6.47,19.86-2.1,6.5-2.62,13.1-1.56,19.81.51,3.21,2.14,5.43,4.9,6.85.18.09.41.06.56-.08.2-.18.21-.49.02-.68-6.07-6.57-4.21-20.72-.94-28.76.02-.05.07-.07.12-.07.06,0,.1.07.09.13-1.85,7.88-3.33,29.08,8.58,30.71.34.05.67,0,.98-.15,1.42-.65,2.62-.37,3.6.84.27.34.6.4.97.18l.8-.45c.28-.17.55-.15.81.05,1.52,1.2,3.1,1.3,4.74.31.29-.17.66-.18.96-.02,3.21,1.76,5.92,1.38,8.15-1.14.07-.08.16-.13.26-.15.27-.06.54.11.6.37.26,1.09.14,2.42-.37,3.99-2.72,8.37-9.61,10.87-17.51,11.49-.25.02-.51-.04-.74-.16l-2.43-1.39c-.23-.13-.51-.15-.75-.04-5.72,2.48-11.5,4.81-17.35,6.99-10.54,3.92-15.24,16.26-17.45,26.37-7.66,35.03-14.19,71.42-19.59,109.18-.33,2.31-1.29,8.43-2.86,18.36-1.25,7.87-2.66,16.15-2.67,24.12,0,4.96,1.73,7.52,4.84,11.08,2.39,2.74,4.87,5.46,7.42,8.15.21.22.24.47.09.74l-1.8,3.21s-.04.08-.05.13c-.07.28.11.56.39.63l4.64,1.11c.27.07.41.24.42.53.31,11.85.39,23.7.22,35.56-.05,3.4-.46,6.64-1.23,9.73-1.57,6.29-3.4,12.51-5.47,18.66-.38,1.1-.52,2.61-.12,3.55,1.94,4.52,3.24,9.21,3.9,14.07.07.48.2.9.39,1.27.33.61.58.98.76,1.12,3.51,2.8,6.93,5.77,10.26,8.91.28.27.4.6.37.99l-4.65,48.33c-.1,1.03.6,1.96,1.61,2.16,8.23,1.65,16.52,2.71,24.89,3.19.39.02.62.22.69.6,2.13,10.74,3.76,21.55,4.89,32.44.61,5.84.18,12.41.53,18.66.17,3.05.08,5.96-.27,8.75-2.77,21.63-3.33,43.82.59,65.34,3.77,20.75,7.7,41.46,11.79,62.15,1.45,7.39,2.68,16.27,3.69,26.62.25,2.57.14,5.14-.33,7.71-1.8,9.92-3.38,19.36-8.18,28.37-3.07,5.77-5.16,11.02-6.27,15.75-.09,5.4-.53,10.44,6.26,11.71,6.8,1.28,27.34,3.14,31.47-3.22,2.37-3.66.95-14.51.54-18.96.03-2.37-.22-4.6.15-6.95,1.23-7.65,1.68-13.16,1.37-16.53-.57-6.17-4.12-15.56-5.15-22.75-.96-6.71-1.43-12.88-1.42-18.49.06-24.9.02-49.8-.11-74.69-.09-16.43-1.63-33.44,1.25-50.3,1.15-6.7,2.46-13.22,2.49-20.07.04-13.51-.01-27.01-.16-40.52,0-.29.24-.53.53-.54l16.1-.08c.41,0,.62.21.62.62-.03,13.89-.01,27.74.04,41.57.01,4.12,1.13,11.12,3.36,21,1,4.41,1.17,10.08,1.09,15.37-.55,35.63-.89,71.27-1.02,106.92-.04,13-1.65,22.33-4.63,34.46-.97,3.95-1.42,8.4-1.35,13.37.07,4.73,1.72,11.47,1.17,17.69-.89,4.84-1.22,9.7-1,14.58.23,5.05,2.21,7.39,7.17,7.96,8.76,1.02,16.99.84,24.69-.54,5.13-.92,7.21-3.18,7.08-8.38.11-4.03-.38-6.96-1.47-8.77-3.56-5.95-6.45-12.19-8.68-18.7-2.07-6.06-2.86-13.03-3.88-19.63-.35-2.23-.39-4.45-.14-6.67.65-5.57,1.33-10.91,2.43-16.61,5.13-26.51,9.54-50.69,13.25-72.54,3.38-19.92,3.9-40.04,1.57-60.35-1.04-9.14-.94-17.07-.84-25.75.06-4.66.48-9.68,1.26-15.05,1.18-8.19,1.8-16.62,3.73-24.66.07-.27.24-.43.52-.46l25.2-3.11c1.15-.15,1.98-1.19,1.85-2.34-1.71-15.73-3.24-31-4.59-45.79-.11-1.15-.22-2.37-.33-3.65-.03-.33.13-.65.41-.83,3.59-2.3,6.77-5.06,9.53-8.28.92-1.08,1.55-2.41,1.89-4,1.07-4.99,2.37-9.95,3.92-14.87.1-.32.09-.64-.02-.95-2.15-5.61-3.87-11.34-5.15-17.19Zm-160.42,35.52h-.05c-1.71.02-3.13-3.72-3.17-8.36,0,0,0-.02,0-.03v-.46c-.04-4.64,1.31-8.41,3.01-8.43h.05s.04.02.04.04l.15,17.2s-.01.04-.03.04Zm31.09-149.51c-.03.08-.08.16-.14.22-3.03,3.25-5.56,6.84-7.61,10.79-.62,1.2-1.28,2.39-1.97,3.57-.29.49-.41.45-.36-.12l1.9-22.17c.07-.72.25-.75.55-.09,1.49,3.25,3.9,5.54,7.24,6.87.36.15.54.56.39.93Zm96.78,14.47c-1.87-5.58-4.96-10.36-9.27-14.34-.28-.26-.24-.45.12-.57,3.8-1.25,6.36-3.75,7.67-7.5.08-.22.33-.32.54-.24.15.06.25.19.27.35l1.7,22.09c.22,2.83-.12,2.9-1.03.21Zm22.99,134.82c-.17.18-.46.18-.64,0-.08-.08-.13-.19-.13-.3l-.31-16.08c-.01-.34.25-.63.59-.66l1.47-.1c.42-.03.64.16.67.58.23,4.06.37,8.11.42,12.16.02,2.02-.78,3.08-2.07,4.4Z"/>
  </g>
</svg>