<?xml version="1.0" encoding="UTF-8"?>
<svg id="Layer_2" data-name="Layer 2" xmlns="http://www.w3.org/2000/svg" viewBox="0 0 196.23 804.82">
  <defs>
    <style>
      .cls-1 {
        stroke-width: 0px;
      }
    </style>
  </defs>
  <g id="Layer_1-2" data-name="Layer 1">
    <path class="cls-1" d="m194.8,281.43c-.9-41.27-3.04-80.96-7.3-123.65-.8-8.01-3.54-14.46-10.59-18.33-1.92-1.05-3.89-2.07-5.9-3.08-.31-.15-.45-.4-.43-.75.83-11.6-4.4-18.2-11.25-28.63-.18-.28-.22-.62-.1-.93,3.02-7.59,3.71-15.17,2.06-22.74-.7-3.21-2.69-7.97-5.97-14.29-2.79-5.37-5.53-10.77-8.22-16.2-1.96-3.96-2.39-8.21-3.25-12.51-2.74-13.79-9.35-27.55-20.78-36.24-5.53-4.2-11.46-5.11-17.8-2.73-.31.12-.63.11-.94-.03-7.15-3.12-15.4-.34-20.6,4.67-5.81,5.61-11.02,12.17-15.65,19.68-5.83,9.48-8.22,17.58-5.74,28.09.08.34.03.66-.14.96-6.03,10.49-14.37,23.05-14.3,35.47.01,3.39.91,8.16,2.7,14.31.09.31,0,.65-.24.89-4.01,3.86-6.72,7.81-8.14,11.85-2.41,6.84-.88,11.87,2.25,17.29.05.08.08.16.11.25.24.71-.15,1.47-.85,1.71-10.09,3.38-16.5,8.17-17.6,19.44-5.37,55.15-12.16,119.33-20.36,192.54-2.13,19.02-3.5,38.27-5.53,57.37-.24,2.25-.67,7.68.95,9.39,2.43,2.57,9.81,3.12,13.16,3.11.36,0,.56.18.6.54.27,2.31.76,4.59,1.46,6.84.94,2.98.75,5.83,1.43,8.87,1.03,4.59,5.06,5.94,9.18,7.21,6.17,1.89,12.31,3.55,18.43,4.96.52.12.91.56.96,1.09,3.38,33.33,6.79,66.7,10.22,100.13,3.34,32.51,7.92,65.02,12,97.46.2,1.62.07,2.99-.4,4.1-.77,1.83-1.16,2.8-1.19,2.93-.69,3.77-.39,7.49.88,11.14,1.31,3.77,7.88,5.01,11.72,5.31.33.03.56.2.67.51,3.31,9.58,5.75,19.36,7.3,29.35.91,5.89-.09,11.81-1.33,17.52-1.75,8.05-6.15,16.49-9.33,24.66-.35.88-1.61,2.22-2.48,2.59-13.52,5.73-11.65,18.27-11.8,30.41-.03,2.88.62,4.54,3.02,5.96,2.85,1.7,5.92,2.76,9.2,3.18,7.36.96,26.36.98,31.26-5.82.19-.26.28-.55.28-.87v-8.01c0-.29.13-.51.39-.66l7.72-4.27c.08-.04.16-.06.25-.05.21.03.36.24.33.46-.65,4.1-3.16,8.22-3.18,12.3-.05,6.54-.05,13.08-.01,19.63.01,1.15.17,2.04.48,2.67,4.07,8.45,36.73,7.98,42.13,1.45.77-.93,1.15-2.2,1.13-3.79-.07-5.81-.15-11.63-.23-17.46-.12-8.56-7.62-13.08-8.57-20.75-1.29-10.48-.86-22.11-3.22-34.27-.68-3.52-1-6.7-.96-9.54.18-13.11,1.91-26.7,3.59-39.76.04-.3.3-.51.59-.5,11.05.5,10.77-11.63,6.61-18.36-.17-.29-.26-.6-.26-.93.32-47.71.44-95.43.37-143.15-.03-21.75,1.72-43.66,3.84-65.31.03-.31.26-.56.56-.62,4.55-.85,22.15-3.93,18.95-11.71-.12-.29-.14-.59-.05-.9l3.79-13.06c.09-.32.37-.56.7-.6,3.46-.4,6.88-.95,10.27-1.64,3.4-.69,4.58-1.55,4.58-5.29,0-43.63-.47-87.25-1.43-130.86ZM60.2,64.11c.43-.56.56-.5.38.19-.27,1.02-.71,2.25-1.33,3.69-3.63,8.45-6.4,18.09-5.37,27.93.23,2.17-.08,4.18-.92,6.03-.11.24-.4.34-.63.23-.12-.05-.21-.15-.25-.27-4.63-13.29-.27-27,8.12-37.8Zm-12.28,70.85c-.56,0-1.08-.31-1.36-.81-1.7-3.08-3.81-6.58-3.66-10.19.26-6.19,2.89-11.43,7.9-15.73.2-.17.49-.14.66.06.09.11.13.25.11.39-.76,4.37-.34,6.75,1.58,10.71.17.35.16.69-.04,1.02-2.39,4.01-3.6,8.35-3.63,13.01,0,.86-.7,1.55-1.56,1.54Zm6.78-2.64v.07c-.03.24-.23.42-.47.4,0,0,0,0,0,0l-1.43-.11c-.24-.02-.42-.22-.4-.46h0v-.07c.42-5.55,1.21-10.02,1.77-9.97,0,0,0,0,0,0h.26c.56.06.68,4.59.26,10.14Zm.79-16.37c-.12.47-.6.75-1.07.63-.37-.09-.63-.41-.66-.79-.19-2.13-.25-4.23-.2-6.31.03-1.29.43-2.58,1.18-3.85,2.86-4.81,5.05-9.81,6.86-15.1.07-.21.19-.23.34-.08.09.09.18.18.27.27.12.11.16.24.12.4l-6.84,24.83Zm6.61-38.17c-.96,7.28-2.61,12.33-5.67,18.27-.31.6-.48.56-.52-.11-.46-8.37.89-16.38,4.05-24.01,1.95-4.7,3.07-7.62,4.88-11.34.05-.09.17-.12.26-.06.07.04.1.12.09.19-1.3,5.6-2.33,11.29-3.09,17.06Zm9.92-53.2c-3.61,8.18-5.58,16.53-7.92,25.73-.03.14-.17.22-.31.18-.1-.03-.18-.12-.19-.23-.79-10.27,2.86-18.27,7.91-25.96,1.3-1.98,1.47-1.89.51.28Zm51.61,672.89c-.09,10.78-.27,17.87-3.62,26.5-2.04,5.23-3.34,10.9-3.9,17.01,0,.31-.25.57-.56.58-.31,0-.57-.25-.58-.56-.7-5.31-.64-11.25-1.47-16.06-1.07-6.24-2.64-12.34-4.72-18.31-4.36-12.52-5.73-26.72-6.74-39.87-.03-.37.13-.63.48-.77,2.6-1.06,4.29-2.65,5.07-4.78,2.03-5.57.76-10.05-3.83-13.44-.27-.19-.41-.46-.44-.79-.98-12.25-1.81-24.47-2.48-36.68-2.88-51.95-5.9-103.85-7.4-155.87-.64-22.19-.44-44.36.59-66.52.02-.4.23-.6.63-.6l5.95.05c.73,0,1.33.54,1.42,1.26,3.47,28.77,6.1,57.54,7.89,86.31.66,10.65,1.05,25.9,1.18,45.75.16,25.09,3.05,50.04,3.7,75.12.48,18.65.79,37.3.92,55.95,0,.35-.12.64-.35.89-2.31,2.44-3.15,5.86-2.54,10.27.63,4.53,2.76,7.53,6.37,9.02,1.65.68,3.94.08,4.05,2.85.32,7.57.45,15.13.38,22.69ZM144.69,53.32c.19-.05.39.04.48.21,2.47,5.21,5.01,10.38,7.63,15.53,3.63,7.14,5.77,12.25,6.4,15.34,1.26,6.15.87,12.38-1.16,18.71-.19.61-.43.63-.7.04l-1.48-3.29c-.16-.35-.17-.7-.02-1.05,4.39-10.78-1.59-23.33-6.62-32.89-2.07-3.95-3.66-7.99-4.79-12.12-.06-.21.05-.42.26-.48Zm10.42,42.24c-.09.46-.3.53-.63.2-.83-.82-1.26-1.68-1.27-2.59-.06-4.69-.37-9.69-.93-15,0-.05.05-.09.1-.08.03,0,.05.01.06.03,2.97,5.49,3.86,11.31,2.67,17.44Zm-4.16-6.62s0,0,0,0h-.05s-.05,0-.06-.02l-5.11-22.35s.01-.05.04-.06c0,0,0,0,0,0h.04c1.07-.27,3.08,4.46,4.48,10.57,0,.01,0,.02,0,.04l.07.31c1.4,6.11,1.66,11.26.58,11.51Zm4.86,19.67h0s-.93.3-.93.3c-.12.04-.25-.03-.29-.15,0,0,0,0,0,0l-.06-.16c-1.77-5.48-2.92-10.01-2.57-10.12,0,0,0,0,0,0l.11-.04c.33-.17,2.03,4.14,3.8,9.61.01.04.02.07.04.11l.05.16c.04.12-.03.25-.15.29Zm3.39,22.32c-.06.02-.13.03-.2.02-3.69-.51-3.13-5.78-2.65-8.78.1-.63.25-.64.45-.03l2.68,8.23c.08.23-.05.48-.28.56Zm3.44,1.19h0s-.02.01-.02.01c-.08.03-.18,0-.21-.09,0,0,0,0,0,0l-2.95-8.71c-.03-.08,0-.18.09-.21,0,0,0,0,0,0h.03c.66-.23,1.86,1.54,2.68,3.95l.1.29c.82,2.41.94,4.55.27,4.77Zm5.7,1.72c-.05.43-.28.59-.7.5l-1.4-.3c-.34-.07-.51-.29-.5-.64.14-6.87-4.19-13.65-8.25-19.08-.2-.27-.26-.56-.17-.88l.89-3.26c.12-.45.32-.49.61-.12,5.23,6.73,10.4,14.87,9.52,23.78Z"/>
  </g>
</svg>