<?xml version="1.0" encoding="UTF-8"?>
<svg id="Layer_2" data-name="Layer 2" xmlns="http://www.w3.org/2000/svg" viewBox="0 0 160.45 662.37">
  <defs>
    <style>
      .cls-1 {
        stroke-width: 0px;
      }
    </style>
  </defs>
  <g id="Layer_1-2" data-name="Layer 1">
    <path class="cls-1" d="m159.88,317.13c-2.41-4.13-5.43-8.48-7.31-12.41-2.95-6.17-5.05-12.64-6.3-19.41-4.2-22.71-8.57-44.7-19.76-66.07-5.31-10.14-4.84-19.31-1.84-30.46,1.7-6.35,3.53-12.66,5.49-18.93,1.63-5.2,1.02-10.07-1.82-14.61-1.35-2.16-3.66-4.8-3.47-7.51.34-4.69,1.01-9.32,2.02-13.9.8-3.63,1.04-6.67.73-9.12-2.13-16.57-33.62-9.52-38.64-22.07-1.45-3.65-2.19-7.88-2.2-12.69,0-.47.22-.62.66-.45l1.04.41c.37.14.53.4.48.79-.05.47,0,.93.18,1.37,0,0,0,0,0,.01.16.4.62.59,1.02.43,7.94-3.2,13.4-9.66,16.32-17.55.03-.05.08-.08.14-.08.09,0,.16.07.16.16-.65,4.62-2.39,8.77-5.22,12.45-2.78,3.62-6.83,5.4-11.12,6.59-.03,0-.06.02-.09.03-.38.16-.56.6-.4.98l.11.25c.09.21.24.29.47.22,4.27-1.28,8.55-2.64,11.51-6.13,4.41-5.21,6.78-11.36,7.13-18.46.07-1.46.17-2.93.3-4.42.03-.38.11-.39.24-.03,2.4,6.59,2.15,13.09-.76,19.52-1.35,2.98-3.53,6.19-4.22,8.95-1.82,7.2,2.37,15.94,10.86,14.57,1.28-.21,1.29-.47.03-.78-2.36-.57-5.56-2.12-6.81-4.5-.15-.3-.2-.61-.13-.94.73-3.34,2.09-4.61,5.43-6.05,11.09-4.76,10.87-20.72,4.69-29.21-6.87-9.44-10.01-19.61-9.41-30.51.02-.35.14-.7.34-.99,5.72-8.56,1.19-22.29-7.61-27.01-4.26-2.29-8.99-1.52-12.69-4.58-12.12-10.02-28.86-3.31-39.45,5.83-4.19,3.61-6.7,8-7.53,13.15-.47,2.91.06,7.05-1.06,10.27-1.49,4.31-4.54,8.33-7.64,11.62-2.87,3.06-6.81,4.65-9.45,7.72-2.51,2.91-4.21,6.19-5.12,9.83-.25,1.01-.56,1.02-.92.05-1.8-4.83,1.95-11.34,5.49-14.39,3.17-2.73,7.21-5.21,12.13-7.43.07-.03.09-.09.06-.16l-.1-.24c-.1-.23-.27-.29-.5-.2-8.41,3.48-15.55,6.31-18.67,15.21-1.19,3.38-.97,7,.65,10.86.13.32.11.63-.07.92-.65,1.09-1.06,2.25-1.23,3.5-.01.13.05.25.15.32.15.09.34.04.43-.11l1.09-1.78c.42-.69.81-.67,1.18.05l.46.9c.33.66.34,1.32.02,1.99l-1.54,3.25c-.05.09-.02.16.07.2.09.05.18.09.27.13.14.07.31.01.38-.12l1.58-2.89c.04-.07.08-.12.15-.17.22-.16.53-.11.68.11.85,1.12,1.85,2.16,3.02,3.13.69.56,1.06,1.09,1.12,1.6.09.85-.37,1.49-1.39,1.9C13.17,84.28-1.32,92.46.1,105.76c.8,7.56,6.86,13.07,12.07,17.75.19.17.36.23.53.19.29-.06.34-.21.17-.45-2.81-3.74-6.5-6.99-8.68-10.56-4.92-8.03-1.97-17.06,5.3-22.38,3.27-2.4,7.3-4.71,12.09-6.93,1.35-.63,2.42-1.26,3.19-1.88.87-.71,1.12-.53.75.52-1.7,4.87-7,6.11-11.08,8.52-6.47,3.83-10.66,11.49-8.39,18.98,1.57,5.16,8.53,9.28,7.13,15-1.59,6.5-12.16,6.63-8.85,15.99.63,1.78,1.25,2.91,1.87,3.38,1.88,1.44,2.15,1.18.81-.77-2.75-4.01-1.87-8.38,2.04-11.11.41-.29.49-.21.24.23-.62,1.09-.84,1.92-.67,2.49,2.33,7.53,1.74,16.29,1.34,24.08-2.21,42.55-3.47,71.69-3.77,87.42-.48,24.85,3.29,48.51,8.24,72.74,1.19,5.83,1.86,13.79,1.99,23.9.08,6.32,1.77,10.38,4.33,15.43.64,1.26.92,2.68.8,4.09l-4.3,54.09c-.06.71.23,1.22.87,1.53,8.37,4.07,19.53,4.94,28.72,5.49.32.02.51.19.57.5.37,2.1.36,3.84-.03,5.23-6.59,23.58-9.18,46.8-3.78,69.97,1.13,4.83,2.24,9.66,3.34,14.51.34,1.51.34,3.02-.01,4.54-2.75,12.21-5.23,24.48-7.44,36.81-.73,4.02-1.9,7.76-3.1,11.55-.11.34-.34.54-.69.59-1.18.18-2.61.16-3.58.43-6.26,1.74-9.95,7.79-12.23,13.41-4.55,11.24-9.53,21.99-14.94,32.24-.4.75-.2,1.68.46,2.21l.37.29c1.17.95,2.19.8,3.06-.43,5.24-7.43,10.11-15.09,14.6-22.99.07-.12.17-.22.29-.29.81-.45,1.26-.1,1.35,1.03.53,6.77,1.16,11.77-1.83,18.18-1.73,3.73-3.39,7.51-4.96,11.32-.4.98-.25,1.83.44,2.55,6.26,6.52,15.95,14.53,24.57,17.99.06.02.12.04.19.06.65.15,1.3-.26,1.44-.91.77-3.41.68-5.75-.74-9.14-3.06-7.35-5.45-10.94-2.89-19.22,1.99-6.41,4.02-12.8,6.11-19.19,2.58-7.89,2.02-15.52,4.37-22.72,1.86-5.67,3.87-11.55,6.04-17.64.13-.38.32-.41.56-.09.29.39.43.86.4,1.4-.03.65-.02,1.11.03,1.36,1.87,9.64,3.67,19.29,5.39,28.96,1.61,9.11,1.97,18.27,1.08,27.48-.88,9.07-1.64,18.16-2.27,27.25-.59,8.46-.61,13.91-.05,16.36,1.63,7.21,17.63,5.32,22.45,4.11,2.89-.72,4.3-2.72,4.23-5.99-.3-13.52-2.34-24.97-4.16-37.53-1.68-11.56-5.11-24.17-5.76-36.71-1.26-24.22-2.06-50.05-2.39-77.5-.02-2.03.06-3.88.94-5.81,6.39-14.18,10.73-24.09,13.04-29.72,3.6-8.82,8.32-21.24,14.16-37.27.73-1.99,1.49-3.83,2.28-5.54.22-.48.68-.81,1.2-.86,11.12-1.15,21.26-1.97,32.85-5.16,1.59-.44,2.93-.99,4.01-1.66.29-.18.43-.44.41-.78l-3.92-70.21c-.03-.47.19-.78.64-.92,5.37-1.71,12.57-5.37,15.64-10.47,2.21-3.66,1.55-11.09,1.86-15.51.06-.85-.14-1.7-.56-2.44Zm-41.78-245.19s.07,0,.09.03c4.01,6.64,3.82,13.22-.57,19.75-1.15,1.7-2.47,2.9-3.96,3.6-1.31.61-1.51.35-.62-.78,5.24-6.62,8.14-14.07,4.99-22.5,0-.05.02-.1.07-.1Zm-5.42-5.5c4,7.91,5.77,14.52.59,22.46-2.29,3.51-4.42,7.02-6.37,10.55-.07.13-.24.18-.36.11-.08-.04-.14-.13-.14-.22-.1-2.22.33-4.22,1.38-6.36,2.75-5.6,5.71-10.34,6.03-16.81.15-3.04-.78-6.53-1.5-9.59-.25-1.09-.13-1.14.37-.14Zm-8.44-51.17c3.25,2.86,4.79,6.17,4.63,9.92-.06,1.28-.28,1.31-.65.08-.45-1.49-.96-2.99-1.52-4.5-.62-1.65-1.92-3.42-2.78-5.26-.27-.58-.16-.66.32-.24Zm-14.51,74.38c10.32-5.82,15.03-15.55,15.73-27.17,0-.09.05-.13.14-.13h.28c.23,0,.42.17.44.39,1.01,10.1-5.68,24.65-16.25,27.36-.15.04-.26.03-.33-.02-.07-.05-.1-.12-.11-.23-.01-.09.02-.15.1-.2Zm-76.37,6.89c-1.43,2.51-4.75,7.37-3.82,10.95.22.87.11,1.43-.32,1.68-.49.29-.78.15-.87-.42-.73-5.04.74-9.26,4.43-12.67.13-.16.36-.19.52-.06.16.13.19.36.06.52ZM55.08,9.11c.89-.58.97-.48.24.29-4.93,5.25-8.48,11.32-10.65,18.19-.24.75-.41.74-.52-.05-.89-6.56,5.99-15.21,10.93-18.43Zm-29.56,49.46c-1.81,3.79-1.45,7.7-1.29,11.75.02.37-.1.42-.37.17-6.54-6.26,1.76-16.39,7.04-20.04.23-.16.55-.11.73.11l.17.2c.11.13.09.25-.05.35-2.71,1.94-4.79,4.43-6.23,7.46Zm32.38,159.34c-4.58,8.35-9.06,16.76-13.45,25.22-6.6,12.73-11.59,26.07-14.97,40.02-.31,1.27-.61,2.55-.92,3.82-.06.25-.16.44-.3.57-.23.21-.33.17-.31-.14,1.05-15.89,1.53-31.8,1.46-47.72-.04-7.96.96-15.08,2.08-22.69,1.96-13.35,3.78-26.71,5.45-40.1.14-1.12.08-3.46.44-5.11.09-.44.24-.46.44-.06,6.97,13.79,14.89,27.71,20.46,42.09.57,1.46.41,2.66-.38,4.1Zm84.83,122.32c-.28.17-.64.09-.81-.19-.05-.08-.08-.18-.09-.28l-.99-20.36c-.06-1.21.14-1.25.61-.14,1.78,4.26,6.72,17.55,1.28,20.97Z"/>
  </g>
</svg>