<?xml version="1.0" encoding="UTF-8"?>
<svg id="Layer_2" data-name="Layer 2" xmlns="http://www.w3.org/2000/svg" viewBox="0 0 204.42 714.21">
  <defs>
    <style>
      .cls-1 {
        stroke-width: 0px;
      }
    </style>
  </defs>
  <g id="Layer_1-2" data-name="Layer 1">
    <path class="cls-1" d="m201.04,223.79c-6.28-28.01-12.3-56.8-21.31-83.64-2.18-6.49-5.56-13.96-10.71-18.93-2.88-2.78-6.85-4.53-10.65-6.16-.34-.14-.46-.39-.37-.74,1.25-5.01.86-9.67-1.17-14-2.7-5.73-6.43-12.76-11.18-21.11-1.32-2.32-2.29-4.69-2.91-7.12-2.6-10.15-4.69-20.41-6.27-30.77-1.43-9.36-4.83-18.76-10.22-28.19C121.66,5.09,114.96.72,106.17.02c-1.38-.11-2.9.29-4.57,1.22-.29.16-.6.19-.92.1-18.76-5.57-32.15,16.15-35.65,31.06-1.25,5.29-2.2,9.71-2.87,13.26-2.18,11.55-5.69,20.97-9.96,32.37-2.77,7.42-3.96,15.26-3.57,23.52.08,1.69-.13,3.31-.62,4.86-3.22,10.1-5.5,21.71-4.14,32.32.04.33-.05.63-.27.88-4.85,5.72-8.33,12.62-10.45,20.7-3.87,14.78-7.02,28.33-9.43,40.65-7.21,36.86-13.27,74.27-18.56,113.59C2.36,335.39.64,355.05,0,373.53c-.08,2.31.4,5.59,1.44,9.84,1.68,6.86,1.11,14.11,1.28,21.1.18,6.96,4.4,5.36,9.44,5.81.33.03.54.21.65.53.91,2.86,1.91,7.27,4.1,9.39.25.24.57.39.91.42,3.35.36,6.36,1.55,9.04,3.57.3.23.72.24,1.04.03,1.19-.8,2.45-.79,3.76.04.03.02.06.04.09.05.34.14.72-.01.87-.35l1.08-2.56s.01-.03.01-.04c.16-.45-.07-.94-.51-1.1-1.19-.41-2.28-.98-3.29-1.71-.27-.19-.24-.3.09-.32l2.92-.19c.22-.01.43-.13.56-.32.22-.33.13-.76-.2-.97-2.45-1.65-7.23-2.24-7.29-5.67,0-.41.2-.58.61-.5l5.99,1.15c.37.07.62-.06.76-.41l2.91-7.38c.21-.53.38-.52.53.03,4.95,19.07,7.17,37.97,10.56,61.6,5.99,41.85,11.97,83.7,17.94,125.55.05.37-.09.64-.44.79-1.54.68-2.32,1.54-2.42,3.35-.2,3.61-.04,7.2.47,10.79.79,5.49,9.08,5.02,13.49,5.02,1.95,0,3.18,1.06,3.69,3.21,2.29,9.69,4.62,19.55,6.99,29.58.04.14.04.29,0,.43-.11.5-.61.81-1.11.7-1.82-.41-3.29.53-4.38,2.07-4.69,6.63-9.77,12.96-15.23,18.99-2.57,2.85-5.26,4.98-8.08,6.4-4.56,2.3-8.47,4.53-10.36,9.47-1.37,3.56-2.04,7.31-2.02,11.26,0,.31.1.6.29.86,3.34,4.54,17.64,4.42,23.16,4.05,8.62-.59,14.91-1.28,21.09-6.32,1.24-1.01,2.44-1.65,3.6-1.9,5.76-1.25,11.54-.86,17.56-2.73,5.74-1.77,5.13-5,4.53-10.44-.28-2.53-.81-5.01-1.58-7.43-1.69-5.26-1.21-11.45-1.68-15.74-.21-1.99-1.3-2.69-3.26-2.09-.3.09-.61-.07-.7-.36-1.29-3.88-2.21-8.06-2.76-12.55-1.21-9.79-2.13-18.38-2.74-25.75-.1-1.19-.08-2.23.05-3.11.05-.33.34-.57.67-.56,9.7.25,6.78-9.99,6.21-15.54-.45-4.39-2.48-4.08-6-4.63-.34-.05-.52-.25-.54-.59-1.61-22.33-3.35-44.69-4.42-67.05-2.14-44.51-4.48-89.02-7.03-133.51-.3-5.17-.51-10.38-.63-15.63,0-.09.03-.17.1-.23.12-.11.31-.11.42.02.31.34.53.78.66,1.33,7.16,30.6,12.51,61.52,16.05,92.75,4.28,37.81,9.6,75.48,15.97,112.99.49,2.9,1.1,8.19,1.82,15.86.03.3-.15.58-.44.67-2.3.74-3.38,1.96-3.41,4.53-.03,3.57,0,7.14.11,10.72.07,2.36,1.23,3.8,3.58,4.47,4.03,1.16,8.04,1.72,12.01,1.68.76-.01,1.41.54,1.53,1.3,1.87,12.87,3.36,25.55,4.47,38.03.16,1.81,1.04,4.26-1.18,5.12-.85.33-1.42,1.15-1.44,2.07-.07,3.38-.24,6.74-.53,10.08-.17,2.04-.74,4.98-1.7,8.83-.77,3.09-1.3,6.25-1.6,9.46-.5,5.44,2.36,8.62,7.79,8.77.39.01.57.21.56.6-.07,2.71-.56,5.75,1.39,7.9,6.19,6.79,24.31,5.28,32.01,3.99,10.91-1.82,6.71-8.86,5.33-16.05-1.08-5.61-5.61-8.28-7.82-12.24-3.43-6.13-6.3-13.56-8.61-22.28-.56-2.13-2.09-3.64-4.6-4.53-.31-.11-.52-.4-.53-.72-.43-12.41-.48-24.82-.14-37.25.01-.62.17-1.9.46-3.83.06-.37.27-.52.64-.43,3.36.75,6.14-.12,8.33-2.63.25-.29.39-.64.42-1.02.25-4.19.25-8.4,0-12.64-.15-2.53-1.29-3.4-3.58-3.94-.39-.1-.59-.35-.6-.75-.41-32.37-1.75-64.71-4.02-97.01-.91-12.88-3.42-26.99-4.41-38.35-2.48-28.29-4.69-56.6-6.64-84.93-1.16-16.93-3.51-33.09-5.97-49.8-.13-.89.24-1.2,1.09-.93,6.65,2.05,13.39,1.57,20.21-1.42,9.03-3.96,15.2-10.09,18.49-18.4,5.23-13.2,9.94-26.58,14.14-40.15,4.12-13.3,2.18-25.68-1.04-40.01ZM54.99,107.3c-1.05,8.37-1.52,16.75-1.42,25.15,0,.27-.13.52-.36.66l-1.38.85c-.48.3-.74.17-.77-.4-.51-9.24.71-18.25,3.67-27.02.03-.07.1-.1.16-.08.04.01.07.05.08.09.05.21.05.46.02.75Zm1.71,21.87c0,.22-.2.39-.42.38h-.04c-.22-.01-.39-.2-.38-.42l1.11-27.68c0-.22.2-.39.42-.38h.04c.22.01.39.2.38.42l-1.11,27.68Zm-3.76-23.63c-2.92,11.33-4.83,18.59-3.87,29.18.02.3-.1.6-.33.79l-2.8,2.36c-.49.41-.73.3-.73-.33-.02-3.39-.12-6.94.51-10.32,3.12-16.84,7.65-32.61,12.49-49,.01-.05.05-.07.1-.06.01,0,.03.01.05.01.04,0,.06.03.05.07-1.49,9.18-3.04,17.86-5.47,27.3Zm4.5-33.05c-2.15,8.67-4.69,17.53-7.63,26.57-.11.33-.17.32-.18-.03-.3-9.2,2.71-16.81,6.36-27.86,1.02-3.09,1.77-5.3,2.26-6.62.08-.18.29-.27.47-.19.14.06.22.2.22.35-.21,2.03-.71,4.63-1.5,7.78ZM120.18,7.91c-2.87-2.46-6.09-4.34-9.66-5.64-.07-.03-.1-.1-.07-.17.02-.05.07-.09.13-.08,3.48.57,7.72,2.97,9.77,5.73.43.57.37.63-.17.16Zm32.34,103.62s-.07.02-.11.03c-.05,0-.18-.05-.38-.18-.12-.08-.22-.18-.29-.31-5.67-9.64-8.42-21.47-10.33-32.42-.04-.23.03-.27.22-.13.24.18.42.46.54.84,3.27,10.57,6.84,21.02,10.73,31.33.13.34-.04.71-.38.84Zm4.91,1.22c-.11.71-.78,1.2-1.5,1.09-.51-.08-.93-.46-1.06-.96-.34-1.32-.45-2.75-.9-4.08-3-8.92-6.21-17.76-9.63-26.52-.63-1.62-1.17-3.38-1.6-5.27-.11-.49-.04-.51.2-.08,3.94,6.97,7.89,14.07,11.85,21.29,2.55,4.65,3.43,9.49,2.64,14.53Z"/>
  </g>
</svg>