<?xml version="1.0" encoding="UTF-8"?>
<svg id="Layer_2" data-name="Layer 2" xmlns="http://www.w3.org/2000/svg" viewBox="0 0 181.81 761.25">
  <defs>
    <style>
      .cls-1 {
        stroke-width: 0px;
      }
    </style>
  </defs>
  <g id="Layer_1-2" data-name="Layer 1">
    <path class="cls-1" d="m181.46,329.88c-1.15-22.55-2.79-45.07-4.92-67.55-2.88-30.27-4.89-60.65-7.17-90.97-.55-7.27-1.36-13.43-2.44-18.49-1.15-5.37-3.74-10.02-7.77-13.95-2.16-2.09-5.62-3.61-8.14-5.91-.85-.12-1.27-.54-1.28-1.27-.03-2.17-.06-4.35-.09-6.53-.06-4.78-1.74-9.2-2.68-13.87-.01-.06,0-.12.04-.18,0-.01.02-.02.03-.04.01-.01.02-.03.03-.04.02-.01.04,0,.06-.02.02,0,.03-.03.06-.04.02,0,.04,0,.05,0,.02,0,.03,0,.05,0,.06.01.12.04.16.09,2.31,3.41,3.85,7.09,4.6,11.02.68,3.53-.55,7.15-1.03,10.86.87-.54,1.36-.99,1.47-1.35,2.8-9.01.05-15.76-4.52-23.41-.17-.29-.26-.61-.25-.94.15-9.01-2.5-19.19-4.69-27.77-1.06-4.16-2.83-9.7-5.32-16.61-3.41-9.46-6.72-18.57-9.38-28.58-2.97-11.22-6.76-20.59-15.8-28.32-5.28-4.51-13.99-7.91-20.77-4.86-.29.13-.59.15-.9.05-10.68-3.51-21.87,3.91-27.94,12.39-4.13,5.79-6.99,11.88-8.57,18.27-4.42,17.88-9.04,35.71-13.86,53.5-1.03,3.81-2.04,8.25-3.03,13.32-.34,1.74-.99,3.38-1.95,4.93-5.89,9.51-11.88,18.39-4.83,29.51.18.29.11.49-.22.6-6.2,2.03-10.6,5.8-13.21,11.31-2.9,6.14-4.65,13.33-5.25,21.56-1.4,19.25-2.72,38.51-3.95,57.78-.4,6.29-.93,12.94-1.6,19.94-1.89,20.08-3.5,40.18-4.82,60.3-.82,12.55-1.25,19.2-1.28,19.97-.34,7.62-.43,16.46-.27,26.52.03,2.06.25,3.82.67,5.27,1.38,4.78.97,9.95.98,14.92,0,.52.27.79.78.81l4.02.12c.25,0,.46.2.49.45.24,1.97.28,3.77.11,5.42-.68,6.74-1.81,13.75-3.4,21.03-.33,1.52-.32,3.01.03,4.48,1.85,7.59,3.36,12.61,4.53,15.06.76,1.58,3.28,4.78,7.57,9.6.11.13.16.29.15.46l-2.06,32.48c-.02.32-.09.63-.21.93-.26.63-.18,1.18.23,1.65,1.17,1.35,2.97,2.5,5.4,3.46,8.22,3.25,16.7,5.53,25.45,6.86.35.05.5.24.47.59-.13,1.34-.16,2.22-.07,2.65,2.7,13.24,4.12,26.59,4.25,40.06.13,12.08-1.99,27.1-2.52,39.7-.59,14.13.49,28.78,3.25,43.95,4.19,23.08,8.35,46.17,12.47,69.26,2.05,11.47,3.28,21.23,3.71,29.29.17,3.23-1.54,7.44-2.07,10.56-1.82,10.63-5.38,20.67-10.67,30.12-2.57,4.57-4.65,13.39-.21,18.14,10.99,3.61,22.15,3.75,33.46.43,4.83-3.53,1.98-16.04,1.39-21.07-.3-2.57-.28-5.02.05-7.35.88-6.22,1.76-11.11,1.32-18.52-.19-3.23-.7-6.91-1.55-11.04-2.44-11.89-4.71-23.61-4.68-35.82.09-36.13,0-72.27-.25-108.4-.03-4.93.17-9.45.61-13.56.65-6.05,1.72-11.99,1.67-18.03-.13-15.64-.22-31.28-.29-46.92,0-.35.18-.53.53-.53l9.19-.02c.36,0,.54.18.55.53.25,14.97.33,29.94.26,44.89-.04,8.87,2.23,17.17,2.22,25.94-.03,52.36-.22,92.33-.56,119.9-.05,3.91-.31,8.83-.78,14.74-1.26,15.67-7.87,29.4-4.28,44.63,2.14,9.05-2.68,18.24-.31,27.67.99,2.12,2.3,3.37,3.91,3.74,8.2,1.9,16.95,1.95,26.26.16,5.08-.98,7.76-3.84,8.04-8.58-.11-4.28-.53-7.06-1.24-8.33-5.32-9.49-9.06-19.09-11.21-28.78-1.18-5.28-2.77-10.21-2.63-15.03.15-4.95.59-9.6,1.34-13.97,3.91-23.01,8.87-50.87,14.86-83.6,3.84-20.95,3.29-42.9,1.48-63.81-.69-8.01-1.01-14.25-.96-18.72.2-14.85,1.44-29.64,3.71-44.37.05-.34.25-.53.59-.58,6.24-.85,27.93-5.22,30.95-10.88.16-.3.19-.61.08-.92-.38-1.17-.61-2.63-.69-4.38-.43-9.78-.84-19.58-1.23-29.39-.01-.34.09-.64.3-.91,2.95-3.68,6.24-7.1,7.78-11.62,1.59-4.69,2.89-9.46,3.89-14.33.19-.92.18-1.84-.04-2.75-1.99-8.43-3.05-16.94-3.17-25.55,0-.07,0-.14.02-.2.1-.47.57-.76,1.04-.66,1.55.36,3.02.23,4.42-.39.36-.16.59-.52.59-.92-.03-3.74,0-7.48.07-11.22.06-2.54,1.35-4.81,1.47-7.05.33-6.22.24-15.38-.15-22.99ZM17.24,417.16c0,.34-.18.47-.51.4-.79-.17-1.19-.64-1.22-1.42-.19-5.27.02-10.48.62-15.63.02-.28.26-.48.54-.46.19.02.35.13.42.31.47,1.05.19,2.54.2,3.4.06,4.45.04,8.91-.05,13.4Zm14.3-285.24c-2.02-3.84-3.39-8.05-2.21-12.47.87-3.24,2.2-6.27,4.01-9.09,1.13-1.76,2.73-4.85,4.38-7.03.45-.6.6-.53.45.2-.8,3.98-1.53,7.95-2.2,11.92-.72,4.28-3.01,9.84-1.72,15.47.17.79-.34,1.56-1.13,1.73-.63.13-1.27-.16-1.58-.73Zm5.5-6.93c-.04.12-.17.19-.29.15-.09-.03-.16-.11-.16-.21-.01-.88.09-1.75.32-2.6.16-.59.27-.58.34.02.1.9.03,1.78-.21,2.64Zm9.88,135.74c-4.47,9.91-8.43,20.31-11.88,31.2-.32,1.02-.58,2.83-1.33,3.93-.1.16-.3.2-.46.09-.11-.07-.17-.2-.15-.32,1.35-11.78,2.74-23.75,3.43-35.34.93-15.72,1.63-31.36,2.1-46.92.01-.27.24-.48.51-.46.22.01.41.17.46.39l7.63,45.02c.14.82.03,1.65-.31,2.41Zm-7.81-130.45c.31-4.06,1.23-7.96,2.78-11.7.15-.37.27-.74.35-1.13.03-.13.06-.13.09,0,.03.1.07.21.11.33.05.13.06.27.03.41-.75,3.49-1.16,7.02-1.25,10.59,0,.35-.15.62-.43.83l-1.24.91c-.33.24-.47.16-.44-.24Zm6.6-34.99c-2.37,7.57-4.89,15.08-7.57,22.52-.03.06-.1.09-.16.06-.04-.02-.07-.06-.07-.11.58-5.75.88-11.16,3.12-16.57,1.98-4.79,4.26-9.38,6.03-14.26.02-.11.13-.17.24-.15.11.02.17.13.15.24-.3,2.77-.88,5.53-1.74,8.27Zm3.14-24.52c-.64,4.59-1.51,8.51-2.61,11.76-1.8,5.35-3.91,10.58-6.32,15.69-.15.32-.19.65-.13,1,.17.99.02,1.91-.45,2.77-.39.71-.52.67-.39-.13,2.48-15.33,7.15-30.81,11.38-45.76.31-1.1.51-2.22.58-3.36.02-.36.09-.58.21-.67.2-.14.47-.1.61.1.07.1.1.22.08.34-1.13,6.09-2.11,12.18-2.96,18.26Zm99.32,61c-.03.32-.2.43-.51.32-.31-.11-.47-.27-.48-.47-.07-5.96-.65-10.21-1.76-12.74-3.1-7.08-7.02-15.67-8.47-23.23-.57-2.94-.25-3.04.94-.29,1.85,4.25,3.98,8.36,6.37,12.34,1.59,2.64.83,5.16,1.69,7.37,2.11,5.39,2.85,10.96,2.22,16.7Zm-4.02-1.53c-.13.41-.56.64-.98.52-.3-.09-.51-.35-.54-.66l-1.84-14.27c-.12-.89-.03-.92.27-.07,1.11,3.13,4.05,11.41,3.09,14.48Zm-14.16-82.78c-.07-.36.05-.43.34-.21.19.14.33.34.41.59,3.09,9.14,6.34,18.23,9.73,27.27.79,2.09,2,6.24,2.11,8.39.06,1.33-.15,1.38-.62.13-2.73-7.12-5.6-14.37-8.62-21.75-.96-2.35-2.08-7.15-3.35-14.42Zm2.04,16.68c.11-.02.22.04.26.14,2.12,4.43,3.71,9.58,5.45,13.57,2.59,5.92,5.76,12.31,7.06,18.52.59,2.77,1.01,5.47,1.27,8.1.09.84-.09.9-.53.18-7.45-12.22-12.03-26.09-13.69-40.24-.03-.12.05-.25.18-.27Zm17.39,238.26c-.02.19-.19.33-.38.31-.15-.02-.27-.13-.31-.27-3.44-14.04-7.9-27.64-13.37-40.81-.3-.74-.4-2.38-.35-3.01,1.39-15.05,3.7-30.08,6.95-45.08.04-.17.2-.27.37-.23.13.03.23.15.25.28,1.52,22.94,3.15,45.94,4.88,69.01.43,5.73,1.07,11.44,1.91,17.13.14.95.16,1.84.05,2.67Zm16.03,113.49c-.04.08-.07.16-.1.23-.04.07-.09.13-.13.19-.04.06-.08.13-.13.19-.05.06-.1.1-.15.15-.05.05-.09.1-.15.14-.05.04-.11.06-.17.1-.05.03-.1.07-.16.09-.06.02-.12.02-.18.04-.06.01-.12.03-.18.03,0,0,0,0,0,0l-.34-17.54c.98-.02,1.81,1.33,1.84,3.02l.22,11.42h0c0,.11,0,.21-.01.32,0,.1,0,.2-.01.3,0,.1-.03.19-.05.28-.02.1-.03.2-.05.29-.02.09-.05.17-.07.25-.03.09-.05.18-.08.27-.03.08-.07.15-.1.23Z"/>
  </g>
</svg>