<?xml version="1.0" encoding="UTF-8"?>
<svg id="Layer_2" data-name="Layer 2" xmlns="http://www.w3.org/2000/svg" viewBox="0 0 198.91 762.87">
  <defs>
    <style>
      .cls-1 {
        stroke-width: 0px;
      }
    </style>
  </defs>
  <g id="Layer_1-2" data-name="Layer 1">
    <path class="cls-1" d="m198.6,348.45c-.94-17.19-3.11-40.19-6.52-68.99-1.24-10.51-4.54-35.09-9.9-73.73-.85-6.17-2.16-14.09-3.91-23.76-2.02-11.16-7.33-20.26-15.92-27.31-5.69-4.67-13.36-9.67-23.02-15-1.39-.76-2.53-1.77-3.44-3.02-3.29-4.52-6.63-9.15-10.02-13.9-.42-.6-1.2-.83-1.88-.55l-2.8,1.14c-.06.02-.11.04-.18.05-.37.04-.7-.22-.74-.59-1-7.9-1.24-15.83-.73-23.79.02-.27.12-.5.31-.69,4.13-4.18,7.05-9.05,8.74-14.62.45-1.45,1.12-2.82,2.01-4.11,3.25-4.69,7.79-15.15,3.11-20.23-.22-.24-.29-.52-.2-.83l1.72-6.33c.13-.47.35-.52.66-.13,1.85,2.3,3.81,2.25,5.87-.15.17-.19.13-.25-.12-.18-3.24.93-3.73-3.22-4.47-5.2-.03-.06-.02-.14.03-.19.07-.09.2-.1.29-.04l2.71,2.11c.29.23.68.24.98.04l4.72-3.16c.12-.09.17-.24.13-.38-.06-.18-.25-.28-.43-.22l-3.41,1.11c-.14.05-.29.07-.43.06-.74-.01-1.33-.62-1.32-1.36.04-2.14-.33-4.2-1.11-6.19-.04-.1-.02-.22.05-.31.11-.14.31-.16.45-.05,1.43,1.18,2.26,2.71,2.47,4.58.01.12.06.23.14.32.21.25.58.28.83.06l1.63-1.43c.35-.31.33-.6-.04-.87-1.77-1.32-3.56-2.58-5.39-3.78-.42-.28-.67-.64-.75-1.08-.06-.3.05-.39.33-.26l4.85,2.16c.47.21.87.1,1.18-.31l3.12-4.21c.08-.11.09-.22.03-.33-.05-.09-.09-.19-.14-.29-.14-.31-.32-.33-.53-.06l-1.58,2.03c-.06.08-.15.15-.25.19-.31.13-.66-.02-.78-.33l-.96-2.26c-.19-.44-.05-.74.41-.89,1.43-.47,2.51-1.03,3.25-1.67.31-.26.26-.6-.17-1.03,0,0-.02-.02-.03-.02-.17-.14-.42-.12-.56.04-1.91,2.26-4.1,2.65-6.58,1.17,0,0-.02-.01-.03-.02-.32-.21-.41-.64-.19-.96.67-1,1.45-1.91,2.34-2.74.18-.17.29-.32.32-.46.05-.18.03-.35-.06-.5-.04-.06-.09-.11-.14-.15-.22-.15-.52-.09-.68.13-.71,1.05-1.72,1.54-3.03,1.45-.29-.02-.55-.19-.69-.46-.57-1.12-.9-2.08-1-2.89-1.13-8.86-6.06-14.05-14.8-15.57-.17-.03-.38.01-.62.11-.3.12-.55.05-.75-.2C115.05.02,109.73,1.19,101.32.12c-7.89-1.01-16.09,4.56-18.23,12.18-.03.09-.07.16-.12.22-.13.13-.25.22-.38.29-.36.19-.47.09-.34-.3l1.29-3.61c.03-.09.02-.2-.03-.29-.09-.16-.3-.22-.46-.12-1.85,1.12-2.88,2.77-3.1,4.95,0,.02,0,.04-.01.06-.06.23-.29.37-.52.32-10.28-2.46-19.53,5.46-18.07,16.03.05.33,0,.65-.16.95-2.53,4.88-5.98,12.37-.06,15.86.25.15.51.15.76,0l.59-.36c.09-.06.2-.09.3-.09.35-.01.64.26.66.6.13,3.98,1.67,7.27,4.61,9.86.29.25.28.48-.05.69-8.3,5.24-2.68,16.74,3.04,21.42.77.63,2.29.99,4.57,1.09.33.01.56.17.7.46,2.19,4.43,3.37,7.89,3.56,10.38.71,9.19-.17,18.22-2.64,27.09-.03.09-.07.18-.12.27-.29.45-.89.58-1.33.29-2.3-1.48-6.06-3.64-8.38-.83-2.77,3.33-5.33,6.84-7.68,10.52-.18.28-.43.48-.74.61-8.84,3.59-17.65,7.27-26.42,11.05-15.03,6.48-21.31,19.88-24.04,35.55C3.05,206.66.24,238.32.1,270.21c-.14,30.32-.53,61.05,2.37,91.24,1.04,10.86,2.26,22.44,6.94,30.79.77,1.37,1.22,2.78,1.37,4.23.61,5.83,1.37,11.67,2.29,17.5.05.32.35.54.67.49l2.74-.43c.37-.06.59.09.67.45,1.28,5.93,9.34,10.78,14.6,12.68.32.11.48.34.49.68.43,35.39-.05,70.76-1.46,106.12-1.7,42.55.01,85.82,3,128.3.09,1.27-.07,2.88-.48,4.84-.59,2.86-.52,5.78.22,8.76.07.3.23.55.47.74,2.07,1.66,3.94,2.36,5.59,2.1,1.49-.23,2.37.35,2.66,1.76,1.21,5.87,1.93,11.34,2.14,16.4.08,1.93-.23,3.95-.93,6.04-2.79,8.26-4.85,16.61-9.36,24.19-4.34,7.3-11.07,19.65-9.23,28.12,2.38,11,43.3,10.28,43.76-3,.07-1.85-.2-5.58-.79-11.19-.3-2.83,2.14-5.92,2.75-8.75,1.91-8.89,1.82-17.41-.29-25.55-.81-3.11-1.32-5.94-1.54-8.47-.57-6.53-2.14-12.13-3.21-18.37,0-.05-.02-.11-.02-.16-.04-.8.57-1.48,1.37-1.53,7.13-.38,6.44-8.03,5.26-12.91-.47-1.93-.7-3.35-.69-4.26.49-52.03.7-86.21.63-102.56,0-1.28-.4-3.27-1.2-5.98-.09-.32-.03-.61.2-.86,2.59-2.88,3.57-6.27,2.96-10.18-.64-4.08-1.17-6.76.12-10.87,2.91-9.23,4.91-18.93,5.98-29.1,3.16-29.92,7.7-60.43,13.61-91.54.28-1.51,1.08-3.26,1.51-4.8.03-.13.14-.23.28-.25.18-.02.33.11.35.29,6.17,41.82,7.5,84.07,7.2,126.29-.31,42.95-.51,85.91-.62,128.86,0,1.11-.25,3.01-.72,5.7-.45,2.61-.38,5.28.21,8.01.06.32.24.61.5.81,1.66,1.31,3.56,2.04,5.69,2.19.35.03.62.32.62.67-.07,6.9-.69,13.75-1.86,20.55-.03.17-.16.3-.33.35-.24.06-.47-.09-.53-.33l-.5-2.19c-.06-.28-.33-.47-.62-.45-4.21.35-3.15,7.26-4.2,10.23-1.83,5.18-2.92,10.51-3.27,16-.09,1.37-.43,2.88-1.04,4.53-1.09,2.98-1.48,6.09-1.16,9.32.57,5.78,22.32,6.05,26.82,6.12,6.08.1,10.7.93,13.85,2.48,14.31,7.06,29.85,9.31,46.63,6.76,3.38-.51,6.09-1.61,8.13-3.28.27-.23.45-.55.49-.9,1.14-10.21-3.39-15.12-12.07-19.76-5.07-2.7-10.08-5.5-15.04-8.4-3.91-2.29-6.82-5.07-8.71-8.35-4.41-7.63-8.75-12.4-17.4-15.24-1.22-.4-1.97-1.64-1.75-2.91.33-1.88-.33-3.12-1.97-3.71-.38-.14-.63-.49-.63-.89l-.09-9.13c0-.35.17-.57.5-.66,2.93-.78,5.59-1.11,6.25-4.63.49-2.61.49-5.18.02-7.72-.39-2.11-.54-3.82-.45-5.13,3.15-44.47,7.1-88.9,9.62-133.41.37-6.55.91-13.2,1.62-19.94,3.55-33.53,6.39-66.42,8.54-98.67.35-5.13.67-5.13.97,0,.14,2.24-.49,7.74,2.02,9.87.26.21.6.29.92.21,5.9-1.57,4.6-8.44,4.53-12.93,0-.46.22-.66.68-.61l3.11.39c.43.05.75.43.73.86-.11,1.87-.24,3.74-.4,5.59-.16,1.85-.68,3.4-1.56,4.65-2.21,3.11-5.39,5.81-9.54,8.1-.83.46-1.18,1.25-1.07,2.37.33,3.12,4.07,3.65,6.4,2.46,5.16-2.65,9-4.57,11.51-5.75,5.85-2.76,8.05-8.24,10.02-13.97.15-.43.41-.52.79-.27l1.59,1.03c.22.15.48.23.75.23.79.02,1.44-.61,1.46-1.4.12-6.41.3-12.93.55-19.56.06-1.57.45-3.12,1.17-4.65,4.91-10.44,5.05-23.59,4.34-36.51ZM123.27,9.77c.07-.1.2-.15.32-.13,5.43.99,9,4.1,10.73,9.33.22.65.12.71-.29.16-3.68-4.85-6.53-5.99-10.69-8.91-.15-.1-.18-.3-.07-.45Zm-62.47,35.89c-.14.03-.27-.03-.34-.15-1.26-1.91-1.66-4.02-1.19-6.31.25-1.22.48-1.22.71.01l1.09,6.05c.03.18-.08.36-.27.4Zm13.67-29.02c-2.93,1.49-5.52,3.37-7.79,5.65-1.68,1.68-2.36,3.41-3.35,5.65-.07.16-.27.23-.43.15-.11-.05-.19-.17-.18-.29.09-4.78,7.04-11.79,11.68-11.52.47.03.49.15.07.36Zm12.02-5.68c-.09.1-.25.11-.35.02-.09-.08-.11-.2-.06-.3,2.6-5.38,8.56-10.81,14.79-9.74.71.12.72.31.05.56-6.41,2.39-10.16,5.04-14.43,9.46Zm19.1-7.11c-3.51.47-6.84,1.56-9.97,3.27-.11.07-.26.05-.33-.07-.07-.11-.05-.26.07-.34,2.98-2.41,6.38-3.61,10.19-3.61.2-.01.38.14.39.35s-.14.38-.34.39Zm11.2,3.49c-2.67-1.57-5.35-2.48-8.03-2.71-.55-.05-.97-.37-1.26-.96-.13-.27-.05-.4.26-.37,3.39.3,7.72.18,9.61,3.47.53.92.33,1.11-.58.57Zm22.77,691.27s0,0,0,0l.02-.03c.74-.8,4.35,1.28,8.07,4.65l.3.27c3.72,3.38,6.15,6.77,5.41,7.58,0,0,0,0,0,0l-.03.03c-.06.06-.16.07-.22,0l-13.54-12.28c-.07-.06-.07-.16-.01-.23Z"/>
  </g>
</svg>