<?xml version="1.0" encoding="UTF-8"?>
<svg id="Layer_2" data-name="Layer 2" xmlns="http://www.w3.org/2000/svg" viewBox="0 0 195.07 836.05">
  <defs>
    <style>
      .cls-1 {
        stroke-width: 0px;
      }
    </style>
  </defs>
  <g id="Layer_1-2" data-name="Layer 1">
    <path class="cls-1" d="m161.22,615.06c8.93-61.11,15.94-122.44,21.01-183.99,1.05-12.82,3.71-29.17,7.98-49.04.93-4.36,3.43-6.77,3.58-11.57.17-5.72,1.52-11.85,1.24-16.85-.23-4.14-1.02-8.17-2.37-12.1-.67-1.99-.98-3.74-.93-5.26.21-5.47,1.54-10.59-.01-16.1-.3-1.06-1.31-3.1-3.04-6.12-2.67-4.68-3.89-9.84-3.66-15.48.01-.34.12-.64.33-.91,1.51-1.94,2.82-4,3.94-6.19,2.48-4.86-1.59-12.04-2.97-16.76-.71-2.42-1.09-5.2-1.15-8.35-.21-10.61-.73-25.57-1.56-44.88-.09-2.15-.53-4.32-.6-5.85-.61-14.96-2.11-29.83-4.48-44.61-.43-2.69-1.4-5.54-3.5-6.89-7.27-4.68-16.98-10.03-29.13-16.06-1.81-.9-4-2.24-6.58-4.03-4.03-2.79-7.2-6.84-10.91-10.34-.24-.23-.38-.55-.38-.88l.16-21.59c0-.35.13-.68.37-.93,5.6-5.91,9.13-12.88,10.58-20.93.06-.33.25-.54.58-.61,6.64-1.57,9.62-21.42,2.46-21.79-.34-.02-.48-.2-.43-.53.95-6.73,2.68-13.27,5.19-19.61.17-.42.46-.56.89-.41l1.67.55c.11.03.23.01.32-.06.15-.12.18-.33.06-.48l-3.02-3.76c-.1-.12-.12-.29-.06-.43.09-.22.35-.33.57-.24,4.59,1.94,8.01.8,10.27-3.43.11-.16.08-.38-.07-.51-.16-.14-.41-.13-.55.04-2.2,2.11-4.81,2.59-7.84,1.44-.49-.19-.48-.35.03-.48,2.39-.63,5.55-2.48,4.48-5.32-.13-.34-.37-.44-.7-.31-1.73.68-3.5.91-5.33.68-.28-.04-.51-.26-.57-.54-.07-.37.17-.73.54-.8l5.06-.89c.35-.06.47-.26.36-.6-.58-1.79-1.75-2.87-3.52-3.23-.33-.07-.63.02-.88.26-.71.69-1.57,1.03-2.58,1.02-.57-.01-.65-.21-.24-.6.48-.47,1.05-.69,1.71-.68.29,0,.53-.11.7-.36l1.72-2.47c.11-.16.16-.35.14-.55l-.35-3.61c-.02-.21-.08-.22-.19-.05-1.92,3.08-3.98,4.53-6.18,4.35-.28-.03-.44-.17-.49-.42,0-.02,0-.04,0-.06-.02-.28.19-.51.47-.53,1.63-.07,2.22-.78,1.76-2.13-.06-.19-.02-.4.12-.56l2.31-2.58c.19-.22.24-.53.12-.79l-1.8-4c-.07-.17-.22-.28-.4-.3-.27-.03-.51.17-.54.44l-.27,2.07c-.11.65-.67,1.12-1.33,1.13-.75,0-1.37-.6-1.37-1.35.09-2.8-.98-4.98-3.22-6.53-.3-.21-.53-.48-.69-.8-.81-1.62-1.87-3.06-3.16-4.31-.45-.45-.6-.36-.43.25,1.01,3.61.67,7.11-1.02,10.5-.21.42-.7.8-1.48,1.15-.26.11-.32.05-.17-.2,3.64-6.12,2.37-11.16-3.81-15.13-1.15-.75-2.29-1.09-3.4-1.02-.09,0-.18.06-.23.14-.08.14-.03.32.11.4,3.31,1.77,5.08,4.54,5.32,8.33,0,.1-.04.21-.12.27-.14.11-.34.09-.45-.05-2.85-3.72-6.63-5.2-11.34-4.44-.24.04-.36.18-.37.43l-.02.82c0,.17-.1.32-.24.41-.24.15-.55.08-.7-.16-.73-1.2-1.78-1.79-3.15-1.77-.4,0-.73-.15-1-.44C109.72,1.16,106.38-.2,102.34.02c-.54.03-.58.19-.11.48,2.11,1.3,4.46,1.15,5.62,3.64.19.41.05.61-.4.6l-3.12-.07c-.25,0-.36.11-.31.36.09.48-.13.74-.64.77-2,.13-3.61.37-4.83.72-.32.09-.58.27-.79.54-.63.83-1.51,1.29-2.62,1.4-.11,0-.14-.04-.09-.14.05-.09.07-.2.07-.31.01-.23-.07-.27-.25-.12l-4.92,4.15c-.27.23-.5.5-.67.81l-1.46,2.56c-.41.71-.57.66-.47-.16.34-2.81,1.73-4.97,4.18-6.47.24-.15.24-.29,0-.42-.14-.07-.27-.08-.4-.02-4.18,2.03-6.16,5.41-5.95,10.13.02.49-.11.53-.38.13-2.52-3.69-.74-6.1,1.2-9.43.29-.49.2-.56-.25-.23-3.37,2.45-4.26,5.63-2.68,9.56.15.37.02.54-.37.53-8.06-.35-17.4,6.3-14.81,15.28.05.2.22.32.49.36.07.01.14,0,.2-.01.24-.07.39-.33.32-.58-2.27-7.56,6.09-13.23,12.46-13.62.66-.04,1.27.16,1.83.61.27.21.24.34-.11.38-5.37.59-9.62,3.28-12.77,8.07-.63.96-.99,1.82-1.08,2.59-.06.51.17.77.69.78h.27s.09,0,.13.02c.21.08.32.31.25.53-1,2.75-2.84,7.06-1.79,9.93.04.1.13.17.23.19.17.03.34-.08.38-.25l.31-1.98c.07-.47.23-.5.46-.08.83,1.47,1.35,3.02,1.54,4.67.04.35.23.66.52.84l.54.35c.28.18.4.54.28.86-.48,1.27-.17,2.14.94,2.59.11.04.24.03.34-.03.19-.11.25-.35.14-.53l-.16-.27s-.02-.1.02-.13c.04-.03.1-.02.13.02l.18.2c.21.28.53.27.73-.01.21-.29.21-.78,0-1.09-.66-1.13-.97-1.77-.92-1.92.51-1.77.96-1.73,1.33.12l3.59,17.98c.05.26-.05.37-.32.32-3.25-.54-5.19.88-5.82,4.26-1.14,6.07.29,11.39,4.28,15.98,1.75,2.01,3.74,2.86,5.96,2.54.34-.05.55.1.62.43.59,2.62,1.14,5.25,1.67,7.88,1.48,7.38.56,14.64.27,23-.07,2.03-1,3.05-2.81,3.06-.35,0-.65.11-.91.34-3.75,3.18-7.6,6.23-11.55,9.16-2.28,1.69-4.81,3.08-7.59,4.17-9.01,3.57-18.11,6.92-27.29,10.05-7.99,2.73-17.03,5.42-18.57,12.72-1.44,6.85-3.25,16.48-5.43,28.9-3.85,21.94-6.36,44.25-9.04,66.36-2.21,18.23-3.13,34.27-2.75,48.14.13,4.71.05,8.22,1.56,11.32,1.77,3.63,7.3,9.27,8.14,14.37,1.89,11.49,5.41,22.4,10.56,32.75.15.3.16.6.05.91-6.94,18.84-13.05,37.95-18.32,57.32-.1.36.02.73.29.98,1.31,1.15,2.8,2.02,4.47,2.61,11.76,4.11,23.88,6.42,36.35,6.92.35.02.51.2.47.55-2.9,29.69-5.36,59.41-7.37,89.17-.2,2.85.08,6.6-.31,9.84-.39,3.31-.58,5.74-.55,7.29.1,5.35.32,10.05-.23,15.76-.49,5.14-.26,10.97-.51,15.42-.85,15.36-1.74,30.64-1.94,46.14-.41,32.41-.74,64.59-.99,96.53,0,.97-.5,1.49-1.47,1.55-1.85.1-2.78.74-2.8,1.92-.09,5.02-.1,10.04-.01,15.06.03,1.94.84,3.08,2.52,3.84,4.36,1.97,8.86,3.56,13.5,4.77.37.09.55.33.56.71l.51,19.44c.01.39-.11.72-.38.99-4.21,4.34,1.13,8.13-2.14,11.09-4.85,4.41-9.6,8.93-14.26,13.56-1.31,1.3-1.56,2.71-1.81,4.43-.04.3.03.6.2.84,2.54,3.7,8.1-2.16,10.08-4.41.38-.43.51-.37.39.19-1.85,8.5-9.09,14.76-12.35,22.49-2.58,6.11-2.87,12.42-2.68,19.69.07,2.79,1.35,4.68,3.58,6.03,10.3,6.27,32.13,5.11,38.69-6.59,1.07-1.91,1.68-4.26,1.81-7.03.26-5.24-1.45-8.73,2.29-13.5,2.19-2.79,4.39-5.56,6.61-8.31.21-.26.32-.56.31-.9-.17-9.62-1.94-18.91-5.31-27.87-.27-.75-.4-1.47-.38-2.16.08-2.23.62-3.19-.04-5.47-2.37-8.19-3.51-16.58-3.44-25.17,0-.33.16-.55.47-.66,3.43-1.17,6.76-2.55,10-4.14,1.71-.83,2.54-2.22,2.48-4.16-.14-4.89-.44-9.81-.9-14.75-.12-1.3-1.04-1.92-2.77-1.87-.02,0-.05,0-.07,0-.33-.03-.57-.32-.54-.65,3.07-32.25,6.68-64.44,10.83-96.57.83-6.39,1.9-12.97,3.22-19.74,4.1-20.96,8.4-41.95,11.9-63.03,2.75-16.55,5.4-33.12,7.97-49.7.39-2.54-.09-6.18.93-8.77.45-1.14.67-1.1.67.13-.02,6.07.49,12.71.51,18.27.21,48.19.17,82.08-.13,101.68-.67,43.78-1.03,72.34-1.08,85.67-.02,3.63-.79,7.46-.91,11.32-.01.34-.19.52-.53.53-4.54.17-4.12,3.32-4.29,7.27-.11,2.68-.13,5.37-.05,8.06.08,2.72,1.51,4.25,4.11,4.54.82.09,1.42.82,1.36,1.65-.82,10.34-2.26,22.04-6.24,31.32-.12.29-.37.52-.67.62-2.2.73-2.79,1.87-3.05,4.24-.26,2.33-.89,5.59-1.88,9.79-.91,3.79-1.28,9.29-1.13,16.49,0,.32.16.62.41.82,2.75,2.19,5.96,3.63,9.62,4.33,9.9,1.91,24.26,3.65,33.81,11.41,11.47,9.32,28.89,10.74,42.86,8.03,2.71-.52,8.82-3.66,7.51-6.86-.35-.85-.82-2.63-1.43-5.34-1-4.49-3.95-7.95-8.84-10.38-6.89-3.43-13.44-7.46-19.63-12.09-.25-.19-.38-.5-.35-.81l.4-3.98c.04-.39-.08-.73-.37-1.01l-5.01-4.88c-.25-.24-.4-.53-.46-.87-1.61-8.99-9.7-11.58-17.83-9.14-.53.16-1.09-.12-1.28-.64-1.34-3.57-2.7-6.76-2.76-10.61-.07-4.65.21-9.31.86-13.99.05-.33.24-.5.58-.49,3.62.09,18.58-1.95,18.53-7-.04-4.32-.03-8.65.02-12.98.02-1.4-.57-2.04-1.96-2-.38,0-.55-.18-.5-.55.28-2.21.19-4.53.5-6.62,3.55-24.03,7.09-48.07,10.6-72.11ZM40.69,298.22s0,.01,0,.02v.11c-.02.16-.16.28-.32.27,0,0,0,0,0,0l-1.4-.11c-.16-.01-.28-.15-.27-.31h0s.01-.11.01-.11c.17-2.29.7-4.12,1.17-4.08l.26.02c.47.02.72,1.9.55,4.19Zm-.78,477.92c-2.72,4.46-6.15,8.25-10.29,11.36-.9.68-1.33.46-1.29-.67l.03-.97c.01-.2.1-.39.24-.53l10.35-9.96c2.32-2.23,2.64-1.98.96.77ZM127.68,10.42c-2.35.3-4.42-.31-6.22-1.83-.25-.21-.51-.23-.78-.08l-1.51.85c-.08.05-.18.02-.23-.06-.04-.06-.03-.13,0-.18.13-.21.25-.4.37-.57.11-.15.27-.26.48-.35,2.99-1.13,5.67-.54,8.05,1.76.27.26.21.41-.16.46Zm30.83,747.89l.13.11c.11.1.13.27.03.38,0,0,0,0,0,0l-1.13,1.24c-.1.11-.27.12-.38.02l-.12-.11c-6.79-6.13-11.98-11.45-11.59-11.88,0,0,0,0,0,0l.09-.1c.4-.41,6.21,4.21,12.98,10.33Zm-15.63-14.03l.03-.04c.62-1.06,3.13-.74,5.61.71l.19.11c2.48,1.45,3.98,3.48,3.36,4.54,0,0,0,0,0,0l-.02.04c-.03.05-.1.07-.15.04l-8.98-5.25c-.05-.03-.07-.1-.04-.15Z"/>
  </g>
</svg>