<?xml version="1.0" encoding="UTF-8"?>
<svg id="Layer_2" data-name="Layer 2" xmlns="http://www.w3.org/2000/svg" viewBox="0 0 218.62 803.99">
  <defs>
    <style>
      .cls-1 {
        stroke-width: 0px;
      }
    </style>
  </defs>
  <g id="Layer_1-2" data-name="Layer 1">
    <path class="cls-1" d="m213.49,281.26c2.13-.66,4.77-2.22,5.09-4.58.41-3.09-1.9-3.26-4.11-3.84-.38-.1-.49-.33-.32-.68,1.56-3.26,2.13-6.71,1.7-10.35-.03-.29-.26-.53-.56-.57l-2.01-.31c-.39-.06-.61-.29-.66-.69-1.89-17.29-3.29-34.61-4.2-51.98-.65-12.51-2.54-24.85-5.65-37-2.79-10.91-9.57-18.07-20.36-21.48-12.39-3.92-24.43-9.31-36.1-16.16-.29-.17-.6-.24-.93-.23l-3.08.12c-.39.01-.71-.13-.94-.44-1.13-1.45-2.63-2.1-4.49-1.95-.33.03-.66-.07-.92-.26-6.4-4.52-4.87-20.18-4.79-27.2.01-1.38.36-2.74,1.04-4.09,2.26-4.48,3.92-9.2,4.98-14.15.07-.34.27-.56.61-.65,2.63-.71,4.62-2.57,5.96-5.6,2.03-4.57,2.7-9.57,2.01-14.99-.03-.27-.13-.54-.28-.76-.54-.81-1.65-1.03-2.47-.49l-1.21.8c-.14.09-.3.12-.46.08-.31-.07-.5-.38-.42-.69l4.07-17.21c.09-.36.21-.37.38-.04.63,1.27.99,2.63,1.06,4.07,0,.33.25.59.58.6.33,0,.59-.25.6-.58.2-2.55-.33-4.93-1.59-7.13-.13-.23-.14-.51-.02-.75.2-.39.67-.55,1.06-.35l2.26,1.14c.1.05.21.09.33.11.6.09,1.15-.32,1.24-.92.15-1-.21-1.64-1.09-1.91-.28-.08-.5-.28-.61-.55-1.69-4.05-2.82-8.24-3.39-12.59-.01-.13.04-.25.14-.33.15-.11.37-.08.48.08,1.57,2.26,2.34,4.77,2.31,7.54-.01.65.16.7.52.15.67-1.03.96-2.17.87-3.4-.77-10.2-6.12-16.65-16.04-19.35-.31-.09-.63-.1-.95-.04l-1.24.24c-.44.08-.72-.09-.83-.52-1.4-5.06-4.63-8.21-9.69-9.45-.21-.04-.43.05-.54.24-.14.24-.06.54.18.67,3.67,2,7.3,3.95,8.48,8.4.1.39,0,.45-.3.19-.76-.66-1.47-1.37-2.14-2.14C119.17.12,109.42-2.26,97.81,2.14c-5.09,1.93-10.06,4.14-14.9,6.61-1.86.95-3.78,1.15-5.77.58-.23-.07-.32.02-.26.26.72,2.79,4.65,2.16,6.74,1.77.31-.05.42.07.33.38-.13.43-.38.72-.75.85-3.83,1.37-13.2,5.81-14.24,9.8-.25.92-.41,1.89-.5,2.9,0,.13.05.25.16.31.16.1.37.05.47-.11.59-.99,1.35-1.84,2.27-2.53.59-.45.72-.34.39.32-.85,1.7-1.93,3.19-3.26,4.46-1.03.99-1.6,1.89-1.71,2.68-.21,1.43.22,2.59,1.29,3.48.25.21.38.47.41.79.4,4.92,2.35,9.15,5.84,12.69.24.24.39.53.45.86l2.74,14.77c.1.53-.08.66-.54.38-3.34-2.02-4.74.64-4.83,3.56-.13,4.25,1.87,18.23,8.21,17.33.36-.05.58.1.66.45,1.18,5.15,2.99,10.04,5.42,14.69.66,1.26.99,2.55.98,3.88,0,5.82-.05,11.64-.12,17.46-.04,3.64-1.08,6.79-3.13,9.45-.19.24-.48.39-.79.42-2.54.16-4.69,1.13-6.46,2.9-.25.25-.54.32-.87.22-1.23-.36-2.05-.43-3.24.27-7.9,4.7-16.19,8.58-24.88,11.63-7.01,2.47-16.35,4.93-21.59,8.84-12.84,9.6-14.38,35.67-15.31,51-1.09,18.08-2.6,36.14-4.51,54.18-.05.43-.29.66-.72.69-1.42.11-2.57.71-3.46,1.81-.23.28-.3.59-.21.94l2.08,8.77c.07.28-.03.49-.29.62-2.33,1.16-4.05,1.31-3.86,4.47.12,2.08,2.44,3.42,4.13,4.04.75.27.79.63.12,1.07-3.59,2.32-6.91,7.45-1.27,9.79.39.16.46.41.22.75-2.51,3.55-2.68,6.92-.52,10.11.96,1.41,1.58,2.61,1.87,3.58,2.47,8.43,4.96,16.01,7.47,22.74,6.31,16.93,13.8,36.28,22.49,58.03.72,1.81,1.11,3.68,1.16,5.61.65,25.37.77,42.31.36,50.82-.4,8.38-.29,15.64.33,21.78,1.57,15.54,2.56,31.14,3.68,46.72.62,8.53.94,14.4.96,17.6.01,2.27.95,3.84.65,6.25-.5,4.04.98,7.4.73,11.11-.34,5.1-1.46,10.42,2.7,12.9.33.2.36.44.09.71-2.02,2.07-4.29,3.66-4.83,5.95-.08.34.02.62.29.84,2.28,1.87-.29,4.44-1.29,6.24-.23.42-.15.77.24,1.06l5.18,3.76s.07.07.1.11c.12.19.06.43-.12.55-2.55,1.57-9.04,5.68-5.7,9.64.94,1.13,2.26,1.65,3.95,1.57.15,0,.28.07.36.19.12.19.06.43-.13.55-2.7,1.65-4.39,4-5.06,7.03-.27,1.21.16,1.64.71,2.63.17.31.17.61-.01.92-1.02,1.78-1.49,3.79-1.42,6.02.21,6.86-.07,15.68.55,23.47.75,9.39,1.51,18.79,2.26,28.18.49,6.07.71,10.8.68,14.21-.02,2.42.9,4.63.9,7.04,0,11.24,0,22.48.02,33.73,0,1.43.63,3.1,1.87,4.99.19.29.17.56-.04.83-4.39,5.48-3.99,10.52,1.22,15.13.24.21.36.52.33.83-.05.53-.53.92-1.06.87-2.27-.21-4.19.51-5.78,2.14-.24.25-.3.62-.14.93l1.33,2.62c.08.16.24.27.41.31.32.07.64-.15.71-.47.23-1.29,1.03-1.93,2.4-1.92.15,0,.28.08.37.19.16.22.12.52-.09.69-3.81,2.8-6.58,6.26-8.29,10.38-.41.99-.77,2.48-1.07,4.47-.68,4.52-3.76,8.29-6.02,12.15-1.34,2.29-2.88,4.33-4.61,6.11-3.03,3.1-6.54,6.03-8.27,9.91-1.19,2.65-2.03,5.44-2.54,8.38-1.34,4.37-2.03,8.99,4,9.93,8.87,1.39,18.46,1.41,28.75.05,5.73-.75,8.67-3.9,8.81-9.45.03-.97.51-1.87,1.46-2.71,2.36-2.11,12.3-2.92,15.68-3.38,4.11-.57,6.32-2.7,6.61-6.4-1.01-8.77-2.01-17.5-3-26.19-.6-5.27.13-10.99-.3-16.61-.03-.33.05-.64.24-.91,2.86-4.19,4.88-12.2-.41-15.67-.31-.2-.4-.47-.27-.82.84-2.25,1.91-4.18,1.83-6.66-.36-9.95.74-21.5,1.06-29.64.47-11.86,1.63-24.64,3.47-38.34,1.34-9.99,1.4-20.66.17-32.03-.03-.19,0-.38.1-.55l1.48-2.87c.12-.23.14-.5.06-.74-.27-.89-.85-1.42-1.74-1.6-.33-.07-.58-.36-.59-.7-.05-2.17.53-4.15,1.72-5.95.5-.75.38-1.76-.3-2.36-1.67-1.48-2.15-3.31-1.44-5.5.12-.37.36-.69.7-.9,1.95-1.22,5.36-3.36,4.4-5.64-.64-1.51-3.28-2.28-4.74-2.89-.07-.03-.14-.08-.19-.13-.01-.01-.01-.03-.02-.04-.04-.05-.07-.1-.1-.15,0,0,0,0,0,0-.01-.03,0-.05-.01-.08,0-.04-.02-.08-.02-.13,0-.04.01-.09.03-.13,0-.03,0-.05.02-.08,0,0,0,0,0,0,.02-.06.06-.1.1-.15,0-.01.01-.02.02-.03.05-.05.12-.09.19-.12,2.2-.87,7.71-3.26,8.09-5.94.24-1.71-1.38-4.19-2.16-5.68-.18-.34-.14-.65.11-.93l2.42-2.68c.19-.22.24-.53.12-.79l-1.45-3.02c-.06-.13-.06-.28,0-.41l1.24-2.69c.15-.31.23-.63.25-.98,1.47-30.15,4.76-60.1,9.87-89.85,1.21-7,2.68-13.25,4.43-18.76,2.33-7.32,9.87-6.87,12.09.49,2.35,7.75,4.25,16.6,5.7,26.54,4.21,28.8,7.07,55.59,8.58,80.36.21,3.38,2.33,5.27-.07,8.93-.21.31-.18.72.06,1l1.69,1.95c.22.26.28.62.15.94-1.1,2.7-2.4,5.66.08,7.6,2.04,1.59,4.26,3.11,6.65,4.56.06.03.11.08.15.13,0,0,0,.01,0,.02.03.05.06.1.07.16,0,0,0,0,0,0,0,.02,0,.04,0,.07,0,.04.01.08,0,.12,0,.04-.02.08-.04.11,0,.02,0,.04-.02.06,0,0,0,0,0,0-.03.05-.07.09-.12.13,0,0,0,0-.01.01-.05.04-.11.07-.18.08l-3.04.81c-.2.05-.38.14-.56.25-.03.02-.07.04-.1.06-.16.11-.31.25-.43.4-.04.04-.07.09-.1.14-.04.06-.08.12-.12.19-.03.06-.06.12-.08.18-.03.06-.05.13-.07.19-.02.06-.03.13-.05.2-.01.07-.03.13-.03.2,0,.07,0,.14,0,.2,0,.07,0,.13,0,.2,0,.07.02.15.04.22.01.06.02.11.04.16.05.19.14.37.24.54.02.03.04.06.07.09.12.17.25.32.41.45,1.3,1.01,2.62,2.29,3.96,3.83,1.92,2.21-.25,4.91-1.07,7.06-.11.31-.09.6.06.89,1.18,2.21,3.16,5.98.23,7.73-.28.17-.44.47-.42.79.05,1.18.35,2.3.88,3.35.16.33.22.67.18,1.02-1.48,13.53-1.07,28.23,1.23,44.11,1.12,7.75,1.7,16.99,1.74,27.74,0,2.93.23,6.75.68,11.46.71,7.55-.93,15.76,2,22.94.15.37.09.69-.18.98-4.63,4.93-4.82,10.19-.57,15.78.18.23.26.49.24.78-.31,5.35.46,10.67-.11,15.79-.72,6.43-1.37,12.87-1.96,19.32-.27,2.93-.3,5.28-.1,7.05-.86,5.34,2.79,6.7,7.4,7.61,4.46.88,8.87,1.77,13.24,2.68.93.2,1.61,1.01,1.66,1.96.35,6.81,3.37,10.2,10.2,11.09,9.76,1.27,19.02,1.01,27.78-.76,2.06-.42,3.66-1.66,4.8-3.71.15-.27.21-.58.16-.88l-.76-5.37c-.56-2.43-1.35-4.78-2.38-7.03-1.95-4.27-6-7.69-9.22-11.41-3.45-3.97-5.68-8.93-8.44-13.51-.17-.29-.26-.61-.26-.94-.02-2.7-.52-5.26-1.51-7.68-1.4-3.43-5.07-6.36-7.59-9.46-.24-.29-.17-.46.21-.49l3.74-.3c.34-.02.61-.3.61-.65.08-4.57-4.63-4.15-7.74-4.4-.44-.03-.53-.23-.27-.59,1.64-2.27,3.84-4.49,4.42-7.1.67-2.95,0-5.63-1.98-8.02-.38-.46-.57-.86-.56-1.21.01-.53.26-.95.75-1.26.27-.17.47-.44.57-.75.44-1.36.66-2.42.67-3.17.09-14.6-.05-29.12,1-43.72,1.02-14.18,2.04-28.36,3.07-42.53.45-6.19.54-13.38.27-21.58-.04-1.39-.63-2.16-1.25-3.32-.17-.31-.16-.63.01-.94,2.55-4.67-.7-8.17-4.03-11.02-.28-.24-.26-.45.07-.62,2.05-1.1,7.09-2.2,4.62-5.77-1.49-2.15-3.26-3.7-5.31-4.65-.31-.14-.58-.38-.75-.68-.46-.79-.18-1.8.61-2.26l3.58-2.05c.28-.16.49-.43.58-.74.58-1.94-.01-3.38-1.77-4.32-.37-.19-.41-.45-.14-.77,4.01-4.68-.81-6.31-3.86-8.61-.33-.25-.33-.51-.02-.77l3.46-2.84c.24-.2.37-.5.36-.81-.19-3.86-.45-7.52-.18-11.35,1.3-18.91,2.41-37.84,3.34-56.78.61-12.45,2.43-25.03,2.38-37.25-.09-19.37-.06-38.75.08-58.13.02-2,.38-3.94,1.07-5.82,6.55-17.57,12.34-32.55,17.35-44.93,5.29-13.05,9.7-25.74,13.25-38.06.09-.31.25-.58.49-.81,3.97-3.75,2.17-7.34-.16-11.33-.19-.32-.1-.52.26-.59,6.1-1.27,2.03-7.79-1.55-9.08-.18-.06-.31-.21-.36-.38-.09-.31.08-.64.39-.74ZM73.45,37.76l-.91,2.01c-.19.43-.18.92.04,1.34.47.9.7,1.86.68,2.87,0,.54-.17.59-.49.16-1.18-1.61-1.95-5.46.27-6.75.51-.3.65-.18.41.37Zm-26.56,279.7c-.08,6.7-.66,13.41-1.17,20.14-.34,4.44-1.62,12.32-1.5,18.65.01.45-.12.75-.4.92-.33.2-.53.11-.6-.28-3.65-20.37-4.99-35.92-7.74-53.88-.06-.37.05-.67.33-.91l2.69-2.34c.15-.13.26-.3.31-.49.6-2.09-.08-3.54-2.05-4.33-.78-.31-1.16-1.2-.84-1.98.1-.24.26-.46.46-.62,5.22-4.16.12-7.42-3.63-8.78-.22-.08-.34-.31-.27-.53.06-.17.22-.29.4-.28,1.91-.02,3.68-.51,5.31-1.48.35-.21.6-.55.69-.95.77-3.43.5-6.79-.81-10.1-.13-.33-.07-.63.16-.9,3.07-3.56,3.66-7.53,1.79-11.9-.13-.3-.16-.61-.1-.93l3.22-16.48c.08-.37.45-.6.81-.51.29.06.5.3.53.59,1.92,25.92,2.72,51.71,2.41,77.37ZM121.65,8.24s-.12.04-.17.02c-4.98-3.36-10.38-5.32-16.42-5.16-.14,0-.25-.12-.24-.26,0-.09.05-.17.13-.21.43-.2.91-.32,1.42-.35,6.14-.47,11.24,1.44,15.31,5.74.05.07.04.17-.03.22Zm64.27,275.21c-1.77.56-3.56.99-4.52,2.65-1.34,2.31-.56,4.7,2.35,7.19.05.05.06.14.01.19-.02.02-.04.03-.06.04-4.44,1.48-5.46,5.77-1.41,8.58.29.2.44.54.4.89l-6.49,51.79c-.03.18-.2.3-.38.27-.14-.02-.24-.13-.27-.27-5.07-37.95-4.63-76.91-1.59-115.07.03-.21.23-.36.44-.33.15.02.28.13.32.27,1.29,5.03,2.3,10.19,3.02,15.49.15,1.1.04,2.47-.33,4.12-.86,3.83-.01,7.29,2.54,10.39.23.27.28.56.17.89-1.03,3.06-1.32,5.98-.86,8.76.44,2.65,4.5,3.29,6.61,3.57.16.03.28.18.25.34-.02.11-.09.2-.2.24Z"/>
  </g>
</svg>