<?xml version="1.0" encoding="UTF-8"?>
<svg id="Layer_2" data-name="Layer 2" xmlns="http://www.w3.org/2000/svg" viewBox="0 0 87.99 265.38">
  <defs>
    <style>
      .cls-1 {
        stroke-width: 0px;
      }
    </style>
  </defs>
  <g id="Layer_1-2" data-name="Layer 1">
    <path class="cls-1" d="m86.48,121.76c1.65-2.57,1.5-5.34,1.51-9.2.05-15.31-1.92-30.37-5.91-45.16-1.63-6.05-3.06-10.3-4.27-12.73-2.73-5.45-10.48-9.13-16.43-11.74-3.73-1.64-1.97-5.71-6.41-6.24-.86-.1-1.52-.25-1.99-.46-.05-.02-.1-.05-.15-.07-.7-.4-.94-1.28-.54-1.98l6.5-11.42s0-.01.01-.02c.33-.6.11-1.36-.49-1.69l-.53-.3c-.26-.15-.41-.44-.38-.74.47-4.64.59-7.66.36-9.06-1.9-11.45-14.86-13.92-22.9-7.43-4.48,3.62-4.22,10.09-4.1,15.43.01.33-.09.63-.31.89-.96,1.13-.99,2.46-.1,4.01,1.91,3.3,3.9,6.61,5.96,9.93.47.75.27,1.26-.58,1.51-.57.17-1.39.37-2.45.6-2.53.55-2.95,2.85-3.82,4.73-.36.8-1.04,1.42-1.87,1.73-4.66,1.71-15.58,6.5-17.42,11.58-1.67,4.61-3.02,9.71-4.04,15.28-1.84,10.07-3.67,20.14-5.5,30.21-1.07,5.88-.77,12.29.89,19.23.21.88.42.93.87,1.66.19.29.2.66.04.96-1.87,3.54-2.72,6.62,1.06,9.14,1.47.97,2.03.92,2.01,2.97-.07,7.2,2.43,14.3,8.99,17.98.59.33.97.95.98,1.63.05,2.45.4,4.95,1.05,7.49.69,2.67-.59,5.38,0,8.54,1.03,5.52.85,11.28,1.9,16.49.77,3.88,2.22,7.78,2.02,11.74-.09,1.7-.2,3.4-.33,5.11-.78,9.89.66,19.69,2.03,31.08.27,2.27.96,4.09,2.05,5.46.22.27.2.53-.05.77-1.5,1.44-4.99,3.37-2.67,5.78.39.41.77.84,1.12,1.29,1.49,1.9.33,6.88-.53,8.91-1.39,3.32-6.25,3.99-3.42,8.62.16.27.4.42.71.47,4.22.64,8.62.86,12.35-1.56.29-.19.6-.25.94-.2,2.76.43,8.55-.12,8.32-4.04-.16-2.81.2-5.34,1.09-7.6,1.76-4.51-.79-5.86-3.85-8.37-.27-.22-.38-.51-.32-.86,2.39-13.84,5.79-28.44,2.79-42.16-.43-1.93-.57-4.34-.35-5.9,1.13-7.99,1.85-16,2.15-24.03.01-.26.23-.47.49-.47h.29c.13,0,.19.06.2.19.35,7.91,1.02,15.82,2,23.71.44,3.53.15,6.94-.87,10.23-1.45,4.68-2.04,6.89-1.55,11.01,1.13,9.57,2.32,19.08,3.57,28.54.07.58-.17,1.15-.64,1.5-2.96,2.16-2.09,4.65-.43,7.19,1.41,2.16.77,5.5.83,8.03.11,4.17,6.24,3.06,8.93,3.01.33,0,.59.11.8.36,2.3,2.77,9.28,1.99,11.77,1.83,1.21-.07,1.96-.66,2.24-1.76.83-3.25-.71-4.41-3.02-6.2-2.24-1.73-2.81-6.31-2.74-8.92.03-1.38.78-2.22,1.76-3.03,0,0,.02-.01.02-.02.4-.35.44-.97.09-1.37l-3.21-3.68c-.21-.24-.3-.56-.24-.87,2.58-13.27,4.27-27.79,3.17-41.26-.32-3.86,1.06-7.64,1.99-11.34,1.48-5.83,1.96-11.9,2.7-17.84.35-2.82-.14-5.24.57-8.12.72-2.91,1.19-5.81,1.4-8.72.06-.81.58-1.51,1.33-1.82,4.89-2,7.75-9.69,8.33-14.72.28-2.44.8-3.24,2.58-4.67,3.22-2.61,3.6-3.61,1.59-7.31-.33-.59-.31-1.17.06-1.74Zm-66.48,6.78l-1.06,3.9c-.33,1.23-.94,1.38-1.82.46l-2.86-3.01c-.25-.25-.35-.55-.32-.9l.94-10.54c.02-.22.12-.42.29-.55,1.09-.89,1.55-.63,1.38.8-.42,3.4-.3,5.07,2.54,7.2.81.61,1.18,1.66.91,2.64Zm53.42.58l-3.3,3.33c-.9.91-1.5.74-1.8-.51l-.62-2.61c-.26-1.08.17-2.2,1.09-2.83,3.36-2.31,2.98-5.2,2.39-8.8-.04-.25.13-.49.38-.53.07-.01.14,0,.2.02l.45.15c.32.1.55.38.58.72l.97,10.13c.03.35-.09.69-.34.93Z"/>
  </g>
</svg>