<?xml version="1.0" encoding="UTF-8"?>
<svg id="Layer_2" data-name="Layer 2" xmlns="http://www.w3.org/2000/svg" viewBox="0 0 245.01 706.13">
  <defs>
    <style>
      .cls-1 {
        stroke-width: 0px;
      }
    </style>
  </defs>
  <g id="Layer_1-2" data-name="Layer 1">
    <path class="cls-1" d="m244.04,235.46l-2.75-.25c-.41-.04-.64-.26-.69-.67-4.92-35.55-13.24-74.25-34.49-104.04-9.14-12.82-21.43-19.22-36.03-24.7-5.99-2.25-12.48-4.68-19.48-7.29-.79-.29-1.32-.84-1.6-1.63l-5.14-14.76c-.11-.3-.4-.48-.71-.44l-2.8.35c-.07,0-.14,0-.21,0-.37-.07-.62-.43-.55-.8l1.49-7.67c.04-.22.24-.39.47-.39.72,0,1.39-.17,2.02-.52.37-.21.55-.52.55-.94-.02-5.47.47-11.65,1.48-18.53.41-2.8-1.35-5.7-4.62-4.65-.48.15-.59.01-.33-.42,3.3-5.43,3.07-14.61,3.49-23.2.41-8.46-7.11-15.74-13.95-19.43-1.63-.88-3.25-1.79-4.87-2.72-.15-.09-.23-.04-.25.13l-.02.28c-.03.25-.16.34-.4.25-5.65-2.09-11.5-2.97-17.54-2.64-.37.02-.68-.11-.93-.38-.51-.55-.99-.52-1.43.1-.22.31-.52.48-.89.51l-4.29.33c-.3.02-.6.08-.89.17-1.06.34-2.76.77-5.11,1.28-4.87,1.06-9.62,3.57-14.23,7.52-.2.17-.3.38-.29.64v.32c.02.31-.13.51-.43.58-.31.07-.57.23-.79.46-.15.17-.25.42-.29.77-.16,1.44-1.01,2.22-1.25,3.52-.26,1.4-.55,2.8-.88,4.2-.04.18-.15.26-.34.24l-.36-.03c-.11-.01-.21.03-.27.12-.1.13-.07.32.06.42,1.15.86,1.34,1.89.55,3.08-.15.23-.14.45.05.66l.23.25c.13.15.21.34.22.53.43,7.23,1.38,14.4,2.86,21.5.07.31.04.63-.06.93-1.43,3.98-1.45,9.9-1.87,14.17-1.04,10.74.35,21.49,8.34,30.47.25.28.24.56-.01.83-4.35,4.73-6.46,9.63-8.6,15.59-.11.31-.32.53-.62.66-11.17,5.01-18.36,8.28-21.57,9.82-14.37,6.92-20.77,19.95-26.49,34.18-6.21,15.45-12.2,30.61-15.38,46.17-1.08,5.3-2.08,10.93,2.28,13.95,1.45,1,1.31,1.33-.42.99-2.93-.57-4.66.25-5.19,2.47-.91,3.79-1.39,7.64-1.45,11.57,0,.3-.16.47-.45.51l-5.06.76c-1.65.25-2.2,1.16-1.66,2.73l2.12,6.18s.01.04.02.06c.13.47-.15.96-.63,1.09l-.7.19c-.37.09-.54.33-.51.71l.77,9.25c0,.13.05.25.13.35l3.76,4.74c.18.23.26.48.24.77-1.28,19.44-1.97,39.9-.77,59.21.53,8.46,1.87,16.81,4.04,25.05,1.3,4.95,2.16,8.68,2.59,11.19,3.18,18.64,7.18,37.24,9.89,55.89,1.25,8.61,2.52,17.23,3.79,25.84,2.25,15.26,4.01,25.02,5.28,29.29,2.79,9.41,5.49,18.85,8.1,28.32,1.46,5.27,2.82,11.28,3.06,15.92.82,16.07,1.28,32.16,1.39,48.25.12,19.59-1.47,33.61-2.89,50.51-.34,4.05-.1,7.79.71,11.24,1.33,5.65,2.93,10.47,2.56,15.75-.41,5.9-2.14,11.44-5.21,16.62-.18.31-.14.58.13.81l1.57,1.39c.5.44.62,1.17.27,1.74-4.19,6.95-9.76,12.51-16.73,16.66-2.06,1.23-1.89,1.77.51,1.62,3.1-.19,6.18.01,9.24.62.09.03.15.1.16.2,0,.12-.08.23-.21.23-6.28-.02-26.51.86-30.14,7.17-1.37,2.37-1.92,5.36-1.66,8.96.03.33.16.59.41.8,1.03.87,2.14,1.4,3.34,1.59,11.93,1.89,24.14,1.93,36.61.11,6.67-.97,10.13-2.37,16.59-6.17,2.77-1.63,5.74-3.02,8.92-4.19.32-.12.68,0,.88.29.58.85,1.45,1.28,2.61,1.31,5.03.1,10.04-.17,15.02-.82,2.33-.31,4.55-.99,6.65-2.05,1.13-.57,1.67-1.29,1.64-2.14-.22-6.13-.48-12.09-.77-17.87-.04-.82.44-1.58,1.2-1.89l1.53-.63c.31-.13.52-.43.51-.77-.18-13.64,2.14-27.77,3.36-41.39,2.12-23.7,5.87-47.15,7.12-70.93,1.03-19.78,1.47-39.25,4.53-58.94.01-.07.04-.13.08-.18.14-.2.42-.24.62-.1.17.12.32.36.45.73,10.71,29.47,16.39,58.19,18.73,91.24.77,10.84,1.29,17.49,1.56,19.94,1.47,13.28,4.43,24.14,7.49,36.09.08.32.05.66-.09.96-1.07,2.23-1.97,4.52-2.72,6.87-2.66,8.35-.63,22.04,6.33,28.04,1.39,1.2,2.89,1.53,4.64,1.93,0,0,.01,0,.02,0,.48.12.78.6.66,1.09-1.37,5.56-2.73,9.7-5.35,15.84-1.68,3.94-5.12,15.39,1.28,16.75,9.71,2.06,35.16,3.41,41.97-6.95,3.27-4.99-.74-20.89-1.75-26.9,0-.01,0-.02,0-.03-.11-.75.42-1.44,1.16-1.55,2.65-.38,4.26-1.91,4.85-4.6,2.45-11.29,3.84-22.7,4.15-34.25.81-30,.83-60,.06-90-.4-15.36-1.51-30.84-2.62-46.25-1.85-25.66.59-58.01,3-86.51.35-4.07.17-8.11-.53-12.11-.09-.5.06-1.02.4-1.4l2.58-2.85c.3-.33.33-.68.09-1.05l-1.56-2.4c-.48-.75-.51-1.7-.07-2.48,1.14-2.03,1.82-3.91,1.83-6.38.05-9.03.24-18.93,2.56-28.1.83-3.3,2.48-7.4,4.95-12.29,8.83-17.49,16.44-34.57,22.84-51.24,3.27-8.53,5.7-17.89,7.29-28.08.06-.38.28-.54.67-.48,3.04.45,4.87-.62,5.5-3.23,1.49-6.25,2.4-12.58,2.71-18.97.03-.58-.4-1.07-.97-1.13Zm-206.71,72.79c-3.34,3.16-5.23,8.63-6.74,12.92-.18.5-.43.54-.76.12-.17-.22-.35-.57-.53-1.05-.78-2.07-2-3.89-3.67-5.48-.24-.22-.26-.45-.05-.7,3.15-3.81,5.39-8.08,6.74-12.83.05-.19.25-.3.44-.25.12.03.21.12.25.24.83,2.51,2.26,4.62,4.29,6.31.28.23.29.47.03.72Zm155.5-10.35c-.76,6.43-2.38,14.97-5.9,20.9-.11.2-.36.26-.56.15-.08-.04-.13-.11-.17-.19l-4.57-10.01c-.2-.44-.69-.83-1.36-1.08-.19-.07-.39-.23-.58-.5-.13-.19-.21-.42-.23-.69-.27-3.03-.6-6-1.01-8.89-.06-.46.15-.92.54-1.17,8.16-5.14,12.15-11.65,11.55-21.51-.59-9.71-1.65-18.29-3.16-25.74-.93-4.57,1.26-12.3,2.52-16.71.05-.15.21-.24.36-.19.1.03.17.11.2.22.77,4.19.19,7.04,5.14,9.12.47.2.6.53.37.99-.69,1.39-1.62,2.6-2.79,3.63-.25.23-.34.51-.27.84.6,2.71.67,5.46.22,8.24-.1.62.16,1.25.68,1.61l2.34,1.62c.35.24.54.65.51,1.07-1.07,12.89-2.34,25.66-3.83,38.29Z"/>
  </g>
</svg>