<?xml version="1.0" encoding="UTF-8"?>
<svg id="Layer_2" data-name="Layer 2" xmlns="http://www.w3.org/2000/svg" viewBox="0 0 220.46 565.12">
  <defs>
    <style>
      .cls-1 {
        stroke-width: 0px;
      }
    </style>
  </defs>
  <g id="Layer_1-2" data-name="Layer 1">
    <path class="cls-1" d="m220.42,169.55c-6.14-21.1-14.22-41.67-27.08-59.61-7.35-10.27-17.41-17.63-30.18-22.09-8.71-3.05-17.34-6.33-25.9-9.85-.36-.15-.78.01-.95.37-.13.27-.14.56-.04.89.06.21.02.44-.13.6-.23.27-.63.3-.9.07-4.75-4.12-4.07-7.86-3.18-14.27.47-3.34,1.1-6.67,1.87-9.99.08-.33.24-.63.48-.88,1.15-1.17,1.79-2.82,1.92-4.95.17-2.97.84-8.42-1.28-10.81-.08-.08-.15-.17-.21-.27-.96-1.36-.63-3.24.73-4.19.1-.07.2-.48.31-1.21.33-2.21.19-5.07-.4-8.58,0-.03,0-.07,0-.1.03-.16.18-.27.34-.24.42.09.82.04,1.2-.13.01,0,.02-.01.03-.02.26-.14.35-.46.21-.71l-2.01-3.61c-.19-.34-.2-.69-.03-1.04.31-.61.3-1.26-.05-1.93-.14-.27-.06-.45.23-.54.44-.13.87-.11,1.29.04.07.03.15.03.23,0,.19-.06.3-.26.24-.45-.65-2.21-6.77-6.77-8.34-7.98-.91-.71-1.24-1.67-1.89-2.6-.2-.28-.5-.49-.84-.57-1.05-.27-1.91-.81-2.59-1.63-.22-.27-.52-.47-.85-.59-.87-.31-3.07-1.76-3.64-1.81-.11,0-.22,0-.33,0-.3.03-.34.15-.12.36l.62.59c.23.23.26.47.07.74-.27.38-.6.43-.99.16-4.37-3.04-8.75-3.54-13.15-1.51-2.03.93-4.11.85-6.1,2.25-.26.18-.58.22-.88.13-1.59-.54-2.79-.43-3.62.32-6.86,6.24-11.84,8.84-12.65,19.48-.01.18.07.36.22.46.23.16.54.1.7-.13.34-.5.49-1.05.45-1.64,0-.02.04-.04.13-.05h.01c.09-.01.15.03.17.13.59,3.4-1.63,6.81-.28,9.8.1.23.26.3.49.22.29-.11.4-.31.35-.61-.05-.23,0-.41.15-.54.27-.26.41-.2.42.17l.32,6.98c.01.31-.1.58-.33.79-2.78,2.56-1.75,9.47-1.14,12.79.23,1.26.92,1.94,1.87,2.68.26.21.44.5.49.83.77,4.54,1.6,9.06,2.49,13.57.99,5.06-.59,9-4.74,11.83-.21.15-.4.12-.56-.09l-.16-.21c-.04-.05-.03-.1.02-.14.61-.49,1.03-1.11,1.24-1.87.03-.11.02-.22-.02-.32-.1-.27-.4-.41-.67-.31-7.21,2.76-14.36,5.45-21.44,8.08-8.59,3.19-14.66,5.92-18.2,8.18-7.47,4.78-13.56,10.94-18.27,18.48C14.4,130.37,5.9,149.33.07,169.37c-.26.9.23,1.84,1.11,2.13l2.73.92c.19.06.31.25.28.44-.85,6.84-1.54,13.67-2.05,20.49-1.79,23.73,4.1,46.63,11.37,68.98,2.01,6.17,4.19,11.7,6.55,16.58,2.67,5.52,5.01,10.2,5.63,14.67,2.71,19.5,5.39,39,8.04,58.51,1.12,8.28,2.71,17.05,4.76,26.32,2.81,12.68,8.23,25.39,12.64,37.76.33.95.42,1.97.25,2.96-1.72,9.78-3.43,18.15-3.13,29.21.11,4.11.52,9.62,1.22,16.52,1.33,13.11,2.01,24.62,2.75,37.01.02.34-.2.65-.52.76-1.42.48-2.72,1.21-3.47,2.62-3.99,7.51,2.98,15.4,8.91,18.98.59.36.87,1.07.69,1.73-3.06,11.07-6.14,15.88-17.39,19.88-4.53,1.61-6.91,5.04-7.13,10.27-.07,1.77.04,4.49.35,8.16,2.56-.06,5.27.48,7.37.55,12.91.38,22.67,1.22,32.75-3.79.29-.15.6-.2.93-.16,2.3.31,5.2.26,8.71-.15,2.75-.32,4.43-1.77,5.05-4.36.73-7.55.88-15.09.46-22.62,0-.08.01-.16.04-.23.12-.27.43-.39.7-.28,2.43,1.08,4.42.62,5.99-1.39,2.5-3.18-1.7-6.03-4.24-6.96-.51-.19-.51-.38-.01-.57,6.98-2.75,12.46-9.48,8.72-17.21-.62-1.29-1.19-2.4-1.7-3.33-.33-.6-.41-1.23-.26-1.9,2.99-12.85,4.71-25.68,7.09-38.59,2.04-11.08,2.86-19.31.57-29.1-1.17-5.01-2.94-9.27-1.38-13.25,3.02-7.71,4.89-15.32,5.6-22.85.18-1.89.4-1.89.66-.02,1.24,8.77,4.66,16.91,7.93,25.23,1.03,2.62,1.46,6.18,1.09,8.56-1.4,9.09-1.42,16.83-.05,23.24.98,4.57,1.85,9.15,2.61,13.76.38,2.31.52,3.98.41,4.99-.79,7.57-1.39,15.15-1.79,22.75-.23,4.27-.04,8.02,2.61,11.69,3.73,5.16,7.16,10.49,10.28,16,.26.45.2,1-.15,1.38-1.56,1.68-5.26,4.59-4.65,7.09.09.36.4.62.76.65l5.76.51c.81.07,1.44.74,1.45,1.56l.41,23.41c1.97,2.85,5.72,1.92,8.67,2.25.34.04.64.17.91.38,3.24,2.56,8.56,3.53,12.63,3.44,8.86-.2,17.49.03,26.33-.83.14-4.71.13-7.97-.03-9.78-.8-8.79-10.33-7.96-14.19-15-1.46-2.67-2.88-5.41-4.25-8.23-.02-.05-.04-.1-.05-.15-.07-.33.14-.65.47-.71,1.86-.37,5.4-.22,6.87-1.3,2.78-2.04-.69-7.26-1.97-9.23-2.07-3.19,2.17-8.98,4.04-11.78,3.21-4.8,1.56-10.46-.38-15.85-1.28-3.58-4.84-10.66-4.27-14.26,3.02-18.86,5.5-37.37.59-56.42-.3-1.16-.27-2.42.55-3.22,2.58-2.53,3.89-5.48,3.93-8.85.1-7.98-.16-15.65,1.62-23.59,1.84-8.19,3.92-17.71,4.84-24.41,1.21-8.75,3.61-30.55,7.2-65.4,1.2-11.64,7.51-20.4,10.68-28.46,3.19-8.13,6.66-17.93,10.39-29.41,4.91-15.05,7.23-30.21,6.96-45.48-.05-3.37-.88-9.86-2.47-19.48-.06-.37.13-.73.47-.88l2.87-1.32c.52-.24.78-.81.63-1.36Zm-178.91,35.23c-5.84,12.37-5.72,24.81-2.95,37.86,1.28,6.01,1.76,9.66-2.19,14.03-.13.15-.36.16-.51.02-.06-.05-.1-.12-.11-.2-1.7-10.68-2.11-21.44-1.24-32.28.75-9.31.77-17.2-3.01-25.99-.15-.35-.06-.63.25-.84,5.29-3.49,8.91-8.26,10.86-14.31.32-.97.59-.96.8.04.63,2.89,1.28,5.92,1.93,9.1.86,4.13-2.09,8.89-3.83,12.57Zm146.47-6.52c-2.23,6.35-3.27,12.88-3.1,19.57.31,12.66.79,25.82-1.77,38.31-.08.36-.43.59-.79.52-.15-.03-.28-.11-.38-.23-2.78-3.35-2.59-6.64-1.76-11.17,2.21-12.12,3.42-23.51-.23-35.51-1.83-6.05-6.66-11.01-5.53-17.66.6-3.55,1.11-7.02,1.52-10.41.09-.71.31-.76.66-.14.29.5.6,1.16.93,1.99,2.21,5.54,5.62,10.18,10.22,13.93.27.21.34.48.23.8Z"/>
  </g>
</svg>