<?xml version="1.0" encoding="UTF-8"?><svg xmlns="http://www.w3.org/2000/svg" viewBox="0 0 305.31 920.32"><g id="a"/><g id="b"><g id="c"><path d="M80.61,305.32c-2.87,19.52-6.07,38.99-9.61,58.4-1.12,6.12-2.55,12.63-4.28,19.53-4.62,18.4-8.45,37.08-14.56,55.18-3.25,9.61-7.41,19.43-11.45,29.04-3.25,7.74-7.92,20.05-4.6,27.48,2.78,6.19,3.76,11.28,4.1,17.84,.27,5.22,1.69,9.98,2.84,15,.68,2.99,.8,5,.35,6.02-1.88,4.26-6.94,2.3-8.92-.61-1.38-2.02-2.4-4.16-3.07-6.42-.06-.2-.27-.31-.46-.25-.08,.02-.15,.08-.2,.15-4.43,6.54-8.32,15.89-6.86,23.51,.75,3.9,2.64,7.53,5.68,10.88,.81,.9,.93,2.06,.36,3.48-.12,.3-.11,.63,.04,.92,1.68,3.27,3.99,6.17,.6,9.36-.25,.23-.54,.36-.88,.38-7.56,.47-17.28-10.06-21.18-16.08-4.29-6.63-7.01-14.32-8.14-23.07-1.53-11.71,1.96-23.35,5.28-34.77,2.11-7.28,.14-15.85,1.11-23.71,2.47-20.03,3.6-39.61,4.91-53.04,1.54-15.88,3.35-27.8,5.43-35.76,4.6-17.58,10.29-35.99,12.97-52.99,3.88-24.68,7.51-49.16,14.44-73.23,3.03-10.53,5.92-18.76,8.67-24.71,5.58-12.13,18.13-19.8,30.97-22.98,13.4-3.31,23.52-5.58,31.68-17.88,2.95-4.44,2.74-8.41,2.5-13.54-.02-.57-.36-1.08-.87-1.34-12.54-6.33-25.15-18.72-28.4-32.61-.37-1.59-.75-3.18-1.12-4.78-.06-.28-.33-.46-.62-.41-.32,.07-.6,.15-.83,.26-6.33,2.99-12.04-8.51-14.44-12.53-3.59-6.05-8.28-16.81-6.57-23.93,.09-.36-.05-.49-.41-.39-.43,.12-.76,.39-1,.8-5.29,8.97-3.93,17.67,.27,26.69,.03,.08,.01,.14-.06,.18h0c-.08,.04-.14,.02-.18-.05-3.92-6.73-5.58-13.34-4.98-19.81,.32-3.37,1.9-7.21,4.73-11.53,.31-.47,.39-.98,.23-1.53l-.13-.45c-.06-.21-.28-.32-.49-.26-.08,.03-.15,.08-.2,.15-5.29,7.77-6.8,16.24-4.51,25.41,.19,.75,.11,.78-.24,.09-3.39-6.71-2.06-16,.83-22.61,.91-2.07,2.46-3.66,3.93-5.31,.33-.36,.46-.86,.37-1.34l-.06-.36c-.09-.51-.33-.58-.71-.23-4.04,3.79-7.59,10.39-7.62,15.59,0,0,0,.02,.01,.03s0,.02-.02,.02c0,0-.01,0-.01-.01,0-7.59,2.76-13.84,8.27-18.77,.26-.23,.39-.52,.39-.87,.12-9.33,1.41-14.03,2.17-22.51,.15-1.73,.7-5.02,1.64-9.85,2.33-11.98,6.76-22.5,15.64-30.8,2-1.87,1.81-2.13-.58-.8-7.55,4.22-13.11,11.37-16.61,20.23-.05,.11-.12,.14-.23,.11h0c-.11-.05-.14-.12-.11-.23,3.41-10.66,9.65-20.02,20.19-24.68,16.6-7.33,29.43-17.2,47.92-18.06,.14,0,.25-.13,.24-.28v-.02c-.02-.13-.07-.2-.16-.21-10.13-1.63-17.46-1.19-25.23,5.99-.11,.11-.23,.11-.34,0l-.21-.22s-.03-.05-.01-.07c4.61-5.03,10.26-8.32,16.93-9.86,8.23-1.9,14.73-.07,22.16,3.36,.31,.14,.61,.12,.9-.06,14.07-8.72,30.52-7.35,41.61,4.96,.11,.13,.11,.25-.01,.37l-.18,.18s-.07,.04-.12,.01c-7.95-6.83-16.88-8.92-26.79-6.28-1.13,.3-1.11,.48,.06,.55,2.67,.15,5.59,0,8.15,.44,8.53,1.51,15.65,4.66,22.71,9.18,4.24,2.73,10.25,3.38,15.09,4.89,.39,.12,.59-.02,.6-.42,.13-5.64,3.69-9.5,9.56-8.48,1.77,.31,3.23,1.35,4.76,2.36,.27,.18,.61,.21,.92,.1,7.5-2.84,13.43-1.56,21.29,.26,3.81,.88,6.76,1.85,8.87,2.91,12.16,6.13,19.37,20.47,15.31,33.98-.1,.33-.09,.65,.03,.97,2.63,6.98,5.3,12.77,6.71,21.07,1.38,8.21,1.59,18.62,1.74,26.15,.09,4.39,1.45,6.52,4.54,10.03,8.6,9.77,15.22,17.9,16.45,31.32,.27,3.04-.29,6.84-1.66,9.34-.97,1.77-1.24,1.67-.81-.3,2.15-9.67-2.71-21.32-9.09-28.44-2.57-2.87-5.11-5.76-7.62-8.66-.27-.31-.39-.26-.36,.15,.58,7.15,4.17,17.88,11.35,20.98,.34,.14,.59,.38,.74,.72,1.2,2.61,1.19,5.17-.04,7.68-.26,.52-.88,.74-1.4,.48-.06-.03-.11-.06-.17-.1l-1.85-1.36c-.46-.34-.61-.23-.46,.32,1.01,3.73,1.42,7.52,1.24,11.38-.01,.35-.13,.67-.34,.96l-.61,.83c-.21,.27-.18,.66,.07,.9,2.8,2.73,6.01,4.83,9.63,6.3,.33,.14,.5,.51,.39,.85-.37,1.11-.93,2.12-1.68,3.01-.23,.28-.22,.55,.03,.81,.19,.2,.41,.36,.65,.48,.63,.31,.6,.53-.08,.67l-.74,.15c-1.45,.29-1.59,.89-.42,1.8l1.11,.87c.33,.25,.39,.72,.14,1.05-.1,.14-.25,.23-.42,.28-4.05,1.02-6.58-1.47-9.62-3.28-.77-.46-.95-.29-.54,.5l3.64,6.96c.14,.26,.39,.45,.69,.51,.54,.11,1.01,0,1.41-.31,.23-.18,.38-.13,.45,.16,.25,1.1-.08,2.06,.06,2.96,.35,2.37,1.79,3.73,4.31,4.07,.33,.04,.6,.28,.7,.6,.53,1.74-2.14,2.31-3.26,2.43-.35,.03-.6,.34-.56,.7,.01,.14,.07,.26,.16,.36,.89,.99,1.81,1.81,2.74,2.48,.45,.32,.63,.56,.54,.73-.38,.67-1.11,1-1.75,.8l-10.53-3.29c-.19-.06-.27,0-.24,.2,.2,1.46,.1,2.9-.3,4.31-.09,.3-.02,.57,.19,.8l4.01,4.27c.72,.77,.66,.84-.19,.22-1.14-.83-2.45-2.04-3.93-3.65-.24-.26-.63-.27-.89-.04-.09,.08-.15,.18-.18,.3-.95,3.51-2.56,6.69-4.81,9.55-.16,.2-.12,.49,.07,.65,.03,.02,.06,.04,.09,.05,3.85,1.92,7.92,3.07,12.21,3.46,.86,.08,1.05,.48,.56,1.19-1.17,1.71-2.7,3.04-4.58,3.97-.41,.21-.42,.44-.05,.69,.22,.15,.51,.21,.87,.18,.45-.05,.75,.07,.91,.36,.17,.29,.12,.53-.15,.74-5.08,3.94-12.5,3.59-17.87,.92-1.55-.77-2.87-1.27-3.94-1.5-1.93-.41-3.7-.54-5.45-1.47-1.91-1.02-3.77-2.12-5.58-3.29-.35-.22-.47-.13-.38,.27,.41,1.8,.73,4.01-1.79,4.22-3.31,.28-7.18-4.96-8.63-7.65-6.18-11.48-8.2-23.89-8.05-36.78,.01-1.13-.2-1.17-.65-.14-4.21,9.75-3.12,20.63-.02,30.56,.09,.29,0,.51-.28,.64-.55,.27-1,.21-1.37-.18-1.43-1.51-2.48-3.6-3.15-6.25-2.58-10.14-1.34-19.79,3.71-28.94,.1-.17,.06-.31-.11-.42l-.25-.15c-.11-.07-.2-.04-.27,.07-2.25,3.55-4.14,6.29-8.18,7.89-.26,.11-.55-.02-.65-.27-.05-.12-.05-.26,0-.39,3.65-8.77,8.73-17.94,8.17-27.81,0-.1-.06-.15-.16-.15h0c-.1,0-.15,.05-.16,.15-.27,4.47-.83,11.74-4.86,14.48-1.15,.77-1.53,.5-1.14-.83,1.49-5.13,.57-10.6,1.24-15.91,.73-5.83,1.61-11.38,2.63-16.64,.49-2.52,.25-2.59-.7-.21-2.53,6.3-4.93,11.58-9.47,17.53-1.99,2.61-4.5,3.58-7.53,2.93-.38-.08-.6,.07-.66,.46-1.81,12.57-9.66,21.64-19.89,28.53-1.37,.92-1.19,2.26-1.24,3.75-.25,7.35-.84,13,2.42,17.18,5.83,7.45,10.49,12.95,19.97,15.71,5.29,1.54,10.6,3.93,15.95,7.18,13.19,8.02,23.66,15.3,29.82,29.38,2.52,5.77,4.56,11.69,6.13,17.78,6.08,23.66,9.06,45.08,11.46,72.2,1.03,11.75,5.24,26.57,8.79,39.38,5.23,18.86,8.28,37.93,10.11,57.4,1.45,15.41,2.74,30.83,3.85,46.26,.24,3.29,.28,8.7,.13,16.23-.26,13.33,6.19,25.28,3.65,38.43-3.36,17.32-10.46,34.15-29.86,37.69-2.36,.43-4.53,1.09-5.14-1.67-1.39-6.37,.54-7.22,4.54-11.34,5.58-5.74,5.53-13.02,6.71-20.34,.49-3.04-.07-6.11-1.69-9.22-.09-.18-.31-.25-.48-.16-.09,.05-.16,.13-.19,.23-.98,3.66-3.55,12.18-8.75,11.21-5.4-.99-2.83-8.46-2.35-11.9,.67-4.9,.4-10.05,.39-15-.02-5.56,.97-9.53,3-14.35,1.56-3.71,2.44-6.24,2.63-7.57,1.06-7.56-2.09-16.64-5.01-23.15-2.71-6.05-5.37-12.13-7.97-18.24-6.86-16.11-12.33-33.24-16.41-51.38-2.98-13.23-5.47-24.44-7.33-37.76-2.85-20.51-6.44-41.13-8.4-61.73,0,0,0-.01-.02-.01-.11,0-.19,.01-.25,.01-.07,0-.1,.03-.1,.1-.35,28.67-.16,57.28,.57,85.84,.03,.83,.46,1.6,1.16,2.04,3.29,2.09,5.81,6.76,8.35,12.55,17.49,39.91,21.39,83.79,22.33,126.85,.36,16.46,1.05,32.91,2.08,49.34,.02,.33-.18,.62-.48,.73l-24.53,8.97c-.34,.12-.53,.36-.58,.72-3.79,29.69-9.56,58.78-8.81,88.61,.31,12.12,3.29,23,6.31,34.68,3.17,12.29,4.34,24.63,3.93,37.32-.73,22.99-3.49,45.16-8.26,66.5-1.49,6.62-3.73,15.45-6.74,26.49-1.05,3.85-1.24,9.52-.56,17,.03,.27,.18,.41,.45,.41,10.16-.14,19.78,8.53,23.8,17.19,4.15,8.94-8.38,12.85-11.71,4.41-.07-.15-.24-.22-.39-.16-.09,.04-.16,.12-.18,.22-.32,1.9-1.1,3.59-2.34,5.06-.3,.36-.84,.4-1.2,.1-.16-.13-.26-.32-.29-.52-.08-.54,.02-1,.3-1.38,.21-.29,.34-.61,.41-.96,.77-4.32,.38-13.71-4.25-16.12-.17-.09-.39-.03-.49,.14-.03,.06-.05,.13-.04,.21,.31,3.72,.76,7.43,1.33,11.14,1.18,7.7,1.91,15.72,3.52,23.52,1.52,7.34-1.08,12.28-7.81,14.83-13,4.92-30.18,4.55-43.29,1.17-21.52-5.53-7.59-21.62-3.03-32.01,.8-1.8,.86-4.06,.56-6.32-.93-7.12-1.57-13.92,3.24-19.8,.22-.26,.33-.56,.33-.91,0-4.31,.3-7.38,.89-9.21,1.29-3.93,2.37-7.49,2.28-11.76-.11-5.32-.3-9.4-.57-12.24-3.1-32.87-9.31-65.17-10.27-98.25-.23-8.04-1.3-14.28-3.21-18.72-3.31-7.71-5.44-12.8-6.41-15.28-3.95-10.13-5.68-20.89-5.19-32.26,1.06-24.57,.88-49.14-.54-73.69-.01-.15-.14-.28-.29-.28l-7.93-.17c-.13,0-.2,.06-.21,.19-1.21,25.3-1.51,43.7-.89,55.21,.8,14.7,1.78,33.16-3.27,46.26-5,12.98-10.16,23.57-10.51,38.74-.79,34.49-6.65,68.37-8.69,102.75-.3,5.03-.52,9.09,.94,14.24,1.28,4.53,2.02,9.16,2.22,13.89,.01,.34,.13,.64,.35,.89,5.32,6.32,4.66,14.43,3.14,21.98-.3,1.52,1.21,5.3,2.23,7.14,4.2,7.56,12.52,20.92,1.67,26.98-12.27,6.85-31.41,5.82-44.6,2.92-6.97-1.54-14.49-4.78-13.43-13.53,.63-5.11,2.12-10.49,2.78-15.04,.74-5.07,1.49-10.14,2.25-15.21,.48-3.23,.62-6.24,.42-9.02-.11-1.49-.5-1.57-1.19-.24-1.82,3.54-3.1,7.54-3.84,11.99-.29,1.72,.09,3.74,1.13,6.07,.07,.15,0,.33-.15,.4h0l-.28,.11c-.34,.14-.59,.05-.75-.28-.93-1.95-1.48-4.02-1.64-6.21-.09-1.31-.42-1.37-.98-.18-4.97,10.55-15.39,3.05-10.38-5.46,4.99-8.45,12.39-12.9,22.2-13.33,.29-.01,.44-.17,.45-.47,.11-7.67-.68-14.47-2.36-20.39-7.43-26.18-12.18-54.18-14.27-84-.94-13.34-.41-25.51,1.58-36.5,.53-2.92,1.67-7.92,3.43-15,1.8-7.25,2.75-16.16,2.85-26.75,.12-12.98-.48-25.23-2.43-38.59-2.38-16.32-4.78-29.7-7.02-48.9-.04-.35-.23-.55-.58-.61-9.62-1.66-18.3-5.03-27.57-8.22-.33-.11-.48-.34-.43-.68,.95-6.89,1.53-12.8,1.72-17.75,.32-8.46,.87-26.24,1.64-53.33,.1-3.62,.53-7.09,.92-10.65,2.23-20.09,5.52-40,9.85-59.74,3.29-14.96,7.45-30.33,13.95-44.24,.87-1.86,2.05-3.26,3.52-4.21,.43-.28,.71-.75,.75-1.27l5.98-81.55c0-.11-.03-.17-.1-.18h-.01c-.15-.02-.24,.05-.26,.2ZM163.19,1.67c-4.32,.23-10.36,1.48-14.01,4.37-.02,.01-.02,.03-.01,.05l.15,.27c.08,.15,.19,.18,.34,.09,4.21-2.43,8.73-3.97,13.56-4.62,.03,0,.04-.02,.04-.05,0-.01,0-.03,0-.04,0-.04-.03-.07-.06-.07h0Zm-15.38,4.92c-5.61-2.42-11.51-4.88-17.73-3.49-.09,.02-.13,.08-.12,.17h0c.01,.1,.07,.15,.16,.14,5.13-.25,10.13,.91,14.98,3.49,.79,.43,1.69,.47,2.69,.13,.39-.13,.39-.28,.02-.44Zm117.74,37.5c.63,1.31,1.18,2.3,1.64,2.99,.14,.19,.41,.24,.6,.1,.11-.07,.17-.19,.18-.32,.49-11.85-4.17-20.98-13.99-27.38-.51-.33-.92-.56-1.23-.67-.22-.08-.47,.03-.55,.25-.06,.16-.02,.35,.11,.47,1.83,1.61,3.33,3.68,4.51,6.2,2.87,6.14,5.78,12.26,8.73,18.36Zm-48.35-11.88c10.62,14.04,16.4,30.82,17.24,48.27,.04,.88,.13,.89,.26,.02,1.53-10.39,2.06-20.95,1.59-31.7-.37-8.19-2.67-15.77-6.92-22.76-.21-.35-.65-.46-1-.25-.11,.06-.2,.15-.26,.26-2.34,3.99-5.88,5.85-10.61,5.59-.19-.01-.36,.13-.37,.33,0,.08,.02,.17,.07,.24Zm50.59,20.6c2.01,9.09,4.05,17.34,4.59,26.73,.29,5.07,.48,10.12,.57,15.17,0,.11,.07,.17,.18,.17h.26c.28,0,.42-.14,.43-.43,.14-15.2-.22-27.73-4.78-41.79-.1-.3-.43-.47-.74-.37-.02,0-.05,.02-.07,.03l-.27,.14c-.13,.06-.2,.21-.17,.35Zm-1.29,9.26c.37,.96,.5,.93,.41-.09l-.3-3.44c-.17-1.94-.44-1.94-.8,0-.14,.75,.09,1.93,.69,3.53Zm13.55,72.33l.26-.28c.3-.32,.36-.68,.19-1.09-3.23-7.39-5.25-15.63-6.04-24.74-.05-.5-.32-.84-.81-1.03-.27-.1-.41,0-.42,.28-.45,9.54,1.6,18.46,6.13,26.77,.11,.21,.37,.29,.58,.17,.04-.02,.08-.05,.11-.08Zm-1.01,1.72l5.33,14.81c.03,.07,.11,.11,.18,.08h0c1.04-.38,.69-3.99-.78-8.06l-.11-.3c-1.47-4.08-3.5-7.08-4.54-6.71h0c-.07,.03-.11,.11-.08,.18Zm-13.14,3.7c-1.39,9.82,1.45,20.22,6.8,29.13,.06,.1,.19,.13,.29,.07,.02-.01,.04-.03,.06-.06l3.4-4.89c.1-.13,.11-.32,.03-.47-4.15-7.93-7.78-14.98-9.6-23.81-.39-1.86-.71-1.85-.98,.03Zm-35,8.44c-.02,.09,.04,.18,.14,.2,.09,.02,.17-.04,.19-.12,.63-1.61,.81-3.29,.55-5.04-.03-.17-.05-.17-.08,0l-.8,4.96Zm28.82,12.84l3.59,17.07c.09,.44,.36,.59,.79,.46l3.27-1.01c.31-.1,.38-.29,.21-.56-2.85-4.63-5.06-9.47-6.65-14.52-.21-.65-.47-1.19-.8-1.62-.08-.1-.22-.12-.32-.05-.07,.05-.1,.14-.09,.23Zm16.65,4.96l-1.71,2.66c-.49,.76-.51,1.53-.05,2.31,1.95,3.28,4.45,6.09,7.5,8.42,.22,.17,.53,.13,.7-.09,.11-.14,.14-.34,.07-.51l-5.46-12.7c-.29-.69-.64-.72-1.05-.09Zm-8.07,5.38c1.14,3.62,4.14,2.91,5.26,6.64,.03,.11,.1,.14,.2,.11h.01c.1-.04,.13-.11,.09-.21-.51-1.29-1.29-2.37-2.34-3.24-1.36-1.12-1.9-2.25-2.86-3.49-.46-.58-.58-.52-.36,.19Zm4.31,25.39l-4.32-15.49c-.1-.36-.33-.57-.7-.63l-2.65-.47c-.22-.04-.44,.11-.47,.33-.01,.07,0,.13,.01,.2,2.06,6,4.77,11.35,8.13,16.06,.23,1.11,.71,1.92,1.44,2.43,.27,.19,.39,.12,.34-.21-.08-.55-.16-.8-.06-1.34,.94-5.15,.79-10.27-.45-15.38-.09-.36,.03-.47,.37-.32,.21,.09,.38,.31,.52,.66,.61,1.54,.93,2.92,.98,4.13,.16,4.49,.36,8.99,.6,13.48,.04,.76,.15,1.47,.34,2.13,.09,.3,.4,.48,.71,.39,.11-.03,.21-.1,.28-.19,3.7-4.52,5.43-9.73,5.19-15.64-.01-.35-.17-.6-.48-.75-2.71-1.38-4.97-3.66-7.71-5.2-1.68-.95-2.56-2.05-3.73-3.49-.3-.37-.45-.32-.44,.16,.04,3.42,1.46,6.68,1.83,9.64,.34,2.67,.77,5.31,1.29,7.94,.21,1.07-.13,1.59-1.02,1.56Zm-9.46,13.42c-9.31-7.62-15.15-18.6-17.5-29.79-.02-.09-.08-.12-.17-.11h0c-.09,.01-.14,.07-.13,.16,.78,9.99,4.31,19.29,11.31,25.72,1.78,1.63,2.84,4.35,5.98,5.35,.27,.09,.49,.01,.64-.22,.28-.44,.24-.81-.13-1.11Zm-3.2-13.93c-.11-.12-.29-.12-.41-.01l-.1,.1c-.12,.11-.12,.29-.01,.41l8.23,8.79c.11,.12,.29,.12,.41,.01h0l.1-.1c.12-.11,.12-.29,.01-.41l-8.23-8.79ZM75.46,876.59c2.1-4.65,3.1-8.29,5.67-12.24,.19-.29,.12-.37-.21-.26-4.14,1.54-14.83,7.97-13.21,13.6,1.44,5.03,6.24,2.24,7.75-1.1Zm154.55-11.57c4.96,4.14,6.24,9.51,7.8,15.53,.61,2.36,2.13,3.37,4.54,3.04l.34-.05c2.59-.35,3.48-1.77,2.65-4.26-2.42-7.25-8.82-11.43-14.89-14.83-2.28-1.27-2.43-1.08-.44,.57Z"/></g></g></svg>