<?xml version="1.0" encoding="UTF-8"?>
<svg id="Layer_2" data-name="Layer 2" xmlns="http://www.w3.org/2000/svg" viewBox="0 0 198.62 758.16">
  <defs>
    <style>
      .cls-1 {
        stroke-width: 0px;
      }
    </style>
  </defs>
  <g id="Layer_1-2" data-name="Layer 1">
    <path class="cls-1" d="m190.74,319.92c4.01-17.77,6.53-35.76,7.57-53.97.45-7.89.4-14.97-.16-21.23-2.05-22.91-5.96-46.29-9.88-69.92-1.23-7.41-2.81-14.74-4.75-22.01-3.95-14.83-15.67-21.57-29.51-27.22-8.97-3.66-17.91-7.41-26.8-11.24-.42-.18-.8-.25-1.14-.21-.38.05-.74.16-1.07.34-.29.16-.6.21-.92.14-6.19-1.31-9-4.93-10.43-11.16-1.06-4.62-1.69-9.31-1.88-14.07-.14-3.26,2.1-6.29,3.56-9.11.16-.31.4-.4.73-.28,7.04,2.56,12.2-14.58,8.88-18.66-.2-.25-.22-.59-.06-.87,2.54-4.33,4.49-8.86,5.85-13.61,1.82-6.35,2.79-10.31,2.92-11.9.6-7.75-4.74-13.09-10.06-17.76-.25-.23-.44-.5-.56-.82C119.35,6.49,112.15,1.1,101.42.19c-6.93-.58-14.66-.21-18.07,6.79-.14.29-.37.4-.68.35-6.96-1.13-12.97.4-18.02,4.59-7.01,5.82-12.56,8.98-10.42,19.83.07.33.04.66-.08.97-2.34,6.11-2.03,11.71,1.86,17.1,1.7,2.35,3.32,4.77,4.85,7.26.17.29.1.49-.21.61-5.88,2.25-2.64,20.29,3.97,18.67.35-.09.57.04.66.39,1.3,4.59,3.3,8.84,6.01,12.75.83,1.2,1.33,2.45,1.51,3.74,1.15,8.32,2.16,16.65,3.03,25,.33,3.12.77,4.74-.99,6.8-1.77,2.07-3.95,3.11-6.53,3.13-.32,0-.61.1-.87.29-9.86,7.17-19.78,14.27-29.75,21.3-5.39,3.8-8.95,6.73-10.68,8.8-5.06,6.03-6.83,13.34-7.86,21.3-6.73,52.02-12.08,101.23-16.03,147.62C1.11,351.14.08,367.64.02,376.97c-.04,8.86-.25,16.08,1.87,22.5,1.84,5.54,1.49,12.26,1.93,18.02.11,1.5.92,2.17,2.41,2.02l5.49-.58c.36-.04.71.13.9.44,1.95,3.11,4.69,5.22,8.21,6.33.6.18.98.77.9,1.39l-5.89,48.08c-.13,1.07.5,2.09,1.51,2.45l12.24,4.46c1.19.43,1.9.02,2.13-1.22l2.69-14.4c.03-.13.14-.24.28-.26.18-.03.34.09.36.27,1.99,14.78,3.83,29.64,5.52,44.57.34,3,.24,5.76.19,8.75-.04,3.25.83,5.4,2.21,8.19.15.29.18.62.1.93-1.68,6.54-4.52,12.34-.04,18.58.19.27.22.56.09.87-.97,2.25-1.35,4.79-1.14,7.61,2.47,33.75,5.37,65.2,8.72,94.36.03.33-.03.65-.2.94-1.93,3.42-1.56,6.62,1.09,9.61.15.18.37.28.6.29l3.56.1c.35,0,.56.19.61.54.99,6.69,1.77,14.41,2.34,23.16.09,1.45-.1,2.75-.59,3.91-.15.35-.39.43-.72.25-2.87-1.56-5.88-2.71-9.01-3.45-.64-.15-1.3.18-1.56.79-.29.69.04,1.48.73,1.77l5.59,2.34c.45.19.44.34-.03.45-6.19,1.48-12.41,2.79-18.67,3.93-1.45.27-2.28,1.22-2.49,2.85-.04.31.08.55.36.7,4.07,2.16,9.95-.09,14.14-1.66.33-.12.38-.05.16.22-2.4,2.93-5.08,5.55-8.04,7.87-2.47,1.93-4.48,4.06-6.86,6.03-.27.22-.42.5-.47.85-.15.96-.43,1.58-.84,1.87-3.3,2.27-6.47,4.73-9.52,7.36-.24.21-.54.35-.85.4-3.92.66-6.52,1.51-7.8,2.55-5.39,4.4-4.46,9.65-6.56,14.49-.67,1.54-.93,5.03-.78,10.47.01.35.17.63.46.83,1.87,1.26,4.33,2.06,7.36,2.41,13.89,1.58,26.81,1.18,38.76-1.2,2.98-.6,6.35-3.57,10.37-4.2,8.37-1.29,16.74-2.58,25.11-3.85,4.85-.74,6.9-3.56,6.14-8.46-.67-4.29-.66-9.18-3.32-12.76-.2-.27-.31-.59-.32-.93-.25-8.99-.69-15.3-1.32-18.95-.51-2.96-1.89-5.76-4.14-8.41-.73-.86-1.24-1.78-1.52-2.77-.81-2.87-1.74-4.84-1.94-7.87-.52-7.88-.96-15.77-1.31-23.68-.01-.3.19-.58.48-.65,5.13-1.38,10.12-1.82,7.92-9-.34-1.1-1.09-1.44-2.03-1.94-.3-.15-.49-.46-.5-.79-.89-31.81-1.28-63.48-3.34-95.27-.05-.72-.51-1.96-1.38-3.72-.16-.31-.17-.69-.01-1.01,1.9-3.89,1.91-7.75.02-11.56-.13-.27-.09-.5.14-.69,3.27-2.79,1.65-8.76,1.09-13.57-.04-.34.02-.68.16-.99,1.87-3.97,2.65-8.1,2.34-12.38-.35-4.75-.53-7.14-.53-7.17-.05-16.74.22-33.45.81-50.14.03-.75.63-1.35,1.38-1.37l16.3-.5c.34,0,.53.16.58.49,3.37,24.85,5.7,49.81,7.01,74.87.13,2.51,1.44,5.35,3.93,8.52.22.28.3.59.23.94-.33,1.89-1.16,3.5-1.23,5.25-.13,3.59.72,6.95,2.56,10.09.17.28.23.62.18.94-.5,3.43-.76,6.43-.77,9-.21,30.27-.8,60.55-1.77,90.82-.01.35-.17.6-.48.75-2.14,1.08-1.68,5.76-2.05,8.07-.05.37.05.68.31.95,1.62,1.61,3.59,2.47,5.92,2.56,0,0,.01,0,.02,0,.34.02.6.32.58.66-.39,7.77-1.28,15.5-2.67,23.17-.57,3.15-1.25,5.08-2.02,5.81-3.85,3.6-5.95,8.46-6.28,14.59-.34,6.19-.56,12.4-.65,18.62,0,.3-.1.59-.29.82-2.03,2.49-3.42,13.08-1.95,15.83,1.74,3.27,7.5,5.4,10.94,6.07.34.07.5.27.49.62-.15,4.87,2.11,7.78,6.79,8.71,10.05,2.01,20.64,2.17,31.76.48,2.34-.36,7.6-1.18,7.58-4.27-.01-4.3-.43-9.6-1.24-15.89-.34-2.63-.39-5.47-2.65-7.1-3.35-2.4-5.59-5.09-6.73-8.07-.33-.86-.97-1.29-1.73-1.66-.34-.16-.55-.42-.63-.79-.41-1.85-1.22-3.52-2.43-4.99-.06-.08-.08-.18-.03-.27.06-.13.21-.19.34-.13,1.09.52,1.53,2.16,3.06,2.22.46.01.59-.19.39-.6-.63-1.35-1.46-2.57-2.47-3.68-.23-.25-.39-.55-.48-.88-1.53-5.38-4.32-9.97-8.38-13.76-.33-.31-.46-.79-.32-1.22.84-2.65.05-4.39-2.38-5.2-.47-.16-.67-.49-.6-.98l3.52-24.97c.06-.43.31-.65.75-.64,3.32.07,7.09.16,7.95-4.08.61-3,.03-5.35-1.75-7.06-.25-.23-.35-.52-.3-.85,4.6-33.5,9.38-68.48,8.96-102.87-.04-2.52-1.21-4.53-.97-7.12.43-4.48.03-8.92-1.21-13.31-.09-.33-.04-.63.16-.9,2.4-3.24-.25-6.17-2.11-8.82-.18-.26-.18-.61,0-.87,3.59-5.3,1.27-9.57-.65-14.53-.13-.31-.15-.63-.07-.96,2.41-10.51,2.46-22.48,3.03-32.62.15-2.65.52-2.68,1.12-.09.77,3.35,1.98,6.54,3.61,9.59.36.67,1.19.95,1.89.64,8.85-4,17.67-8.07,26.46-12.2,2.81-1.31,5.64-2.97,8.5-4.96.64-.44.92-1.24.69-1.99-2.27-7.47-4.39-15.18-6.37-23.14-6.12-24.64-12.15-49.3-18.09-73.98-.65-2.71-1.12-4.81-1.4-6.29-.07-.35.02-.66.26-.91,11.15-11.78,18.73-21.23,22.25-36.88ZM127.29,22.87s.03,0,.04,0c4.29,3.63,5.83,8.24,4.62,13.85-.04.15-.19.24-.34.2-.11-.03-.2-.13-.21-.24-.48-5.02-1.15-9.45-4.14-13.75,0-.03,0-.05.03-.06ZM38.56,697.02c-2.36.44-4.31.57-4.36.3-.05-.28,1.82-.86,4.17-1.3,2.36-.44,4.31-.57,4.36-.3.05.28-1.82.86-4.17,1.3Zm-1.36,12.52c-1.29,1.14-2.43,1.96-2.56,1.82-.12-.14.82-1.18,2.11-2.33s2.43-1.96,2.56-1.82c.12.14-.82,1.18-2.11,2.33ZM55.31,45.92c-.02.37-.11.38-.27.05-1.04-2.15-1.36-4.4-.95-6.76.09-.57.21-.57.34-.01.41,1.74.98,4.97.88,6.72Zm5.67-28.99c-2.54,3.72-3.93,7.93-5.67,12.44-.07.2-.28.31-.48.24-.16-.05-.26-.2-.26-.37-.13-5.25,1.82-9.53,5.86-12.82,1.33-1.07,1.51-.9.55.51Zm15.72-7.77s-.01,0-.02,0c-6.2.98-11.32,4.45-14.33,9.62-.07.13-.23.18-.35.11-.13-.07-.18-.23-.11-.35,2.78-6.25,7.64-9.59,14.57-10,.14,0,.23.06.27.19.02.09.04.17.07.26.02.08-.02.15-.09.17Zm29.99-2.16c0,.07-.04.1-.11.08l-4.45-1.07c-.09.28-.15.27-.19-.05l-2.82-.06c-.69-.02-.7-.12-.03-.29.95-.25,2-.23,3.13.06l4.46,1.04s.03.01.02.04c0,.07,0,.15-.01.25Zm-16.48-3.56c-1.51.55-3.04,1.96-4.53,2.77-.18.13-.43.08-.55-.11-.12-.19-.07-.44.11-.57h0c1.88-1.49,3.66-2.55,5.35-3.19,9.7-3.71,24.14.5,29.13,10.04.08.16.02.36-.14.44-.13.07-.3.04-.4-.07-6.51-7.55-19-12.95-28.97-9.31Z"/>
  </g>
</svg>