<?xml version="1.0" encoding="UTF-8"?>
<svg id="Layer_2" data-name="Layer 2" xmlns="http://www.w3.org/2000/svg" viewBox="0 0 230.48 742.63">
  <defs>
    <style>
      .cls-1 {
        stroke-width: 0px;
      }
    </style>
  </defs>
  <g id="Layer_1-2" data-name="Layer 1">
    <path class="cls-1" d="m174.86,227.7c-1.65,9.18-1.38,16.67.98,26.35,2.99,12.26,7.36,31.78-2.22,42.47-.28.31-.29.64-.04.97l.37.49c.23.31.34.67.33,1.06-.38,17.26,9.2,31.56,11.65,48.27.38,2.6.5,5.92.35,9.95-1.63,44.15-2.76,85.99-3.4,125.51-.3,18.06-.18,37.06,1.13,55.73,1.17,16.5,2.28,33.01,3.35,49.52,2.1,32.51,2.01,65.01-.27,97.5-.07.99-.37,1.99-.91,3-.14.26-.39.43-.67.45l-4.19.4c-.29.03-.5.28-.47.57,0,.05.02.1.04.15,1.8,4.35,3.85,8.55,6.15,12.6,5.89,10.36,17.12,12.35,15.17,27.05-.04.31.04.62.22.88,4.36,6.14-2.57,9.97-7.67,10.82-4.54.75-10.27,1.02-17.18.82-6.16-.18-16.83-3.81-17.75-11.15-.42-3.35-.77-6.69-1.05-10.03-.05-.59-.31-.71-.78-.35l-1.77,1.33c-.61.47-1.45.54-2.13.17-1.81-.96-7.25-4.37-7.47-6.7-.31-3.41.98-6.59,1.22-9.34.33-3.61.75-7.21,1.26-10.8.05-.33.01-.66-.11-.97-1.46-3.64-2.52-7.69-3.17-12.15-4.85-33.38-6.67-64.38-5.48-93,.99-23.6-.22-45.72-3.62-66.35-1.62-9.86-5.09-20.42-6.32-30.84-3.22-27.27-7.59-54.36-13.12-81.26-.55-2.67-1.49-5.46-2.18-8.15-.07-.27-.34-.43-.61-.36-.18.05-.32.19-.36.37-7.07,29.6-9.89,54.85-14.42,90.3-.61,4.76-1.6,10.26-2.97,16.5-4.4,19.96-7,40.08-6.92,60.55.07,15.66.53,31.81-.12,46.98-.94,21.85-2.84,43.18-5.69,64.01-.59,4.37-1.73,8.87-3.4,13.51-.11.31-.13.65-.06.98.76,3.22,1.19,6.47,1.28,9.75.11,3.82,1.47,7.45.44,11.74-.05.19-.16.37-.32.49l-6.8,5.01c-.29.21-.66.26-.99.12l-2.79-1.16c-.37-.15-.56-.03-.58.36-.16,3.4.53,7.13-.78,10.13-5.57,12.74-25.22,11.46-36.45,9.3-5.3-1.02-9.32-5.67-5.77-10.82.2-.29.29-.61.26-.96-.81-10.39,4.54-14.7,11.12-21.22,4.63-4.58,7.66-12.94,10.25-18.89.15-.35.04-.5-.34-.45-3.01.36-5.48,1.58-5.86-2.9-2.59-30.91-2.93-61.33-1.04-91.24.91-14.42,2.18-31.26,3.82-50.52.6-7.05.98-13.7,1.15-19.97,1.47-54.83-1.39-102.83-3.17-154.25,0-.04-.23-3.37-.7-10-.7-10.02.77-19.79,4.41-29.3,3.96-10.34,8.54-20.86,8.29-31.25,0-.33.09-.64.28-.91l1.09-1.54c.2-.28.17-.54-.08-.78-7.04-6.55-6.79-16.93-5.86-26.12.8-7.96,5.04-20.01,4.9-29.8-.05-4.03-.43-7.98-1.12-11.85-.04-.17-.21-.28-.39-.24-.13.03-.23.15-.24.29-.07,11.25-1.04,21.16-3.42,32.84-3.09,15.22-6.74,29.98-8.64,45.61-.15,1.24-.82,2.29-1.19,3.53-.15.49.03.68.53.58l3.95-.81c.23-.05.46.1.51.33,0,.03,0,.06,0,.09.02,1.62-.55,2.99-1.7,4.11-.28.27-.32.57-.13.91,1.18,2.06,1.46,4.28.84,6.67-.09.35-.3.61-.61.8-2.97,1.77-6.16,2.97-9.57,3.58-.28.05-.51.26-.59.53-2.33,8.54-3.8,17.18-4.39,25.91-.17,2.45-.11,4.63.16,6.55,1.17,8.13,7.46,13.59,9.48,21.52.49,1.97.73,4.49.7,7.58-.07,6.84.48,13.64,1.67,20.39.41,2.31-1.09,8.61-5.15,5.74-6.04-4.25-.3-17.32-5.87-21.72-.25-.2-.53-.24-.82-.11-4.93,2.11-2.83,12.97-1.54,17.62.98,3.5,2.5,5.63,5.26,7.75,3.64,2.81,7.44,5.35,7.42,9.29-.01,1.13-.93,2.04-2.06,2.03-.21,0-.42-.04-.62-.1-7.47-2.45-14.17-6.27-20.12-11.48-.23-.21-.38-.46-.45-.76-1.41-6.23-4.04-11.9-7.87-16.99-.19-.27-.29-.59-.28-.92.17-3.92,1.45-7.97,1.6-11.51.25-5.54.8-11.56,1.65-18.07.66-5.06-1.03-9.81-.55-15.18.8-9.04.26-18.31-.74-27.32-.04-.31-.29-.56-.6-.59-5.7-.54-7.59-3.83-8.21-9.3-.45-3.97-1.5-7.75-3.13-11.34-.26-.57-.01-1.24.56-1.5.13-.06.28-.1.42-.1l5.47-.24c.36-.01.54-.2.54-.56-.04-10.42.32-20.81,1.07-31.17,1.15-15.76,4.48-32.25,7.2-48.19,1.53-9.01,3.67-27.85,6.42-56.52.41-4.24,1.46-9.96,3.17-17.15,2.99-12.55,11.78-19.4,23.11-24.11,11.27-4.69,22.61-9.17,34.02-13.43.53-.2.96-.63,1.16-1.16,1.65-4.26,4.47-12.13,8.47-14.6.28-.17.44-.42.47-.75.4-3.71,1.39-7.31.34-11.03-1.03-3.66-1.57-7.4-1.6-11.22,0-.33-.27-.61-.6-.62-3.84-.14-4.46-2.62-5.91-6.17-1.88-4.62-5.03-13.89,1.75-16.24.31-.11.43-.32.36-.64-2.07-9.59-4.86-23.4-2.1-32.24,1.59-5.15,4.63-9.13,9.1-11.94,7.62-4.79,32.6-12.32,37.47-.04.13.35.39.53.77.54,12.34.5,15.55,13.98,14.6,23.83-.65,6.67-1.58,13.31-2.8,19.92-.07.37.08.57.46.59,2.43.11,3.73,1.61,3.92,4.48.38,5.69-1.14,16.59-7.71,17.92-.34.07-.53.27-.56.62-.37,3.65-.89,7.27-1.58,10.84-.85,4.42-.28,8.1.04,12.43.02.31.18.52.47.62,1.53.55,2.64,1.78,3.33,3.69.74,2.04,2.61,5.72,5.6,11.03.16.29.39.49.7.62,10.17,3.99,20.27,8.08,30.32,12.26,11.79,4.91,21.59,9.29,25.46,21.71,2.2,7.04,3.58,14.36,4.54,22.43,1.46,12.21,2.9,24.43,4.32,36.65,1.83,15.68,4.74,31.46,7.14,47.17,2.51,16.41,3.5,32.92,2.97,49.52-.01.37.17.59.54.65l6.54,1.04c.27.04.45.29.41.56,0,.06-.03.12-.06.18-2.22,3.9-3.52,8.51-3.91,13.82-.31,4.22-4.17,5.94-7.58,7.23-.51.19-.86.65-.9,1.19-.71,8.71-.87,17.22-.48,25.55.11,2.45.08,4.62-.1,6.52-.27,2.99-.8,5.63-.47,8.65,1.11,10.07,2.21,20.13,3.31,30.16.05.46-.07.93-.34,1.32-3.86,5.53-6.61,11.57-8.26,18.13-.08.32-.27.59-.53.78-6.18,4.37-12.79,7.95-19.82,10.76-.29.11-.61.1-.88-.04-4.29-2.22.25-7.18,2.55-8.83,3.51-2.54,6.3-4.97,7.68-9.27,1.01-3.14,3.47-17.65-.49-18.64-4.22-1.05-4.49,12.51-4.66,15.26-.25,4.11-1.7,6.58-5.62,7.59-.31.08-.58,0-.81-.24-1.4-1.54-2-3.01-1.81-4.41,1.09-8.12,1.67-16.28,1.75-24.48.05-4.19,2.78-10.56,5.28-14.9,1.94-3.38,4.11-6.32,4.99-10.07,2.49-10.49-.98-23.86-3.29-34.07-.17-.74-.78-1.29-1.53-1.38-5.57-.69-12.17-3.17-9.17-10.45.12-.29.12-.63,0-.93l-1.52-3.7c-.12-.27.01-.59.29-.71.08-.03.16-.05.24-.04l4.74.28c.42.03.58-.16.49-.57-.52-2.27-1.39-4.57-1.77-6.65-2.26-12.35-4.32-22.46-6.19-30.33-3.57-15.04-5.66-30.29-6.25-45.76-.01-.14-.14-.24-.27-.22-.1.01-.19.08-.22.18Z"/>
  </g>
</svg>