<?xml version="1.0" encoding="UTF-8"?>
<svg id="Layer_2" data-name="Layer 2" xmlns="http://www.w3.org/2000/svg" viewBox="0 0 198.09 755.21">
  <defs>
    <style>
      .cls-1 {
        stroke-width: 0px;
      }
    </style>
  </defs>
  <g id="Layer_1-2" data-name="Layer 1">
    <path class="cls-1" d="m198.01,341.21c-.92-6.17-7.77-8.17-12.13-10.98-.43-.28-.49-.62-.17-1.02,3.73-4.63,4.05-9.52.96-14.68-.2-.32-.23-.72-.1-1.07,1.85-5.11-.06-7.89-3.32-12.24-.21-.27-.25-.56-.14-.88,4.12-11.63,5.41-23.91,3.86-36.83-3.5-29.21-6.52-58.5-11.42-87.51-1.97-11.65-7.88-20.5-17.73-26.55-4.4-2.7-10.44-6.65-18.11-11.85-4.31-2.92-7.64-5.71-10.01-8.37-.21-.24-.48-.33-.79-.28l-.97.16c-.33.05-.6-.04-.83-.28-2.03-2.18-3.04-4.8-3.03-7.85.03-9.78.08-19.57.16-29.37.04-4.71,3.21-10.21,4.93-14.62.13-.31.36-.47.69-.46,9.49.08,9.5-20.6,2.4-22.99-.29-.1-.34-.27-.15-.51l4.78-6.06c.21-.27.33-.57.35-.91l.29-4.26c.01-.16.09-.3.21-.4.24-.2.6-.16.8.08l.34.43c.27.34.42.29.45-.14.11-1.83-.42-3.34-1.61-4.51-.32-.32-.4-.69-.23-1.12.54-1.35.16-2.44-1.15-3.29-.1-.07-.14-.19-.11-.3.04-.14.18-.22.32-.18l2.03.54c.23.06.48.03.69-.09.44-.25.59-.82.34-1.26-.23-.4-.34-.89-.31-1.47.12-2.61-.8-4.54-2.94-6.06-.19-.13-.31-.31-.38-.52l-.08-.28c-.09-.27-.26-.47-.51-.6l-6.37-3.14c-.22-.11-.37-.32-.4-.57-.05-.4.23-.76.63-.8l2.67-.35c.43-.02.76-.39.74-.82-.02-.43-.39-.76-.82-.74l-3.65-.1c-.11,0-.22-.05-.29-.13-.16-.17-.16-.44.01-.61l3.42-3.17c.15-.13.25-.32.27-.53.13-1.49.02-2.96-.33-4.42-.34-1.44-.53-1.42-.57.06-.1,3.62-1.92,5.9-5.45,6.83-.18.04-.36-.02-.48-.16-.16-.2-.13-.48.07-.63,1.41-1.17,2.21-2.69,2.41-4.55.07-.56-.16-.72-.67-.49-.91.42-1.53,1.1-1.84,2.05-.11.34-.39.59-.74.67l-1.92.43c-.31.07-.47-.05-.49-.36-.61-8.6-10.22-10.19-16.77-7.62-1.53.6-2.92.92-4.18.96-6.99.23-12.24.3-17.94,4.95-.04.04-.1.05-.16.02-.07-.04-.1-.13-.06-.2,2.95-5.76,7.73-8.5,14.34-8.23.35.02.46-.13.33-.46-.08-.21-.27-.33-.57-.35-6.58-.53-12.89.22-18.94,2.25-8.67,2.91-15.75,8.79-9.47,18.45.16.24.21.54.14.82-.14.56-.7.91-1.27.77-4.44-1.11-7.97-.06-10.6,3.13-1.03,1.26-.89,2.39.42,3.38.29.21.3.44.03.68-2.61,2.33-4.63,5.06-6.07,8.19-2.79,6.06,2.62,10.72,7.94,11.74.15.03.28.12.36.26.13.25.04.56-.21.69l-1.37.76c-.13.07-.21.2-.23.35-.03.26.15.5.41.54l2.65.3c.16.02.32.08.45.17.48.32.62.97.3,1.45l-1.12,1.67c-.05.08-.07.18-.03.27.06.16.23.24.38.18l1.89-.73c.14-.06.3-.04.42.06.18.15.21.41.07.59l-1.01,1.28c-.1.13-.12.3-.04.44.11.19.36.26.56.16.65-.38,1.34-.48,2.07-.3.53.13.62.41.26.82l-1.41,1.63c-.11.12-.14.29-.06.44.1.19.33.26.51.16,1.41-.64,2.75-.5,4.03.42.29.21.31.43.04.68-1.07.97-1.68,2.35-1.85,4.13-.54,5.87,1.16,10.73,5.11,14.6,2.41,2.36,4.77,2.62,7.06.77.25-.2.47-.17.66.09,3.06,4.05,5.28,7.88,5.56,13.15.25,4.79-.11,9.53-1.1,14.21-1.3,6.2-4.36,10.34-10.57,11.49-2.15.39-3.73.82-4.75,1.27-8.63,3.79-17.31,7.46-26.04,10.99-8.24,3.33-14.42,6.91-18.58,13.9-3.33,5.59-5.89,12.44-7.69,20.57-5.64,25.43-9.93,51.07-12.87,76.94-1.65,14.47-3.04,24.71-2.51,36.26.52,11.51,3.16,23.36,7.91,35.53,2,5.13,4.74,9.23,8.22,12.31.25.22.4.5.43.83.69,6.35,1.32,11.75,5.63,16.88,5.99,7.11,11.76,3.28,18.46.64.36-.15.59-.03.69.35.71,2.67,2.14,4.88,4.31,6.62.25.2.37.46.38.77.13,7.95-.21,15.89-1.03,23.8-.67,6.46-5.18,11.07-1.74,18,.15.31.21.63.2.97-.21,4.68-.12,9.55-.58,14.15-2.47,24.54-4.41,49.13-5.81,73.76-.29,5.03-.89,9.93-1.8,14.68-4.39,22.95-9.39,46.9-11.08,69.22-2.35,31.11-3.85,62.25-4.5,93.44,0,.33-.11.62-.32.88-1.47,1.8-2.14,3.81-2,6.03.34,5.38,6.92,5.19,10.47,6.08.35.08.53.3.55.65,1.15,20.45-.86,40.41-4.73,61.22-.76,4.07-.59,7.68-.71,11.78-.01.34.09.64.31.89,4.67,5.49,19.26,5.75,26.38,5.39,4.44-.22,18.88-.11,17.77-7.37-.53-3.47-.28-6.56-1.39-9.87-2.73-8.09-6.05-15.95-7.52-24.27-.83-4.69-1.6-9.4-2.32-14.11-.41-2.67-2.07-4.58-2.23-7.43-.29-5.23-.41-10.44-.37-15.62,0-.59.27-1,.8-1.25l2.69-1.24c.31-.14.51-.37.62-.7.99-3.09.7-5.95-.87-8.58-.17-.29-.24-.6-.21-.94,2.4-27.47,5.31-54.88,8.73-82.24.73-5.85,1.69-11.66,2.86-17.44.74-3.65.52-6.82.15-10.4-.03-.34.09-.67.32-.91,3.89-4.02,4.48-6.51,5.4-11.95.29-1.69.72-3.4,1.31-5.14,2.24-6.59,4.38-13.02,6.08-19.94,7.35-29.88,14.3-60.26,23.79-89.04.55-1.66,1.31-3.51,2.3-5.54.23-.49.37-.46.4.08.94,15.73,1.72,31.48,2.34,47.23.16,4.09.97,8.09,1.58,12.15.3,1.99.28,4.09-.07,6.31-1.54,10.01-2.46,21.63.06,31.53.1.38.04.73-.18,1.05-2.85,4.27-3.1,8.7-.77,13.3.16.32.18.69.06,1.03-1.99,5.48-5.01,10.14-2.24,16.4.13.3.18.63.13.96-.45,3.18-1.65,6.45-2.05,9.27-4.51,32.2-6.38,64.66-8.88,97.06-.03.33-.15.64-.36.89-2.84,3.43-3.01,9.88,2.4,11.01.35.08.53.3.52.67-.12,6.15-.79,12.23-2,18.26-.07.36-.28.55-.65.57-6.41.34-3.11,5.75-4.53,9.04-2.63,6.09-4.16,12.44-4.59,19.03-.13,2-.46,4.32-.99,6.95-.57,2.85-.8,5.76-.67,8.72.04.9.31,1.61.81,2.14,2.74,2.92,13.88,3.39,18.47,3.51,7.92.2,15.32.54,23.4,1.99,7.1,1.28,14.55,2.81,21.31,3.16,6.23.31,28.96.34,32.59-5.45.75-1.19.89-2.71.41-4.54-1.32-4.96-2.74-8.22-8.1-9.77-4.85-1.41-9.7-2.87-14.53-4.36-8.98-2.76-15.63-9.71-22.18-16.39-4.56-4.65-6.67-6.71-8.94-11.8-.57-1.29-1.69-1.84-3.36-1.67-.36.04-.53-.12-.51-.48l.54-14.19c.02-.62.49-1.13,1.1-1.21,3.59-.47,9.5-.13,10.45-4.92.39-1.99.77-5.47-1.31-6.44-.29-.13-.46-.44-.41-.75,4.33-29.87,8.73-59.73,13.2-89.58.21-1.41.85-4.14,1.9-8.18,1.13-4.33,1.52-8.76,1.19-13.31-.03-.34.11-.67.37-.88,4.7-4,2.75-8.97,3.77-14.16,1.83-9.3,3.25-18.67,4.26-28.1,4.18-39.12,8.32-78.24,12.41-117.37.5-4.84,1.69-11.78,3.35-15.29,3.7-7.82,12.42-9.17,9.59-19.81-.21-.79.21-1.62.98-1.92,4.52-1.75,10.92-6.07,10.08-11.66ZM134.32,23.87c2.56,1.45,3.94,3.63,4.15,6.52.02.27-.06.5-.24.7-.37.42-.86.29-1.47-.38-1.69-1.85-2.61-4.07-2.74-6.66-.01-.25.09-.31.3-.18Zm-1.39,25.96l1.04-3.81c.09-.35.2-.36.33-.01.45,1.32-.2,3.01-1.18,3.94-.2.19-.26.15-.19-.12Zm-75.21-1.58c-8.98-2.94-7.2-11.85-.91-16.19.11-.07.25-.03.32.08.04.06.04.14.01.21-2.69,5.41-2.39,10.57.9,15.49.3.44.19.58-.32.41Zm4.3-19.57c-2.79,3.5-4.07,7.51-3.85,12.04.05,1.04-.14,1.09-.57.14-1.5-3.23.42-10.71,4.16-12.5.57-.27.65-.17.26.32Zm3.03-4.47l-7.05,3.42c-.47.24-1.04.05-1.28-.42-.17-.33-.12-.73.11-1.02,1.99-2.59,4.68-3.61,8.07-3.05.31.06.51.36.46.67-.03.18-.15.33-.31.4Zm5.41-4.38c.11.38,0,.45-.31.21-5.91-4.52-1.83-12.54,3.81-14.8.16-.06.19-.02.08.11-3.33,4.38-5.17,8.93-3.58,14.48Zm8.74-14.76c-2.99,2.89-4.63,6.34-6.16,10.44-.06.19-.26.3-.45.24-.17-.05-.28-.22-.25-.4.44-4.6,2.61-8.18,6.51-10.73,1.68-1.1,1.8-.95.35.45Zm40.39,5.41s0,0,0,0c0,0,0,0,0,0,0,0,0,0-.01,0,0,0,0,0-.01,0,0,0,0,0,0,0l-13.69-5.4s-.01-.01-.01-.02c.74-1.88,4.35-2.22,8.06-.76l.28.11s0,0,.01,0c.11.04.22.09.33.14.12.05.24.1.35.15.1.05.2.1.3.15.12.06.23.11.35.17.1.05.2.11.3.16.11.06.21.11.32.17.1.06.2.12.29.18.09.06.19.11.28.17.1.07.2.14.3.21.08.06.16.11.24.17.1.07.19.15.28.22.07.06.14.11.21.17.08.07.15.14.23.21.07.06.15.13.21.19.07.06.12.13.19.2.07.07.14.14.2.21.06.07.12.15.18.22.05.06.11.13.16.19.06.08.11.15.16.23.04.06.09.12.12.18.04.07.08.14.12.22.04.07.08.13.11.2.03.07.06.14.08.21.03.07.06.14.08.2.02.07.03.14.05.2.02.07.04.13.05.2.01.07.01.14.02.21,0,.06.02.12.02.18,0,.07-.01.14-.02.2,0,.06,0,.12-.01.17-.01.06-.04.13-.05.19-.02.06-.03.11-.05.17Z"/>
  </g>
</svg>