<?xml version="1.0" encoding="UTF-8"?>
<svg id="Layer_2" data-name="Layer 2" xmlns="http://www.w3.org/2000/svg" viewBox="0 0 176.13 656.02">
  <defs>
    <style>
      .cls-1 {
        stroke-width: 0px;
      }
    </style>
  </defs>
  <g id="Layer_1-2" data-name="Layer 1">
    <path class="cls-1" d="m171.42,246.26c3.05-8.26,5.43-14.13,4.51-21.07-1.8-13.53-5.06-32.96-9.79-58.3-2.03-10.88-3.95-21.78-5.76-32.71-.02-.13-.41-1.42-1.18-3.89-.89-2.87.42-3.48.51-6,.03-.65-.02-1.12-.14-1.39-1.35-3.02-2.44-6.14-3.27-9.36-1.01-3.88-2.62-5.58-6.29-6.63-10.77-3.08-21.37-6.69-31.78-10.82-3.15-1.25-5.76-2.74-7.82-4.47-3.11-2.61-6.01-5.66-8.7-9.13-.54-.7-1.12-.77-1.74-.2-.25.23-.42.17-.49-.16-1.51-6.32-.44-11,1.21-17.62.08-.32.28-.5.61-.55,4.17-.61,6.63-6.72,7.69-10.21.92-3.06.44-5.77-1.43-8.12-.21-.26-.27-.55-.2-.88.37-1.59.65-3.19.84-4.81.39-3.5,1.98-7.13.4-11.42-.06-.17-.07-.34-.04-.51.02-.11.04-.22.06-.33.02-.11.06-.12.11-.01l.44.89c.05.14.21.21.35.16.14-.05.21-.21.16-.35-.88-3.23-1.92-6.04-3.12-8.44-1.15-2.32-3.42-3.42-4.77-5.54-2.39-3.73-4.92-6.53-7.59-8.39-4.74-3.29-15.79-7.39-22.3-5.53-.22.06-.44.08-.67.05-.21-.03-.4,0-.57.08-.25.12-.24.2.04.25,2.61.49,5.23.97,7.86,1.46.05.01.08.05.07.1l-.03.26c-.02.14-.14.25-.28.24-3.53-.19-7.05-.08-10.56.33-3.26.38-8.21,3.4-11.12,5.05-.25.15-.4.3-.44.47-.09.33.03.44.35.34l2.96-.91c1.35-.41,1.42-.24.23.51-3.02,1.89-10.16,5.58-11.85,8.61-.27.5-.15.64.38.42,1.31-.54,2.47-1.28,3.49-2.22.16-.15.29-.18.38-.09h.01c.09.09.1.17.02.26l-3.67,4.03c-.04.83-.24,1.66-.6,2.48-1.55,4.53-1.95,9.04-1.21,13.51.48.47.89,1.11,1.22,1.94l2.69,9.15c.09.32.08.64-.03.95-1.03,2.85-.86,5.65.51,8.38,1.95,3.89,3.65,8.2,6.35,9.09.32.11.57.36.67.68,1.2,3.74,2.1,10.69,5.83,14.09.2.18.32.45.32.73v7.19c.02.35-.12.63-.39.85-1.23,1.01-1.95,1.98-2.16,2.91-.77,3.33-2.53,5.96-5.28,7.9-10.15,7.17-21.65,12.52-33,17.53-7.19,3.18-5.34,9.07-5.58,15.28-.38,9.68-.01,19.37.08,29.06.14,15.03-1.37,29.69-2.85,44.5-.15,1.61-.13,3.4.08,5.39.29,2.65-.71,4.01-1.99,6.08-1.73,2.8.03,4.55,1.41,6.7.19.29.19.67.01.97-2.09,3.31-3.11,5.59-3.05,6.85.42,8.65-1.96,18.54-4.58,26.75-.35,1.09-.18,2.39.53,3.89.14.3.12.65-.05.93-1.87,3.22-3.8,4.96-4.92,9.19-.78,2.95.02,7.92-.92,11.79-.77,3.14-1.87,6.39-1.52,9.39.61,5.28,3.58,11.24,6.29,15.3.19.27.28.58.29.91.18,6.9,1.9,13.36,5.17,19.38.77,1.42,1.22,3.5,1.36,5.12,3.21,37.9,6.96,65.16,11.55,97.73.99,7.01.13,14.26,1.36,21.12,1.16,6.43,2.85,12.72,3.97,19.12.67,3.87,1.31,8.82,1.91,14.84,1.2,12.01,2.38,24.03,3.53,36.05.74,7.75.96,14.94.65,21.57-.27,6.1-.22,10.04.15,11.82.91,4.31,2.91,8.22,6,11.71.1.12.18.25.23.4.24.66-.09,1.39-.74,1.62-3.99,1.45-7.95,2.26-6.93,7.72.06.33.23.58.51.75,2.21,1.36,4.58,2.33,7.12,2.92.41.09.48.3.21.63-2.86,3.43-6.5,5.51-10.93,6.26-.35.06-.51.27-.48.62.34,4.12,2.6,9.11,4.11,12.99.52,1.33.72,2.71.59,4.14-.38,4.48-.37,7.96-2.74,12.36-3.47,6.47-7.95,11.94-15.23,14.7-3.98,1.73-12.14,3.39-13.79,6.77-3.87,7.99,3.1,9.49,9.29,9.86,10.77.64,20.97.66,30.69-3.63,7.81-3.46,15.23-3.54,23.05-5.02,1.65-.32,3.05-.87,4.21-1.64.78-.52,1.2-1.43,1.09-2.36l-.71-5.95c-1.73-8.72-2.34-17.97-1.82-27.74.14-2.49,1.01-3.93-.21-6.35-.17-.33-.09-.59.22-.78,2.37-1.43,8.6-5.82,9.18-8.49.23-1.05-.43-2.1-1.48-2.35l-4.45-1.1s-.03,0-.04-.01c-.28-.1-.43-.4-.34-.68,1.13-3.25,2.32-7.52,1.34-11.07-.88-3.2-5-7.16-7.07-10.23-.19-.29-.2-.58-.02-.87,1.25-2.04,2.47-3.97,2.99-6.32,2.07-9.41-.03-18.83.03-28.34.12-19.12-.03-37.16-4.61-55.87-.08-.33-.05-.64.1-.95,2.18-4.44.77-6.71-1.23-10.83-.15-.3-.19-.64-.12-.97,1.04-4.74,1.2-6.5-1.02-10.89-.15-.31-.15-.62,0-.93,2.49-5.04,1.83-9.9.27-15.47-.16-.57-.1-1.38.18-2.45,2.43-9.24,2.27-18.84,2.64-28.3.75-18.61,2.96-37.05,6.64-55.3.08-.41.28-.48.61-.21,1.84,1.57,3.49,3.63,4.96,6.18,5.68,9.91,8.82,16.62,12.29,27.94,1.19,3.89,2.52,8.67,3.99,14.34,4.55,17.59,9.11,35.18,13.7,52.77.84,3.23.69,6.51,1.69,9.55,1.5,4.55,3.75,10.71,6.74,18.48,1.95,5.09,2.22,10.32,2.8,15.88,1.98,18.79,3.96,37.58,5.94,56.37.29,2.68,1.4,6.93,3.34,12.75.11.33.08.64-.09.94-3.62,6.46-8.18,11.39-6.08,19.32,1.2,4.52,6.81,4.58,8.29,7.78.03.07.06.15.08.23.13.6-.25,1.19-.85,1.32-3.02.64-5.75,1.95-8.18,3.92-7.24,5.86,9.87,10.77,9.9,16.98.04,6.18,1.17,13.47.29,20.21-.43,6.14-2.8,12.35-4.42,18.29-.19.71-.25,1.42-.17,2.13.04.35.19.63.45.85,8.17,6.92,23.58,5.03,32.55,1.14,3.73-1.61,5.16-4.41,4.31-8.39-.97-4.53-2.07-8.46-3.29-11.8-2.49-9.04-3.3-17.75-2.41-26.13.06-.59.37-1.12.84-1.48,8.14-6.2,8.57-10.12.28-16.78-1.72-1.39-1.87-2.76-1.53-4.79,1.07-6.35,2.2-12.69,3.38-19.03.87-4.73-1.11-6.94-2.83-10.84-.59-1.33-.82-2.79-.69-4.38,2.45-32.26-1.12-63.84-10.72-94.74-.41-1.33-.99-2.62-1.73-3.86-.19-.31-.19-.63-.01-.94.63-1.1,1.6-1.72,1.85-2.93.64-3.14-2.61-8.69-4.42-11.81-.6-1.04-.89-1.94-.87-2.71.21-7.46.24-14.62-.56-22.32-2.45-23.61-4.46-47.25-6.03-70.93-.39-5.77-1.33-13.52-2.82-23.25-.22-1.41-.25-3.05-.1-4.91.03-.36.22-.49.56-.39,3.13.94,6.33,1.36,9.61,1.25.34-.01.53-.19.57-.53l.32-2.7c0-.06.02-.11.04-.16.12-.25.42-.36.67-.24l4.75,2.12c.15.07.3.11.46.12.79.07,1.48-.51,1.55-1.3.54-5.97,2.06-11.82,4.56-17.55,1.08-2.47.58-5,2.88-7.28.23-.23.28-.5.13-.8-.19-.4-.44-.75-.75-1.05-.27-.27-.36-.67-.23-1.03,4.25-11.58,8.52-23.15,12.79-34.72Zm-26.96-22.53l-3.53,6.46c-.33.61-.32,1.22.03,1.83l2.23,3.86c.17.29.17.58.02.87-2.74,5.12-4.84,10.38-6.73,15.85-.54,1.58-.93,3.95-1.49,5.93-.06.16-.23.24-.38.18-.11-.04-.18-.13-.2-.24-1.33-14.97-8.59-29.6-6.38-44.69,1.4-9.61,3.65-19.03,6.76-28.25.18-.53.32-.52.42.03,2.27,12.57,6.09,24.85,9.37,37.17.09.35.05.68-.12,1Z"/>
  </g>
</svg>