<?xml version="1.0" encoding="UTF-8"?>
<svg id="Layer_2" data-name="Layer 2" xmlns="http://www.w3.org/2000/svg" viewBox="0 0 219.54 733.49">
  <defs>
    <style>
      .cls-1 {
        stroke-width: 0px;
      }
    </style>
  </defs>
  <g id="Layer_1-2" data-name="Layer 1">
    <path class="cls-1" d="m48.93,233.55c.11,4.45-.56,8.73-2.02,12.83-1.51,4.21-2.37,6.82-2.59,7.84-.7,3.27-1.19,6.59-1.47,9.94-.03.3.11.59.36.76l1.06.7c.27.17.41.48.39.8-.36,4.4-.19,12.76-2.58,16.38-.07.11-.16.19-.27.26l-2.78,1.52c-.31.17-.39.41-.24.72l1.19,2.45c.19.39.11.72-.25.97l-2.91,2.06c-.31.21-.49.5-.56.86-2.02,11.01-4.1,22.01-6.23,32.99-.96,4.93-1.66,9.55-2.1,13.88-1.06,10.48-2.23,17.81,2.3,26.39,3.69,6.99,7.72,12.85,7.8,21.15.07,7.33.85,14.57,2.33,21.74.57,2.75-.04,5.14-1.85,7.15-.2.23-.45.35-.75.37-3.01.18-4.66-1.13-4.94-3.93-.58-5.84-.84-14.17-3.82-19.32-.27-.47-.87-.63-1.35-.35-.09.05-.17.12-.24.2-4.64,5.24-1.7,12.5-.7,18.67.81,4.95,7.96,9.02,11.49,12.15,2.39,2.12,3.01,5.08-.04,6.85-.29.17-.6.18-.91.05-6.72-2.95-13.22-6.32-19.49-10.11-.23-.14-.59-.52-1.09-1.15-.3-.38-.52-.84-.67-1.37-1.74-6.39-4.46-12.33-8.16-17.82-.18-.27-.26-.59-.22-.91,1.01-8.42,1.93-16.83,2.74-25.24,1.94-20.15-1.55-41.61-3.42-61.74-.94-10.2-1.23-19.95-1.4-29.95,0-.38-.17-.68-.48-.89l-3.26-2.22c-.07-.05-.13-.12-.17-.2-2.12-4.87-3.05-13.95,2.8-17.09.36-.19.4-.43.11-.72-2.73-2.67-2.98-5.3-.52-8.39,1.31-1.63,2.02-2.83,2.14-3.59,3.52-22.65,6.39-45.37,8.61-68.18,1.19-12.12,3.61-28.27,10.2-37.44,3.91-5.44,9.31-9.56,16.2-12.37,12.58-5.13,24.74-11.02,36.49-17.69.66-.38,1.17-.96,1.45-1.66,1.41-3.49,2.92-7.11,4.53-10.88.71-1.65,1.7-2.63,2.98-2.94.31-.08.49-.28.52-.61.35-3.89,1.6-9.01.29-12.72-1.39-3.97-2.25-8.05-2.58-12.24-.03-.4-.21-.48-.54-.25-1.74,1.25-3.14.78-4.21-1.02-2.74-4.56-7.05-15.73-2.98-20.53.58-.67,1.45-.9,2.6-.69.39.07.53-.08.4-.46-2.01-6.03-3.76-12.12-5.23-18.28-1.6-6.66,2.33-11.96,7.23-15.84.27-.21.32-.47.16-.77l-.92-1.74c-.13-.24-.04-.55.21-.68.05-.03.11-.05.16-.05,7.99-1.22,13.51-8,21.47-10.02,9.66-2.46,23.2-1.81,27.31,9.33.11.31.33.5.66.55,5.17.88,8.22,3.7,9.14,8.45.46,2.39.87,4.07,1.23,5.04.87,2.3,1.76,4.23,1.74,6.75-.03,6.23-1.25,12.21-3.65,17.96-.16.39-.05.49.33.32,9.27-4.22,2.41,27.52-3.72,22.24-.32-.27-.5-.2-.54.21-.32,3.31-1.04,6.5-2.17,9.58-1.78,4.84-.92,10.48-.06,15.42.05.29.23.47.52.52,1.27.23,2.32,1.32,3.17,3.26,1.36,3.1,3.43,10.8,6.2,12.3,12.02,6.49,24.3,12.47,36.84,17.93,6.95,3.03,12.34,7.53,16.17,13.52,5.5,8.6,7.51,23.43,8.62,33.98,3.24,30.71,6.09,53.73,8.56,69.05.73,4.53,7.03,6.71,1.18,11.78-1.17,1.01-1.02,1.74.45,2.21.94.3,1.72.75,2.34,1.34.19.18.34.4.45.64,2.55,5.94,2.46,13.74-3.8,17.33-.29.17-.43.42-.42.75.75,20.46-1.66,40.34-3.82,64.83-.69,7.87-1.43,16.99-.59,24.87,1.13,10.63,2.05,18.62,2.78,23.97.22,1.67.45,2.63-.49,4.13-3.4,5.45-5.95,11.28-7.66,17.48-.2.76-1.18,2.06-1.85,2.44-6.37,3.6-12.81,7.06-19.33,10.39-.28.14-.56.15-.84.03-1.38-.59-2.01-1.59-1.88-3.02.4-4.54,7.59-8.44,10.11-11.25,3.39-3.76,7.21-22.45,1.27-23.79-.32-.07-.66,0-.93.19-1.04.73-1.64,1.86-1.79,3.39-.7,7.21-1.1,12.3-1.19,15.26-.07,2.26-1.44,3.8-4.09,4.63-.26.08-.55.07-.8-.05-2.49-1.12-3.55-3.15-3.17-6.1.81-6.39,1.39-12.41,1.73-18.04.56-9.16,1.62-14.81,5.95-21.89,4.4-7.17,6.87-12.37,5.82-20.32-2.44-18.51-5.47-37.47-9.1-56.87-.07-.39-.36-.7-.75-.82-2.31-.67-3.24-2.3-2.77-4.88.06-.35-.06-.7-.33-.94-1.57-1.37-2.54-2.43-2.97-4.59-.82-4.12-1.54-8.24-2.17-12.37-.27-1.75.24-2.85,1.51-3.28.65-.22,1.05-.87.95-1.55-.86-6.24-1.93-9.63-4.51-17.27-1.4-4.13-2.06-8.44-1.98-12.92,0-.07-.02-.14-.06-.2l-.3-.53c-.04-.07-.07-.06-.08.02-.78,6.31-1.46,12.62-2.03,18.95-.61,6.8.44,12.82,3.15,18.06,2.05,3.98,3.16,6.19,3.33,6.63,2.59,7.05,7.98,29.14-7.59,26.24-.38-.07-.51.08-.4.45.61,2.05,1.07,4.14,1.37,6.26.42,2.98,1.48,5.14-1.45,7.27-.37.27-.35.49.07.68,1.3.56,1.87.87,2.55,2.18,2.64,5.11,4.26,9.27,4.86,12.47,6.18,32.65,5,63.46,4.09,97.77-.27,10.25-1.52,28.09-3.75,53.53-.59,6.8-.91,13.46-.94,19.97-.25,48.59-.18,97.17.21,145.75,0,2.29-.17,4.57-1.03,6.82-2.37,6.13-4.46,12.36-6.27,18.69-.09.31-.05.62.1.91,3.68,6.97,7.01,14.09,9.98,21.38,2.16,5.3,9.4,7.49,12.52,12.5,3.38,5.41,2.1,10.32,3.49,16.2,1.33,5.61-9.07,7.15-12.39,7.68-10.35,1.65-19.74-.68-28.17-6.99-3.44-2.58-2.96-10.15-3.2-14.1-.02-.33-.19-.5-.52-.53-4.26-.33-13.19-2.15-15.41-6.32-.44-.83-.64-2.03-.59-3.6.22-7.56.98-15.06,2.29-22.5.07-.39-.1-.6-.5-.63-3.15-.21-5.72-1.54-7.71-3.98-.2-.25-.31-.56-.31-.88.2-46.92,1.01-93.97.9-140.96-.02-9.01-.93-18.7-2.01-26.69-4.07-29.89-8.02-59.8-11.86-89.72-.79-6.19-1.72-12.56-2.77-19.1-.03-.19-.21-.32-.4-.29-.14.02-.26.13-.28.28-5.45,30.1-7.51,60.73-12.49,90.93-3.36,20.35-4.93,40.52-4.77,61.14.31,41.55.59,82.93.86,124.14,0,1.31-.77,2.5-1.98,3.02l-6,2.6c-.29.13-.47.43-.45.75.57,6.79,1.26,13.53,2.07,20.22.18,1.43.08,2.79-.31,4.07-1.35,4.47-10.95,7.11-14.95,7.59-.32.04-.51.22-.57.54-.57,3.15-.83,6.35-.78,9.6.03,1.43-1.05,2.91-3.24,4.43-11.27,7.86-23.41,9.48-36.42,4.85-2.42-.86-3.61-2.72-3.15-5.41.77-4.59.7-10.48,2.39-14.21,2.24-4.94,6.89-8.05,11.16-10.81.74-.48,1.32-1.15,1.68-1.94l10.8-23.79c.14-.3.17-.61.08-.94-1.4-5.55-3.39-10.87-5.96-15.97-1.66-3.29-1.99-8.64-1.97-13.03.18-46.41.26-92.81.23-139.21,0-6.64-.2-13.3-.59-19.97-1.15-19.76-2.3-39.52-3.44-59.28-1.41-24.44-1.07-48.85,1.02-73.24,1.15-13.38,2.18-23.47,7.41-33.88.62-1.24,1.13-1.56,2.37-2.06.25-.1.37-.38.26-.63-.03-.06-.06-.12-.11-.17l-1.48-1.42c-.27-.26-.38-.57-.33-.94l1.53-11.63c.02-.19-.11-.37-.31-.39-.06,0-.11,0-.16.02-6.06,2.31-8.41-2.1-9.37-7.07-1.51-7.79,1.66-18.01,5.22-24.88,3.67-7.11,4.75-12.52,3.24-20.19-1.1-5.57-1.68-10.74-1.74-15.51,0-.35-.05-.64-.15-.87-.3-.68-.44-.64-.42.12Z"/>
  </g>
</svg>