<?xml version="1.0" encoding="utf-8"?>
<!-- Generator: Adobe Illustrator 27.5.0, SVG Export Plug-In . SVG Version: 6.00 Build 0)  -->
<svg version="1.1" id="Layer_1" xmlns="http://www.w3.org/2000/svg" xmlns:xlink="http://www.w3.org/1999/xlink" x="0px" y="0px"
	 viewBox="0 0 2500 2500" style="enable-background:new 0 0 2500 2500;" xml:space="preserve">
<rect x="0" style="fill:#FFFFFF;" width="2500" height="2500"/>
<g>
	<path d="M1984.233,276.204c7.635,13.108,17.689,24.29,29.442,36.841c-7.006-12.862-2.146-13.957,8.112-12.751
		c51.219,6.025,101.186,16.152,145.701,43.952c31.428,19.627,55.695,45.93,68.559,81.147c9.07,24.827,25.255,42.314,48.395,54.432
		c14.154,7.413,29.11,13.979,40.716,25.296c17.35,16.917,29.602,35.123,16.992,61.273c-6.897,14.303-7.921,31.587-17.286,44.631
		c-18.647,25.973-42.919,47.217-62.901,72.33c-11.639,14.629-32.072,13.042-50.252,10.282c-11.863-1.8-23.804-3.075-35.7-4.664
		c-30.185-4.031-50.539,10.489-64.535,35.354c-17.895,31.788-20.168,66.974-19.517,102.347c0.65,35.298,9.321,69.595,14.523,104.331
		c10.674,71.278,10.532,142.726,3.129,214.367c-9.225,89.267-34.045,173.559-78.337,251.772
		c-45.853,80.969-108.688,144.972-191.098,189.063c-2.935,1.57-5.584,4.672-11.509,2.525
		c17.778-54.64,36.587-109.059,48.044-165.602c-4.078,13.363-8.353,26.67-12.197,40.1c-14.109,49.29-35.285,96.051-51.618,144.528
		c-23.694,70.324-35.521,143.286-45.253,216.503c-12.215,91.899-17.285,184.358-16.187,277.059
		c0.443,37.403,3.815,74.597,15.742,110.577c3.845,11.601,9.013,16.503,22.444,16.876c46.252,1.285,83.249,48.455,75.809,94.534
		c-1.748,10.828-6.621,16.998-18.987,18.196c-37.46,3.628-74.775,1.236-112.069-1.243c-30.271-2.012-51.119-17.499-58.852-47.548
		c-7.517-29.209-19.159-56.292-36.366-81.131c-7.272-10.497-9.326-22.855-9.435-35.626c-0.376-44.074,0.677-88.12-1.6-132.228
		c-5.687-110.13-22.888-218.425-47.8-325.694c-7.953-34.245-16.475-68.329-26.16-102.097c-11.799-41.14-10.362-81.707,2.729-122.156
		c9.021-27.874,18.016-55.756,25.847-84.223c-1.326,2.817-2.888,5.55-3.943,8.465c-10.743,29.705-21.133,59.54-32.156,89.139
		c-13.707,36.807-15.39,73.852-2.625,111.076c3.461,10.094,0.737,12.254-9.097,12.101c-72.1-1.123-142.34-14.902-212.246-30.846
		c-71.748-16.364-140.724-41.468-209.636-66.842c-39.803-14.656-80.634-25.39-123.482-26.082c-2.981-0.048-5.964-0.006-9.026,0.784
		c36.034,3.564,68.87,16.376,100.842,32.299c11.997,5.975,16.336,12.466,13.104,27.026c-18.177,81.892-46.12,159.653-91.875,230.485
		c-11.153,17.266-23.304,33.871-37.303,48.709c-39.317,41.672-51.096,90.341-39.595,145.497
		c11.014,52.82,24.822,104.751,50.775,152.606c3.175,5.855,7.109,11.299,10.282,17.155c7.286,13.449,17.981,18.352,33.197,15.517
		c45.437-8.465,74.588,35.135,78.248,67.972c1.443,12.945-5.106,22.018-18.06,23.969c-43.843,6.603-87.685,7.675-131.15-3.202
		c-32.967-8.25-47.697-34.721-62.022-61.835c-44.428-84.094-76.799-173.049-106.597-263.059c-1.677-5.066-3.26-10.189-5.345-15.091
		c-10.889-25.603-9.963-49.403,2.879-75.337c21.316-43.047,21.248-88.638,3.803-133.399c-3.72-9.546-1.971-15.489,3.385-22.825
		c30.99-42.448,57.183-87.987,83.261-134.054c-5.043,6.608-10.38,13.013-15.08,19.856c-32.259,46.97-60.913,96.31-94.952,142.144
		c-45.273,60.961-93.487,119.443-151.103,168.974c-41.245,35.458-63.67,77.553-63.54,132.168
		c0.159,67.048,5.186,133.299,25.367,197.763c3.992,12.753,8.881,18.513,24.342,16.531c39.936-5.118,80.834,38.697,75.235,78.461
		c-1.096,7.786-5.036,12.894-12.664,15.538c-9.803,3.399-19.935,4.469-30.135,5.381c-34.694,3.1-69.357,2.938-103.985-0.981
		c-22.921-2.594-38.295-14.593-47.057-36.076c-12.032-29.502-17.99-60.467-23.513-91.577
		c-15.165-85.423-26.83-171.358-37.472-257.441c-0.6-4.851-1.251-9.741-2.46-14.464c-8.518-33.296-0.761-61.518,19.839-89.701
		c36.482-49.912,50.347-109.427,62.721-168.888c14.254-68.494,15.573-137.714,11.892-207.338
		c-4.299-81.314-1.093-162.004,25.319-240.196c6.505-19.258,14.951-37.698,22.546-56.597c-9.72,10.958-16.968,23.489-23.451,36.394
		c-3.281,6.531-6.831,7.889-13.669,5.349c-195.113-72.48-319.734-207.037-355.175-414.499
		c-26.547-155.398,7.008-298.534,108.798-421.955c45.488-55.155,101.234-96.342,173.061-111.147
		c37.456-7.721,75.025-10.253,111.805,4.031c4.545,1.765,9.058,3.802,13.234,6.301c30.312,18.14,33.895,50.276,8.302,74.724
		c-15.749,15.046-35.045,24.199-54.924,32.294c-16.072,6.544-32.484,12.368-48.159,19.755
		C391.43,443.267,338.301,508.51,309.511,592.635c-42.882,125.304-27.689,244.76,45.258,355.858
		c19.583,29.826,46.113,52.797,77.253,70.534c57.966,33.017,113.711,28.7,168.314-8.208c31.703-21.429,61.597-45.425,95.071-64.371
		c70.206-39.734,146.005-57.865,225.968-60.301c74.055-2.256,147.565,5.87,221.172,12.389c81.143,7.186,162.36,15.218,243.95,11.276
		c60.983-2.947,115.602-23.23,160.995-65.629c31.612-29.527,64.212-57.724,104.21-75.957c24.493-11.165,34.173-34.026,41.922-57.631
		c10.704-32.605,15.966-66.585,24.393-99.777c15.38-60.582,33.492-120.065,66.979-173.621c4.475-7.157,9.051-14.391,14.568-20.73
		c14.868-17.085,21.89-37.92,31.558-57.846c14.034-28.921,12.815-59.099,17.84-88.794c6.62-39.117,22.229-72.879,55.486-96.94
		c10.626-7.688,18.836-5.63,26.991,2.718c10.252,10.496,14.964,24.066,20.108,37.334c8.383,21.623,18.21,42.487,31.531,61.573
		C1983.432,275.096,1983.818,275.66,1984.233,276.204z M2185.412,460.882c-1.247-8.398-7.258-13.357-13.237-18.338
		c-24.649-12.611-44.675,6.025-67.253,9.495c10.226,2.477,16.042,9.412,21.707,17.103c7.732,10.497,17.606,18.773,29.612,24.221
		c7.729,3.508,40.586-0.472,41.686-6.129c1.611-8.282-7.391-14.068-9.602-21.99C2187.879,463.643,2186.41,462.328,2185.412,460.882z
		 M1947.385,648.859c74.952,72.068,115.603,66.112,170.378,26.939C2052.932,715.571,1998.499,692.615,1947.385,648.859z"/>
	<path d="M2047.472,1389.103c2.034,5.221,0.234,10.14-1.205,15.052c-13.658,46.592-30.607,91.796-54.898,134.079
		c-37.499,65.273-54.501,137.649-71.574,209.904c-18.312,77.504-32.676,155.803-41.81,234.89
		c-6.218,53.835-12.531,108.031-1.322,162.098c2.515,12.132,7.043,23.833,10.193,35.852c1.942,7.406,6.407,9.588,13.651,9.577
		c7.961-0.013,15.912,1.464,23.888,1.855c41.092,2.013,65.271,49.196,62.468,84.374c-0.954,11.974-7.393,18.861-18.719,21.029
		c-27.807,5.323-55.83,3.071-83.822,1.921c-9.596-0.394-10.981-7.717-12.976-14.443c-6.458-21.77-15.734-41.393-35.977-54.199
		c-12.423-7.859-25.785-12.9-40.157-12.574c-11.486,0.26-15.099-4.86-17.924-14.705c-13.953-48.641-14.574-98.454-13.101-148.306
		c1.971-66.68,4.425-133.37,12.617-199.681c9.973-80.722,19.016-161.596,43.621-239.671c2.596-8.238,7.219-13.135,14.854-17.322
		c88.148-48.343,159.717-113.649,206.694-203.833C2043.088,1392.859,2043.361,1389.714,2047.472,1389.103z"/>
	<path d="M1984.233,276.204c-0.415-0.544-0.801-1.108-1.157-1.693c16.644-44.947,46.706-80.131,81.535-111.798
		c3.483-3.166,7.442-8.091,12.652-5.195c5.984,3.326,5.346,9.915,3.82,15.572c-7.739,28.692-9.666,57.824-6.331,87.233
		c1.245,10.979,3.917,21.826,6.433,32.618c1.627,6.98-0.928,8.913-7.46,8.132c-21.159-2.533-42.322-5.047-63.511-7.307
		C1998.315,292.496,1993.064,281.79,1984.233,276.204z"/>
	<path d="M2185.412,460.882c0.274,1.292,0.724,2.574,0.793,3.877c0.58,11.007-0.424,23.834-12.343,25.947
		c-13.146,2.331-13.539-12.088-17.047-20.983c-1.262-3.2-1.249-6.898-1.846-10.364c-3.33-19.322-1.612-21.003,17.206-16.815
		C2178.154,447.526,2184.165,452.484,2185.412,460.882z"/>
</g>
</svg>
