<?xml version="1.0" encoding="utf-8"?>
<!-- Generator: Adobe Illustrator 27.5.0, SVG Export Plug-In . SVG Version: 6.00 Build 0)  -->
<svg version="1.1" id="Layer_1" xmlns="http://www.w3.org/2000/svg" xmlns:xlink="http://www.w3.org/1999/xlink" x="0px" y="0px"
	 viewBox="0 0 4000 4000" style="enable-background:new 0 0 4000 4000;" xml:space="preserve">
<g>
	<path d="M1072.096,3543.212c97.076-5.561,194.153-11.122,291.229-16.682c-63.662-9.043-127.794-9.779-192.872-13.828
		c4.103-7.743,10.484-5.163,15.402-5.314c65.699-2.016,131.41-3.643,197.103-5.839c6.39-0.213,15.781,3.548,18.372-6.78
		c2.044-8.146-3.479-13.748-8.841-18.857c-15.535-14.802-35.919-18.458-58.915-23.913c15.504-15.662,32.277-22.901,51.203-24.565
		c50.433-4.434,99.533-13.503,146.798-32.845c38.032-15.564,76.539-0.642,114.604,3.256c52.452,5.371,104.798,8.517,157.289,2.107
		c32.502-3.969,54.852-19.959,65.135-52.899c21.704-69.522,15.981-140.031,9.941-210.65c-0.755-8.827-6.671-15.997-12.015-23.054
		c-6.159-8.135-14.915-15.839-17.235-25.065c-7.864-31.276-31.984-37.935-58.442-46.085
		c-209.258-64.46-407.643-152.123-582.965-285.41c-159.348-121.142-270.805-275.91-311.632-474.58
		c-33.025-160.705-8.342-316.463,52.417-467.493c63.34-157.443,168.127-286.033,282.752-407.915
		c45.49-48.371,92.599-95.432,124.178-155.108c42.52-80.35,63.438-164.632,46.421-255.427c-9.541-50.91-40.349-83.398-91.639-94.114
		c-32.129-6.712-64.574-12.006-96.997-17.189c-27.387-4.378-53.106,0.477-78.579,12.491
		c-83.741,39.494-166.316,81.984-255.864,107.654c-63.603,18.233-128.041,29.477-194.558,20.283
		c-11.187-1.546-21.406,0.793-31.689,5.804c-15.372,7.49-31.942,14.065-46.336-1.461c-14.965-16.141-12.85-34.457-4.136-52.987
		c7.365-15.661,21.128-23.742,35.823-30.633c78.801-36.955,155.346-78.038,225.225-130.16
		c80.246-59.855,152.175-127.275,194.772-220.929c18.197-40.009,44.022-75.223,79.925-104.032
		c0.791,12.28-12.666,17.055-11.354,28.374c15.766-15.249,31.172-30.066,46.487-44.978c70.923-69.054,158.093-94.617,254.337-91.092
		c169.564,6.209,268.131,107.49,328.128,254.457c63.471,155.477,66.252,316.856,38.4,480.233
		c-19.449,114.085-59.138,222.317-94.981,331.684c-26.536,80.97-43.865,163.427-38.847,249.354
		c1.894,32.426,9.669,63.256,23.287,92.789c5.696,12.352,13.152,18.723,27.831,19.501c107.89,5.722,212.163,28.642,312.934,67.689
		c110.154,42.683,211.408,101.676,309.427,166.918c100.81,67.1,198.788,138.571,304.852,197.609
		c117.111,65.187,243.969,99.099,375.555,117.924c49.133,7.029,98.467,12.345,148.125,14.114c3.359,0.12,7.431-0.862,10.677,5.375
		c-39.908,24.862-81.917,45.414-130.448,62.592c83.5,28.638,167.213,46.398,249.239,82.135
		c-85.209,20.893-166.915,31.555-255.886,28.811c43.426,48.807,83.101,91.733,143.435,110.323
		c45.24,13.939,89.784,30.868,129.463,57.872c6.502,4.425,14.046,7.796,19.88,18.409c-41.834,0-81.851,0-125.633,0
		c11.112,15.53,26.446,13.047,37.247,21.188c-33.115,11.64-66.279,5.968-99.315,4.515c82.928,39.309,166.626,25.471,250.872,2.951
		c-7.448,12.371-7.385,12.463-23.2,23.348c-76.26,52.487-163.571,75.75-252.445,94.16c-34.21,7.086-68.825,13.073-103.986,13.927
		c-8.394,0.204-14.882,2.85-20.9,9.555c-114.685,127.776-262.97,192.832-427.307,226.901
		c-130.816,27.119-262.282,28.791-393.748,4.685c-18.127-3.324-27.462,0.795-34.811,17.921
		c-31.043,72.349-40.992,148.596-44.095,226.244c-0.453,11.33,4.417,20.85,11.553,29.876c13.937,17.629,31.35,32.755,39.907,54.388
		c3.732,9.434,12.568,5.739,19.098,6.021c124.778,5.391,249.592,9.985,374.349,15.803c49.414,2.305,99.094,2.196,148.034,13.193
		c-98.393,0-196.787,0-295.18,0c154.632,11.524,309.606,15.64,463.82,35.629c-239.955,4.067-479.91,8.133-719.865,12.2
		c162.741,6.874,325.522,8.294,493.972,19.654c-53.455,9.034-101.667,8.575-149.469,10.45
		c-156.164,6.124-312.319,13.405-468.643,14.398c-19.505,0.124-37.292,4.135-54.568,13.087
		c-81.861,42.414-169.526,62.387-261.22,64.313c-53.191,1.118-106.211,2.16-160.311,16.456c3.818-16.014,7.957-28.906,9.827-42.119
		c4.265-30.144-6.783-46.932-35.9-56.156c-22.526-7.136-45.963-8.237-69.294-8.624c-62.017-1.029-123.84-5.034-185.799-13.559
		c54.228-3.09,108.455-6.179,162.683-9.269c0.071-2.203,0.142-4.405,0.213-6.607c-113.841-2.303-227.683-4.606-341.524-6.909
		C1072.613,3546.874,1072.355,3545.043,1072.096,3543.212z M1490.99,1429.564c20.816,9.317,41.17,18.427,63.296,28.331
		c-3.177-14.549-16.072-22.869-11.28-37.99c12.893,8.756,25.233,17.137,39.506,26.83c-6.397-14.399-91.482-90.791-97.549-88.242
		c-0.661,4.342-1.38,9.06-2.267,14.885c-15.964-10.36-26.825-24.538-38.778-36.869c-5.938,6.938,4.463,16.942-4.758,20.223
		c-6.996,2.489-12.875-5.359-18.891-9.219c-11.705-7.511-21.747-16.824-28.277-29.889c-6.706,6.866-1.999,17.331-10.762,21.503
		c-13.374-7.017-15.82-22.039-24.021-33.48c-41.366,49.193-81.209,98.412-123.006,145.913
		c-98.89,112.385-187.268,231.551-245.054,370.965c-50.182,121.068-72.441,245.74-47.799,376.39
		c6.651,35.267,22.569,81.684,34.304,96.661c-11.91-72.391-9.22-143.645,4.804-215.025c8.146,47.791,19.594,94.58,32.409,145.74
		c0-21.578-0.436-38.235,0.122-54.859c0.563-16.779,1.458-33.601,3.416-50.262c1.85-15.74,2.508-32.029,11.822-48.638
		c7.298,125.048,27.066,216.42,52.556,244.954c-48.166-205.266,4.56-402.014,45.32-451.697c-4.898,37.401-9.565,73.62-3.836,110.264
		c18.343-78.808,48.606-152.997,81.399-226.385c-23.805,17.672-34.1,44.747-51.687,67.112c4.85-25.117,11.094-49.64,18.503-73.805
		c7.576-24.714,25.039-44.622,39.025-72.318c-34.792,20.663-55.428,47.845-78.519,72.821
		c32.215-74.339,77.895-140.27,126.91-204.388c-34.488,25.784-65.124,55.571-93.885,87.417
		c26.919-62.965,109.205-164.267,148.713-176.599c-2.716,9.656-11.892,17.572-7.807,31.922
		c17.561-24.119,40.245-38.854,60.03-57.336c4.924,9.417-8.665,17.511-0.729,26.412c16.3-10.442,25.599-27.538,39.845-40.812
		c4.753,12.177-1.405,24.332,5.274,35.194c11.282-5.916,15.444-16.574,21.567-25.147c7.186-10.061,11.552-15.595,20.829-1.261
		c9.259,14.306,23.985,23.22,39.852,29.575c1.704,0.682,3.985-0.078,6.009-0.169
		C1497.46,1441.63,1489.233,1439.262,1490.99,1429.564z M2592.354,2442.365c20.542,20.256,46.229,29.587,67.829,45.565
		c-40.632,2.55-81.264,5.099-128.114,8.039c26.446,16.272,48.964,24.834,74.12,34.161c-37.52,7.916-71.259,15.035-110.415,23.296
		c22.304,9.688,39.792,17.284,59.241,25.732c-39.64,19.576-80.056,26.924-122.364,33.317c16.491,15.011,38.722,11.034,55.841,22.704
		c-35.458,16.086-71.541,25.428-107.332,35.938c142.716,19.349,274.201-10.568,394.852-90.273c-11.15,0-22.299,0-38.274,0
		c50.508-18.528,98.823-28.165,145.36-50.814c-15.261-4.464-29.094,0.943-41.26-8.137c53.899-25.842,109.241-47.218,156.797-92.814
		c-100.017-3.982-185.955-43.356-277.474-56.953c17.878,16.956,39.078,27.778,65.463,42.416
		c-52.882-0.247-97.952-11.359-149.274-16.974c26.966,17.539,49.704,32.328,77.631,50.492
		C2670.506,2445.995,2632.478,2444.229,2592.354,2442.365z M1044.208,815.493c-16.152,4.846-28.203,13.112-44.065,8.92
		c42.37-15.223,52.939-50.289,58.545-88.392c4.036-27.434,20.447-47.438,42.45-60.867c20.404-12.453,26.338-30.523,32.112-53.155
		c-19.528,12.814-37.962,23.261-57.803,29.549c-26.993,8.554-46.896,24.965-64.4,46.423
		c-74.879,91.789-166.339,162.751-271.975,216.1c-27.92,14.101-54.389,31.105-81.318,47.122c-7.341,4.367-12.191,11.42-9.544,20.253
		c2.937,9.803,12.061,6.526,18.666,6.068c24.715-1.715,49.364-4.359,74.058-6.408c89.834-7.453,169.636-39.893,239.585-96.518
		C1004.139,865.467,1025.604,844.175,1044.208,815.493z M1623.249,2267.485c13.265,50.655,37.368,96.698,77.623,138.09
		c-92.49-26.96-151.316-87.41-197.797-167.496c16.8,103.247,180.373,273.701,294.143,308.931
		c-31.003-25.545-57.155-53.694-77.998-86.461c124.183,83.664,317.124,156.648,384.582,144.187
		c-127.805-40.348-293.061-125.483-317.351-163.687c12.111,3.284,23.942,6.638,35.853,9.68c11.277,2.88,22.605,5.581,33.97,8.088
		c11.401,2.515,22.83,6.091,34.936,2.88C1792.996,2407.49,1700.587,2347.595,1623.249,2267.485z M1995.132,3073.133
		c-5.011,22.449,9.948,40.882,0.908,57.793c-10.769,20.144-9.786,40.689-8.336,61.693c4.036,58.467,3.725,116.052-16.78,172.537
		c-12.754,35.132-26.367,69.29-47.295,100.384c-3.439,5.11-8.107,13.211-2.638,18.041c6.597,5.824,13.812-0.749,18.795-5.386
		c15.065-14.02,27.658-30.409,35.907-49.161c32.629-74.18,56.827-151.067,72.145-230.728c2.682-13.949-0.101-26.152-8.307-37.149
		C2020.375,3135.484,2003.896,3108.436,1995.132,3073.133z M1847.105,1893.239c61.422,10.194,120.224,28.739,177.676,51.776
		c58.212,23.341,114.543,50.888,170.724,78.651c54.473,26.919,108.449,54.844,162.644,82.327
		C2206.209,1989.969,2046.137,1893.365,1847.105,1893.239z M1458.967,3536.244c17.4-1.196,34.792-2.548,52.203-3.563
		c100.474-5.859,200.979-11.514,300.566-27.015c25.133-3.912,50.615-6.663,74.787-15.365c5.621-2.024,11.459-5.231,9.942-12.376
		c-1.78-8.382-8.421-3.656-12.405-2.628c-76.181,19.638-154.559,19.458-232.165,26.458
		C1586.682,3507.636,1521.636,3515.323,1458.967,3536.244z M1942.854,3511.729c-114.196,55.16-239.1,76.455-356.7,119.591
		c94.727-19.168,190.652-33.057,280.791-70.086C1895.461,3549.519,1922.196,3535.161,1942.854,3511.729z M1738.537,3448.437
		c-89.437,0-178.873,0-268.31,0C1559.501,3461.884,1648.689,3460.722,1738.537,3448.437z M2359.413,2534.008
		c-37.712,0.581-75.116-1.359-111.423-13.808C2285.672,2549.494,2321.576,2553.902,2359.413,2534.008z M1119.054,688.131
		c-5.603,52.721,18.347,98.323,59.399,110.14C1141.93,769.328,1121.884,733.637,1119.054,688.131z M1300.577,518.169
		c-13.404,17.898-14.047,31.023-3.007,43.257c11.465,12.705,25.267,14.721,41.944,5.025
		C1299.904,563.54,1297.367,560.686,1300.577,518.169z M1336.221,507.946c-0.37-5.974-5.746-6.487-10.611-5.951
		c-5.781,0.637-11.35,2.873-11.418,10.211c-0.063,6.884,4.103,11.369,10.504,10.485
		C1331.488,521.753,1335.501,516.333,1336.221,507.946z"/>
	<path d="M998.668,805.39c-7.656-0.575-17.632,0.158-19.825-11.022c-1.987-10.13,26.466-37.165,38.791-37.199
		c11.635-0.032,19.706,5.063,19.625,18.022C1037.173,788.794,1016.889,804.871,998.668,805.39z"/>
</g>
</svg>
