<?xml version="1.0" encoding="UTF-8"?>
<svg id="Layer_2" data-name="Layer 2" xmlns="http://www.w3.org/2000/svg" viewBox="0 0 108.47 370.25">
  <defs>
    <style>
      .cls-1 {
        stroke-width: 0px;
      }
    </style>
  </defs>
  <g id="Layer_1-2" data-name="Layer 1">
    <path class="cls-1" d="m88.81,364.1c.47,4.18-1.28,5.4-5.24,5.48-4.47.09-9.06.32-13.78.67-1.56-.75-2.21-2.12-1.96-4.13.61-4.83.98-8.54,1.11-11.11.02-.33-.11-.65-.35-.88-3.41-3.24-3.9-3.92-5.27-8.56-1.03-3.48-1.51-6.24.22-9.72,1.23-2.48,3.68-5.86,3.68-8.64,0-6.7,1.26-13.6,1.26-19.78,0-5.6.16-11.21-.36-16.73-1.55-16.44-2.9-32.52-8.67-48.2-.51-1.38-.83-1.34-.97.13-.8,8.19-1.64,16.69-2.53,25.5-.2,2.01-.65,4.28-1.35,6.8-.6,2.16.6,4.48.65,6.68.18,9.23,1.81,18.29.53,27.53-1.36,9.83-3.47,20.3-8.02,29.21-.32.63-.12,1.41.47,1.8,7.26,4.8.37,8.11,1.47,13.68.83,4.21,1.7,8.66,2.6,13.37-7.11.21-14.12.47-21.03.79-5.5.25-11,.23-16.5-.05-.73-.04-1.46-.09-2.19-.16-.67-.07-1.39-.04-2.15.09-3.77.61-7.24.1-10.4-1.53-.73-10.8,10.79-5.85,16.22-10.97,1.87-1.76,3.76-3.5,5.67-5.22.26-.23.38-.52.37-.87-.16-3.94,1.54-5.83,4.53-8.57.24-.23.26-.6.04-.84,0,0-.01-.01-.02-.02-3.25-3.21-6.43-5.21-4.72-10.58,2.63-8.22,3.51-17.11,4.57-25.65.63-5.08-1.19-10.14-1.59-13.74-.41-3.67-.48-7.59-.89-11-1.48-12-2-23.78-2.39-35.84-.18-5.44-.84-11.02-1.24-16.56-.04-.52-.38-.96-.87-1.12-1.33-.43-2.72-1-4.17-1.71-4.87-2.41-5.39-7.49-7.06-12.01-.33-.89-.27-2.28.06-3.33,1.48-4.77,2.21-8.17,2.19-10.18-.15-15.84.02-26.76.5-32.76,1.09-13.67,2.16-27.34,3.19-41.02.66-8.85,2.82-22.01,2.84-33.25.02-6.19.5-14.39,3.96-19.5.75-1.12,2.58-2.73,5.47-4.83,4.64-3.37,9.28-6.74,13.93-10.1,1.28-.92,1.7-2.18,1.25-3.77-.34-1.23.02-2.72,1.07-4.48.06-.11.04-.2-.05-.27-4.39-3.54-7.72-7.88-10.01-13.01-1.04-2.35-2.74-3.79-4.33-5.7-.23-.28-.25-.58-.08-.89.53-.95,1.31-1.65,2.33-2.08.31-.13.43-.36.34-.69-2.38-9.31-3.09-15.92,5.14-22.49C39.18.99,42.49-.11,46.23,0c12.13.35,17.11,8.91,18.05,19.69.03.32.24.58.54.68l1.54.48c.43.13.66.43.69.88l.31,4.98c.02.39-.09.73-.34,1.04-2.62,3.24-2.13,10.43-2.14,14.62,0,.49.4.89.89.89.02,0,.03,0,.05,0l2.55-.16c.85-.05,1.49.29,1.92,1.02,2.01,3.4,2.78,7.36,6.65,8.77,5.45,1.99,10.89,3.98,16.33,5.98,8.1,2.99,12.24,11.84,13.89,19.65,1.24,5.84-.64,13.17.07,18.61,1.28,9.71,1.56,19.46.85,29.24-.14,1.9-1.01,3.63-.64,6.01.67,4.3.38,7.37-.36,11.84-1.12,6.78-.6,13.43-1.96,20.2-1.35,6.73-2.59,13.67-3.74,20.8-.11.66-.49.96-1.16.91-.6-.05-1.18.02-1.74.2-.3.09-.53.32-.63.62-1.96,5.75-1.66,12.85-2.84,19.12-1.7,9.02-1.41,18.43-2.43,27.58-.63,5.7-1.07,10.19-1.3,13.47-.44,6.02-1.17,12.07-1.03,18.02.21,8.87.48,15.03.82,18.48,1.24,12.57,2.1,26.68,2.58,42.32.19,6.43-2.39,10.91-6.22,15.55-.19.24-.16.58.08.77.04.03.08.06.12.08,2.38,1.08,8.89,5.93,4.83,8.74-1.51,1.05-2.96,2.04-4.33,2.96-.6.4-.9,1.12-.77,1.83l1.45,8.22Z"/>
  </g>
</svg>