<?xml version="1.0" encoding="UTF-8"?>
<svg id="Layer_2" data-name="Layer 2" xmlns="http://www.w3.org/2000/svg" viewBox="0 0 290.88 835.31">
  <defs>
    <style>
      .cls-1 {
        stroke-width: 0px;
      }
    </style>
  </defs>
  <g id="Layer_1-2" data-name="Layer 1">
    <g>
      <path class="cls-1" d="m201.04,29.64c1.91,5.09,2.59,10.16,2.02,15.2-.1.84-.58,2.48-.69,3.75-.03.36.14.55.5.57,2.9.21,8.12.28,10.29,2.39.84.81.86,2.15.05,2.98-.07.07-.15.14-.23.21-.45.35-.85,1.01-.96,1.65-.95,5.74-.91,10.66-6,14.99-1.74.31-3.63.54-5.68.67-9.09.57-10.93-7.11-12.1-14.14-.64-3.87-4.95-2.51-5.66.77-1.06,4.93-3.15,10.08-7.96,12.36-3.87,1.82-10.79,3.2-14.12-.28-2.67-2.79-2.3-7.59-1.8-11.19.11-.81-.25-1.24-1.06-1.3l-16.6-1.22c-.46-.03-.76-.27-.91-.7l-.1-.33c-.09-.25.05-.52.3-.61.06-.02.13-.03.2-.03l18.18,1.27c.28.02.52-.07.71-.28,4.19-4.56,14.81-3.38,20.29-2.9,6.94.61,13.51-1.95,19.97-3.86.48-.14.85-.51.99-.99,1.03-3.39,1.25-6.76.68-10.11-.5-2.93-.6-5.88-.31-8.87Z"/>
      <path class="cls-1" d="m286.75,341.91c-.12-12.98-1.11-25.89-2.96-38.74-1.04-7.2-2.06-12.46-3.07-15.78-4.48-14.75-7.32-26.78-6.8-42.23.09-2.47-.48-6.05-1.69-10.76-1.88-7.27-2.92-12.53-4.22-18.91-.55-2.73-.82-5.56-.79-8.47.14-14.82-.1-28.97-3.84-43.61-.95-3.73-3.05-6.48-6.28-8.24-11.19-6.1-23.19-10.07-35.31-13.85-1.23-.39-2.52-1.46-3.87-3.21-7.44-9.65-15.35-18.84-23.73-27.55-.42-.44-.52-1.11-.23-1.65,5.75-10.85,9.73-22.35,11.94-34.5l.12-3.03c-1.74.31-3.63.54-5.68.67-9.09.57-10.93-7.11-12.1-14.14-.64-3.87-4.95-2.51-5.66.77-1.06,4.93-3.15,10.08-7.96,12.36-3.87,1.82-10.79,3.2-14.12-.28-2.67-2.79-2.3-7.59-1.8-11.19.11-.81-.25-1.24-1.06-1.3l-16.6-1.22c-.46-.03-.76-.27-.91-.7l-.1-.33c-.02-.06-.03-.13-.03-.2.02-.26.26-.46.53-.44l18.18,1.27c.28.02.52-.07.71-.28,4.19-4.56,14.81-3.38,20.29-2.9,6.94.61,13.51-1.95,19.97-3.86.48-.14.85-.51.99-.99,1.03-3.39,1.25-6.76.68-10.11-.5-2.93-.6-5.88-.31-8.87-.31-1.83-1.15-3.78-2.5-5.86-.18-.26-.2-.61-.05-.89,1.5-2.86,3.02-4.87,1.93-8.04-.33-.99-.68-.99-1.04-.02l-.47,1.26c-.11.31-.33.44-.65.39-.28-.04-.5-.16-.66-.35-.17-.21-.24-.54-.23-1.01.11-2.81-.17-5.72-.83-8.75-.03-.13-.11-.25-.22-.33-.25-.18-.6-.13-.78.12-.34.46-.57.95-.7,1.46-.11.47-.37.57-.77.31-.52-.33-1.09-.56-1.7-.68-.09-.02-.18-.06-.24-.13-.2-.19-.2-.49-.02-.68,1.33-1.37,2.96-2.58,4.91-3.64.23-.13.33-.35.29-.67-.05-.44-.29-.59-.71-.44l-2.18.78c-.36.13-.73.18-1.1.15-3.96-.27-8.01.29-11.65-.25-9.41-1.39-16.94-4.64-25.18.15-1.54.89-3.2,1.63-4.98,2.22-10.78,3.52-23.32,15.76-23.84,27.92-.34,8.11.11,16.17,1.34,24.2.05.33-.09.5-.42.51-10.91.43-.26,20.59,2.4,24.46,1.79,2.61,4.3,4.86,7.33,2.8.99-.68,1.5-.42,1.53.79l.39,20.66c.01.42-.19.63-.61.63-13.73.12-23.29,12.57-31.44,22.8-8.86,11.11-24.42,8.79-35.35,17.72-2.67,2.18-6.06,2.5-8.96,4.14-5.88,3.32-7.18,12.2-7.97,18.25-.69,5.31-1.63,10.57-2.84,15.78-1.77,7.63-.76,15.61-1.83,23.22-.82,5.86-2.11,11.65-2.13,17.54-.03,6.88.25,13.39-1.04,19.92-1.67,8.41-4.29,15.35-4.23,24.88.04,6.14-.34,11.72-1.99,16.67-1.56,4.68-2.67,9.06-3.33,13.13-.45,2.77-.57,7.04-.36,12.81.45,12.32-2.59,24.95-2.46,35.59.23,19.23-6.55,38.54-11.08,57.04-1.26,5.13-1.73,8.79-1.4,10.97.63,4.29.43,8.53-.58,12.73-.31,1.27-.15,3.12.48,5.53.09.33.02.68-.18.95-.85,1.16-1.46,2.19-1.92,3.62-6.95,21.07-13.93,42.11-20.93,63.14,0,0,0,.02,0,.03-.28.9.21,1.85,1.11,2.13l7.49,2.41c.06.02.12.04.17.07.54.28.76.95.48,1.49-3.13,6.15-6.41,14.02-5.94,21,.02.33.15.61.39.84,3.62,3.39,7.7-4.69,8.76-7.48,1.56-4.12,2.78-8.37,3.66-12.74.07-.32.26-.44.57-.35l20.8,5.58c.37.1.75-.11.86-.48,6.31-21.52,11.99-43.25,17.89-64.9.46-1.72,0-2.93-1.5-3.74-.02,0-.03-.02-.05-.03-.53-.32-.7-1-.38-1.52l4.23-7.05c.05-.08.08-.16.1-.24.12-.47-.17-.95-.64-1.07l-6.78-1.65c-.1-.02-.19-.06-.27-.11-.53-.3-.73-.98-.43-1.51.93-1.65,1.84-3.27,2.72-4.86,1.84-3.35.46-5.76,3.45-9.14,2.61-2.95,4.7-6.58,6.28-10.91,4.46-12.21,5.8-24.77,7.77-37.51.09-.58.36-.67.8-.28,1.7,1.49,2.17,3.5,2.08,5.88-.31,8.17.12,16.65-2.28,24.54-1.61,5.32-1.44,8.94.24,13.87,3.63,10.67,7,21.43,10.09,32.28,1.66,5.8.12,12.2,1.7,18.63,1.93,7.87,10.04,14.71,10.22,22.83.28,12.5,1,26.67,5.1,39.32,3.3,10.2,12.72,18.4,10.95,29.79-.53,3.41-2.92,6.69-3.77,10.2-1.28,5.28,1.32,9.6,4.29,13.74.41.57.49,1.31.2,1.95-1.3,2.88-2.88,6.26-3.2,9.31-.71,6.65,3.03,12.3,5.16,18.49.74,2.15,1.09,3.72,1.04,4.71-.72,16.52-.81,32.55,1.22,49,1.66,13.39,5.1,29.39,10.33,48,.55,1.96,1.93,6.97.2,8.55-3.39,3.11-6.68,6.33-9.86,9.65-8.29,8.64,7.37,26.15,13.17,32.04l2.79,2.66c.57.54,1.2.64,1.91.3,1.83-.87,3.47-2.02,4.92-3.44.05-.04.1-.08.16-.1.23-.08.48.04.56.27,1.01,2.84,2.09,5.69,3.24,8.56,1.46,3.64-.9,7.97-1.6,11.59-1.8,9.29-1.27,18.64,1.59,28.03.03.11.04.23.02.34-.08.38-.45.63-.84.56l-.27-.06c.4,2.33.57,5.18.51,8.55-.1,5.57,9.29,10.39,13.32,11.33,4.18.97,7.25,1.87,9.21,2.69,4.53.21,9.14.15,13.85-.16,5.61-.38,12.35-.99,16.33-4.81.25-.24.32-.61.18-.92-.44-.99-1.22-1.62-2.34-1.87-.65-.15-1.01-.55-1.07-1.22-.11-1.18.21-2.52.94-4.01.93-5.16.64-8.81-2.12-13.53-2.86-4.89-6.6-14.29-4.86-19.97,3.81-12.4,5.02-20.95,5.51-34.03.11-2.91-.46-5.33-1.73-7.28-.17-.28-.17-.55.02-.81,3.07-4.28,3.64-8.95,1.69-14-.79-2.03,2.8-7.39,3.84-9.33,1.21-2.26-2.69-6.15-4.09-7.74-.24-.27-.31-.66-.16-.99,9.37-21.29,17.12-43.58,24.6-65.6,5.48-16.14,9.41-32.49,13.4-49.04,1.27-5.29,4.95-8.57,8.77-12.09,4.13-3.82,4.69-8.5,1.05-13.12-2.52-2.26-3.96-3.84-4.31-4.74-2.55-6.43,2.4-8.85,4.98-12.92,4.37-6.9,3.81-13.28-1.68-19.15-.31-.33-.48-.76-.49-1.21-.32-29.26-1.73-58.51-2.93-87.73-.11-2.77,1.33-4.8-.24-7.46-2.08-3.53,4.21-6.86.88-10.77-1.19-1.4-2.21-2.64-2.05-4.63.33-4.25.84-8.47,1.53-12.66.04-.24.22-.44.46-.5l14-3.27c.25-.06.37.04.36.29-.05,3.38-.3,6.71-.74,9.99-.08.59-.32,1.1-.72,1.53-3.31,3.54-5.48,7.7-6.51,12.47-1.19,5.54-2.53,11.04-4,16.51-.49,1.81-.58,3.61-.29,5.42.05.34.34.59.69.61,2.76.12,4.73-1.9,6.54-3.69.04-.04.09-.08.15-.11.27-.13.59-.01.72.26,1.57,3.41,4,7.71,7.72,9.24,3.68,1.51,6.6,2.62,10.1.16.26-.18.6-.22.9-.09,1.92.82,3.49.89,4.7.2,4.58-2.6,9.16-5.19,13.73-7.78.55-.31,1.07-1.03,1.56-2.18.7-1.62,1.48-3.21,2.33-4.76.14-.25.18-.53.13-.81-.35-1.78-.2-3.5.47-5.17.11-.27.11-.53,0-.79l-3.6-8.82c-.39-.97-.14-1.2.77-.67l3.73,2.16c.12.07.26.11.4.1.44,0,.79-.35.78-.78-.05-6.2.34-12.42,1.18-18.66,1.27-9.53,1.45-16.88,1.36-25.6-.01-1.27.12-4.76.39-10.45.6-12.44-3.96-23.91-4.08-36.29Zm-123.91,144.51c-.01-.11.04-.18.16-.2h.01c.09-.01.15.03.17.12,2.97,13.61,8.62,24.89,9.03,39.9.01.5-.17.98-.52,1.34l-4.16,4.29c-.43.43-.67.35-.72-.26l-3.97-45.19Zm7.72,111.61c-.13.2-.23.19-.29-.04-2.21-8.47-3.75-15.74-4.64-21.81-.5-3.42.39-6.5,2.16-9.75,2.87-5.26,5.13-7.38-.28-12.41-.39-.36-.58-.89-.5-1.41l.34-2.45c.07-.52.31-.61.71-.28,3.43,2.8,6.52,6.02,7.3,10.55.8,4.61.22,9.11-1.75,13.5-.15.34-.15.67.02,1,1.12,2.19,3.64,3.99,4.27,6.24,1.8,6.31-4.6,12.68-7.34,16.86Z"/>
    </g>
  </g>
</svg>