<?xml version="1.0" encoding="UTF-8"?>
<svg id="Layer_2" data-name="Layer 2" xmlns="http://www.w3.org/2000/svg" viewBox="0 0 219.64 738.78">
  <defs>
    <style>
      .cls-1 {
        stroke-width: 0px;
      }
    </style>
  </defs>
  <g id="Layer_1-2" data-name="Layer 1">
    <g>
      <path class="cls-1" d="m30.15,262.73s.05.04.07.05h0s-.05-.03-.07-.05Z"/>
      <path class="cls-1" d="m29.98,262.52s-.01-.06-.02-.09c0,.03,0,.06.02.09Z"/>
      <path class="cls-1" d="m30.03,262.6s.03.05.05.08c-.02-.02-.03-.05-.05-.08Z"/>
      <path class="cls-1" d="m210.02,711.56c-5.08-2.08-10.74-4.57-13.65-9.47-1.34-1.73-2.41-3.75-3.22-6.04-3.38-5.83-5.89-11.61-7.52-17.34l-1.6-4.43c-.11-.3.02-.64.3-.79,1.13-.62,1.4-1.57.82-2.84-.1-.22-.14-.45-.11-.69l1.38-13.12.4-10.98s-.01-.06-.02-.09c0-.03,0-.06-.02-.08-.01-.03-.03-.05-.04-.07s-.03-.05-.05-.07c-.02-.02-.04-.03-.07-.05-.02-.02-.04-.03-.07-.04s-.05-.01-.08-.02c-.03,0-.06-.02-.09-.02l-10.49.12c-.07,0-.14-.03-.19-.06,0,0-.01,0-.02,0,0,0,0,0,0-.01-.06-.05-.1-.12-.11-.2,0,0,0-.02,0-.03,0,0,0-.02,0-.03,0-.08.03-.16.07-.22.31-.39.73-.7,1.28-.93,2.09-.87,4.26-1.73,6.49-2.56.51-.19.87-.65.92-1.19.14-1.51-.1-2.94-.73-4.27-.13-.29-.08-.55.15-.76l3.82-3.56.57-8.48c.02-.29-.11-.45-.4-.49l-4.43-.64c-.37-.05-.55-.25-.54-.62l.18-11.76.56-11.85c.8-10.95,1.04-22.27.72-33.94l-.4-22.49c.09-4.21-.53-8.07-1.88-11.58-.12-.32-.11-.64.03-.95,1.19-2.67.52-4.53-2.01-5.58-.08-.04-.15-.1-.19-.18-.09-.19-.02-.42.17-.51l.81-.39c.29-.13.5-.39.58-.69.34-1.29.18-2.7-.48-4.22-.43.08-.99-.22-1.67-.9-.22-.23-.26-.58-.09-.85l.25-.4c.15-.25.23-.53.24-.82l.14-8.57c0-.3.1-.58.29-.81,2-2.46-.05-6.98-1.22-10.6-1.48-6.46-.31-14.76.63-22.21l.74-25.76-.16-23.47c-.03-3.43-.06-6.94-.09-10.54-.07-11.55-1.57-23.27-2.59-34.83l-.23-3.02c-.57-3.33-.63-6.58-.18-9.75.71-3.93,2.29-7.78,4.74-11.54l8.63-18.86c2.95-7.66,6.82-15,10.21-22.47,2.82-6.23,5.26-12.59,7.32-19.1,1.06-3.35,1.44-7.36,2.34-11.01.56-4.01,1.14-8.03,1.73-12.06.35-2.44.19-5.04.49-7.6.21-2.59-.04-5.19-.76-7.8l-1.1-7.05-.98-8.28-2.73-25.4-3.38-20.34c-.31-2.42-.86-4.78-.94-7.19-.14-4.24-.29-8.48-.44-12.73-.32-8.99-1.92-17.73-4.8-26.2-3.11-8.47-8.21-13.75-16.07-17.75-1.23-.63-2.43-1.48-3.62-2.57-2.2.25-5.06-.55-8.59-2.41-7.53-2.45-14.92-5.22-22.16-8.31-6.93-2.96-11.68-5.33-14.25-7.11-2.78-1.93-4.26-5.24-4.45-9.92-.41-1.55-.67-2.88-.77-3.98-.35-3.85-.52-8.38-.53-13.59.23-1.51.43-4.97.59-10.4.03-1.19.66-1.67,1.87-1.42.31.06.61.02.89-.12,4.01-2.03,5.19-13.83,5.1-17.58,0-.35-.14-.65-.39-.89-1.45-1.4-2.87-1.34-4.26.18-.02.03-.05.05-.08.06-.13.06-.28,0-.34-.13-.06-.14-.06-.26-.01-.36,1.67-3.04,2.94-6.23,3.83-9.58.84-3.16.35-6.65.93-10.13,0,0,0-.02,0-.03,0-.14-.09-.27-.23-.27-.09,0-.18-.01-.26-.01-.31-.01-.49-.17-.54-.47-.4-2.08.14-3.79,1.61-5.12.27-.25.34-.55.2-.89-.48-1.15-1.36-1.88-2.64-2.2-.17-.04-.33-.11-.46-.22-.6-.44-.74-1.28-.31-1.88.4-.55.62-1.01.65-1.38.03-.43-.14-.54-.53-.32l-.45.26c-.41.23-.67.12-.8-.33-.09-.34.01-.64.3-.9.49-.43.76-.94.79-1.52.03-.4-.16-.55-.55-.46l-1.22.28c-.06.01-.12.01-.18,0-.24-.04-.4-.28-.35-.52.37-1.79-.29-3.12-1.98-3.98-.06-.03-.12-.04-.19-.04-.2.02-.35.19-.33.39.07.88-.08,1.74-.45,2.58-.08.17-.21.3-.37.38-.39.19-.86.03-1.05-.35-1.25-2.53-1.91-5.86-4.12-7.56-1.13-.87-2.25-1.54-3.37-2.01-1.05-.45-1.26-.19-.63.76l1.51,2.26c.07.11.05.21-.06.28l-.28.19c-.3.2-.69.16-.94-.09-3.81-3.92-7.49-6.87-11.17-7.82-1.97-.51-2.27-.01-.91,1.5l2.87,3.18c.13.14.1.21-.09.22-2.19.09-3.59-.05-4.22-.42-2.91-1.69-7.58-1.54-10.94-1.72-.37-.02-.5.15-.38.5l.38,1.15c.11.31,0,.42-.31.35l-2.03-.46c-.28-.07-.5-.3-.54-.58-.01-.1-.03-.2-.04-.3,0-.02,0-.03-.02-.05-.05-.1-.16-.15-.26-.1-1.13.52-1.78.6-1.94.25-.1-.23-.27-.34-.52-.35l-2.6-.05c-.07,0-.13.02-.18.06-.11.09-.12.26-.03.37l1.99,2.36c.07.09.11.2.1.31-.01.25-.23.45-.48.44l-8.36-.62c-.15,0-.29.05-.39.16-.19.2-.17.52.03.71l3.65,3.12c.08.06.13.15.14.25.03.21-.12.41-.33.44-3.68.58-7.3.41-10.87-.52-.56-.15-.65,0-.27.43l3.17,3.69c.2.23.44.4.73.51.41.16.74.43.98.8.17.26.19.58.07.85-.22.48-.13.84.26,1.07.29.17.31.37.07.6-1.9,1.84-4.08,3.8-3.23,6.72.08.27.23.48.46.65.28.21.43.47.45.78.03.37-.15.6-.52.68l-.85.18,1.26,13.79c.01.14-.04.47-.16,1-.02.1-.05.2-.09.29-.1.26-.04.47.18.64,2.82,2.16,4.23,3.59,4.83,7.22.04.23,0,.47-.13.66-.28.43-.85.56-1.29.28l-1.94-1.26c-.33-.21-.61-.17-.86.14l-1.12,1.4c-1.01,5.61,1.07,11.35,3.62,16.65.67,1.39,1.43,1.77,2.3,1.14.19-.14.42-.22.65-.22.62-.01,1.14.49,1.15,1.11.09,4.47.96,8.65,2.63,12.54.84,1.94,1.32,3.62,1.43,5.05.35,4.33.26,8.69-.28,13.09l-.79,9.23c-.03.36-.19.65-.5.86-1.73,1.19-3.64,2.02-5.73,2.49-10.2,4.34-20.56,8.12-31.07,11.34-12.16,3.73-21.64,7.24-27.67,18.4l-2.01,3.97c-2.77,7.49-4.35,15.21-4.75,23.15-.84,8.98.1,18.22-1.95,27.14-1.35,5.85-2.57,11.75-3.65,17.68l-1.21,19.91c-.27,9.3-2.29,18.81-3.56,27.96-.42,7.92.29,15.84,2.12,23.76,1.55,7.8,4.13,15.53,7.73,23.18l24.23,50.6c1.25,4.82,1.53,10.12.85,15.9-.21,5.64-.49,11.41-.83,17.3-1.01,17.59-.32,35.44-.04,52.96l1.95,23.15c1.15,7.99,1.67,16.08,1.56,24.27-1.79,3.74-2.5,7.03-2.11,9.88l1.47,3.27c.15.35.19.7.1,1.07-.53,2.39-.29,4.69.72,6.91,0,.02.02.04.02.06.09.31-.08.64-.39.74-1.76.54-2.63,1.75-2.62,3.64,0,.31.11.6.3.85.77,1,1.08,2.14.93,3.43-.04.39-.25.65-.63.78l-1.05.35c-.38.13-.54.39-.47.78l.47,2.75c.03.18.12.31.28.4l.28.17c.35.2.48.5.4.89-1.23,5.78-1.65,11.96-1.73,17.93-.16,12.64,0,25.26.45,37.86,1.11,7.71,1.62,15.15,1.55,23.09l.04,13.64c0,.35-.18.56-.53.62-2.37.37-6.46-.29-5.74,3.65.31,1.67.63,3.49.98,5.46l3.22,2.46c.27.21.37.57.25.89-.17.44-.11.84.18,1.19.3.37.28.73-.07,1.06l-1.17,1.13c-.19.19-.23.4-.14.65.06.15.15.29.28.4.16.14.23.36.2.57-.3,2.13.55,3.29,2.56,3.46,0,0,0,0,0,0,.07.01.12.09.1.17,0,.02,0,.04-.01.05,0,.03-.03.05-.06.04-1.73-.38-3.08.16-4.06,1.61-.19.27-.26.58-.23.91l.77,7.98.68,8.28c.01.16.06.33.15.47,1.31,2.29.48,7.05.27,8.98-.03.29.14.57.42.67l.57.21c.39.13.51.39.36.78l-1.7,4.54c-3.01,7.51-7.33,15.61-13.3,21.19-4.45,2.77-9.3,5.64-14.54,8.61-4.95,2.8-4.55,9.07-5.31,13.96l-.53,2.56c-.25,1.2.45,2.39,1.62,2.75,6.17,1.93,12.39,2.95,18.66,3.07,12.08.87,23.47-2.05,31.11-11.91.05-.06.11-.11.18-.14.22-.09.47,0,.56.23.21.49.22.99.03,1.5-.15.42,0,.64.44.67,5.44.34,10.69-.44,15.75-2.35,2.34-.88,2.66-2.31,2.58-4.59-.25-7.21-.45-11.79-.62-13.74l-.36-22.41,1.46-8.1c.06-.34-.07-.56-.4-.66-.26-.08-.53-.11-.81-.09-.32.03-.48-.12-.49-.44-.05-1.81.76-3.04,2.43-3.69.35-.13.5-.39.47-.76-.07-.62-.04-1.19.08-1.7.07-.31.05-.61-.04-.9-1.71-5.33,5.85-7.53,4.58-14.14-.08-.43-.44-.75-.88-.79l-8.11-.68c-.93-.08-1.7-.61-1.98-1.36-.09-.24.08-.45.5-.64,1.32-.57,2.11.28,3.39-1.1,1.08-1.17,2.18-2.16,3.29-2.97.31-.23.55-.55.67-.92.32-.98-.21-2.03-1.18-2.35l-4.16-1.38c-.16-.05-.3-.16-.41-.29-.27-.36-.19-.88.18-1.15.44-.33,1.05-.52,1.84-.58,1.6-.12,3.2-.34,4.81-.65.31-.07.45-.26.4-.57-.05-.33-.17-.62-.38-.88.05-1.91-.28-3.29-1-4.14-.81-5.49-1.26-11.18-1.35-17.07-.18-12.03,2.65-24.45,4.17-36.32l.1-9.32c.27-2.5.16-6.07-.32-10.71-.46-4.41-.88-8.7-1.26-12.87-.09-7.13.58-13.17,2.01-18.13.68-2.35.96-4.01.83-4.99,1.39-4.29,2.9-8.66,4.53-13.09,1.45-3.93,1.51-7.17,1.38-11.18-.17-7.93.43-15.84,1.78-23.71,2.9-18.75,6.49-38.04,14.13-55.51,1.55-3.53,3.81-6.1,6.8-7.71,1.72-.2,2.83.03,3.33.69,3.73,4.97,6.69,11.13,8.88,18.48,2.59,6.33,4.69,13.14,6.31,20.44l4.43,22.89,3.22,23.98c.43.95.57,1.75.4,2.41.57,6.05,2.04,11.78,4.4,17.2.69,1.6,1.13,3.4,1.31,5.41,1.8,5.75,3.12,11.63,3.97,17.65l-1.71,27.86c-.23,8.1.43,16.39,1.97,24.86,1.28,7.3,2.79,13.4,3.06,21.67l-.27,9.3c0,.35-.1.66-.29.95-.97,1.53-1.17,3.18-.59,4.97.01.04.04.09.07.12,0,0,0,0,0,0,.06.07.14.1.23.11,0,0,0,0,.01,0,.08,0,.17-.02.24-.08.11-.1.23-.14.36-.12.39.07.59.3.6.69.03.87.4,1.55,1.11,2.02.33.23.39.51.18.85-.53.84-.88,1.69-1.05,2.55-.31,1.43-.63,2.87-.94,4.3-.67,2.99-3.29,5.17-3.71,8.38-.63,4.85,2.33,5.91,5.83,8.03.3.18.33.4.1.66-.76.85-1.64,1.51-2.63,1.97-4.45,2.96,7.26,12.59,2.68,15.55-.25.16-.33.38-.22.66.27.69.68,1.29,1.25,1.8.25.23.42.55.49.89.27,1.46.32,2.85.13,4.18l-3.01,23.05c-.41,5.49-1.51,11.02-.93,16.59.03.31.18.57.43.76,4.3,3.26,8.85,3.78,13.71,4.99,1.93.48,3.44.52,4.55.12,1.39.22,2.63,1.42,3.74,3.59,4.46,8.78,15.19,10.7,25.2,11.49,6.1.36,10.52.11,13.27-.74,3.19-1,10.51-2.47,12.22-5.34.16-.27.24-.56.25-.87.06-5.92-3.78-17.72-9.62-20.1ZM53.14,272.63c-.28,2.5-.52,5-.73,7.5-.3,3.67-1.99,11.85-5.07,24.56l-2.17,10.16c-.98,6.1-1.28,12.01-.91,17.74.07,1.02-.19,1.11-.77.26-3-4.39-5.21-9.28-6.63-14.68-1.23-9.69-1.11-19.42-1.78-29.17-.02-.27-.08-.52-.19-.76-.14-.31-.23-.75-.26-1.34l-5.59-26.71c-.34-1.31-.39-2.75-.16-4.32.01-.09.03-.17.04-.26-.69-1.43-.56-3.04.4-4.84,6.67-12.46,10.69-27.28,13.17-41.13.09-.51.2-.52.35-.02l8.23,28.83,2.38,15.16c.18,6.42.41,12.59-.31,19.02Zm116.89,58.93c-1.53,2.39-1.93,2.21-1.19-.53.15-.57.09-1.78-.19-3.64-2.15-14.19-4.49-28.36-7.02-42.49-1.21-6.73-2.23-13.49-3.07-20.29-.23-6.39-.6-12.5,1.04-18.74,3.11-11.19,6.33-22.52,9.68-33.99.33-1.13.26-2.67.58-3.55.45-1.25.77-1.22.96.09,1.49,9.87,3.8,19.02,6.92,27.47,1.85,4.8,3.92,9.48,6.21,14.05.69,1.37,1,2.74.95,4.13-.12,3-.44,6.07-.97,9.2-3.3,11.11-5.4,22.49-6.3,34.12-.45,5.81-.88,9.96-1.3,12.45-1.21,7.14-2.45,15.74-6.3,21.72Z"/>
    </g>
  </g>
</svg>