<?xml version="1.0" encoding="UTF-8"?>
<svg id="Layer_2" data-name="Layer 2" xmlns="http://www.w3.org/2000/svg" viewBox="0 0 113.45 436.61">
  <defs>
    <style>
      .cls-1 {
        stroke-width: 0px;
      }
    </style>
  </defs>
  <g id="Layer_1-2" data-name="Layer 1">
    <path class="cls-1" d="m109.95,199.86c1.93-17.33,4.67-34.52,2.96-52-.72-7.34-1.11-12.18-1.16-14.52-.23-9.89-.07-19.77.47-29.64.53-9.69-.12-24.94-9.83-30.84-1.2-.73-3.73-1.55-7.58-2.44-2.63-.61-5.2-1.36-7.69-2.27-.17-.06-.18-.15-.05-.27,5.54-4.76,6.33-8.64,4.42-16-2.8-10.83-5.78-21.6-8.95-32.31-1.84-6.22-4.55-11.22-8.14-15.01-3.46-3.65-7.9-4.88-13.31-3.69-.32.07-.63.05-.94-.06-14.31-5.12-20.87,15.21-23.67,25.04-2.71,9.51-5.44,19.01-8.19,28.51-1.47,5.08-1.2,10.5,3.14,13.2.17.11.29.28.32.48.06.38-.2.73-.57.79-4.2.73-9.37,1.51-12.83,3.6-8.92,5.4-10.84,18.68-10.88,28.19-.05,11.87-.59,23.72-1.62,35.54-1,11.42-4.29,22.13-4.08,33.71.36,19.9.47,34.15.32,42.75-.07,4.13-.76,9.18-2.05,15.13-.07.32-.05.65.05.96.97,2.87,2.57,8.56,4.66,10.65,1.36,1.35,4.53,1.83,4.67,4.01.13,2.06.27,4.18.4,6.36.03.39.23.61.61.68l19.51,3.34c.45.08.76.33.93.76,5.3,13.89,11.55,27.49,11.14,42.76-.26,9.3-1.23,18.85,1.6,27.85,2.78,8.87,5.29,17.54,7.52,26.02.35,1.32.4,2.7.16,4.04-.83,4.55-1.65,9.19-2.46,13.94-.47,2.73-1.29,4.78-2.48,6.14-.22.25-.37.54-.45.87-1.15,4.84-1.06,10.2-1.78,14.43-1.12,6.54-3.12,12.21-4.88,18.3-.88,3.05-1.93,9.17-1.05,11.38,1.71,4.33,5.93,5.35,10.51,5.77l5.37-.35s.04,0,.06,0c.27.02.48.25.46.52-.08,1.8-.05,3.61.08,5.44.38,5.17,11.78,5.25,15.15,4.84,3.73-.45,6.2-1.87,7.39-4.25-.83-6.52-1.25-12.87-1.28-19.04-.03-8.26,4.26-15.11,1.62-23.31-1.67-5.16-2.84-9.82-3.53-13.98-.11-.7-.71-1.36-1.78-1.97-.28-.16-.47-.43-.51-.75-.82-6.63-1.37-13.3-1.65-19.99-.08-1.97.19-3.97.8-5.99,5.17-16.92,8.69-29.65,7.75-45.21-.39-6.41-.79-11.82.43-16.36,2.72-10.19,5.4-20.26,8.05-30.23.17-.67.76-1.14,1.45-1.16,5.03-.2,9.98-.93,14.85-2.2.91-.24,1.52-1.08,1.46-2.02-.24-3.89-.31-7.96-.21-12.2.07-2.53-.15-4.42,2.79-5.1.35-.08.65-.29.84-.59,1.66-2.52,2.44-6.81,3.24-9.75.21-.79.24-1.46.09-2.01-1.89-6.71-2.45-13.54-1.67-20.49ZM9.66,236.33c-.54.06-1.3-2.51-1.68-5.76-.39-3.25-.26-5.93.28-6,.54-.06,1.3,2.51,1.68,5.76.39,3.25.26,5.93-.28,6Zm19.09-92.2c-13.92,19.87-16.11,42.5-16.94,66.02-.01.2-.19.36-.39.35-.09,0-.18-.05-.25-.12-3.66-4.23,3.14-35.18,3.75-37.39,5.64-20.11,7.94-40.29,10.25-63.49.02-.17.13-.32.29-.37l.41-.14c.07-.03.1,0,.1.07.33,7.14,1.17,14.23,2.52,21.27.69,3.62.8,7.22,1.09,10.76.08,1.08-.21,2.15-.83,3.04Zm69.73,19.97c-2.1-7.04-3.39-11.89-7.88-19.47-.59-.98-.68-3.34-.52-4.71,1.09-9.37,2.47-18.7,4.14-27.98.02-.1.08-.15.19-.14.11,0,.16.06.16.17-.03,3.86-.12,7.64.28,11.53,1.29,12.65,2.46,25.32,3.52,37.99.05.58.46,1.68.39,2.58-.04.53-.13.54-.28.03Z"/>
  </g>
</svg>