<?xml version="1.0" encoding="UTF-8"?>
<svg id="Layer_2" data-name="Layer 2" xmlns="http://www.w3.org/2000/svg" viewBox="0 0 156.79 432.83">
  <defs>
    <style>
      .cls-1 {
        stroke-width: 0px;
      }
    </style>
  </defs>
  <g id="Layer_1-2" data-name="Layer 1">
    <path class="cls-1" d="m155.73,426.9c-5.61-3.15-8.81-7.42-11.59-13.58-6.12-13.59-7.65-27.8-8.32-41.09-.15-3.05.62-6.1.23-9.32-1.67-13.8-3.26-27.86-5.28-41.32-3.71-24.79-7.81-49.63-12.31-74.52-.16-.88.34-1.74,1.17-2.03,2.73-.97,6.66-2.58,7.92-5.55.68-1.58,4.44-9.44,3.86-12.75-1.61-9.27-2.24-17.68-1.88-27.71.25-6.93.48-13.87.71-20.8.37-11.46-.79-19.98-3.15-31.01-1.02-4.73-1.68-8.92-1.99-12.57-.78-9.17-.45-19.71-1.69-27.51-1.42-8.86-4.27-17.26-8.54-25.21-3.28-6.11-6.8-6.8-12.74-9.07-.29-.11-.62-.09-.9.04-1.01.5-1.31.63-2.44.27-5.54-1.8-11.12-3.49-16.74-5.06-.77-.22-1.22-.38-1.37-.47-1.17-.78-1.06-1.13.35-1.04,7.53.46,11.4-5.93,11.63-12.88.46-14.24-3.15-28.56-8.56-41.64-3.01-7.26-8.76-13.98-17.53-11.35-.3.09-.6.09-.9,0-5.57-1.71-10.07-.41-13.51,3.91-8.16,10.23-11.42,26.25-12.87,39.34-.6,5.36-.98,15.66,3.75,19.47,1.78,1.43,3.75,2.34,5.91,2.75l2.99.48c.08.02.16.06.21.14.1.15.06.35-.09.44l-1.44.93-1.02.15c-1.37.8-2.73,1.2-4.06,1.21l-8.05,2.68c-1.68.87-3.66,1.13-5.93.79-6.19,1.33-10.8,4.97-13.84,10.92-4.41,8.63-7.42,17.23-9.05,25.81-.63,3.33-1.35,9.49-2.14,18.49-.57,6.47-2.05,14.46-4.45,23.99-3.57,14.19-1.7,32.7-.55,48.33.37,5.05.46,9.34.28,12.85-.18,3.61-2.21,13.06-.88,15.97,1.53,3.36,3.09,6.71,4.66,10.06,1.68,3.55,7.68,5.09,10.97,6.76.54.27.9.81.95,1.42.44,4.9.8,9.85,1.09,14.86,2.05,36.09,3.71,72.19,4.96,108.31.01.37.18.65.51.84,5.45,3.1,14.85,4.35,20.92,4.43.36,0,.69.24.8.59,1.57,4.89,3.11,9.78,4.64,14.66.9,2.91,1.37,5.41,1.41,7.5.16,7.74-2.58,16.85-4.75,24.28-.5,1.72.1,3.28,1.8,4.68,5.97,2.37,11.66,2.35,17.09-.06,1.14-1.61,1.59-3.11,1.36-4.49-1.46-8.47-1.84-16.72-1.15-24.76.13-1.47.07-2.47-.18-3.01-3.07-6.72-4.41-13.81-4.02-21.26.03-.41.23-.69.61-.84l3.77-1.48c.71-.28,1.18-.97,1.17-1.74l-2.88-142.43c-.06-3.2.23-3.23.87-.1,1.54,7.43,3.92,15.52,5.34,22.91,8.97,46.75,15.16,79.25,18.57,97.5,1.04,5.55,2.19,12.83,3.45,21.84.05.37.24.64.55.81.65.37,1.52.64,2.6.83,6.75,1.18,13.03,1.24,18.86.19.33-.06.57.06.73.35,3.09,5.58,8.25,14.57,6.91,21.14-.89,4.36-4.03,7.11-3.46,11.8.76,6.31,1.13,12.13,1.1,17.47l.24,3.5c.07.96.58,1.5,1.54,1.61l2.59.3c1,.11,1.52-.33,1.55-1.34l.13-4c-.09-1.72,0-2.97.25-3.76.47-1.46.97-1.47,1.52-.04l3.67,9.54,1.92,3.48c.17.31.44.48.8.5l9.63.6c4.38-.2,10.59-.17,12.43-2.97.03-.04.05-.09.08-.13.56-1,.2-2.27-.8-2.83ZM15.04,184.24c.22-.48.36-.46.43.07.11.95,0,1.94-.34,2.97l.38,23.29c.03,1.79-.23,1.83-.79.14-2.79-8.52-1.72-15.84.07-23.93-.2-.89-.12-1.73.25-2.54Zm.56,56.76c-.59.05-1.35-2.99-1.69-6.8-.34-3.81-.13-6.94.46-6.99.59-.05,1.35,2.99,1.69,6.8.34,3.81.13,6.94-.46,6.99Zm15.22-97.72c-4.66,4.6-6.53,8.78-9.36,13.91-.08.14-.26.18-.4.1-.09-.05-.14-.15-.14-.25.58-12.59,4.11-25.24,8.58-36.85.31-.78.48-.75.52.08l1.16,22.09c.02.36-.1.67-.36.92Zm84.1,68.29c-1.26-17.2-2.32-35.16-6.59-51.46-1.47-5.61-4.34-10.97-6.95-16.33-.14-.29-.18-.63-.12-.95.72-3.51,1.12-7.05,1.2-10.6.09-3.84.81-7.92.54-11.98,0-.1.04-.15.14-.15,1.65,0,1.71.05.18.13-.07,0-.09.04-.08.1,3.23,11.35,5.31,21.98,6.23,31.9,1.33,14.42,3.79,27.83,7.38,40.22.55,1.91.77,4.08,1.24,6.11.97,4.12-.37,9.75-2,13.23-.67,1.42-1.06,1.35-1.17-.22Zm3,28.49c-.45,0-.78-2.86-.74-6.38.04-3.52.43-6.37.88-6.36.45,0,.78,2.86.74,6.38-.04,3.52-.43,6.37-.88,6.36Z"/>
  </g>
</svg>