<?xml version="1.0" encoding="UTF-8"?>
<svg id="Layer_2" data-name="Layer 2" xmlns="http://www.w3.org/2000/svg" viewBox="0 0 121.37 457.9">
  <defs>
    <style>
      .cls-1 {
        stroke-width: 0px;
      }
    </style>
  </defs>
  <g id="Layer_1-2" data-name="Layer 1">
    <path class="cls-1" d="m105.45,35.8c-.68,0-1.19.67-1.54,1.98-.37,1.41,0,2.13,1.11,2.15.41.01.74.36.73.77,0,.2-.09.39-.24.53-.63.57-.93,1.27-.88,2.08.02.3-.07.56-.28.78-.45.48-.67,1.03-.66,1.65,0,.44.22.65.66.64,1.35-.03,1.94.73,1.75,2.29.07.62-.16,1.12-.69,1.51-.28.21-.39.48-.34.81.52,3.07-1.89,8.01-3.84,9.29-2.72,1.78-6.1,5.27-9.22,5.84-1.41.25-2.36.85-3.68,1.24-.3.09-.5.28-.61.57l-.54,1.48c-.11.29-.43.44-.72.33-.07-.02-.13-.06-.18-.11-1.67-1.51-3.64-2.05-5.91-1.61-.35.07-.69.02-1.01-.13-.84-.41-1.58-.3-2.22.31-.33.32-.85.36-1.23.08-.46-.34-.98-.49-1.57-.44-.4.03-.62.24-.65.63-1.36,15.34,11.31,18.65,23.89,19.82,13.36,1.25,17.15,12.19,17.69,23.91.83,18.2-.5,36.61,3.31,54.51,1.2,5.65,1.91,9.83,2.13,12.56,1.19,15.13.08,31.26-1.25,46.37-.55,6.15.07,12.23,1.86,18.23.09.3.06.76-.07,1.37-.08.37-.25.79-.52,1.26-1.47,2.61-2.44,5.4-2.91,8.38-.14.95-1.33,1.89-2.3,2.3-3.08,1.3-6.17,2.68-9.28,4.14-1.05.49-1.71.17-1.97-.96l-.13-.53c-.2-.85.06-1.53.79-2.04l7.7-5.33c.38-.26.61-.7.6-1.16l-.1-7.17c0-.43-.36-.78-.8-.77h-.47c-.6.02-.92.33-.95.93l-.42,7.69c-.06,1.15-.64,1.9-1.73,2.27l-.44.15c-1.07.36-1.55-.02-1.43-1.15.88-7.97-.08-15.28,2.69-23.12,1.07-3.05,1.6-5.3,1.59-6.75-.17-13.15-1.59-24.4-4.25-33.77-1.59-5.6-2.86-10.35-3.79-14.25-2.82-11.71-3.54-25.22-4.91-37.55-.17-1.53-.49-1.56-.95-.09-1.83,5.85-6.8,23.41-3.59,29.05,9.71,17.07,15.39,39.73,12.41,59.86-.66,4.45-1.84,10.28-3.54,17.5-3.33,14.15-6.92,28.23-10.75,42.25-.87,3.19-2.59,6.59-3.01,10.46-.53,4.85-1.12,9.7-1.79,14.53-1.3,9.42.54,18.72-.53,28-1.74,15.05-7.45,29.62-13.35,44.01-2.53,6.16-2.71,10.79-1.69,18.82.03.25.18.39.44.41l1.75.14c.47.04.73.29.77.76.92,10.15,2.37,19.11,4.35,26.88,1.35,5.28,5.21,11.96,5.33,17.55.07,2.87-.36,5.71-1.29,8.5-.09.28-.29.45-.58.5-8.11,1.47-16.17,1.26-24.18-.65-.77-2.97-1-6.37-.67-10.18.05-.58-.38-1.1-.96-1.15-.02,0-.05,0-.07,0l-7.29-.14-1.35-14.89c-.05-.51-.25-.95-.61-1.32l-.51-.51c-.51-.51-.75-.4-.74.32l.22,9.54c.05,2.11-.96,3.01-3.04,2.7l-1.21-.18c-1.98-.29-2.96-1.43-2.94-3.43.06-6.31-.01-13.29-.21-20.92-.19-7.03,2.57-10.24,6.35-15.01,3.19-4.04,5.06-9.24,6.93-13.93.23-.59.25-1.24.06-1.85-3.44-10.86-6.8-21.85-10.08-32.96-4.72-15.95.62-31.81-3.96-48.24-3.47-12.42-6.23-24.14-10.13-37.29-5.94-20.09-10.57-41.39-9.53-62.46.82-16.65,7.21-31.77,19.48-42.53.45-.39.54-1.05.21-1.54-3.89-5.86-5.24-11.89-7.76-18.24-.22-.54-.39-.53-.5.04-2.49,12.16-4.15,24.85-7.77,36.8-3.99,13.17-7,23.33-9.01,30.48-1.56,5.53-3.4,12.35-1.66,18.45,2.73,9.55,2.45,16.66,3.42,26.01.03.23-.07.31-.29.25l-3.01-.79c-.21-.05-.33-.19-.36-.4l-1.19-8.94c-.05-.37-.39-.62-.75-.58-.04,0-.08.01-.12.03-.57.18-.87.66-.91,1.45-.06,1.33.09,3.5.46,6.49.4,3.26,1.89,2.31,3.79,3.44,1.97,1.17,3.76,2.45,5.37,3.84.58.5.65,1.38.15,1.96-.22.25-.52.42-.84.47-1.27.21-2.54,0-3.81-.63-3.33-1.63-9.36-2.57-10.27-6.64-.64-2.84-1.49-5.42-2.54-7.75-.42-.91-.48-1.95-.18-2.91,1.5-4.74,2.19-9.21,2.03-14.43-.51-16.24-.36-32.65,1.14-48.84.77-8.27,5.09-20.08,5.3-30.4.19-10.12.48-20.23.86-30.34.36-9.53,2.65-22.84,11.6-28.14,8.87-5.26,24.73-1.53,30.33-12.29,1.57-3,2.16-6.28,1.79-9.83-.04-.36-.35-.62-.7-.58h0c-3.87.44-9.5-2.02-12.23.27-.29.24-.42.17-.39-.2l.05-.8c.02-.37-.25-.69-.62-.72-.12,0-.23.01-.33.07l-.74.36c-.29.14-.57.13-.84-.04-1.65-.99-3.33-1.93-5.04-2.82-2.46-1.28-5.14-3.44-8.11-4.4-.84-.28-1.32-1.16-1.1-2.02.67-2.59-3.02-3.83-4.31-6.76-.13-.28-.04-.45.27-.5.67-.11,1.18.15,1.54.78.11.2.26.23.43.08l.31-.26c.15-.13.15-.25,0-.38l-2.03-1.75c-.2-.17-.5-.14-.66.06-.07.09-.11.2-.11.32l.04.54c.05.77-.11.82-.49.14-1.16-2.09-3.13-7.25-.58-8.9l.08.53c.06.41.29.54.68.4.27-.1.45-.32.54-.67.05-.21.06-.38.02-.53-.09-.37-.28-.43-.57-.16-.25.23-.5.38-.75.43l1.03-2.38c.13-.31.34-.37.63-.18.51.34.9.19,1.18-.44.58-1.29.76-2.64.54-4.03-.03-.16-.12-.22-.27-.18l-.26.07c-.06.02-.08.06-.06.12.54,1.35.31,2.47-.69,3.36-.47.42-.71.32-.7-.31,0-.89.15-1.73.46-2.53.19-.49.15-.97-.12-1.42-.88-1.51-1.02-2.66-.43-3.43.4.35.8.6,1.2.76.42.16.63.02.63-.43l.02-1.77c-.15-1.71.2-3.16,1.03-4.35.19-.28.29-.59.3-.93.05-3.16,1.23-3.75,3.19-5.82.22-.23.51-.38.82-.43.59-.08,1.13-.25,1.64-.52.44-.23.43-.44-.03-.63-.42-.18-.62-.51-.61-1,0-.42.17-.77.5-1.05.53-.45.97-.98,1.32-1.58.14-.22.43-.29.65-.15.09.05.16.14.19.23.31.85.91.99,1.81.42.63-.39.82-1.22.43-1.85-.04-.07-.09-.13-.14-.18l-1.2-1.36c-.12-.14-.15-.32-.09-.48.03-.09.07-.18.11-.27.03-.09.1-.12.19-.09.36.12.67.31.93.57.39.39.65.32.79-.21.21-.8.55-1.54,1.01-2.23.18-.27.44-.41.77-.42,1.81-.07,3.61-.07,5.4-.02.86.02,1.26.47,1.94.93.37.24.59.15.66-.28.04-.25-.06-.6-.31-1.04-.03-.41.35-.48,1.16-.22.96,1.48,2.85.09,3.91-.49l1.38.27c.69.43,1.32.52,1.87.27.97-1.12,1.26-1.77.88-1.96.35-.66.79-1.06,1.32-1.21.39-.11.65.03.8.41.17.46.25.95.22,1.46-.01.23.17.43.4.44.04,0,.07,0,.11,0,.69-.15,1.18-.6,1.45-1.34.1-.26.39-.38.64-.28.06.03.12.06.17.11.42.43.75.9,1,1.42.19.41.46.47.8.18.71-.59,1.51-.9,2.41-.95.15,0,.27-.14.27-.29,0-.09-.06-.18-.14-.23-1.19-.74-1.91-1.79-2.16-3.14-.03-.19.04-.28.22-.28h.33c.24,0,.44.17.48.4.16.88.6,1.59,1.32,2.13.25.19.37.43.36.74,0,.24.05.46.16.66.17.3.42.42.76.36.89-.15,1.51.25,1.85,1.19.07.19.27.28.46.21.04-.01.07-.03.1-.05l.83-.66c.21-.17.36-.37.46-.61.27-.63.67-1.17,1.2-1.6.19-.15.45-.14.63.01l.25.23c.15.12.16.25.03.39-.18.21-.23.42-.16.63.15.43.35.46.59.07.54-.89,1.26-1.62,2.17-2.19.63-.39.78-.23.47.46-.02.05-.14.19-.37.42-.17.18-.15.34.05.49l.37.26c.24.17.57.12.74-.12.01-.02.02-.03.03-.05,1.67-2.88,4.33.4,6.93-2.24.12-.11.23-.11.33.01l.43.51c.11.15.09.26-.08.33l-3.46,1.52c-.33.15-.66.14-.99-.03-1.11-.56-2.03-.3-2.75.78-.3.45-.21.79.27,1.03l.77.38c.25.13.55.03.68-.22,0,0,0-.02.01-.03.04-.1.09-.19.15-.26.31-.41.59-.65.84-.71,1.66-.43,3.33-.79,5.02-1.09.51-.09.69-.37.52-.86l-.12-.38c-.08-.23,0-.37.24-.42l.39-.09c.1-.03.17,0,.22.1.11.26.16.53.15.82-.04.57.19.72.69.45.64-.33,1.32-.49,2.05-.46.31.01.55.27.54.58,0,.04,0,.09-.02.13-.18.67-.17,1.37.04,2.09.37,1.28.81,1.3,1.3.06.11-.27.29-.54.52-.8.16-.18.43-.21.62-.06l.83.65c.09.08.18.07.26-.03l.41-.5c.5-.61.86-.53,1.08.22l.07.24c.1.36.03.68-.2.97-.42.51-.4.96.06,1.33.32.25.42.57.29.96-.26.78-.22,1.54.12,2.28.33.72.67.72,1.02,0,.33-.71.87-.91,1.61-.62.34.14.5.52.37.85-.04.11-.11.2-.2.27l-1.39,1.1c-.25.2-.3.57-.09.83.03.04.06.07.1.1l.57.42c.29.21.68.15.89-.13.02-.03.04-.07.06-.1.27-.57.7-1.01,1.27-1.3.41-.2.68-.09.83.34.37,1.06.27,1.77-.3,2.13-.27.17-.37.41-.32.72.02.13.07.26.14.39.13.23.31.34.53.35.26,0,.45-.18.56-.53.13-.41.41-.57.84-.46l.32.08c.24.06.39.31.33.55-.01.04-.03.08-.05.11l-.5.85c-.17.28-.15.55.04.82.61.86,1.37.98,2.29.37.39-.25.91-.15,1.16.23.12.19.17.42.12.64-.13.56-.11,1.12.06,1.68.09.31.28.42.59.34.44-.11.78,0,1.02.33.2.27.27.58.2.91-.36,1.71,2.13,2.84,1.67,5.46-.04.28.02.56.19.8.79,1.09,1.06,2.33.81,3.7-.07.34.02.64.25.9.84.97.97,1.98.38,3.04Z"/>
  </g>
</svg>