<?xml version="1.0" encoding="UTF-8"?>
<svg id="Layer_2" data-name="Layer 2" xmlns="http://www.w3.org/2000/svg" viewBox="0 0 200.72 660.36">
  <defs>
    <style>
      .cls-1 {
        stroke-width: 0px;
      }
    </style>
  </defs>
  <g id="Layer_1-2" data-name="Layer 1">
    <path class="cls-1" d="m200.61,199.13c-9.49-20.7-17.34-41.87-25.57-63.07-5.25-13.52-10.31-23.92-26.85-24.59-8.28-.33-15.92-1.87-22.93-4.62-5.79-2.27-8.18-6.73-7.19-13.36.03-.22.13-.25.28-.1,2.51,2.35,1.98,7.03,6.36,6.53,2.82-.32,4.85-.59,6.08-.82.33-.06.52.07.57.4.08.5.32.76.71.77,5.98.16,12.08-1.74,15.74-7.28.33-.51.43-.46.29.13-.57,2.38-1.84,4.29-3.83,5.73,0,0,0,.01,0,.02l.15.2c.1.13.22.15.36.06,13.63-8.83,10.2-21.24,1.14-32.06-.07-.07-.06-.14.01-.21h.01c.07-.08.15-.07.22,0,6.74,6.73,11.68,14.54,7.76,24.39-.63,1.56-.42,1.68.61.35,9.35-12.08-5.09-23-11.21-33.49-2.87-4.93-3.46-9.95-4.37-15.18-2.2-12.63-6.54-24.2-15.22-33.84-.59-.65-.53-.71.18-.2,10.61,7.71,14.28,23.62,17.96,37.03,1.64,5.99,3.51,10.38,6.68,15.15,4.05,6.1,9.07,12.16,10.75,19.43.53,2.29-.01,5.24-1.64,8.83-.35.77-.22.86.39.27,5.83-5.66,2.82-14.09-.99-19.81-4.62-6.93-10.53-14.68-12.65-22.36-4.97-18.05-10.46-39.03-29.82-46.15-4.69-1.72-9.31-1.71-13.88.03-.31.12-.62.14-.95.06-16.88-3.99-27.85,17.48-31.64,30.16-2.17,7.25-3.77,12.08-4.79,14.49-3.37,7.94-7.93,14.05-12.4,20.88-4.17,6.38-8.81,17.89-1.85,23.93.65.57.79.46.42-.32-4.12-8.67-.62-15.29,4.99-22.05,3.17-3.81,5.74-7.99,7.71-12.52.07-.15.18-.19.33-.14h.01c.12.06.19.19.15.32-1.47,4.86-2.96,8.3-4.47,10.32-3.7,4.93-7.31,9.45-7.94,15.82-.61,6.12,1.95,11.01,7.19,14.07.15.09.28.11.4.08.23-.07.27-.19.12-.37l-2.31-2.67s0-.04.01-.05l.21-.15c.09-.07.17-.06.24.03,3.73,4.62,9.5,5.31,14.85,6.33,1.78.34,1.95-.04.52-1.15l-.44-.34c-.61-.48-.54-.62.21-.42,1.1.29,2.21.87,3.26,1.02,3.7.55,7.37.31,11.02-.7.41-.11.48-.33.19-.64l-1.07-1.18c-.05-.05-.09-.12-.11-.19-.11-.29.04-.62.33-.73,2.22-.85,4.04-2.2,5.46-4.07.69-.91,1.01-.79.97.34-.09,2.75-.71,5.59-1.86,8.51-3.35,8.56-20.09,10.5-28,10.82-4.02.17-8.34.36-11.05,1.12-10.17,2.87-15.1,13.26-18.62,22.83-6.47,17.57-14.75,39.28-24.86,65.13-.12.31-.07.6.14.86,4.06,4.95,9.13,8.42,15.2,10.41.31.11.48.32.5.65.11,1.59.1,2.96-.05,4.13-1.46,11.51-2.31,20.25-2.54,26.24-.64,16.59,1.33,36.59,2.97,54.74,1.11,12.33,1.13,24.67.05,37-2.75,31.25-5.48,62.51-8.19,93.76-1.57,18.18-2.98,46.38-5.29,71.97-3.45,38.2-6.69,76.44-9.72,114.72-.09,1.17.43,1.88,1.58,2.15l13.81,3.2c.41.09.57.35.48.76l-1.98,8.89c-.06.27.02.49.23.66,6.32,5.35,18.28,5.34,25.94,4.2.39-.06.68-.4.69-.79l.16-8.06c0-.39.2-.59.58-.61l12.19-.78c.67-.04,1,.28.99.95l-.17,8.39c-.02.81.47,1.54,1.22,1.83,7.35,2.89,14.84,3.36,22.45,1.39,3.46-.89,2.18-6.66,2.24-9.77.02-.67.54-1.21,1.2-1.25l5.91-.39c.81-.05,1.18.32,1.12,1.13-.4,5.6-.8,11.32-1.2,17.16-.46,6.76-.36,13.17,6.29,15.12,6.58,1.92,17.4,3.19,23.51-.79,2.29-1.49,2.82-3.5,1.57-6.01-2.67-5.37-4.6-10.86-5.79-16.47-.01-.05-.02-.1-.02-.15-.1-.86.51-1.63,1.36-1.73,3.01-.36,4.73-.06,7.44,1.59,5.62,3.42,9.54,7.02,16.64,7.44,6.33.38,16.95-.16,22.21-3.53.15-.1.28-.23.37-.38.34-.56.16-1.28-.4-1.62-5.69-3.44-10.5-6.3-15.04-11.46-.04-.04-.07-.09-.09-.14-.13-.28,0-.61.28-.74.28-.12.67-.19,1.17-.22,4.26-.21,8.97-.35,14.14-.41.95-.02,1.76.7,1.86,1.65l.64,6c.05.46.28.8.69,1.01,1.25.63,2.8.93,4.67.9,5.73-.11,11.09-1.44,16.1-4,.54-.28.81-.91.63-1.49l-2.9-9.27c-.16-.5.11-1.04.61-1.22l10.2-3.64c1.1-.39,1.77-1.52,1.58-2.68-1.82-11.02-3.06-21.38-4.04-33.37-3.31-40.87-6.63-81.75-9.97-122.62-2.24-27.49-4.78-55.14-6.12-82.69-.02-.33.07-.64.26-.92,2.04-3,4.03-6.04,5.97-9.11,3.66-5.82,5.97-12.05,8.32-18.46.28-.76.3-1.53.05-2.32-3.17-10.27-4.56-20.77-4.17-31.52.71-20,2.01-42.63,1.18-60.25-.6-12.76-3.08-25.16-3.75-37.87-.02-.41.23-.78.61-.91,4.71-1.58,14.96-6.29,17.1-11.06.14-.31.14-.63,0-.95ZM61.16,55.33c-2.62,5.55-5.87,10.72-9.75,15.5-.1.13-.22.14-.35.04l-.21-.15s-.01-.02,0-.03c3.36-5.13,6.58-10.34,9.66-15.63.08-.14.19-.17.33-.1l.24.13c.1.05.13.13.08.24Zm.59,163.78s-.03.03-.05.05c-9.79,8.59-16.21,19.21-19.26,31.88-.03.12-.15.19-.27.16-.11-.03-.18-.13-.16-.25l5.49-33.09c.08-.48.52-.81,1-.73,0,0,0,0,0,0,3.18.48,5.95-.33,8.3-2.44.31-.27.61-.27.92,0l3.98,3.49c.27.24.29.66.05.93Zm110.41,98.11c-.48.63-.76.55-.83-.24-1.99-19.92-3.66-40.83-7.75-59.69-2.96-13.61-9.6-27.95-19.67-38.22-.2-.21-.2-.54.01-.74.01-.01.03-.02.04-.03l5.4-4.24c.25-.19.52-.21.8-.06,2.31,1.26,4.8,1.78,7.48,1.56.37-.03.59.14.65.51,1.4,8.93,2.68,17.77,4.55,26.73,5.67,27.26,9.61,47.11,10.08,70.86.03,1.67-.22,2.86-.76,3.56Zm1.98,44.12s0,0,0,0h-.04c-.09,0-.16-.07-.16-.16l-.56-16.79c0-.09.07-.16.16-.16h.04c1.14-.04,2.12,1.81,2.2,4.13l.28,8.7c.08,2.32-.78,4.24-1.92,4.28Z"/>
  </g>
</svg>