<?xml version="1.0" encoding="UTF-8"?>
<svg id="Layer_2" data-name="Layer 2" xmlns="http://www.w3.org/2000/svg" viewBox="0 0 182.2 660.42">
  <defs>
    <style>
      .cls-1 {
        stroke-width: 0px;
      }
    </style>
  </defs>
  <g id="Layer_1-2" data-name="Layer 1">
    <path class="cls-1" d="m181.92,328.89c-1.99-6.07-3.57-12.03-4.74-17.86-.94-4.64-1.57-10.75-1.9-18.34-.4-9.13-.9-18.26-1.31-27.4-.69-15.3-3.1-30.31-7.24-45.04-1.76-6.26-2.94-11-3.26-16.46-.92-16.01-1.89-32.01-2.92-48.01-.61-9.41-1.87-18.72-3.78-27.94-2.57-12.39-8.53-17.06-21.37-15.33-8.19,1.1-15.91,2.62-24.26,2.02-8.12-.58-10.45-6.11-11.51-13.24-.06-.38.1-.59.48-.64,1.52-.19,4.27-.23,4.78-1.87.11-.37.31-.43.61-.2.75.57,1.57.68,2.46.31.11-.05.25-.05.36.02.19.11.25.35.14.53l-.47.83c-.04.06-.06.13-.06.21-.02.29.19.54.47.56,1.17.11,1.96-.4,2.37-1.52.01-.03.03-.07.05-.1.16-.26.51-.34.77-.18.46.29.8.68,1.01,1.17.13.3.48.45.79.33.54-.21.94-.57,1.2-1.09.49-1.01,1.01-1.16,1.56-.47.2.25.46.4.77.47.43.09.64-.08.65-.52,0-.62.27-1.1.79-1.45.28-.19.44-.51.43-.85-.03-.93.38-1.53,1.23-1.8.32-.1.6-.03.84.21.38.37.73.76,1.06,1.16.3.37.61.48.93.35,0,0,0,0,0,0,.33-.14.48-.52.34-.85-.31-.69-.79-1.23-1.46-1.62-.07-.04-.13-.1-.18-.17-.13-.23-.05-.53.18-.67.87-.53,1.78-.62,2.73-.28.03.01.07.02.1.03.87.25,1.78-.25,2.03-1.12l.2-.68c.02-.07.06-.14.1-.2.2-.25.57-.29.82-.09l.92.74c.37.3.72.27,1.04-.09l1.17-1.33c.23-.27.33-.59.28-.94-.14-1.05-.1-2.11.11-3.17.03-.16.17-.28.34-.28h.31s.03.01.04.01c.15.02.25.16.23.31l-.2,1.3c-.02.09,0,.18.02.27.1.28.41.43.69.33.43-.15.75-.43.95-.83.19-.39.09-.67-.3-.84-.93-.42-1.33-1.13-1.18-2.14.05-.32.24-.44.55-.35.94.25,1.79.7,2.56,1.33.17.15.34.14.51-.01.66-.61,1.18-1.31,1.55-2.11.03-.06.04-.12.05-.18.02-.29-.2-.55-.49-.57-.49-.03-.95.07-1.38.31-.29.16-.58.15-.87-.02-.52-.31-1.09-.45-1.7-.42-.09,0-.18,0-.26-.04-.36-.12-.54-.5-.42-.85.17-.51.46-.66.87-.45.33.17.7.32,1.09.46.33.12.62.06.88-.18,1.29-1.21,2.76-2.15,4.41-2.82.35-.15.58-.4.69-.75.35-1.12,0-1.9-1.07-2.35-.39-.16-.42-.37-.09-.64.09-.07.2-.12.34-.16.04,0,.07-.02.1-.04.23-.12.31-.41.19-.64-.54-1-.43-1.83.33-2.5.3-.27.4-.7.23-1.07-.11-.25-.11-.49,0-.72.11-.25.3-.35.56-.29.79.18,1,.61.62,1.29-.64,1.14-.96,1.86-.96,2.16.05,2.44.65,2.58,1.8.43.21-.39.38-1.16.51-2.31.12-1.05-.03-1.68-.44-1.91-.29-.16-.52-.39-.68-.68-.47-.85-.16-1.91.68-2.38,1.76-.96,1.44-3.44,2.41-5.04.18-.29.19-.6.03-.91l-2.26-4.55c-.11-.22-.28-.34-.53-.36-.15-.01-.29-.02-.44-.03-.58-.01-.62-.07-.11-.16.44-.08.77-.31.98-.68.2-.35.64-.5,1.01-.34l.99.41c.72.29.82.15.3-.42-.67-.75-1.51-1.13-2.5-1.13-.41,0-.65-.2-.72-.6-.13-.67.1-1.1.7-1.29.07-.02.11,0,.13.06.05.1.1.2.15.29.15.3.25.28.28-.05l.12-1.51s0-.09,0-.14c-.05-.32-.35-.54-.67-.49l-.74.11c-.05,0-.11,0-.16,0-.36-.04-.63-.36-.59-.71.07-.64-.19-1.04-.78-1.19-.13-.03-.25-.1-.35-.21-.26-.28-.24-.72.05-.97.27-.25.57-.34.89-.29.24.03.48.21.72.54.32.42.6.72.84.9.93.72,1.2.52.83-.59-.13-.41-.54-.6-1.23-.57-.41.01-.58-.18-.51-.58.18-.98,1.03-2.01,1.03-2.85,0-.47-.23-.81-.68-1.02-.19-.08-.41-.09-.62-.03l-1.37.42c-.59.19-.86-.03-.83-.65.02-.39.12-.76.3-1.11.19-.36.17-.71-.05-1.04-.47-.7-.69-1.48-.68-2.33,0-.45-.22-.7-.67-.75-1.13-.13-2.01-.68-2.65-1.65-.08-.11-.09-.25-.03-.37.09-.18.31-.26.5-.17l2.4,1.11c.09.04.2.05.3.02.22-.07.33-.3.26-.52-.23-.69-.72-1.12-1.48-1.29-.39-.09-.55-.34-.47-.74.06-.31.05-.63-.04-.94-.09-.37-.32-.62-.67-.77-.37-.15-.77-.13-1.21.05-.23.09-.29.25-.19.47.23.5.57.9,1.01,1.2.02.01.04.03.06.05.09.12.07.29-.05.39l-.52.41c-.13.1-.24.09-.33-.04-.5-.68-1-1.33-1.49-1.95-.64-.81-.63-1.52.04-2.14.12-.11.19-.25.22-.41.07-.4-.2-.77-.6-.84-.88-.15-1.51-.66-1.88-1.54-1.1-2.59-2.62-4.91-4.56-6.96-.24-.25-.5-.27-.77-.05-.53.42-1.13.55-1.8.38-.03,0-.05-.02-.08-.03-.25-.11-.36-.4-.25-.64l1-2.21c.05-.11.07-.24.05-.36-.05-.38-.39-.65-.77-.6-1.1.14-2.11.19-3.1-.45-2.19-1.41-5.01-2.92-6.82-4.79-1.29-1.32-3.37-1.99-5.06-2.7-2.56-1.06-4.78-2.83-7.43-3.95-.59-.25-1.1-.33-1.55-.22-.64.17-1.07.56-1.3,1.19-.08.24-.25.44-.48.56-.5.28-1.14.1-1.41-.4-1.32-2.37-3.92-3.06-7.48-3.43-.35-.04-.61-.2-.8-.49-.54-.83-1.27-1.27-2.18-1.3-.45-.02-1.26.29-2.42.92-2.28,1.25-4.65.48-6.88-.36-.33-.12-.64-.1-.95.06-.81.42-1.67.69-2.57.82-.86.13-1.84-.35-2.89-.13-.31.07-.54.24-.68.53-.41.87-1.07,1.08-1.98.63-.13-.07-.3-.22-.51-.46-.17-.2-.37-.34-.6-.42-.4-.14-.69-.02-.86.36l-.21.45c-.19.41-.48.5-.87.28-.55-.31-1.14-.38-1.76-.21-.04.01-.08.03-.12.04-.28.14-.39.48-.25.76.23.47.33.94.3,1.41-.02.27-.16.45-.43.54-.43.13-.74.08-.95-.14-.23-.25-.52-.36-.87-.34-1.68.12-3.06.78-4.13,1.97-.21.23-.45.28-.73.14l-.97-.47c-.32-.15-.58-.09-.79.2-1.48,2.02-3.53,2.15-4.81,4.33-.72,1.22-2.5,1.24-3.49,1.86-.89.56-1.53,1.09-1.9,1.58-1.86,2.47-4.03,4.66-6.52,6.56-.08.07-.2.08-.29.02-.12-.07-.17-.23-.1-.35.89-1.69,2.11-3.09,3.66-4.2.13-.09.23-.22.29-.38.16-.42-.05-.89-.47-1.04-1.83-.7-2.83,1.97-3.42,3.15-.15.32-.38.59-.66.79-1.19.85-1.77,2-1.76,3.45,0,.26-.12.43-.37.51-3.65,1.17-3.61,6.52-7.5,6.91-.32.03-.59.17-.8.41-1.27,1.43-1.82,3.1-1.65,5.03.03.35-.07.66-.31.92-.81.85-2,1.93-3.57,3.23-.46.38-.47.81-.02,1.29.03.03.06.05.09.07.2.12.47.06.59-.14.61-1.02,1.47-1.71,2.58-2.08.05-.02.11-.03.17-.02.25.02.44.24.42.49-.03.39-.21.7-.56.91-.36.23-.58.41-.65.53-.15.27-.2.57-.13.92.07.39.31.57.7.56.32-.01.63.03.93.14.2.08.32.29.27.49l-.09.39c-.03.13-.16.22-.3.2l-2.94-.54s0,0,0,0c-.38-.06-.73.2-.79.57-.2,1.24-.63,2.39-1.28,3.46-.06.11-.08.22-.05.33.03.12.06.24.09.35.05.17.14.2.27.08.52-.49,1.08-.56,1.68-.21.25.14.38.34.4.59.02.33-.13.54-.44.64-.37.11-.73.08-1.06-.09-.49-.25-.64-.12-.45.4.3.79.3,1.6-.01,2.41-.1.27-.08.56.05.81l.68,1.32c.25.48.12.79-.4.94-.87.24-1.6.09-2.21-.44-.03-.02-.06-.04-.09-.06-.25-.14-.56-.05-.7.19-.24.43-.32.89-.24,1.39.08.47.35.65.82.54l2.93-.67c.06-.01.12-.02.18-.02.46,0,.83.37.83.83v.58c0,.73-.38,1.1-1.12,1.11l-1.8.02c-.09,0-.18.02-.26.06-.34.15-.49.54-.34.87l1.04,2.37c.15.34.13.67-.07.98l-.63.98c-.2.31-.13.71.15.94.75.59,1.49,1.19,2.22,1.8.34.27.44.6.29.98-.1.27-.28.34-.54.21-.42-.23-.85-.25-1.28-.08-.33.13-.47.36-.43.71.09.73-.08,1.39-.51,1.98,0,0,0,.01-.01.02-.21.31-.12.72.18.93.16.11.34.18.53.2.31.03.53.2.64.49.19.53.09.92-.31,1.16-.12.07-.22.18-.28.3-.18.36-.03.8.33.98.7.35,1.23.86,1.6,1.54.17.31.18.62.03.94-.15.35-.32.58-.51.71-.18.12-.32.29-.4.49-.27.62.05,1.39.71,1.7,1.14.55,2.36.78,3.67.7.22-.01.35.09.39.3.01.11.03.21.06.31.04.19-.04.39-.21.49-.51.31-.88.73-1.11,1.25-.03.08-.05.17-.05.25.01.3.27.53.57.52.75-.04,1.39-.32,1.94-.84.07-.07.16-.1.25-.1h.36s.08.02.12.04c.17.07.26.27.18.44l-1.04,2.41s0,.01,0,.02c-.12.31.03.66.34.78.89.35,1.8.42,2.72.2.57-.14.96.06,1.19.59.18.41.34,1.1.49,2.07.11.68.44,1.1,1.01,1.25.09.02.18,0,.24-.07.1-.1.09-.26,0-.35-.23-.24-.29-.49-.18-.76.18-.42.44-.48.79-.18.61.54.91,1.21.9,2,0,.32-.16.51-.48.57l-1.35.24c-.33.06-.55.25-.66.56-.1.31-.07.61.09.9.15.27.39.41.72.43.31.02.62-.03.95-.15.3-.11.53-.03.68.26l2.47,4.58c.12.22.22.21.31-.02.32-.87.87-1.57,1.66-2.11.12-.08.27-.09.39-.03.21.09.3.34.21.54l-.73,1.55c-.14.31-.15.61-.04.92.15.39.44.64.89.74.36.08.64-.04.85-.35.11-.17.25-.3.41-.37.08-.04.18-.05.26-.03.19.05.3.25.25.45-.14.51.03.83.5.98.19.06.39.09.62.1.29.01.44.16.45.45l.07,1.38c0,.07.02.13.05.2.12.27.44.39.7.27l.33-.14c.05-.02.1-.05.15-.09.27-.22.32-.63.09-.9-.43-.51-.46-1.06-.09-1.63.08-.13.07-.29-.02-.41-.12-.16-.34-.19-.5-.07-.22.16-.47.18-.76.05-.08-.03-.14-.1-.16-.18-.05-.16.04-.33.19-.38,1.25-.41,2.19.07,2.8,1.45.29.67.26,1.24-.1,1.73-.2.26-.14.42.18.49.14.03.3-.02.47-.15.95-.66,1.67-1.1,2.16-1.31,1.31-.55,1.68-.18,1.12,1.13-.57,1.33-.23,2.49,1.03,3.46.49.37.83.28,1.04-.27.1-.28.35-.47.64-.49l2.8-.23c.33-.03.6.09.81.36.31.41.67.78,1.07,1.12.5.41.95.58,1.35.5.53-.11.89-.56,1.07-1.33.19-.83.66-1.03,1.4-.61,1.26.73,2.61,1.21,4.04,1.46.27.05.54.02.79-.09.71-.3,1.04-1.13.74-1.84-.21-.48-.26-.98-.16-1.51.09-.47.27-.5.53-.11.32.48.74.79,1.27.92.44.12.9-.1,1.1-.51.56-1.18,1.51-1.79,2.84-1.83.15,0,.27-.13.27-.28v-.39c0-.25-.12-.34-.36-.28-.67.16-1.34.16-2.01.01-.08-.02-.15-.06-.2-.13-.11-.15-.07-.35.08-.46,1.09-.76,2.28-.91,3.55-.45.31.11.53.32.65.63,5.49,13.53,1.32,19.93-12.85,22.03-5.59.83-11.17,1.72-16.72,2.69-13.33,2.31-16.67,15.12-17.03,26.42-.36,11.57-.69,29.98-1,55.25-.12,9.7-1.64,19.12-4.55,28.27-2.34,7.34-3.51,11.02-3.52,11.05-6.61,23.89-8.96,47.22-11.42,71.19-1.01,9.87-3.74,19.97-5.56,29.76-.56,3.04,1.76,8.54,3.01,11.36,1.99,4.5,5.36,8.21,9.53,10.95.31.2.62.22.95.06,2.67-1.3,3.21,1.06,5.34,1.58.41.1.62-.06.65-.48.05-.75.46-1.11,1.21-1.1.03,0,.06,0,.09,0,.29-.04.49-.31.44-.6-.11-.68-2.1-1.83-2.64-2.66-.25-.39-.16-.52.29-.4,2.56.69,3.96,2.61,6.91,2.77.14.01.29-.03.41-.11.28-.2.35-.59.15-.88-.47-.69-.82-1.44-1.03-2.25-.08-.32-.31-.59-.62-.72-7.47-3.28-10.94-7.41-10.46-15.77.01-.28.16-.43.44-.45.71-.03,1.16.3,1.35,1.01,1.42,5.48,2.28,9.99,7.47,11.92,1.14.43,1.33.16.58-.79-.59-.76-.98-1.87-1.17-3.32-.87-6.67-1.86-13.33-2.95-19.98-1.08-6.52-4.74-13.06-4.19-19.4.24-2.75.91-5.68,2-8.8,3.46-9.93,6.67-19.66,10.43-29.75,5.04-13.53,8.32-23.43,9.85-29.69,5.67-23.26,8.48-38.54,10.18-58.22.14-1.64.37-1.65.69-.03.81,4.1,3.19,7.34,7.12,9.71,1.06.64,2.13,1.37,3.2,2.19.25.19.39.5.38.82-.19,6.15.46,12.2,1.95,18.16.49,1.98.13,2.83-1.08,4.28-2.74,3.26-5.09,6.03-7.06,8.31-10.4,12.04-18.89,26.89-23.5,42.31-5.99,20.06-4.57,41.6.17,61.72,2.49,10.57,5.06,20.4,7.71,29.48,5.59,19.15,10.34,36.27,14.26,51.37.45,1.71.98,3.47,1.6,5.26.91,2.65,1.22,6.23,4.41,7.23.31.1.56.33.69.62.27.63.48,1.39.64,2.28,1.58,8.85,1.5,15.81.22,25.47-2.03,15.34-3.57,27.45-1.25,42.49.59,3.82,1.2,7.64,1.83,11.46.29,1.72.23,3.43-.17,5.13-4.57,19.43-8.7,38.94-12.4,58.55-.58,3.11-1.64,6.34-2.35,9.5-.1.44-.52.73-.96.67-7.2-.96-11.31,8.04-11.5,13.73-.05,1.55.35,3.86,1.2,6.91,2.1,7.52,3.37,13.98,1.59,21.78-.79,3.46-1.61,6.92-2.46,10.38-.71,2.91-.95,5.09-.7,6.52,1.38,7.93,13.25,11.01,20.12,10.72,7.17-.3,7.35-7.66,6.71-13.31-.96-8.55-2.4-16.47-1.36-25.15.75-6.29,1.36-12.61,1.81-18.94.91-12.52,6.51-24.86,11.03-36.45.1-.26.31-.45.63-.58.04-.02.08-.03.13-.03.23-.01.43.17.44.4.07,1.3.25,2.62.54,3.97,2.17,9.89,4.15,19.82,5.94,29.79.83,4.68,1.11,8.26.84,10.74-1.49,13.56-2.63,24.56-3.4,33-.33,3.54-1.22,11.87,1.24,14.89,4.15,5.12,15.06,5.19,21.06,3.95,8.03-1.65,5.85-12.72,4.73-18.35-1.71-8.56-3.3-17.15-4.77-25.76-1.23-7.23-4.38-20.42-5.18-30.98-1.53-20.07-2.56-40.05-3.07-59.96-.02-.73.11-1.47.37-2.16,1.87-4.88,3.92-9.84,6.14-14.87,5.66-12.86,8.76-29.7,10.6-45.27,1.02-8.54,4.66-19.36,8.23-29.09,14-38.11,28-76.29,35.49-116.33,4.38-23.4,1.92-45.01-6.36-67.31-1.96-5.27-3.97-10.53-6.02-15.76-.58-1.49-.84-2.58-.79-3.25.97-12.27,1.55-24.56,1.74-36.86,0-.12.06-.18.18-.19s.19.05.21.16c1.78,12.21,4.16,24.29,7.15,36.26,2.29,9.2,3.85,19.3,6.18,27.64,3.61,12.95,7.16,25.91,10.67,38.89.84,3.13,1.3,5.99,1.39,8.6.1,3.1-1.21,6.36-2.03,9.48-.6,2.26-1.01,4.66-1.23,7.21-.69,7.9-1.76,15.55-1.5,23.53,0,.15.04.3.1.44.27.62.98.91,1.6.64,1.04-.45,1.7-1.41,1.99-2.88.71-3.61,1.38-6.89,2.02-9.82.33-1.47.83-1.54,1.51-.19.65,1.3.82,3.33.49,6.09-.02.16-.1.19-.23.1l-.35-.24c-.24-.17-.4-.11-.47.17-.38,1.38-.51,2.79-.38,4.23.03.35-.08.66-.33.91l-5.82,5.89c-.22.21-.48.35-.78.4l-.89.14c-.34.06-.58.35-.58.69l.02,1.72c0,.47.24.71.71.74,2.53.15,4.8-.54,6.81-2.07.07-.05.17-.06.25-.02.13.06.18.21.12.33-.55,1.05-1.28,1.94-2.19,2.68-.01.01-.02.02-.04.03-.17.17-.16.44,0,.61l.29.3c.37.37.77.41,1.21.14,3.79-2.36,8.97-4.79,11.16-8.77,2.38-4.32,6.71-14.39,5.29-18.75Zm-46.22-256.19c.19-.23.65-.17,1.05.14.39.31.56.75.38.99-.19.23-.65.17-1.05-.14-.39-.31-.56-.75-.38-.99Zm1.55,4.76c-.15.11-.35.1-.48-.02-.67-.57-.67-1.09-.01-1.55.29-.2.69-.14.89.15.08.11.12.24.12.37,0,.45-.17.8-.52,1.05Zm5.54-17.85c.42-.13.86.1.99.51.09.28.02.58-.18.79l-.2.2c-.25.25-.65.26-.91.01-.02-.02-.05-.05-.07-.07-.53-.7-.41-1.18.36-1.44Zm-3.11-1.27l.4-1.57c.06-.22.29-.36.51-.3l.2.05c1.02.26,1.71.97,1.55,1.58,0,0,0,0,0,0l-.04.17c-.16.61-1.11.89-2.12.63,0,0,0,0,0,0l-.19-.05c-.22-.06-.36-.29-.3-.51Zm-.05-15.31c.6-.55,1.34-.73,1.64-.4.31.33.07,1.05-.53,1.61s-1.34.73-1.64.4c-.31-.33-.07-1.05.53-1.61Zm-1.09,17.45c.15-.19.39-.28.63-.23l1.45.36c.33.09.56.39.54.73-.05.85.29,1.5,1.02,1.95.32.2.42.61.23.93,0,0-.01.02-.02.03l-.65.95c-.27.41-.47.37-.59-.11-.39-1.55-1.22-2.8-2.49-3.76-.27-.2-.32-.59-.12-.85Zm-.43-17.88c.24.25.32.57.23.94-.07.3-.26.43-.57.39-.39-.06-.64-.29-.76-.7-.1-.34.09-.71.43-.81.24-.07.5,0,.67.18Zm-2.7-5.33c.06-.02.13-.02.19,0,.36.14.59.4.68.77.08.29.27.48.56.56.28.07.51.22.69.43.29.34.32.72.07,1.13-.14.22-.42.29-.65.16-.03-.02-.07-.05-.09-.08-.72-.75-1.26-1.61-1.63-2.6-.05-.15.03-.32.18-.37Zm-1.78,42.12l.35-1.56c.09-.41.34-.56.75-.45.64.17.92.68.84,1.53-.1,1.08-.61,1.47-1.54,1.18-.29-.1-.47-.4-.4-.7Zm-5.8,9.13l2.1.42c.16.04.26.2.22.36-.02.07-.06.14-.12.18-.69.45-1.45.48-2.3.09-.22-.1-.36-.23-.42-.4-.03-.1-.04-.19-.03-.28.05-.31.24-.44.55-.37Zm-27.36,9.94c.28-.29.71-.33,1.3-.1.18.07.27.21.27.44,0,.2-.11.39-.29.49-.39.21-.76.22-1.13.03-.43-.23-.48-.51-.15-.86ZM25.05,45.61c-.03.13-.09.24-.19.33-.15.13-.32.17-.51.12-.09-.02-.18-.06-.27-.12-.15-.1-.28-.09-.4.04-.67.71-1.4.82-2.18.33-.6-.38-.64-.86-.11-1.43.21-.23.46-.31.77-.26.59.11,1.09.39,1.5.86.17.19.35.2.53.01.17-.17.36-.25.56-.25.26,0,.36.12.3.37Zm3.95-14.92c-.48,1.51-1.34,2.75-2.57,3.71-.21.16-.51.13-.67-.08-.05-.06-.08-.13-.1-.21l-.1-.55c-.08-.44.11-.89.49-1.13l2.19-1.36c.11-.07.2-.16.27-.27.09-.13.2-.21.35-.25.14-.05.19,0,.14.14Zm6.42,61.99c-.23.11-.54-.07-.7-.4-.16-.33-.09-.68.14-.79.23-.11.54.07.7.4.16.33.09.68-.14.79Zm16.13,10.69c-.15.48-.45.71-.9.69-.5-.03-.89-.08-.89-.12-.08-.33,0-.54.26-.64.6-.23,1.26-.28,1.48-.12.06.05.08.11.05.19Zm2.02-.62c-.31.28-.73.32-.93.1-.2-.22-.1-.63.21-.91.31-.28.73-.32.93-.1.2.22.1.63-.21.91ZM83.63,3.14c.55.67.88,1.14,1.01,1.39.89,1.8.61,2-.84.61-.57-.55-1.1-1.42-1.6-2.62-.09-.21-.03-.36.19-.45.63-.24,1.31-.63,2.02-1.18.89-.69,1.65-.64,2.28.14.24.31.22.59-.07.85-.79.73-1.7,1-2.71.8-.53-.11-.63.04-.28.46Zm4.33,2.21c-.33.07-.67-.08-.82-.38-.36-.67-.44-1.35-.23-2.05.09-.32.42-.5.74-.41.1.03.19.08.27.16.28.29.4.58.35.87.56,1.05.46,1.66-.31,1.81Z"/>
  </g>
</svg>