<?xml version="1.0" encoding="UTF-8"?>
<svg id="Layer_2" data-name="Layer 2" xmlns="http://www.w3.org/2000/svg" viewBox="0 0 128.34 441.85">
  <defs>
    <style>
      .cls-1 {
        stroke-width: 0px;
      }
    </style>
  </defs>
  <g id="Layer_1-2" data-name="Layer 1">
    <path class="cls-1" d="m114.66,215.32c-2.34-10.06-4.74-19.39-2.32-28.48,1.61-6.04,3.5-14.94,6.67-19.27,8.06-11.05,11.41-23.35,8.01-36.75-2.93-11.56-5.61-21.49-8.04-29.8-.02-.06-.71-2.89-2.07-8.49-1.36-5.57-5.8-16.76-11.8-18.87-3.39-1.19-6.43-2.95-9.67-3.09-5.26-.22-11.95-1.26-16.62-3.79-3.46-1.88-4.23-9.22-4.14-12.74.06-2.15,1.48-3.45,2.74-5.04.27-.34.43-.3.49.13.47,3.34,1.02,7.1,5.63,5.86,3.4-.92,7.36-1.52,8.53-3.93.15-.32.11-.61-.14-.86l-1.82-1.89c-.24-.25-.36-.54-.35-.88.03-1.31.22-2.34.55-3.09,1.83-4.07,2.1-7.96.83-11.65-1.79-5.2-3.62-10.38-5.49-15.55-2.92-8.12-7.96-17.31-18.19-15.97-2.23.29-2.74.01-4.7-.69-5.33-1.89-12.38,2.19-15.42,6.23-1.23,1.63-2.59,5.03-4.09,10.18-1.33,4.57-2.8,9.11-4.39,13.6-2.52,7.1-1.32,9.76,1.13,16.39.11.3.08.63-.08.9-.61,1.07-1.39,2.02-2.34,2.85-.09.08-.17.18-.22.3-.18.42.02.9.45,1.08,5.67,2.37,14.07,7.76,13.7-3.9-.01-.29.07-.33.26-.1l4,4.83c.4.49.6,1.12.55,1.75-.7,8.34-1.24,12.6-10.57,14.45-3.76.75-9.33,2.59-13.01,1.57-.33-.09-.65-.07-.96.06-4.42,1.93-9.45,3.64-12.15,7.78-2.83,4.35-5.19,9.4-7.09,15.17-.43,1.3-.02,2.62-.5,4.06-3.19,9.49-6.17,19.04-8.93,28.66-1.65,5.78-2.6,9.52-2.84,11.23-2.21,15.37,10.23,26.56,14.43,40.25,1.82,5.91,4.25,14.31,3.13,20.48-2.31,12.72-4.36,25.89-6.17,39.51-.07.53.13.93.58,1.21,4.23,2.52,11.13,3.61,15.95,4.69.29.07.5.24.61.53,1.23,3.21,4.2,10.58,8.93,22.1,2.01,4.89,3.61,10.6,4.81,17.15,2.72,14.77-1.52,30.25,2.56,44.51,2.27,7.95,4.55,15.91,6.82,23.87,1.81,6.33,2.61,12.63,3.59,19.11.09.55.03,1.12-.15,1.65-.65,1.89-1.55,3.71-2.71,5.46-1.86,2.82-1.02,7.68-1.17,10.91-.39,8.3-3.42,17.26-5.85,25.15.32,4.14-.76,8.24,3.53,10.76,1.97,1.15,4.65.96,6.96.86.1,0,.19,0,.28.02.63.13,1.03.74.91,1.36-1,4.99-.74,9.39.78,13.2,7.17,1.85,14.07,2,20.69.45.39-.09.72-.38.87-.76,2.16-5.4,0-11.15-1.18-16.55-1.88-8.54-1.14-14.3.12-23.16.41-2.92-.08-6.12-1.48-9.6-1.1-2.73-1.42-5.45-2.35-8.18-.82-2.44-1.31-4.47-1.48-6.1-.5-4.96-.89-9.93-1.17-14.91-.11-2.03-.06-3.34.17-3.91,5.01-12.71,10.33-27.09,11.92-41.23.68-6.11.22-13.61.24-20.33.02-4.75.66-9.43,1.92-14.02,3.49-12.65,8.39-24.8,11.52-37.48.12-.47.5-.82.97-.9,5.04-.88,16.32-2.82,20.03-6.23.54-.5.77-1.25.59-1.96-1.63-6.69-3.23-13.41-4.8-20.16ZM31.25,150.83c-2.81,4.86-5.63,9.7-8.48,14.52-.45.77-.98,1.06-1.59.85-.37-.12-.63-.44-.69-.83-1.13-7.6-2.76-15.06-4.89-22.39-1.02-3.5,4.21-15.55,5.74-19.25,2.27-5.51,4.65-11.01,7.12-16.49.06-.16.24-.24.4-.18.12.04.19.15.2.27.21,2.02-.14,4.12.23,5.95,2.41,11.85,8.26,26.64,1.96,37.55Zm76.69,15.2c-.16-.04-.3-.14-.39-.29-1.31-2.31-2.6-4.54-3.85-6.71-2.01-3.45-5.75-8.04-7.42-12.23-3.41-8.57,2.23-24.37,4.24-33.15.44-1.95.05-3.64.05-5.39,0-2.23.38-2.29,1.13-.2,3.95,11.04,8.78,21.34,12.21,32.66.09.29.1.59.03.89l-5.27,23.96c-.08.33-.4.53-.73.46Z"/>
  </g>
</svg>