<?xml version="1.0" encoding="UTF-8"?>
<svg id="Layer_2" data-name="Layer 2" xmlns="http://www.w3.org/2000/svg" viewBox="0 0 183.14 432.99">
  <defs>
    <style>
      .cls-1 {
        stroke-width: 0px;
      }
    </style>
  </defs>
  <g id="Layer_1-2" data-name="Layer 1">
    <path class="cls-1" d="m182.6,423.68l-14.05-6.45c-.31-.15-.52-.38-.62-.71-1.38-4.45-2.13-8.85-3.23-13.35-2.25-9.26-6.31-17.63-9.13-26.67-6.07-19.5-11.59-39.16-16.54-58.98-2.13-8.55-7.07-20.18-9.21-29.79-1.22-5.47-1.92-10.11-2.11-13.94-.53-10.97-1.62-22-3.28-33.09-.07-.47.11-.95.46-1.26,2.21-1.95,7.63-6.81,7.9-9.65.33-3.5,1.08-6.93,2.24-10.29.11-.32.13-.66.05-.98-1.26-5.27-2.37-10.19-2.34-15.73.09-16.2,1.73-34.47.6-49-.19-2.41-.75-6.22-1.7-11.41-1.72-9.37-1.77-18.7-2.32-28.09-.56-9.52-2.24-18.84-5.04-27.95-5.05-16.45-14.76-18.39-30.77-19.97-2.1-.21-7.22-1.07-7.68-3.32-.07-.37.08-.54.45-.51,1.16.09,2.25-.14,3.28-.7.3-.17.67-.15.96.04,1.62,1.05,3.41,1.59,5.37,1.62.23,0,.45-.12.57-.32l.18-.31c.17-.29.42-.43.75-.42l3.22.13c.35.01.67.11.98.28,1.05.61,2.22.15,3.53-1.39.43-.5.4-.97-.09-1.41-.77-.71-1.39-1.51-1.85-2.39-1.14-2.16-.63-2.67,1.54-1.54l1.29.67c.08.04.17.07.26.08.39.03.72-.25.76-.64.18-1.83-2.1-5.57-3.05-7.32-.34-.62-.23-1.39.28-1.89,1.24-1.22,1.58-2.71,1.02-4.48-.98-3.12-5.82-2.14-4.37-7.13.72-2.49.83-4.36-.08-6.97-3.51-10.16-4.65-18.23-13.82-25.36C83.01-.02,78.64-.78,73.91.8c-.33.11-.65.1-.97-.02-4.24-1.62-10.31,1.3-13.73,3.83-7.5,5.53-13.98,18.62-14.55,27.8-.04.67-.41,1.28-.99,1.62-1.75,1.02-8.04,4.07-7.1,6.97.01.03.03.06.04.09.12.19.37.25.57.13l3.82-2.45c.63-.41.71-.32.23.26-1.31,1.6-2.17,2.67-3.69,4.13-1.33,1.29-1.88,3.03-.58,4.43.63.67,1.32.77,2.08.29.29-.19.38-.11.27.22-.63,1.77-2.16,6.17-1.5,7.85,0,.01,0,.03.02.04.23.54.86.8,1.4.56l2.63-1.14c1.04-.45,1.79-.15,2.24.89.37.87.48,1.81.33,2.84-.03.18-.02.36,0,.53.15.95,1.05,1.59,2,1.44,2.25-.38,4.75-.12,6.42-.29,3.27-.33,6.42-1.16,9.45-2.47.05-.02.11-.03.16-.02.15.02.25.16.22.31-.66,4.6-4.66,6.86-8.54,8.42-8.09,3.24-18.55,6.25-24.7,12.69-14.1,14.74-12.51,37.65-15.85,56.31-1.21,6.83-3.8,13.7-6.01,20.49-3.46,10.59-5.99,21.39-7.58,32.4v46.58l5.33,4.11s.03.02.05.03c.27.17.62.09.79-.18.52-.83.88-1.71,1.09-2.66.08-.35,0-.72-.2-1.01-2-2.82-4.24-4.99-3.67-8.87.38-2.57.87-4.69,1.48-6.36.22-.63.59-.86,1.12-.7.27.08.46.33.47.61.12,3.3-1.46,11.61,4.03,11.15.08,0,.16-.03.23-.07.3-.16.43-.52.27-.82-.72-1.4-1.06-2.69-.87-4.34.69-5.98,1.7-12.24-.3-18.06-1.12-3.26-1.17-5.05-.15-8.08,1.79-5.25,3.81-10.38,6.08-15.39.56-1.24.8-1.18.72.18-.43,7.15-.85,15.88.47,22.73,1.83,9.48,4.53,21.47,8.11,35.98,4.39,17.84,7.95,37.23,6.52,56.03-.66,8.78-.99,14.98.28,21.98,3.24,17.98,7.98,35.72,12.2,53.5,2.07,8.76,3.16,15.9,3.26,21.42l.11,25.63c.24.29.41.67.51,1.16,1.55,1.44,3.04,2.88,5.09,3.54,6.35,2.03,11.71,1.64,16.08-1.17.9-2.42,1-4.84.3-7.26-1.16-3.97-2.31-7.9-3.45-11.79-.67-1.99-.99-4.15-.96-6.49-3.65-13.17-5.46-26.6-5.45-40.29.01-17.6.92-35.16.91-52.72,0-8.48,1.79-17.06,2.6-25.69,2.09-22.23,3.4-43.7,3.91-64.39.09-3.46.53-3.5,1.32-.13,3.31,14.18,9.63,27.77,15.54,41.21,5.12,11.65,11.23,26.92,17.56,40.09.55,1.14,1.17,3.05,1.33,4.57.93,8.81,2.95,16.05,6.08,21.74,10.8,19.59,21.43,39.04,30.87,59.27.29.64.25,1.38-.11,1.99-1.73,2.88-5.49,9.02-4.01,12.24,3.62,7.9,4.49,15.83,4.59,24.44.03,2.97,1.28,6.13.82,9.61,0,0,0,.01,0,.02-.03.32.2.6.51.63l.57.06c.34.03.51-.12.51-.47l-.04-25.82c0-.32.19-.61.48-.74,5.97-2.64,9.96,15.75,10.97,19.34,4.31,3.01,9.45,4.06,15.44,3.14,2.74-.42,5.53-.82,8.36-1.21,1.23-.31,2.49-.67,3.77-1.1.8-.27,1.32-.68,1.55-1.25.19-.46-.02-.99-.47-1.19ZM33.73,147c-.56,1.14-.74,1.08-.53-.17l3.11-18.8c.13-.78.43-.85.89-.21,5.07,7-.49,13.15-3.47,19.18Zm87.98,56.46c-.27,1.85-1.3,3.35-2.18,4.98-.2.37-.4.37-.59,0-.25-.46-.41-.99-.49-1.59-.8-6.11-5.48-11.39-5.45-17.73.02-2.95.18-5.86-.27-8.75-1.36-8.71-4.16-17.12-6.59-25.52-.49-1.67-.66-3.95-.15-5.6,1.62-5.27,2.89-10.61,3.8-16,.05-.3.33-.52.63-.48l.28.03c.19.02.28.12.27.31-.59,9.63.4,19.11,2.97,28.44,3.47,12.57,6.05,23.48,7.75,32.73.5,2.72.51,5.78.02,9.18Z"/>
  </g>
</svg>