<?xml version="1.0" encoding="UTF-8"?>
<svg id="Layer_2" data-name="Layer 2" xmlns="http://www.w3.org/2000/svg" viewBox="0 0 218.37 667.47">
  <defs>
    <style>
      .cls-1 {
        stroke-width: 0px;
      }
    </style>
  </defs>
  <g id="Layer_1-2" data-name="Layer 1">
    <path class="cls-1" d="m218.34,441.81c-2.45-11.87-4.68-23.77-6.71-35.72-5.35-31.59-10.81-63.17-16.38-94.72-3.46-19.63-6.55-39.33-11.1-58.75-2.75-11.76-8.1-23.69-9.45-35.02-.62-5.19-.75-10.45-.38-15.77.02-.29.18-.47.47-.53,9.26-1.97,17.16-6.38,23.69-13.23.24-.25.3-.62.15-.93-6.54-13.49-13.01-27.08-19.4-40.78-2.53-5.43-5.4-10.66-8.59-15.71-5.81-9.18-13.2-10.76-24.19-12.15-3.06-.39-7.49-1.47-13.3-3.25-6.7-2.06-9.57-7.71-10.18-14.26-.23-2.45.06-2.51.85-.18,1.09,3.22,4.44,12.43,9.18,12.07.51-.04.75-.31.74-.82l-.02-.77c0-.11.04-.22.11-.3.17-.19.45-.2.64-.04,2,1.86,4.24,2.22,6.73,1.09,10.49-4.77,15.61-13.09,15.38-24.96-.21-10.8-4.02-16.96-8.34-25.45-.01-.03,0-.06.03-.08l.22-.13c.17-.1.31-.07.42.1,10.08,14.75,20.86,35.62,1.87,49-.93.65-.84.83.26.56,3.61-.91,6.66-3.23,9.14-6.98,5.36-8.1,4.08-19.85.2-28.47-3.01-6.7-7.77-13.1-11.74-19.79-2.17-3.63-3.03-7.49-2.58-11.6,1.83-16.9-.24-32.95-19.18-36.92-.21-.04-.43-.04-.64,0-1,.21-2.01.3-3.04.27-.3,0-.54-.13-.72-.37-4.48-6.13-10.24-8.36-17.28-6.68-18.11,4.34-27.79,24.65-29.55,41.77-.07.72-.33,1.38-.77,1.97-3.23,4.42-6.47,8.85-9.71,13.28-3.93,5.39-5.4,11.43-4.4,18.11.05.34-.01.68-.18.97-2.78,5.02-6.01,11.82-4.28,17.53,1.67,5.53,8.76,10.51,13.85,13.25.37.2.34.34-.07.41-3.81.72-6.85-.51-9.94-2.63-.11-.08-.2-.07-.28.04h0c-.08.12-.07.21.03.3,4.56,4.04,9.45,7.07,15.87,5.34,1.95-.53,2.1-.21.45.96-3.34,2.36-9.9,1.74-13.94,3.38-8.98,3.65-16.26,11.81-21.41,18.83-11.36,15.48-22.7,30.78-34.01,45.89-.37.51-.34.98.09,1.43l6.73,6.98c.34.34.36.89.06,1.26-4.3,5.36-12.04,13.85-13.49,20.21-1.22,5.33,2.26,9.81,5.91,13.79,6.81,7.44,14.17,14.24,22.09,20.41,9.6,7.47,24.35,17.84,36.56,26.45.43.31.55.7.34,1.19-4.87,11.51-8.67,23.4-11.41,35.67-5.85,26.24-10.16,58.03-15.19,87.02-2.73,15.72-5.31,31.7-7.74,47.95-.09.61.26,1.19.84,1.39,5.27,1.8,10.66,3.01,16.18,3.64.38.04.59.25.64.63.21,1.58.09,3.14-.37,4.67-.19.64,0,1.15.55,1.52,5.78,3.9,15.29,3.29,21.99,1.44.37-.1.63-.32.78-.67l.49-1.14c.15-.36.42-.56.81-.6l4.95-.55s.04,0,.06,0c.36,0,.66.29.67.65.05,4.05.08,8.15.11,12.3.12,22.54,7.49,43.17,14.45,64.26.25.76.28,1.51.07,2.26-2.44,8.99-5.5,17.76-9.18,26.31-.99,2.28-2.67,4.34-5.23,5.39-9.41,3.87-13.76,5.44-17.64,15.71-5.57,14.72-11.94,28.92-19.11,42.61-.53,1.02-.32,1.84.65,2.47l4.79,3.1c.97.63,1.73.44,2.3-.57,4.55-8.21,9.19-16.63,13.92-25.24.82-1.49,1.61-2.7,2.36-3.63.75-.91,1.12-.77,1.11.4-.06,11.58-2.39,23.45-5.05,34.67-.8,3.37.11,6.12,2.73,8.25,6.07,4.91,12.81,8.64,20.21,11.18,1.65.57,3.11.63,4.48-.7,2.33-2.27,8.04-9.2,6.96-12.64-1.13-3.61-2.7-7-4.72-10.19-1.45-2.29-1.97-4.8-1.58-7.51,1.04-7.22,2.72-15,3.74-21.52,1.25-7.95,2.56-15.89,3.93-23.82.76-4.37,2.16-8.35,4.21-11.94.08-.15.24-.26.41-.29.32-.05.62.16.67.47,1.85,9.63,3.37,19.46,4.56,29.49.19,1.55.04,2.75-.44,3.62-3.34,5.98-6.59,10.66-5.23,18.36.54,3.03,1.36,6.07,1.67,9.02,1.33,12.69,2.08,25.72,2.27,39.1.01.92.48,1.38,1.4,1.38h1.47c.99-.01,1.49-.5,1.5-1.49l.31-31.23c.02-2.43.53-2.54,1.52-.32,4.3,9.66,6.31,18.05,8.9,30.6,1.27,6.18,20.03,4.1,24.47,3.56,3.58-.42,7.75-1.13,8.49-3.96,1.05-4.09,2.22-8.04,3.5-11.85.57-1.71-.2-3.58-1.81-4.4-3.08-1.56-6.6-3.2-9.04-5.53-3.47-3.3-5.55-8.15-7.51-13.15-4.67-11.9-10.27-24.49-12.25-36.98-2-12.65-3.37-26.46-4.81-40.01-.65-6.08-1.08-12.19-1.27-18.33,0-.33.08-.67.24-.96,12.79-22.93,25.81-45.73,39.05-68.41.6-1.03,1.62-2.53,3.07-4.49.21-.28.48-.4.83-.36,6.43.77,12.72.19,18.87-1.73,1.67-.52,2.31-1.46,1.9-2.83-.79-2.66-1.14-4.92-1.07-6.78.02-.47.26-.73.73-.76l9.48-.76c.39-.03.62.14.71.52l.82,3.7c.2.93,1.07,1.56,2.01,1.46,6.12-.63,15.82-2.6,20.17-7.24.69-.74.97-1.42.84-2.04ZM151.67,87.71c.02-.09.07-.12.15-.09l.26.08c.14.04.21.13.2.28-.55,9.39-4.93,16.26-13.16,20.61-.18.09-.4.03-.51-.14l-.16-.25c-.11-.17-.08-.31.1-.41,7.58-4.3,11.47-11.79,13.12-20.08Zm-16.48-76.27h.01c.08-.11.18-.12.29-.05,2.3,1.56,7.74,6.98,7.62,10.14,0,.25-.03.26-.07.01,0-.04-.01-.09-.02-.14,0-.05-.01-.09-.04-.13-2.13-3.56-4.72-6.74-7.76-9.54-.1-.09-.11-.18-.03-.29Zm-8.45-3.41h0c.07-.15.18-.19.32-.12,8.11,3.75,13.59,9.69,16.46,17.81,1.58,4.47,1.51,9.61,1.58,14.5,0,.11-.05.16-.15.17h-.01c-.11,0-.16-.04-.17-.15-.47-4.02-.75-8.53-1.83-12.14-2.61-8.68-7.98-15.27-16.11-19.76-.13-.07-.16-.18-.09-.31Zm-57.04,97.07c-2.29-.72-3.49-1.96-5.77-4.05-5.51-5.05-6.62-11.68-3.33-19.9.67-1.65.98-1.59.95.19-.14,7.22,3.75,14.53,8.56,23.26.27.5.13.67-.41.5Zm.5-10.07l-.24.1c-.16.07-.35,0-.43-.16-1.92-3.9-4.26-8.31-4.73-12.4-.75-6.55,1.52-12.79,4.79-18.37.07-.12.16-.15.28-.08h.01c.12.06.15.15.09.28-2.48,5.36-4.22,14-3.24,19.42.38,2.09,1.55,5.8,3.51,11.12.01.04,0,.07-.04.09Zm3.04,7.56c-.01.12-.12.2-.23.18-.07,0-.14-.06-.17-.12-.39-.98-.51-2-.34-3.05.07-.46.18-.47.33-.03.34.98.48,1.99.41,3.02Zm2.34-55.32c-1.04,4.03-1.89,7.42-4.56,10.99-3.18,4.25-5.79,8.85-7.82,13.8-.09.21-.17.37-.26.46-.15.15-.39.15-.54,0-.08-.07-.12-.18-.11-.28.16-3.47.7-6.19,2.54-9.33,3.15-5.36,6.64-10.62,10.47-15.78.33-.44.42-.39.28.14Zm1.69-8.05c-.14-.06-.2-.21-.15-.35l5.28-12.88c.06-.14.21-.2.35-.15l.2.08c.14.06.2.21.15.35l-5.28,12.88c-.06.14-.21.2-.35.15l-.2-.08Zm9.24,195.09l-16.11,18.97c-1.04,1.22-2.86,1.37-4.09.34-.06-.05-.12-.1-.17-.16-2.47-2.47-5.03-4.97-7.34-7.72-9.91-11.84-19.97-23.61-30.16-35.31-.48-.55-.42-1.39.14-1.87.02-.01.03-.03.05-.04.7-.55,1.24-1.21,1.63-1.96.19-.37.46-.44.8-.2,10.17,7.1,21.46,9.9,33.87,8.41.36-.04.65-.32.7-.67l.27-1.72c.09-.57.63-.96,1.2-.87.18.03.36.11.51.22,5.05,4.13,10.44,7.83,16.16,11.11,2.57,1.47,2.87,7.04,3.11,9.69.06.65-.15,1.29-.57,1.78ZM113.45,6.48c-.15,0-.28,0-.39-.04-3.16-1.06-6.87-.87-10.16-.53-.13.01-.21-.05-.23-.18l-.04-.35c-.02-.11.02-.16.13-.17l8.01-.27c.43-.01.78.15,1.05.49.41.51.95.82,1.63.91.04,0,.07.03.07.07,0,.04-.03.07-.07.07Zm6.38,445.02l-2.38,6.5c-.08.17-.28.25-.45.17-.12-.05-.2-.18-.2-.31l.43-6.01c.04-.59.36-.93.95-1l1.03-.13c.63-.08.84.18.62.78Zm-.6-444.65c-1.69-1.06-3.32-2.43-5.33-2.9-8.22-1.9-15.5,1.52-22.28,6.3-.09.06-.17.05-.24-.04h0c-.07-.1-.06-.18.03-.25,7.62-5.87,20.09-12.11,28.16-3.52.96,1.02.85,1.16-.34.41Z"/>
  </g>
</svg>