<?xml version="1.0" encoding="UTF-8"?>
<svg id="Layer_2" data-name="Layer 2" xmlns="http://www.w3.org/2000/svg" viewBox="0 0 114.6 442.25">
  <defs>
    <style>
      .cls-1 {
        stroke-width: 0px;
      }
    </style>
  </defs>
  <g id="Layer_1-2" data-name="Layer 1">
    <path class="cls-1" d="m106.18,210.92c-.32-5.92-1.51-12.72.23-18.37,5-16.19,9.73-30.72,7.72-48.04-1.9-16.38-3.29-32.8-4.16-49.26-.55-10.55-3.67-21.92-15.65-24.37-1.38-.29-2.73-.66-4.06-1.12-2.41-.85-4.48-.82-6.89-1.23-.31-.06-.4-.23-.26-.52,4.96-10.26,4.12-17.15,1.56-27.9C81.54,26.96,78.02,1.06,62.21.48c-2.34-.09-3.14,1.02-5.8.06-6.9-2.46-13.93,3.97-16.7,9.82-5.6,11.83-8.97,25.54-11.23,38.39-1.07,6.09-.81,13.45,3.28,18.64.2.25.16.45-.13.6-2.56,1.33-4.95,1.21-7.47,1.98-1.4.43-2.8.8-4.21,1.12-13.24,3.02-14.32,19.47-14.92,30.29-.83,15.07-2.26,30.09-4.31,45.06-.77,5.65-1.07,11.43-.13,16.31,1.6,8.25,4.33,18.07,8.2,29.46.59,1.72.88,3.97.75,5.8-.73,10.23-.16,19.66-4.56,29.01-.43.91-.38,1.97.13,2.83,1.57,2.67,2.67,5.65,3.3,8.92.74,3.9,6.41,6.78,9.72,7.82.71.22,1.24.81,1.38,1.54,3.98,20.17,9.09,39.92,10.76,60.51.1,1.25.09,2.65-.02,4.21-.76,10.83-.19,21.57,1.71,32.2,1.1,6.19,3.64,19.59,5.71,26.65.18.61.85,1.32,2.01,2.15.28.19.46.46.54.79l4.24,17.38c.24,1,.3,2.05.16,3.08-1.14,8.36-1.18,17.91-2.45,25.39-.77,4.54-.06,7.45,2.15,8.72,2.38.59,4.86.75,7.45.49.07,0,.13,0,.2,0,.48.06.83.5.77.98-.31,2.46-.98,7.5,1.24,9.37,5.78,2.44,14.78,3.38,20.71,0,.33-.19.51-.47.55-.84.13-1.27.71-2.28,1.75-3.03.22-.15.36-.4.38-.67.61-8.8-4.91-12.77-6.49-20.42-1.03-5.01-1.73-10.07-2.09-15.18-.54-7.77,2.1-16.08,4.17-23.56.41-1.5,1.81-2.92,2.25-4.92,3.31-14.8,8.09-32.8,7.62-46.69-.23-6.84-.76-13.51.18-20.29,2.68-19.34,6.63-36.12,11.93-56.33.09-.32.28-.55.57-.69,4.4-2.13,9.96-4.95,10.59-7.93.79-3.71,1.88-7.15,3.25-10.31.33-.75.35-1.6.05-2.37-2.02-5.22-2.9-9.88-3.22-15.9Zm-89.77,30.07c-3.3-1.98-3.01-9.22-2.53-12.01.35-2.02.71-2.02,1.08,0l2.1,11.56c.12.63-.1.78-.65.45Zm10.36-91.78c-4.37,7.05-7.62,14.56-9.75,22.55-.34,1.27-.75,1.3-1.24.07-.02-.05-.04-.42-.06-1.09-.22-6.94-.67-13.86-1.36-20.77-.1-.99-.03-1.97.2-2.94,2.5-10.26,4.8-20.56,6.91-30.91.12-.59.25-1.8.4-3.61,0-.13.08-.19.21-.18h.29c.26,0,.48.2.5.47.93,10.83,2.94,21.33,4.64,32.05.28,1.73.23,2.8-.74,4.36Zm30.93,159.94c.38,13.31-.65,30.38-.82,39.83-.15,7.78-.28,15.57-.41,23.37,0,.15-.13.27-.28.27h-.28c-.29-.02-.53-.26-.53-.55-.05-8.82.07-17.71-.32-26.44-.54-11.89-1.89-24.32-.6-36.16,1.57-14.31-.24-28.88-.06-42.4.2-15.28.69-30.57,1.46-45.86.02-.47.27-.7.74-.71h.48c.53,0,.8.26.81.79.39,22.75.28,45.42-.33,68.03-.14,5.03-.09,11.64.14,19.83Zm30.37-160.23c-.19-.32-.27-.69-.24-1.05,1.07-11.77,5.59-23.09,5.34-35-.03-1.35.31-1.45,1.04-.32.04.06.1.41.18,1.04,1.49,11.68,3.64,23.23,6.45,34.65.09.35.05,1.1-.12,2.24-.98,6.79-1.51,13.63-1.58,20.51-.01.81-.14,1.47-.37,1.98-.11.23-.39.32-.61.21-.12-.06-.21-.17-.25-.3-1.97-8.53-5.25-16.51-9.84-23.96Zm12.76,83.2c-.2,3.59.32,6.48-2.96,8.9-.13.09-.31.06-.4-.07-.04-.06-.06-.14-.05-.22l2.16-11.74c.4-2.14.8-2.16,1.2-.07.12.61.14,1.68.05,3.2Z"/>
  </g>
</svg>