
<svg
	stroke="white"
	stroke-opacity="1"
	style="enable-background: new 0 0 531.5 1642.3"
	xmlns="http://www.w3.org/2000/svg"
	viewBox="0 0 300.73 1001.22"
>
	<g id="a" />
	<g id="b">
	<g id="c">
		<g id="d">
		<g id="e">
			<path
			d="M62.54,359.14c-.55,2.31-1.04,4.63-1.49,6.96-9.15,47.7-18.99,95.22-28.92,142.76-1.62,7.75-3.47,14.73,.95,22.06,4.09,6.78,8.87,12.36,10.2,20.75,1.09,6.94,3.27,12.4,6.02,18.76,2.55,5.91,4.13,11.15,3.66,16.9-.21,2.61-2.59,3.96-5.11,3.26-3.31-.91-5.62-3.06-6.94-6.46-1.63-4.2-3.37-8.42-5.23-12.66-.23-.52-.83-.75-1.34-.52-.18,.08-.33,.2-.44,.36-3.05,4.51-1.48,11.59-.3,17.52,.35,1.79,1.1,3.11,2.23,3.97,2.07,1.56,2.9,2.16,2.39,4.73-.14,.68,.3,1.34,.98,1.49l5.03,1.03c.36,.08,.69,.27,.94,.54,1.4,1.57,2.99,2.9,4.77,3.98,3.24,1.97,4.67,7.31,.58,9.32-7.74,3.81-23.24-2.58-27.97-9.55-7.87-11.62-15.04-24.11-16.66-38.54-1.29-11.51,1.84-23.97,.04-36.04-.96-6.5-1.73-10.9-.83-16.82,3.08-20.17,2.63-38.68,4-58.16,1.78-25.14,3.48-50.17,7.06-75.14,1.52-10.66,5.64-20.22,8.18-30.74,.11-.46-.14-.93-.59-1.09L.62,339.5c-.47-.18-.73-.68-.58-1.16,10.03-34.01,20.17-68.08,30.4-102.2,1.41-4.72,2.92-9.41,4.53-14.07,2.85-8.25,11.72-12.28,19.12-15.56,9.52-4.21,15.74-7.27,18.67-9.17,5.09-3.31,10.37-6.3,15.82-8.95,3.57-1.74,5.46-3.78,7.68-6.8,2.49-3.4,5.65-3.18,9.35-2.32,.39,.09,.64,.49,.54,.88-.02,.08-.05,.15-.09,.22-.69,1.09-1.11,1.91-1.27,2.44-.43,1.41-.1,1.61,1.01,.61,3.52-3.16,9.56-9.28,9.93-14.43,.33-4.57,.3-9.14-.1-13.7-.32-3.73-2.2-6.81-3.91-10.07-2.43-4.63-4.11-9.54-5.05-14.73-.05-.26-.29-.44-.55-.39-.1,.02-.19,.07-.27,.14-2.36,2.41-6.17,2.71-8.35,.08-.62-.75-1.25-2.31-1.9-4.7-1.82-6.71-5.28-12.2-7.45-16.73-1.87-3.91-3.55-13.26,2.8-14.38,.5-.09,.66-.36,.49-.83-3.79-10.54-5.38-21.49-4.77-32.84,.15-2.65,.85-6.9,2.1-12.74,1.14-5.28,.07-11.45,5.21-17.29,1.58-1.81,3.21-3.57,4.89-5.29,3.35-3.41,4.98-8.19,9.91-9.94,.89-.31,2.9-.7,6.02-1.15,6.62-.96,13.01-2.73,19.16-5.3,5.6-2.34,9.71-3.9,14.85-3.59,2.42,.15,2.5-.22,.25-1.11-3.07-1.2-5.46-2.08-8.96-1.84-.44,.03-.49-.1-.15-.38,3.1-2.56,14.83-.15,17.14,3.3,.06,.09,.13,.1,.21,.03l.24-.2c.08-.07,.1-.16,.06-.26-.53-1.53-1.4-2.81-2.6-3.83-1.54-1.32-1.37-1.6,.51-.83,3.53,1.44,6.37,3.95,8.51,7.52,.26,.44,.81,.61,1.27,.39l5.49-2.55c.29-.13,.57-.13,.86,.01,3.49,1.77,7.15,3.06,10.97,3.85,5.94,1.23,15.35,13.02,19.05,17.54,7.72,9.44,9.14,24.71,9.02,36.41-.11,10.47-1.07,20.85-2.9,31.15-.05,.31,.08,.47,.4,.48,9.87,.1-.52,19.02-2.63,22.43-2.42,3.92-1.68,18.77-10.66,13.77-.31-.17-.48-.08-.53,.27-1.07,8.56-4.47,16.42-10.18,23.59-.17,.21-.31,.82-.42,1.83-.34,3.24-.48,6.49-.43,9.74,.12,7.53,3.47,11.58,9.07,16.22,.79,.65,1.15,.47,1.08-.55l-.03-.5c-.02-.37,.13-.66,.44-.86,1.79-1.15,3.75-1.52,5.87-1.09,.35,.07,.67,.26,.91,.53,3.03,3.44,5.9,5.85,8.62,7.22,21.07,10.64,35.03,17.91,41.89,21.82,6.25,3.57,12.53,7.21,14.69,13.48,3.11,9.01,6.02,18.08,8.73,27.21,8.79,29.66,17.48,59.26,26.08,88.79,.16,.55-.14,1.12-.68,1.3l-28.26,9.42c-.3,.1-.47,.42-.38,.73,2.56,8.92,5.26,17.26,6.45,26.58,4.82,37.74,5.91,76.18,5.72,114.19-.03,5.89,.77,14.14,2.42,24.75,.41,2.65,.16,6.4-.77,11.25-1.02,5.31-1.42,9.56-1.19,12.75,.45,6.34,.95,12.67,1.5,19,.89,10.08-4.15,22.86-9.03,31.53-1.75,3.09-4,7.32-6.77,12.67-1.96,3.79-6.59,6.49-10.38,8.39-5.6,2.83-10.56,4.79-16.62,3.3-.69-.17-1.01,.1-.95,.81,.56,6.81,.9,13.54,1.01,20.2,.22,12.44-1.76,24.86-4.05,37.13-.93,4.96-2.12,8.98-3.57,12.05-2.05,4.35-8.35,8.25-3.4,14.19,3.41,4.1,7.56,6.99,5.48,13.23-.61,1.8-1.52,3.35-2.75,4.65-.37,.4-.39,1-.06,1.42,5.05,6.36,5.84,9.48-.95,15.06-.29,.24-.33,.68-.09,.97,.08,.09,.18,.17,.3,.21,2.04,.73,4.06,1.47,6.06,2.22,4.74,1.78,1.61,6.01,.24,8.73-1.89,3.77,2.29,10.81,2.27,16.5-.09,21.63,.18,35.46,.79,41.49,1.04,10.18,2.96,21.22,2.29,30.78-.91,12.98-4.51,27.54-7.33,38.95-.19,.79-.23,2.11-.1,3.98,.24,3.73,4.68,4.21,7.02,6.3,.27,.24,.42,.58,.41,.94-.08,3.56-1.12,6.8-3.13,9.71-.24,.35-.16,.83,.19,1.07,.03,.02,.05,.03,.08,.05l5.12,2.71c.94,.5,1.44,1.55,1.26,2.59-.54,3.01-4.32,6.92-6.64,8.91-.3,.26-.33,.72-.07,1.01,.04,.04,.08,.08,.12,.11,2.36,1.64,5.06,3.63,3.26,6.9-1.71,3.11-2.86,5.97-3.43,8.58-.73,3.35,2.55,6.13,4.08,8.82,2.03,3.53,2,7.86,4.69,11.22,4.12,5.13,7.6,11.55,12.8,15.58,6.56,5.08,7.55,10.96,8.73,19.33,.49,3.47,.62,6.54,.4,9.21-.89,10.87-35.37,10.92-42.53,10.5-5.39-.33-10.62-1.38-15.71-3.17-8.06-2.83-10.53-8.48-13.94-15.57-.42-.88-1.16-1.57-2.07-1.92-5.97-2.35-14.64-6.38-14.85-13.84-.35-11.91,1.67-23.96,3.15-35.75,.13-1.03-.49-3.33-1.85-6.9-1.73-4.57-3.4-9.15-5-13.76-.23-.67-.02-1.4,.53-1.84l1.95-1.56c.24-.19,.27-.42,.09-.67-5.34-7.34-9.97-13.95-.24-20.71,5.39-3.74,10.38-6.36,8.35-14.3-3.35-13.04-9.03-25.44-11.64-37-1.07-4.77-2.15-11.94-3.22-21.51-1.19-10.57-2.26-21.16-3.21-31.76-.14-1.62-.21-2.97,.34-4.58,1.89-5.56,5.97-13.37,.1-18.17-5.23-4.26-12.65-8.68-11.24-16.51,.57-3.17,3.17-6.8,4.92-9.97,.45-.81,.41-1.82-.12-2.59-1.54-2.26-3.46-4.68-3.74-7.68-1.04-10.99-1.89-21.99-2.54-33.01-.96-16.22-2.71-31.44-4.35-47.15-1.39-13.3-3.57-25.37-6.15-38.02-.16-.78-.32-.78-.47,0-6.12,30.33-8.48,62.05-10.47,93.04-.46,7.11-1.36,15.01-1.86,22.55-.28,4.38-1.56,6.07-3.88,9.55-1.34,1.99,1.67,6.19,2.61,8.01,8.93,17.44-15.69,15.81-12.16,30.79,1.22,5.19,2.31,8.81,2,14.07-.79,12.98-1.76,25.94-2.91,38.89-.74,8.3-2.59,14.98-5.9,23.44-3.24,8.31-7.12,16.68-9.03,25.4-2.48,11.35,8.45,12,13.52,18.62,4.87,6.36,.28,12.2-3.5,17.54-.23,.32-.18,.76,.12,1.02l1.96,1.76c.64,.58,.84,1.5,.5,2.29-2.9,6.74-7.1,14.74-5.91,22.18,1.73,10.78,3.89,23.43,3.5,33.17-.29,7.47-10.53,12.09-16.08,14.95-.72,.37-1.69,1.63-2.11,2.53-4.48,9.52-7.75,13.79-18.52,15.95-14.95,3.01-32.65,3.18-47.14-2.16-4.18-1.54-6.12-4.01-6.09-8.7,.06-6.79,.9-12.77,2.52-17.96,1.41-4.52,6.22-7.63,9.63-11.03,3.36-3.35,5.54-7.98,8.69-11.84,3.71-4.56,2.95-9.3,6.39-13.67,.84-1.07,1.63-2.18,2.37-3.32,.18-.27,.26-.58,.25-.91-.22-4.33-2.94-8.62-4.79-12.46-1.2-2.49,1.6-4.53,3.24-5.77,.27-.2,.33-.58,.13-.85-.03-.04-.06-.08-.1-.11-2.86-2.38-7.42-7.28-7.32-11.25,.02-.83,.52-1.57,1.27-1.91,4.6-2.11,7.89-3.35,9.93-8.34,4.5-11.03-9.65-10.77-11.71-18.27-.35-1.31-.15-3.89,.62-7.74,3.18-15.96,4.45-31.82,5.52-48.03,1.32-20.1,2.55-40.21,3.7-60.33,.18-3.04,1.08-5.57,2.06-8.38,.11-.33,.09-.64-.08-.94-1.19-2.16-4.48-7.92-.19-8.78,2.3-.46,4.55-.86,6.76-1.19,.27-.04,.45-.29,.42-.55-.01-.1-.06-.19-.13-.26-4.34-4.75-8.69-9.98-1.21-15.1,.27-.18,.34-.55,.16-.81-.02-.03-.05-.06-.07-.09-3.36-3.39-4.36-7.21-3-11.47,1.06-3.32,4.28-4.91,5.53-8.12,1.22-3.12,1.28-6.03,.17-8.73-2.37-5.77-4.92-11.72-6.57-17.48-3.67-12.79-5.67-25.88-5.99-39.26-.35-14.51-.14-29.05-1.69-43.5-1.66-15.53-.2-32.36-.51-48.9,0-.29-.15-.45-.43-.49l-4.96-.75c-.69-.1-.98-.49-.87-1.18,3.2-20.94,4.94-41.07,5.44-61.94,.85-34.76,4.31-69.49,8.34-104.01,.51-4.37,.97-8.75,1.38-13.12,0-.11-.03-.17-.14-.19h0c-.11-.02-.17,.02-.2,.13h0Zm188.95,177.75l-5.01,1.01c-.33,.06-.55,.37-.52,.71l1.25,11.98c.07,.65,.24,.68,.51,.09,1.06-2.28,1.76-4.85,2.95-6.85,3.31-5.58,9.77-13.56,10.4-19.73,.27-2.65-.11-6.32-1.16-11-4.44-19.87-9.08-39.91-13.92-60.12-.55-2.27-.75-2.24-.62,.1,1.5,27.51,3.91,54.94,7.22,82.29,.08,.72-.4,1.38-1.1,1.52h0Zm6.26,34.79c-.2-.47-.75-.68-1.21-.47-.16,.07-.3,.19-.4,.33-2.77,4.15-4.34,10.27-5.89,15.02-1.12,3.43-3.41,5.4-6.87,5.93-.56,.08-.98,.55-1,1.12l-.38,8.96c-.02,.55,.41,1,.96,1.02,.21,0,.42-.05,.59-.17,3.05-2.11,6.22-3.89,9.51-5.33,1.92-.83,2.88-1.67,3.59-3.51,2.66-6.88,4.18-15.87,1.1-22.9h0Z"
			/>
		</g>
		</g>
	</g>
	</g>
</svg>
