<svg
	stroke="white"
	stroke-opacity="1"
	style="enable-background: new 0 0 102.7 364.2"
	xmlns="http://www.w3.org/2000/svg"
	viewBox="0 0 310.07 945.39"
>
	<g id="a" />
	<g id="b">
	<g id="c">
		<g id="d">
		<g id="e">
			<g id="f">
			<g id="g">
				<path
				d="M193.79,935.37c-1.93,5.17-5.11,7-10.49,8.16-6.77,1.45-13.63,2.05-20.57,1.82-10.31-.29-23.87-.6-32.93-6.12-1.31-4.29-1.31-8.84,0-13.63,.43-1.91,1.15-3.64,2.16-5.19l8.86-10.76c.53-.64,.77-1.47,.67-2.29-.57-4.85,.85-8.93,4.26-12.26,.51-.5,.79-1.18,.77-1.89-.2-10.77,2.95-19.71,12.09-25.83,.27-.18,.43-.43,.46-.76,.81-7.63,1.07-13.79,.76-18.48-1.91-29.65-3.4-59.32-4.46-89.01-.79-21.88-2.57-43.51-5.36-65.23-1.24-9.65-4.65-19.13-7.96-28.25-2.15-5.91-3.63-13.98-4.44-24.21-1.14-14.17-1.81-28.68-3.1-42.5-1.22-13.09-2.38-26.36-3.48-39.81-.04-.51-.47-.89-.98-.88l-6.79,.14c-.51,.01-.77,.27-.78,.77-.57,17.03-.58,34.22-.03,51.57,.46,14.32,.35,25.02-.77,37.65-1.14,12.7-4.73,23.72-7.78,35.48-2.08,8.05-2.7,14.89-1.87,20.53,1.44,9.82,3.18,19.46,3.15,29.43-.01,2.83-.34,7.12-.97,12.85-3.52,31.89-5.35,63.95-7.31,95.97-.86,14.07,.69,23.58,4.05,35.97,.16,.61,.66,1.07,1.28,1.19,5.97,1.13,3.68,15.4,3.74,19.26,.12,8.29,2.21,15.62,2.49,23.59-.17,.79-.22,1.5-.13,2.14-.6,1.71-.07,3.53-1.78,4.73-1.08,.75-3.97,1.64-8.67,2.69-.27,.06-.68,.31-1.25,.76-.35,.27-.63,.65-.85,1.14-.78,1.68-1.92,3.36-3.42,5.04-2.09,1.27-3.79,2.1-5.08,2.47-6.81,1.98-13.84,3.07-21.11,3.26-9.68,.29-21.73-1.37-30.2-6.6-2.07-7.32-1.12-13.77,2.86-19.34,3.68-5.15,9.98-9.06,13.26-13.96,2.53-3.79,4.13-8,4.79-12.65,.04-.3,.22-.57,.49-.73l2.66-1.52c.29-.17,.5-.44,.59-.76,.45-1.67,.39-3.32-.17-4.97-.13-.36-.1-.71,.08-1.04,1.49-2.82,3.66-4.16,6.13-5.84,.28-.19,.44-.46,.49-.8,.71-5.8,1.51-12.25,.16-17.97-5.19-21.79-10.15-43.64-14.88-65.55-2.97-13.7-5.36-27.5-7.17-41.39-.75-5.71-1.16-11.12-1.24-16.25-.15-10.66,.65-18,2.89-28.71,2.65-12.69,4.52-27.51,5.33-38.66,.2-2.73-.09-6.52-.86-11.36-2.55-15.9-4.8-31.98-8.83-47.59-4.22-16.33-7.05-33.04-9.28-49.75-.1-.72-.7-1.26-1.42-1.26-8.11-.09-15.97-.86-23.58-2.31-2.06-.39-3.69-1.6-4.9-3.61-3.95-6.57-8.05-13.04-12.29-19.43-2.07-3.11-.78-6.04,.65-10.27,2.71-8.05,5.57-16.04,8.6-23.98,2.11-5.51,1.34-12.16,1.73-17.6,2.19-30.74,2.7-61.54,3.51-92.35,.44-16.68,3.93-28.95,8.96-46.74,1.95-6.88,2.97-14.8,3.05-23.75,.18-18.89,.33-37.87,.46-56.96,0-.61-.29-1.19-.8-1.54l-17.14-11.97c-.45-.32-.57-.73-.34-1.23,7.05-15.69,12.75-31.93,18.72-48.04,4.26-11.49,11.59-16.43,23.23-19.54,14.97-4,28.53-8.55,41.95-16.44,4.73-2.77,4.52-26.02,4.03-31.06-.04-.41-.23-.78-.53-1.06-8.96-8.17-15.61-16.08-18.58-28.18-.91-3.72-1.85-7.44-2.81-11.15-1.35-5.2-1.4-9.95-1.2-15.08,.07-1.67-.5-1.92-1.71-.77-6.51,6.26-1.68,24.85,1.54,31.96,3.29,7.27,7.76,15.26,9.27,22.4,2.36,11.17,.56,21.85-5.41,32.06-1.61,2.77-3.51,4.89-5.69,6.34-.51,.34-.59,.26-.23-.24,6.69-9.29,8.29-18.04,4.41-28.43-2.91-7.81-7.59-16.24-9.98-22.8-1.52-4.15-2.69-9.3-3.5-15.45-.02-.14-.1-.21-.25-.2h0c-.14,0-.21,.08-.22,.23-.55,18.2,5.65,34.8,3.98,51.51,0,.02-.01,.02-.01,0-1.55-10.64-4.77-20.6-6.91-31.06-3.6-17.52-.93-32.37,3.98-49.35,.63-2.18,.63-3.79,.52-5.94-.68-13.37-1.27-24.24,6.49-35.92,1.81-2.74,6.17-7.71,13.08-14.92,5.02-5.23,10.83-8.51,17.43-9.83,1.33-.27,2.68-.77,4.04-1.5,3.21-1.75,6.66-2.49,10.35-2.23,1.44,.1,2.79-.03,4.04-.39,22.43-6.42,46.87,11.02,56.59,29.58,.15,.29,.38,.43,.71,.43,12.65,.09,16.77,2.69,24.83,11.89,.25,.29,.97,.57,2.14,.82,16.22,3.47,16.59,15.15,12.77,28.62-.21,.74,0,1.5,.64,2.29,2.47,3.05,4.87,6.15,7.18,9.32,6.57,9.01,2.16,18.53-2.28,29.19-1.44,3.44-.74,5.84,1.06,8.76,8.45,13.69,18.43,27,6.63,42.88-.24,.32-.42,.93-.55,1.82-.07,.48-.07,1.11,0,1.88,.29,3.53-.31,6.89-1.81,10.08-.13,.28-.08,.62,.13,.86,12.56,14.02,20.29,31.5,29.72,47.79,.43,.75,.34,1.42-.29,2.01l-1.65,1.58c-.4,.38-.46,1.01-.13,1.46,9.73,13.57,19.47,27.15,29.19,40.74,8.03,11.21,14.74,21.4,20.84,32.31,1.48,2.64,3.3,7,3.98,9.33,1.4,4.75,.18,8.09-2.74,12.28-18.86,27.06-44.66,50.86-70.76,71.3-7.07,5.53-16.63,13.15-25.49,15.07-.33,.07-.43,.26-.31,.57,2.73,6.85,5.77,13.36,7.99,20.44,6.21,19.75,11.6,41.81,12.48,62.53,.03,.6-.35,1.15-.92,1.33l-11.74,3.79c-.32,.11-.47,.33-.44,.66,1.55,20.79-.98,37.36-5.15,59.18-4.75,24.84-10.12,49.6-13.1,74.74-1.83,15.41,.45,30.77,4.15,45.72,2.72,11.02,5.79,21.52,7.1,33.31,3.43,30.83-2.84,62.52-9.67,92.45-3.61,15.79-7.33,31.56-11.17,47.3-1.85,7.57-2.07,15.28-.68,23.13,.16,.87,.82,1.56,1.68,1.74,3.38,.73,4.79,8.12,5.36,11.09,.44,2.3-.64,3.7-.6,5.86,.17,8.25,.78,16.47,1.82,24.65,.1,.83-.03,1.91-.38,3.23-.95,3.57-1.99,6.91-3.11,10h-.02ZM208.64,50.24c2.95,3.9,4.8,9.89,5.97,14.4,.24,.93,.43,.92,.57-.04,.83-5.81-.43-12.04-5.64-15.34-2.09-1.32-2.39-.99-.9,.98h0Zm11.66,60.12c2.01-5.51,6.27-16.22,2.93-20.91-2.14-3.01-4.28-6.04-6.42-9.09-.25-.35-.4-.32-.46,.11-.49,3.49-2.42,9.76-1.04,12.96,2.39,5.53,3.86,11.16,4.43,16.87,.09,.83,.27,.85,.56,.06h0Zm-55.33,50.28c-4.75-5.54-9.08-14.94-9.18-22.5-.1-6.93,.55-13.91-1.51-20.62-.17-.57-.37-.58-.6-.03-4.49,11.16-5.6,22.18-.3,33.35,2.42,5.09,5.88,8.86,10.39,11.29,3.07,1.65,3.47,1.16,1.2-1.49h0Zm62.05-8.88c.12-4.06-7.75-13.03-10.42-15.91-.54-.58-.79-.47-.74,.32,.39,6.89,5.7,11.6,10.63,15.82,.34,.29,.52,.21,.53-.23Zm-5.93,23.52c.39,.19,.66,.08,.82-.32,2.83-7.03,1.64-13.24-3.56-18.61-1.15-1.2-2.42-2.04-3.79-2.53-.57-.2-1.2,.09-1.41,.67-.03,.07-.04,.15-.05,.22-.68,5.29-.7,10.51-.05,15.67,.11,.9,.58,1.52,1.39,1.87,1.85,.79,4.06,1.8,6.65,3.03h0Zm-8.69,91.82c-.54,0-1.03-.32-1.24-.82-2.41-5.52-5.68-13.89-9.83-17.95-.3-.29-.77-.28-1.06,.02-.12,.13-.2,.29-.21,.46-1.12,13.98-5.44,27.14-8.42,40.81-1.87,8.59-2.4,15.91-1.59,21.98,.44,3.26,3.2,8.19,3.77,12.56,.35,2.66,.15,5.91,1.15,8.2,1.92,4.43,6.4,6.86,7.55,11.78,1.67,7.15-2.09,11.08-8.67,12.82-.42,.11-.67,.54-.56,.97h0c.47,1.76,.35,3.48-.36,5.16-.27,.64,0,1.37,.62,1.68,4.39,2.2,6.49,4.4,8.91,9.01,2.22,4.25,4.3,8.81,7.47,12.34,.64,.72,1.75,.79,2.48,.16,7.2-6.2,14.93-15.31,19.58-21.45,7.11-9.38,17.91-24.08,32.4-44.11,1.38-1.91,1.33-3.94-.14-6.08-12.62-18.34-25.05-34.69-37.87-54.94-.21-.33-.47-.38-.79-.17-3.68,2.45-7.35,4.74-11.01,6.87-.82,.47-1.55,.71-2.18,.7h0ZM19.03,542.31c2.99,3.56,8.18,4.3,11.5,.64,.22-.24,.2-.62-.04-.85-4.21-4.02-5.61-10.46-7.09-15.75-.4-1.41-1.16-1.64-2.27-.68l-2.9,2.5c-1.15,.99-1.63,2.23-1.45,3.73,.38,3.12,.3,8.09,2.25,10.41Z"
				/>
			</g>
			</g>
		</g>
		</g>
	</g>
	</g>
</svg>
 