
<svg
	stroke="white"
	stroke-opacity="1"
	style=""
	xmlns="http://www.w3.org/2000/svg"
	viewBox="0 0 266.72 949.28"
>
	<g id="a" />
	<g id="b">
	<g id="c">
		<path
		d="M247.19,292.81c3.19-2.28,18.74-9.64,19.2-10.1,.26-.26,.37-.58,.32-.96-.07-.62-.22-1.39-.44-2.33-6.19-25.83-12.35-51.59-19.2-77.25-2.61-9.77-7.75-16.92-15.85-22.85-.06-.04-1.36-1.18-3.9-3.4-1.36-1.2-3.06-2.26-5.1-3.2-8.8-4.02-16.67-6.32-25.07-9.42-4.17-1.54-7.66-4.11-11.52-6.38-.29-.17-.48-.43-.57-.77-.74-2.9-1.41-4.77-4.83-4.83-5.62-.09-11.11-1.44-11.96-7.89-.48-3.67-1.31-16.33,1.5-20.89,3.84-6.24,6.56-12.98,8.16-20.2,.01-.04,.03-.09,.05-.13,.01-.02,.03-.05,.05-.07,.02-.04,.05-.07,.09-.1,.04-.04,.09-.06,.14-.08,.14-.06,.3-.06,.44,.01,1.44,.73,2.46,.82,3.06,.27,3.61-3.31,5.94-6.43,6.63-11.57,.5-3.66,1-7.33,1.5-11,.41-3.07,.25-6.52-3.71-6-.39,.06-.56-.11-.52-.51,.52-4.02,1.32-7.98,2.41-11.9,.57-2.04,.26-3.82,.01-5.85-.01-.09,.02-.18,.08-.25,.01-.03,.03-.05,.06-.07,.01-.01,.02-.01,.03-.01,.03-.02,.07-.03,.1-.03t.02-.01h.05s.11,.01,.15,.04c.04,.02,.08,.06,.11,.1l.55,.8c.08,.12,.18,.14,.3,.08,.08-.04,.13-.1,.17-.19,.04-.09,.05-.22,.02-.4-.59-3.14,.17-6.12-.47-9.01-1.44-6.5-2.72-13.32-7.5-18.2-.87-.89-.7-1.18,.5-.86l1.77,.47c.8,.21,.92,.01,.36-.59-1.74-1.92-3.68-3.6-5.82-5.04-.29-.19-.36-.45-.22-.77,.22-.46,.04-.91-.54-1.35-3.48-2.58-5.72-4.17-6.72-4.76-.11-.06-.14-.15-.08-.27h0c.07-.15,.14-.2,.21-.17l2.93,1.22c.15,.06,.26,.02,.33-.13l.12-.22s.01-.02,0-.03c-1.22-.76-2.45-1.52-3.71-2.26-3.69-2.17-9.01-2.87-12.97-4.07-1.27-.38-1.24-.6,.09-.64,2.76-.07,5.52,.36,8.28,1.28,.13,.04,.21,0,.25-.13h0c.04-.13,0-.22-.13-.26-3.9-1.22-7.89-1.98-11.99-2.29-.28-.02-.64-.18-1.09-.5-.44-.31-.39-.46,.15-.45l4.51,.13h.02s.08-.02,.11-.04c.03-.02,.05-.05,.07-.08h0s.02-.05,.02-.08c0-.09-.06-.18-.15-.21-2.45-.78-4.96-1.11-7.54-.98-1.58,.09-1.68-.25-.3-1.03l1.43-.8s.01-.04-.05-.08c-.27-.18-3.63,1.83-5.3,.89-.45-.26-.44-.49,.04-.7l7.13-3.07c.1-.04,.14-.07,.13-.1h-.01c-.01-.08-.04-.11-.09-.11-6.35,.94-12.59,2.36-18.73,4.27-.05,.02-.11,.02-.16,0-.02,0-.05-.01-.06-.01-.04-.02-.07-.04-.1-.08-.02-.01-.04-.04-.05-.07-.01-.02-.02-.03-.02-.05-.01-.03-.02-.07-.02-.1,0-.04,.01-.09,.03-.13,.01-.04,.04-.07,.07-.1l2.42-2.09c.8-.68,.68-.95-.36-.8-5.11,.74-10.42,3.79-15.02,6.23-.6,.32-.68,.23-.23-.29,.96-1.07,2.02-2.01,3.18-2.83,1.06-.74,.96-.93-.3-.56-3.66,1.07-9.43,6.8-12.03,9.62-.16,.17-.33,.19-.51,.05l-.21-.17s-.05-.07-.02-.13c1.08-1.67,2.67-4.71,4.75-9.12,.29-.6,1.15-1.79,2.59-3.58,.06-.06,.05-.13-.02-.19h0c-.06-.07-.13-.06-.2,0-1.71,1.74-3.42,3.49-5.13,5.25-2.96,3.07-4.85,6.72-5.68,10.95-.01,.08-.05,.11-.12,.09l-.31-.05c-.19-.03-.27-.15-.23-.35l1.52-7.73c.02-.08,0-.14-.1-.17l-.27-.07c-.08-.02-.13,.01-.16,.09-.31,1.11-.63,2.2-.96,3.28-.38,1.25-1.32,1.89-1.61,3.3-.07,.38-.18,.39-.33,.03l-1.44-3.51c-.72-1.79-1.03-1.72-.92,.21,.08,1.33,.32,2.74,.73,4.22,.46,1.65,.24,1.75-.67,.29-.87-1.4-1.5-3.11-1.89-5.13,0-.02,0-.04-.02-.06-.02-.05-.05-.09-.09-.12-.07-.06-.15-.08-.24-.07-.03,0-.06,.01-.09,.02l-.3,.13c-.33,.15-.51,.5-.45,.86l1.41,7.99c.02,.1-.01,.12-.08,.04-1.79-2.02-3.02-4.36-3.7-7.02-.01-.06-.05-.09-.12-.07l-.27,.07c-.08,.02-.11,.08-.1,.16,.44,3.78,2.05,6.89,4.83,9.35,.04,.04,.08,.08,.11,.12,.02,.02,.04,.05,.05,.07,.01,.02,.02,.04,.02,.06,.03,.05,.04,.09,.05,.14,.03,.1,.02,.2,0,.3,0,.04-.01,.07-.03,.1-.05,.16-.16,.29-.32,.38-3.8,2.13-8.67,7.22-8.79,11.93,0,.36,.07,.37,.21,.05,.87-1.97,2.13-3.84,3.66-5.03,1.37-1.06,1.6-.86,.69,.61-4.14,6.74-5.18,13.43-4.85,21.95,.27,6.86-.31,13.43,2.53,20.16,.14,.34,.04,.55-.31,.64-7.42,2-1.97,12.54-1.04,16.93,.7,3.29,5.25,14.79,9.81,11.91l.06-.03s.01-.01,.02-.01c.04-.02,.08-.03,.12-.04,.29-.07,.58,.07,.72,.33,6.49,12.43,12.27,24.93,4.5,38.51-2.34,4.11-5.59,6.27-9.73,6.47-9.81,.49-12.37,3.3-17.69,10.42-.67,.9-1.58,1.57-2.63,1.95-7.7,2.78-15.67,6.35-23.81,7.86-3.9,.73-7.51,2.27-10.82,4.62-1.14,.8-1.35,1.82-1.92,3.04-.13,.3-.37,.53-.66,.66-11.92,5.22-16.84,14.48-20.37,27.07-4.77,17-9.03,34.13-12.77,51.38-1.57,7.22-3.77,14.88-5.49,22.37-.91,3.99,2.94,6.44,6.22,8.27,3.61,2.02,7.37,3.76,11.28,5.23,.38,.14,.62,.5,.6,.9-.51,12.74-1.32,25.52-2.44,38.34-.59,6.8-3.14,17.8-3.57,26.32-.55,10.67,.5,21.8,2.17,32.33,1.39,8.76,4.09,18.77,6.33,28.11,3.11,12.94,5.19,26.05,6.23,39.31,.34,4.29,3.17,8.57,4.45,12.75,1.64,5.32,3.54,10.53,5.72,15.65,2.32,5.45,2.72,11.27,3.48,17.06,.19,1.4,.2,2.8,.02,4.2-1.59,12.71-3.37,25.39-5.34,38.04-.52,3.34-.04,7.2,1.44,11.6,1.45,4.3,2.01,7.6,1.68,9.88-1.79,12.72-4.1,25.33-5.53,38.09-1.49,13.23,.73,26.16,3.83,38.97,.75,3.11,2.63,7.85,2.95,11.43,.48,5.53,.4,15.31-2.37,20.89-1.54,3.1-4.76,6.44-1.72,9.9,1.99,2.27,5.61,6.35,5.77,9.24,.21,3.57-3.77,4.22-6.15,5.85-3.22,2.19-5.98,11.08-6.13,13.62-.61,10-1.19,20.01-1.73,30.01-.3,5.68-.13,17.18,.52,34.5,.14,3.49,.8,8.3,2,14.44,1.22,6.26-1.86,14.16-2.12,20.89-.32,8.38-.41,16.76-.25,25.15,.1,5.34,4.56,11.14,2.63,15.92-.63,1.55-1.44,1.3-2.5,3.13-1.1,1.89-1.38,3.62-1.09,12.25,0,0,.32,9.59,2.23,9.65,.08,0,.64-.03,1,.33,.05,.05,.1,.11,.13,.17h0c.09,.2,.09,.41-.03,.59-.01,.03-.03,.05-.05,.08-.08,.09-.17,.14-.19,.14-.14,.07-.87,.92-.96,2.27-.02,.34-.02,.86,.17,1.49,.03,.05,.06,.1,.08,.15,.03,.06,.05,.12,.06,.19,.02,.08,.03,.17,.03,.26v.02c-.02,2.37-.54,4.51-1.56,6.41-4.67,8.83-8.64,19.04-15.11,26.63-3.06,3.59-7.52,6.48-11.39,9.65-3.46,2.84-3.29,10.04-3.77,14.2-.55,4.7,13.95,7.22,17.07,7.45,11,.83,27.83-.52,36.81-6.77,5.69-3.95,9.63-6.27,11.82-6.95,4.16-1.28,8.28-2.67,12.36-4.16,4.36-1.58,7.81-3.69,6.51-8.78l-1.41-7.88-.48-21.72c-.01-.85,.52-1.63,1.32-1.93,1.54-.58,3.05-1.63,4.54-3.17,4.45-4.58,1.12-10.19-1.36-14.68-2.95-5.35,1.15-11.29,1.15-11.29,.89-3.3,1.8-4.67,1.83-7.6,.04-3.59-1.27-6-2.02-7.85-2.73-6.73-.03-10.87,.35-21.88,.24-7.06-2.26-10.44-1.53-17.55,2.08-20.35,2.51-36.89,2.71-63.11,.05-6.38-1.78-19.52,3.45-24.2,2.6-2.32,5.08-4.76,7.43-7.34,3.58-3.93,.68-6.77-.02-10.61-.07-.35,.02-.72,.24-1,4.97-6.3,2.78-8.71-1.9-13.66-.69-.73-.87-1.8-.46-2.72,2.08-4.57,4.91-7.69,6.13-13.34,1.26-5.8,2.25-11.65,2.99-17.54,.62-4.92,.37-9.96,.25-14.98-.07-3.41,.24-5.98,.94-7.72,2.43-6.03,7.48-7.69,4.39-15.46-1.23-3.12-6.24-4.55-3.45-9.09,1.04-1.7,2.12-3.37,3.23-5.03,5.75-8.55,5.25-18.16,5.87-28.12,.07-1.06,.33-2.11,.78-3.08,1.59-3.41,3.07-6.66,3.02-10.75-.04-3.93,.25-7.84,.85-11.72,.85-5.38,4.51-9.35,8.15-13.1,.06-.06,.13-.12,.19-.18,.14-.11,.28-.21,.43-.28,.07-.05,.15-.08,.23-.11h.01c.07-.04,.15-.07,.23-.08,.32-.1,.65-.13,.97-.1,.07,0,.14,.01,.21,.03,.03,0,.05,.01,.08,.02,.14,.02,.27,.06,.4,.12,.06,.01,.13,.04,.19,.08,.16,.07,.32,.17,.46,.29,.07,.05,.13,.1,.18,.16,.14,.13,.26,.28,.36,.45,.04,.05,.07,.1,.09,.15,.05,.08,.08,.16,.12,.25,1.2,2.91,3.86,7.03,4.45,10.31,2.5,13.96,2.02,27.79,3.96,42.2,.94,6.92,4.42,10.8,7.73,16.11,.9,1.43,1.21,3.21,.93,5.33-.24,1.88-1.57,3.18-2.62,4.7-2.1,3.04-2.35,6.15-1.4,9.59,.82,2.94,4.02,6.78,3.88,10.78-.42,12.2,1.21,24.2,3.83,36.08,.52,2.38,.8,5.61,1.25,10.46,.37,3.97,.34,4.96,.84,12.24,.82,11.96,1.16,13.26,1.64,14.61,.87,2.47,1.23,2.39,4.34,9.53,.66,1.51,1.73,3.98,2.8,6.71,0,0,4.18,6.03,4.25,12.62,.12,11.95,.17,23.9,.13,35.84-.08,24.15-3.45,36.06-3.52,36.42-.81,4.2-2.92,14.35-.14,23.14,1.12,3.55,1.94,3.4,4.6,10.01,0,0,2.38,5.9,4.54,6.09,.11,0,.77,0,1.08,.47,.46,.68,.33,1.21-.38,1.6-2.87,1.59-7.2,3.61-8.12,6.92-.96,3.49,2.47,4.88,4.74,6.18,.68,.39,.96,1.22,.66,1.94-1.45,3.56-3.36,6.35-3.65,10.39-.56,7.6,1.3,12.99,3.79,19.93,.13,.36,.19,.75,.18,1.17-.15,9.39-.38,15.85,1.31,21.17,.11,.33,.12,.66,.04,.98-.71,2.88-1.16,5.8-1.34,8.74-.1,1.86,.86,3.01,2.89,3.45l6.42,2.5c4.42,1.68,7.16,3.17,8.21,4.46,2.92,3.59,4.56,6.04,9.69,7.78,14.23,4.81,32.13,6.24,45.48-1.89,.3-.18,.45-.44,.47-.78,.29-5.53,.49-12.61-3.45-17.03-4.5-5.05-8.63-8.86-11.59-15.42-2.69-5.97-4.76-11.46-6.2-16.48-.06-.22-.05-.38,.03-.47,.13-.14,.38-.08,.47-.09,.46-.04,1.52-2.41,.78-6.72-.31-1.81-2.07-10.47-1.93-10.7v-.03c.04-.05,.12-.17,.24-.29h0c.54-.66,.92-.78,1.49-1.43,0,0,.15-.19,.3-.37,1.91-2.54-.71-15.03-.71-15.03-2.03-9.7-1.42-10.23-3.03-12.52-1.43-2.03-3.02-3.2-3.09-5.5-.06-1.86,.84-3.75,2.71-5.67,3.71-3.8,7.24-5.35,5.46-11.7-1.21-4.35-2.38-8.71-3.5-13.09-1.42-5.55,2.75-8.05,2.03-12.97-.6-4.15-.78-7.88-.3-12.32,1.73-16.22,3.67-33.18,1.27-49.42-1.2-8.11-1.93-13.45-2.19-16.01-.65-6.43,.12-7.39-.55-11.94-1-6.73-2.65-8.12-4.67-15.7-.97-3.65-.92-4.56-2.6-16.61-2.49-17.88-2.61-15.85-2.81-19.23-.39-6.49,.36-8.82,3.04-27.38,2.14-14.78,3.21-22.17,3.11-24.15-.33-6.66-1.39-12.12-3.85-30.17-1.15-8.45,.44-13.56,2.78-21.41,1.07-3.56,1.11-7.66,.78-10.91-1.5-14.55-1.8-28.85-2.03-43.46-.06-4.44,.46-7.85,1.58-10.24,3.29-6.99,6.1-14.17,8.44-21.53,.84-2.63,3.56-6.8,3.7-8.87,.83-13,2.84-25.81,6.03-38.45,3.62-14.34,7.36-27.65,9.01-43.2,1.03-9.75,.3-17.48-1.05-32.92-2.72-31.25-8.23-45.44-1.19-50.46ZM49.89,409.26h-.01c-.1,0-.16-.06-.16-.17,.43-16.42,.26-32.75-.57-49.16-.34-6.61-.54-12.62,1.45-19.04,.14-.44,.27-.89,.39-1.36,.1-.32,.25-.36,.47-.1,.12,.13,.18,.31,.19,.55,.85,12.71,2.56,25.8,2.48,38.51-.02,2.85-.43,6.28-1.25,10.29-1.36,6.72-2.3,13.49-2.82,20.32,0,.12-.06,.17-.17,.16Zm5.78,41.86c-1.11-1.64-2.01-3.38-2.69-5.23-.24-.67-.18-1.31,.2-1.91l.2-.32s.07-.08,.11-.11c.18-.13,.42-.08,.54,.09,1.5,2.12,2.39,4.49,2.68,7.1,.18,1.54-.17,1.67-1.04,.38Zm156.04-5.1c-1.23,2.85-2.03,4.96-3.72,6.95-.36,.44-.56,.37-.58-.2-.11-2.97,.26-7.52,3.95-7.32,.39,.03,.51,.22,.35,.57Zm4.88-79.59c-.86,9.1-1.63,17.99-2.33,26.68-.12,1.58-.22,1.57-.28-.01-.57-15.27-.74-30.59-1.04-45.87-.08-4.52,.03-8.82,.35-12.92,.1-1.28,.32-1.3,.66-.06,2.82,10.23,3.7,20.96,2.64,32.18Z"
		/>
	</g>
	</g>
</svg>
