<svg
	stroke="white"
	stroke-opacity="1"
	xmlns="http://www.w3.org/2000/svg"
	viewBox="0 0 242.87 787.69"
>
	<g id="a" />
	<g id="b">
	<g id="c">
		<path
		d="M242.68,429.72c-1.3-10.3-3-20.8-3.8-31.2-1.8-24.3-3.8-48.5-5.9-72.7-.5-6.1-1.4-12.2-2.7-18.3-2.6-12.2-4.5-24.5-5.5-36.9-1.1-13.2-1.6-19.8-1.6-19.9-1-10.7-2.5-21.3-2.6-32,0-12-.3-24-1-36-.3-6.5-.9-10.9-1.7-13.3-3.02-8.7-8.82-14.36-17.22-16.81,.69-2.14,.25-4.31-.21-5.84-2.24-7.55-10.03-17.43-14.04-26.31-3.62-8.04-4.67-16.24-6.43-31.84-.4-3.54-1.03-8.79-1.7-19.32-.39-6.16-.33-8.22-1-12.68-3.3-21.9-13.8-41-33.6-51.9-13.9-7.7-30.7-5.7-43,4-14.5,11.4-23.1,30.1-28,48.2-3,11.2-6.1,24.7-9.3,40.7-3,15.2-7.8,28.6-23.5,34.6-4.7,1.8-10.4,2.2-13.4-2.2-.9-1.2-1.3-1.1-1.4,.4-.4,6.1,3.5,12,10.1,11.4,.1,0,.2,0,.2,.1,0,0,.1,0,.1,.1l.1,.1v.4c0,.1-.1,.1-.1,.1-8.6,7.3-12.8,16.8-12.9,28.3,0,13.2,.4,27.2,7.4,38.9-2.2,19.5-4.8,38.9-7,58.4-1.6,14-6.2,29.8-8.4,43.9-.9,5.7-1.6,11.4-2.3,17.1-1.8,16.9-3.9,33.8-6.4,50.6-.8,6-1.6,12.6-2.1,19.9-.9,11.2-2.1,22.4-3.7,33.5-.3,2.1,.3,3.3,1,5.1,3.2,7.4,2.6,17.2,9.6,22.3,3.9,2.8,6.9,5.7,9.9,7.5,1.4,.8,3.2,.2,3.6-1.4,.3-1.5,.1-3-.2-3.8-2.1-5.1-7-4.1-10.1-8.7-3.8-5.5-1.3-13.7-.8-14.9,.6-1.5,1-2.1,1.5-3.7,.8-2.2,1.3-4.4,1.7-6.7q0-.1,.1-.2c.1,0,.1-.1,.2-.1,0,0,.1,0,.1,.1,.3,.4,.5,.8,.5,1.4,.3,4.7,.2,9.4-.3,14-.7,7,9.3,6.1,8.1-2.3-.7-5.3-.7-9.9,.1-13.6,1.8-8.6,1.5-16.5-1.1-23.7-1.4-4-2-6.2-1.5-9.9,.6-3.9,1.4-7.8,2.6-11.5,6.8-21.4,13.5-42.8,20.3-64.1,4.9-15.5,4.4-30.1,6.9-45.4,1.7-10.7,3.4-21.2,4.4-32,.2-1.8,.2-3.8-.1-6-.6-5.9-.9-11.8-.9-17.8,0-1.6,.4-2.4,1.2-2.4-.4,2.1-.7,4-.5,6.2,.4,5,.4,9.9,1.4,14.9,3.1,15.1,4.8,24.9,5,29.3,.2,4.3,.6,7,1.1,8.2l1,18.1c-.5,1.6-.9,3-1.4,4.2-1.5,3.8-1.8,9-3.1,11.8-3.2,6.6-7.2,13.8-8.6,21-1.1,5.6-2.8,9.6-4.8,14.5-1,2.5-1.1,5.2-1.7,7.8,0,.2-.1,.3-.2,.5-.1,.2-.3,.3-.3,.3-1.6,1.2-2.6,5.1-2.6,5.1-3.4,13.3-3.5,15.4-3.5,15.4-1.5,20.4,2.1,41,2.1,41,2.3,7.4,3.3,13.5,3.8,17.4,.4,2.71,.79,5.45,1.16,8.21,1.78,13.24,3.03,26.11,3.84,38.57,.71-.34,1.57-.68,2.55-.95,.51-.15,1-.25,1.45-.33,0,0,2.1-.6,2.3-.4,.1,.1,0,.1,.2,.9,.1,.4,.2,1,.3,1.6,0,0,.2,.9,.4,1.7,.5,2.1,1,4.4,1.1,5,.9,4.1,4,16.5,5.5,23.4,3.7,16.5,4.5,23.4,4.9,28,.3,3.6,.6,7.3,.7,11.2,.1,5.1-.2,11.7-1,20-.9,9.9-1.9,19.7-2.8,29.6-1.4,15.4-.6,30.6,2.4,45.7,4.7,23.5,11.9,47.3,17.2,73.5,.5,2.6,.4,6.6-.2,12.2-1.3,4.4-2.5,9.6-3.5,15.6-1.3,7.6-3.5,15.3-6.8,23-1.5,3.5-1.5,5,.3,8.2,5,9.1,12.7,12.8,22.9,10.9,7.1-1.3,11.8-5.1,14-11.5,.4-1,.7-1,1.1,0,2.3,6.7,7.3,10.6,14.3,12,9.1,1.8,16.2-1.6,21.4-10.1,1.1-1.8,1.3-3.7,.9-5.8-1.4-5.9-2.3-11.3-2.5-17.7-.4-9.2-.3-18.7-2.8-27.6,.4-5.7,.9-9.6,1.4-11.7,2.3-8.3,6.9-22.8,13.9-43.6,9-27,13.8-54.6,14.4-83,.2-9.8-1-22-1.2-31.7-.3-11.9,1.1-24,4.2-36.2,2.4-9.5,6.6-21.5,9.2-30.7,0,0,3.5-11.7,4.2-16.3,0-.2,.1-.5,.2-1,.1-.3,.1-.4,.1-.5,.68,0,1.36,.01,2.05,.03,2.19,.04,4.3,.15,6.34,.31,.42-13.01,1.52-46.68,1.71-49.54l.02-.34c.06-.82,.2-2.86,.45-5.42,.09-.98,.2-2.07,.33-3.24,.3-2.6,.5-3.6,.7-5.5,.3-3.2,.3-6.1,.2-8.7l-.4-5.6c-.3-5.2-.6-10.3-.9-15.5-.5-7.1-1.6-12.8-2.5-16.7-.8-3.1-2.3-7.8-5.3-17-.4-1.3-1.9-6.3-4.3-12.7-1.8-4.8-2.7-6.7-4.2-11.5-1.2-4-2-6.8-3.7-9-1.4-1.8-2.5-3.1-2.6-5.6-.2-3.8-1.1-7.8-2.7-11.9,.5-1.1,.7-2.6,.7-4.6-.1-4.4,.7-8.3,2.5-11.8,1.6-11.2,4.1-22.1,7.4-32.5,1.2-3.6,2.8-8,4.9-13.2,.5,11.9,1.5,25.3,3.1,40.2,1.6,15,1.3,32.2,5.3,47,3.9,14.8,10,36.2,18.3,64,1.8,6.1,3.5,13.8,2,20.1-1.8,7.5-2.4,14.5-.7,22.1,.8,3.6,1.2,6.2,1.2,7.8,.1,3.7-.2,7.3-.8,10.9-.4,2.1-1.1,7.5,2,7.9,.8,.1,1.6-.3,2-1,1.2-2.4,2.3-4.8,3.2-7.1,1.9-5,1.4-10,.8-15.2,0-.3,.2-.6,.5-.6h.3c.2,0,.3,.1,.3,.2,.7,3.6,1.4,7.1,2.1,10.7,.7,3.3-.5,5.5-1.8,8.4-1.2,2.9-1.2,6.3-4.7,8.6-3.7,2.5-7.6,4.4-9.7,8.7-.4,.9-.2,1.9,.6,2.5,2.6,2,4.5-1.4,6.8-1.9,4-1,9.2-5.9,12.7-8.4,4.8-3.6,7-13.2,8.2-19.5,.2-2.2,.3-4.6,0-7ZM41.38,153.12v.3l-2.2,4.2c-1.2,.6-1.9,1.5-2.2,2.6-.1,.3-.2,.6-.5,.8-1.1,1.1-1.1,3-1.4,4-1.8,4.9-2.9,9.7-3.4,14.4-.4,3.7-.9,10-1.5,18.9-1.7-15.7-3-34.5,10.9-45.5,.2-.1,.3-.1,.3,.1v.2Zm61.7-22.1c-5.5,11.7-18.1,13.7-19.1,13.8,1.17-.43,2.83-1.09,4.78-2.01,2.49-1.18,4.03-1.91,5.67-3.16,1.24-.95,3.06-2.6,4.71-5.31,1.35-1.99,3.08-5.07,4.13-9.13,1.49-5.79,.87-10.69,.31-13.39,.62,1.6,3.73,10.19-.5,19.2Zm24.1,447.2c-.9,3.4-2.6,10.7-5,22-1.9,8.9-2.6,17.5-2.2,25.7,.2,2.5,1,7.9,2.6,16.1,4.3,22.2,5.3,47.7,.5,69.8-.9,4.3-2.4,9.4-4.4,15.1-1.2,1.9-1.9,3.7-2.1,5.5-1,6.4-1.6,13-1,19.4,.2,2.5,.3,4.5,.1,5.8-.4,3.7-2.4,6.5-3.1,10-.3,1.3-.6,1.3-1,0-.7-2.2-1.2-4.6-1.4-7.2-.1-1.6,.1-4,.6-7.2,1-6.4,.6-12.9-1.3-19.3-.5-4.6-1-9.2-1.5-13.9-2-17.6-1.5-34.5,1.5-50.5,1.2-6.2,3.9-15.3,5.1-22,2.6-14.1,3.3-27,1.9-39-1.9-17.2-3.5-28.6-1.3-43.4,1.5-10,3.4-19.8,3.8-29.9,.1-2.6,.1-5.8,.1-9.4-.1-17,0-34,.1-51.1v-2.3c0-.1-.1-.3,0-.4s.4,.1,.4,.1c2,0,.1-46.8,.1-46.8-.1-2.8-.2-4.9-.2-6l3.7,.5c.1,3.4,.3,6.9,.4,10.3,.4,14.2,.4,28,0,41.3,.2-.1,.4-.1,.5,0,.3,.3,.1,1.2,0,1.3-.9,3.4,1,56,1.1,57.2,0,.3,0,.4,.2,1.4,.8,6.5,1,13.1,2.2,19.6,1.8,10,2.3,17.3-.4,27.3Zm25.9-442.2c-1.2-1.6-1.9-2-2.6-3.3-.9-1.5-1.1-2.9-1.3-3.9-.5-3-.3-9.6,1-18-.7,4.6-1,10.4,.2,16.8,.3,1.7,.7,3.4,1.1,4.9l3.8,6.6c-.9-1.4-1.6-2.4-2.2-3.1Z"
		/>
	</g>
	</g>
</svg>

