
<svg
	stroke="white"
	stroke-opacity="1"
	style="background: rgba(255, 0, 0, 0)"
	xmlns="http://www.w3.org/2000/svg"
	viewBox="0 0 322.83 949.55"
>
	<g id="a" />
	<g id="b">
	<g id="c">
		<g id="d">
		<g id="e">
			<g>
			<path
				d="M34.63,532.3c-.11,0-.22,.04-.31,.1,.1-.07,.2-.1,.31-.1Z"
			/>
			<path
				d="M310.75,340.94c.05,.28-.14,.36-.57,.22-.16-.05-.31-.13-.43-.25l.97-.06h.01s.01,.04,.01,.06c.01,.01,.01,.02,.01,.03Z"
			/>
			<path
				d="M310.75,340.94c.05,.28-.14,.36-.57,.22-.16-.05-.31-.13-.43-.25l.97-.06h.01s.01,.04,.01,.06c.01,.01,.01,.02,.01,.03Z"
			/>
			</g>
			<path
			d="M310.73,340.85h-.01s.02,.04,.02,.06c0-.02,0-.04-.01-.06Z"
			/>
			<path
			d="M322.77,419.89c-.12,6.21-2.14,11.84-2.4,18-.69,15.9-1.35,27.7-1.99,35.41-.63,7.5-.18,14.58,1.36,21.24,.24,1.03,.25,2.37,.04,4.02-.72,5.46-1.71,10.87-2.97,16.22-2.3,9.81-1.5,21.02-.84,31.02,.02,.33-.11,.79-.37,1.39-.17,.38-.43,.78-.77,1.21-4.22,5.25-8.21,10.67-11.98,16.26-1.43,2.13-4.44,3.98-7.13,5.12-6.34,2.67-12.65,5.39-18.93,8.16-2.93,1.29-6.26,1.91-7.53-1.63-2.24-6.27,8-11.43,12.13-13.44,.3-.15,.54-.38,.7-.68,.97-1.83,1.42-3.49,2.78-5.06,4.03-4.66,5.45-9.63,6.32-15.64,.03-.25-.03-.51-.16-.73l-4.49-6.94c-.79-1.22-1.32-1.12-1.6,.31-1.47,7.43-1.69,17.47-7.84,22.86-2.64,2.32-5.99,2.78-7.3-1.24-.46-1.39-.46-3.45-.01-6.2,1.11-6.91,2.81-13.68,5.12-20.3,.68-1.97,1.1-4.84,1.27-8.63,.19-4.49,11.7-15.65,15.89-19.73,2.92-2.85,2.58-7.04,2.2-10.82-1.22-12.06-4.11-22.21-7.98-35.12-3.79-12.66-6.92-25.46-10.47-38.18-2.44-8.73-4.03-15.2-4.77-19.41-2.5-14.16-2.8-27.99-2.33-42.28,.02-.82-.11-1.64-.39-2.4l-3.29-8.88-.76-2.55c-.1-.29-.3-.44-.6-.44h-1.43c-.3,0-.47-.14-.53-.43l-11.26-41.58c-.31-.85-.48-.82-.52,.08-.42,8.61-.83,17.34-1.22,26.19-.18,3.77,0,7.58,.49,11.42,2.88,22.31,5.18,41.38,2.93,62.84-.29,2.75-.27,5.39,.05,7.94,2.34,18.59,3.8,34.02,4.36,46.28,.46,10.11,1.02,18.36,1.69,24.74,.36,3.42-.84,5.83-2.87,8.26-.62,.75-.8,1.77-.45,2.68,3.12,8.33,5.04,16.93,5.77,25.81,1.02,12.53,1.88,26.37,2.56,41.51,.6,13.38-1.15,26.33-2.26,39.51-.38,4.39-1.62,10.37-3.73,17.93-1.11,3.98,.8,9.1,1.69,13.06,.9,4-3.19,12.9-4.56,16.95-1.65,4.88-1.91,7.44-.12,12.59,4.45,12.77,6.75,24.44,6.11,38.71-.6,13.55-.81,27.11-.62,40.66,.07,5.31,.52,10.85,1.35,16.6,.91,6.33,2.44,12.75,2.6,19.17,.02,.75-.08,1.63-.28,2.62-3.02,14.67-4.53,29.49-4.54,44.44,0,7.38,1.6,14.6,2.89,22,.22,1.29,.03,2.62-.54,3.81l-3.8,7.75c-.58,1.17-.85,2.47-.78,3.78,.34,7.2,.68,14.34,1.02,21.42,.29,6.02-.63,13.18-6.78,16.53-.25,.13-.34,.43-.2,.68,0,.01,.02,.03,.02,.03,2.84,4.53,5.26,9.35,7.28,14.44,.36,.93,.77,1.72,1.23,2.35,7.54,10.56,18.77,16.84,18.79,31.47,.01,4.95-3.24,5.76-7.61,5.76-8.48,0-16.96-.14-25.44-.43-6.96-.23-15.23-1.12-20.88-5.62-6.96-5.55-14.12-10.84-21.46-15.86-.98-.67-1.35-1.97-1.09-3.88,1.85-14,3.44-28.03,4.78-42.09,.18-1.93-2.27-5.53-2.88-7.54-.41-1.34-.71-3.12-.89-5.33-.56-6.41-1.12-12.82-1.66-19.23-.72-8.59-9.78-13.69-9.01-23.28,.73-9.04,2.1-16.33,4.86-26.25,.08-.33,.08-.67-.01-.99-1.94-6.69-2.92-12.61-2.96-17.76-.12-12.45-.64-23.79-1.58-34-1.05-11.47-1.01-21.24,.26-33.07,.56-5.16,2.57-14.68,.26-20.07-5.28-12.26-9.99-24.73-14.15-37.4-.51-1.56-.89-2.93-.96-4.64-.55-15.47-4.16-25.11-8.41-40.82-3.86-14.26-6.27-28.26-7.23-42-.24-3.25-.43-10.16-.58-20.73-.01-.14-.08-.22-.22-.23-.14-.01-.22,.06-.24,.2-2.25,14.73-3.97,24.41-5.17,29.03-7.42,28.65-13.84,57.52-19.26,86.61-.3,1.59-.72,3.14-1.25,4.66-2.49,7.06-5.06,14.13-6.93,21.38-.26,.97-.38,2.03-.36,3.19,.12,12.3-3.19,23.36-6.78,36.03-1.29,4.56-1.32,8.55-1.18,13.11,.34,11.35,.91,22.68,1.7,34,.35,5.09-.74,8.43-2.03,13.18-2.11,7.81-2.72,16.46-.7,23.83,2.86,10.48,4.63,21.14,5.33,31.98,.52,8.09-4.41,18.57-7.48,26.02-.86,2.07-1.42,3.77-1.7,5.1-.72,3.49-.18,6.81-1.68,10.26-2.88,6.61-4.79,11.6-3.33,18.98,1.05,5.35,1.86,11.15,2.42,17.39,.23,2.63,.16,4.21-1.58,6.35-8.33,10.24-18.14,18.99-31.7,19.68-9.05,.46-19.8,.79-32.25,.98-6.2,.09-7.71-3.74-6.71-9.18,1.35-7.37,4.43-13.46,9.25-18.27,2.31-2.31,4.26-4.43,5.84-6.37,4.06-4.97,6.98-12.3,9.74-18.3,.27-.58,.01-1.27-.57-1.54-.07-.04-.15-.06-.22-.08-6.84-1.59-6.71-8.12-6.75-13.61-.03-4,1.73-8.3,2.81-12.4,.1-.38-.02-.68-.35-.89-12.19-7.51-9.67-14.4-4.67-25.67,.47-1.06,.75-3.08,.48-3.96-1.43-4.75-2.1-9.59-2-14.5,.08-4.55,2.09-8.94,2.11-13.71,.04-8.28,.35-16.46,.94-24.53,.05-.71-.06-1.43-.31-2.09-1.22-3.17-2.41-6.55-3.59-10.15-2.82-8.61-.62-19.01,.42-28.39,.39-3.51,.62-7.6,.7-12.25,.2-13.51,1.44-26.47,3.7-38.86,.66-3.62,2.07-7.12,4.24-10.51,2.07-3.22,1.85-6.44,1.46-10-3.12-28.47-6.02-56.97-8.71-85.49-.32-3.35-.46-11.69-.42-25,.04-14.75,.11-29.5,.21-44.25,.02-2.84,.21-5.66,.57-8.47,1.33-10.58,2.87-21.13,4.63-31.64,.8-4.85,1.21-9.31,1.23-13.36,.02-6.19-.16-12.37-.53-18.54-.08-1.17,.01-2.32,.26-3.45,4.46-20.69,7.44-36.87,8.94-48.54,.78-6.08-.79-14.79-.79-20.67-.02-13.85,1.46-27.55,4.43-41.1,.27-1.23,.42-2.47,.46-3.73,.36-12.25,.78-24.5,1.24-36.76,0-.15-.11-.27-.25-.27-.06,0-.11,.01-.15,.04-.25,.16-.45,.42-.59,.77-4.7,11.37-9.03,22.98-10.81,35.22-.56,3.83-1.14,7.63-1.74,11.42-.1,.63-.64,1.1-1.28,1.11l-2.53,.03c-.83,0-1.57,.52-1.85,1.29-1.73,4.59-4.01,9.69-3.86,14.72,.33,11.17,.13,22.46-.6,33.86,.05,4.95-.6,9.8-1.94,14.57-2.25,7.93-5.62,17.15-7.74,25.83-3.6,14.77-7.2,29.54-10.78,44.31-1.31,5.39-2.2,11.26-2.66,17.61-.28,3.88,.88,7.13,3.49,9.74,3.2,3.19,13.03,13.12,13.18,17.41,.12,3.36,.46,5.98,1.04,7.86,3.4,11.08,5.3,18.75,5.72,23,.33,3.44-1.09,5.57-4.27,6.4-8.25,2.14-11.29-20.16-12.08-25.04-.05-.26-.12-.47-.22-.62-.03-.05-.07-.09-.11-.12-.03-.03-.07-.05-.1-.06-.01-.01-.05-.03-.05-.03h-.02s-.04-.01-.06-.02c-.05-.02-.13-.02-.13-.02h-.01c-.11,0-.21,.03-.31,.1h-.01c-.09,.06-.16,.15-.2,.26-1.08,2.69-2.57,5.15-4.45,7.36-.36,.42-.51,.97-.42,1.5,.6,3.73,1.58,7.4,2.92,11.02,1.1,2.98,3.71,5.02,4.5,8.51,.16,.73,.68,1.33,1.39,1.61,4.57,1.83,9.4,3.96,12.23,8.36,3.21,5.02-1.44,10.08-6.73,7.72-8.64-3.87-15.27-6.72-19.89-8.57-2.07-.83-4.02-3.13-5.41-5.29-4.05-6.31-8.39-12.42-13.02-18.31-.3-.39-.44-1.06-.42-2.02,.16-6.44,.42-12.88,.78-19.31,.23-4.05,.27-7.69-.38-11.89-.91-5.97-1.94-12.09-2.22-18.13-.03-.57,.04-1.17,.21-1.78,1.57-5.84,2.2-10.47,1.88-13.89-1.2-12.54-1.91-25.13-3.49-37.65C.83,435.93-.04,430.07,0,424.08c.11-18.68,1.72-39.35,3.25-56.03,.38-4.08,1.31-7.88,2.8-12.21,2.07-6.01,3.81-12.03,5.21-18.04,.53-2.35,.98-4.68,1.36-6.97,.34-2.11,.37-4.47,.09-7.06-2.45-22.22,2.72-42.07,4.94-63.42,1.37-13.21,2.25-24.9,4.4-39.57,1.87-12.78,11.8-29.73,23.64-35.75,14.22-7.23,27.97-15.25,41.26-24.06,8.79-5.84,18.92-9.77,28.61-14.25,2.1-1.26,4.48-2.66,7.13-4.2,3.61-2.09,3.64-7.43,3.87-12.72,.32-7.14,.98-14.67-.75-21.67-1.01-4.08-1.57-8.23-1.67-12.46-.03-1.32-.59-2.11-1.91-2.09-.31,.01-.62-.07-.88-.22-4.43-2.57-6.02-5.44-7.06-10.78-.55-2.84-1.38-6.22-2.49-10.13-.86-3.02-.15-5.68,2.15-7.97-1.65-2.57-2.19-4.02-2.37-7.29-.2-3.58-.89-6.34-.63-11.18,.36-6.62,2.1-12.48,3.77-19.71,1.16-5.01,2.31-6.5,6.19-9.58,1.61-1.27,2.07-2.95,2.78-4.79,.14-.35,.39-.52,.77-.49l1.73,.13c.39,.03,.73-.09,1.03-.36,3.52-3.28,4.88-5.97,10.65-6.81,.34-.05,.62-.21,.85-.46,3.07-3.45,7.71-2.99,11.94-3.64,3-.46,5.6,.17,8.54-.04,4.41-.33,8.8-.75,11.6,1.66,.26,.23,.56,.3,.9,.19,1.21-.39,2.09-.53,3.35-.01,4.8,1.96,10.21,2.07,14.4,3.97,5.32,2.42,7.88,5.72,12.15,11.04,1.51,1.89,3.03,3.05,4.84,4.59,2.77,2.37,4.4,6,4.91,9.53,.39,2.7-.73,5.85-.16,9.14,.05,.31,.03,.62-.07,.92l-1.74,5.43c-.05,.14-.04,.3,.02,.44,2.44,5.91,.05,10.74-2.54,17.82,5.11,1.24,3.88,7.62,2.62,11.17-.88,2.45-1.48,4.95-1.82,7.52-.36,2.67-.87,4.56-1.53,5.68-1.56,2.62-3.82,4.34-6.78,5.15-.87,.24-1.48,.99-1.53,1.88-.28,4.5-1.05,8.89-2.32,13.18-.69,2.3-1.05,4.38-1.08,6.23-.14,7.8,.19,15.42,.98,22.86,.09,.89,.62,1.67,1.41,2.09l13.22,7.08c13.91,7.84,27.83,17.38,41.04,24.3,8.41,4.4,17.78,8.67,26.67,13.64,4.18,2.33,6.58,6.1,9.97,10.99,7.95,11.48,13.91,24.83,14.43,38.55,.43,11.02,.38,22.12,2.5,32.97,2.68,13.74,5.98,26.14,3.59,40.97-.47,2.98-.23,5.42,.04,8.29,.26,2.91,.61,8.58,1.04,16.99,.04,.91,.52,3.02,1.42,6.33h-.01l-.97,.06c.12,.12,.27,.2,.43,.25,.43,.14,.62,.06,.57-.22,9.67,24.48,12.54,51.85,12.02,78.95Z"
			/>
			<path
			d="M310.75,340.94c.05,.28-.14,.36-.57,.22-.16-.05-.31-.13-.43-.25l.97-.06h.01s.01,.04,.01,.06c.01,.01,.01,.02,.01,.03Z"
			/>
		</g>
		</g>
	</g>
	</g>
</svg>
 