
<svg
	
	stroke="white"
	stroke-opacity="1"
	style="enable-background: new 0 0 130.7 280.8"
	xmlns="http://www.w3.org/2000/svg"
	viewBox="0 0 352.83 947.72"
>
	<g id="a" />
	<g id="b">
	<g id="c">
		<g>
		<path
			d="M259.83,191.03h0v-.02s-.02-.02-.03-.02c.01,0,.02,.01,.03,.02v.02Z"
		/>
		<polygon
			points="78.22 167.73 79.33 167.36 75.08 168.79 75.08 168.79 78.22 167.73"
		/>
		<polygon
			points="75.08 168.79 75.08 168.79 75.08 168.79 75.08 168.79"
		/>
		<path
			d="M286.41,154.91c.2,0,.21-.05,.04-.14-.78-.43-1.56-.49-2.35-.17-.52,.2-.5,.31,.06,.31h2.25Z"
		/>
		<path
			d="M117.38,15.42c-.6,.33-.56,.45,.12,.37,.76-.1,1.47-.35,2.11-.75,.26-.16,.53-.24,.83-.24h.48c-.08-.02-.15-.03-.22-.03-.08-.01-.15-.01-.22-.02-.39-.04-.77-.03-1.15,.02-.15,.02-.29,.05-.43,.08-.19,.04-.37,.09-.55,.15-.16,.06-.33,.12-.49,.19-.16,.06-.32,.14-.48,.23Z"
		/>
		<path
			d="M121.31,14.83v-.03h-.37c.11,.01,.22,.03,.34,.05,.03,0,.04,0,.03-.02Z"
		/>
		<path
			d="M322.25,370.12c-.04-.11,0-.24,.09-.3l19.19-13.92c.36-.26,.46-.6,.28-1-10.37-24.01-22.42-51.6-38.07-74.27-12.64-18.29-31.74-25.34-51.8-32.34-6.11-2.13-8.06-7.05-15.52-8.03-2.48-.32-4.97-.47-7.49-.44-5.23,.05-4.45-3.97-5.3-7.38l.29-6.93c.03-.72,.33-1.4,.82-1.91,7.32-7.55,12.83-13.81,15.8-24.21,1.16-4.08,2.25-8.02,3.26-11.84,3.13,.84,5.89,2.9,8.35,3.5,2.51,.6,5.06,.61,7.66,.03,0-.01,.02-.02,.02-.03v-.02h0l-.03-.04c-2.44,.01-4.82-.34-7.14-1.05-.04-.02-.07-.03-.11-.05-.01-.01-.02-.01-.03-.03-.07-.03-.13-.09-.16-.15-.04-.04-.07-.09-.08-.14-.06-.16-.06-.33,.03-.49l.32-.59c.27-.49,.79-.79,1.34-.78,5.35,.1,9.28,1.1,14.98-1.09,.11-.04,.15-.12,.11-.23h0c-.04-.14-.13-.19-.28-.15-3.57,.94-7.19,1.11-10.86,.49-.26-.04-.39-.08-.39-.11v-.28c0-.17,.09-.26,.25-.27,3.95-.24,7.39-.19,11.33-.8,1.85-.29,3-1.18,4.31-2.32,.01-.02,.02-.05,.02-.07v-.03s-.01-.01-.02-.02c-.02-.03-.06-.04-.09-.02-4.77,2.85-9.7,2.09-15.01,1.91-.27,0-.31-.11-.13-.31,4.31-4.57,7.31-9.89,9-15.95,.22-.78,.95-1.29,1.74-1.23,3.34,.22,6.59-.17,9.77-1.19,.38-.12,.37-.19-.03-.2l-7-.21s-.08-.01-.12-.01-.08-.01-.11-.02c-.06,0-.11-.02-.17-.04-.1-.02-.2-.06-.29-.11-.05-.02-.1-.05-.14-.09-.13-.07-.25-.17-.35-.29-.07-.08-.14-.16-.19-.26-.05-.07-.09-.15-.12-.23-.13-.28-.18-.61-.15-.95,.02-.1,.21-.28,.58-.52,.21-.14,.44-.22,.7-.25,2.67-.37,5.31-.37,7.92-.01,.01,0,.01-.01,.01-.01,.01,0,.01-.03,0-.04l-3.33-1c-.89-.27-1.56-1.02-1.72-1.94l-.34-1.92c-.15-.88,.17-1.11,.95-.7,7.23,3.77,12.47,2.39,19.07-1.69,1.16-.72,1.08-.91-.24-.55-2.19,.58-4.37,1.83-6.67,1.92-3.58,.13-6.9-.81-9.98-2.83-.26-.17-.37-.49-.29-.78,.28-.93,.38-1.87,.3-2.82-.03-.41,.16-.6,.57-.58,2.39,.13,4.34,1.29,6.48,1.38,4.74,.2,9.16-.95,13.25-3.45,.07-.04,.1-.1,.1-.16,0-.03-.01-.07-.03-.11-.06-.12-.14-.15-.26-.09-5.67,2.52-13.17,2.72-17.99-1.47-.97-.84-1.97-1.22-3.09-1.8-.15-.08-.18-.19-.09-.33l.24-.38c.09-.14,.2-.16,.32-.06,.91,.68,1.93,1.19,3.05,1.52,.42,.12,.48,.03,.16-.27l-1.04-1.04c-.28-.29-.39-.63-.32-1.02l.35-2c.06-.34,.2-.38,.41-.1,2.6,3.43,9.66,2.1,13.18,.38,.06-.03,.09-.07,.09-.12,0-.02-.01-.05-.02-.08-.04-.1-.1-.12-.2-.08-2.73,1.19-10.44,2.48-11.5-1.52-.1-.41,.02-.5,.37-.26l.81,.52c.3,.19,.63,.3,.98,.32,4.04,.26,7.84-.58,11.4-2.5,.09-.06,.13-.15,.12-.25,0-.06-.03-.12-.08-.16-.02-.02-.05-.04-.08-.05-.03-.02-.08-.03-.12-.02-.93,.13-2.05,.71-2.73,.84-7.8,1.46-10.4,.27-12.48-7.53-.29-1.12-.38-2.37-.28-3.75,.57-7.52,.45-15.03-.37-22.53,0-.1,.04-.14,.13-.14h.29c.12,.01,.18,.01,.18,.02,2.04,9.45,5.59,22.24,18.21,20.06,.06-.01,.1-.06,.09-.11,0-.06-.06-.11-.12-.1-10.46,.29-14.48-7.89-16.28-16.79-.03-.17,.03-.27,.19-.31l.26-.06c.09-.02,.14,.01,.15,.1,1.16,5.8,4.16,12.7,10.07,15.05,4.74,1.89,9.15,1.51,13.21-1.14,.06-.04,.09-.09,.09-.15,0-.03-.01-.06-.03-.1-.06-.1-.14-.13-.24-.07-6.74,3.35-11.89,2-15.47-4.04-5.42-9.19-9.19-20.9-10.3-32.27-.96-9.86-4.09-18.69-9.39-26.49-2.49-3.68-7.06-8.5-13.71-14.47-7.06-6.34-14.14-12.56-21.25-18.64-.38-.32-.33-.42,.15-.28,5.67,1.59,10.49,4.39,14.47,8.4,1.16,1.16,2.19,2.12,3.11,2.9,.94,.78,1.05,.68,.33-.3-4.26-5.85-9.73-10.15-16.42-12.89-.19-.08-.35-.13-.48-.14-.1-.02-.18,.02-.24,.11-.1,.17-.24,.22-.43,.14-8.87-3.89-18.09-6.6-27.66-8.14-.08-.02-.12-.07-.11-.16l.04-.25c.02-.14,.15-.25,.29-.23,8.02,.72,15.72,2.61,23.1,5.65,.1,.04,.16,.01,.2-.08h0c.04-.1-.01-.17-.15-.23-7.47-3.48-15.32-5.52-23.55-6.13l-.15-.03v-.25c.01-.11,.09-.2,.19-.2,4.12-.26,8.18,.07,12.2,1,.06,.01,.1-.05,.12-.17h0c.03-.14-.02-.22-.15-.25-10.56-2.62-24.27-4.69-34.59,.42-.98,.48-1.99,.93-3.03,1.35-.36,.13-.53,0-.53-.37,.08-6.86-5.74-11.79-12.1-12.94-3.62-.66-5.85-1.75-9.94-.32,3.62-.31,5.71,.21,9.19,1.01,5.22,1.19,9.05,4.62,11.05,9.6,.05,.1,.02,.18-.09,.23h-.01c-.1,.05-.18,.02-.24-.08-3.93-8.59-10.86-8.67-19.01-9.84-.65-.1-.67-.01-.07,.25,4.52,1.91,11.33,2.56,14.69,6.31,.8,.89,.69,1.01-.32,.37-1.36-.86-2.86-1.62-4.52-2.28-2.11-.83-4.61-.67-6.97-1.42-1.91-.61-3.21-.65-5.07-.55,0,0-.03,.01-.03,.03,0,0,.02,.03,.03,.03,6.36,1,12.69,2.75,17.91,6.78,.75,.57,.67,.72-.23,.46-4.56-1.38-9.42-2.22-14.57-2.54-2.07-.13-4.24-.92-5.94-1.03-8.88-.58-19.08-2.55-27.7,.12-.05,.01-.08,.06-.08,.12,0,.02,.01,.04,.03,.05,0,.02,.02,.03,.03,.04,.02,.02,.05,.03,.08,.03,7.64-1.16,14.85-.17,21.64,2.97,1.92,.88,1.88,1.03-.12,.45-1.73-.51-3.62-.68-5.66-.51-6.01,.5-11.09-.54-16.6,2.51-3.49,1.93-7.57,4.69-12.23,8.27-3.69,2.84-7.41,5.64-11.17,8.4-.48,.35-.93,.74-1.35,1.18-.08,.08-.07,.17,.01,.25h0s.09-.02,.21-.1c2.6-1.81,5.28-3.48,8.04-5,.51-.28,.65-.16,.42,.38-.46,1.07-1.11,2.03-1.97,2.88-3.2,3.19-6.17,6.6-8.91,10.22-.2,.26-.46,.4-.79,.42-.57,.03-1.05,.27-1.43,.72-.41,.48-.32,.62,.28,.4l.65-.24c1.25-.46,1.48-.16,.69,.92-6.44,8.77-11.99,17.03-16.6,26.94-3.23,6.95-5.27,14.23-6.77,21.72-.68,3.42-.79,6.84-.31,10.26,.38,2.71,.23,5.34,.64,8.01,.05,.32,.09,.32,.11,0,.3-3.23,.18-6.49-.34-9.77-.32-1.99-.01-5.17,.91-9.54,.04-.1,.01-.17-.09-.21-.12-.06-.16-.15-.14-.27,.06-.34,.22-.65,.46-.95,.32-.38,.53-.32,.61,.17,.08,.48-.07,.9-.45,1.26,.05,6.77,1.15,16.44-1.42,22.55-2.84,6.72-9.7,13.33-17.64,13.56-.15,0-.23,.08-.24,.23h0c0,.17,.05,.26,.15,.28,7.6,.74,13.73-1.83,18.39-7.71,.74-.94,1.1-.81,1.08,.39l-.1,6.82c-.02,1.59-.67,2.87-1.94,3.84-4.12,3.13-7.97,3.91-12.92,3.4-.45-.05-.48,.04-.09,.27,4.58,2.62,11.47,.22,14.93-3.02,.07-.06,.15-.09,.24-.09,.18,0,.32,.15,.31,.33-.08,3.21-.16,6.44-.24,9.69-.08,3.6-2.4,6.14-5.04,8.28-5.73,4.65-11.25,3.54-16.97-.29-.95-.64-1.02-.55-.21,.26,6.9,6.88,17.16,6.46,24.24-.32,.07-.07,.16-.1,.25-.1,.02,0,.05,0,.07,.01,.03,0,.06,.01,.09,.03,.04,.02,.07,.05,.1,.08,.03,.03,.06,.07,.06,.11,.02,.05,.03,.11,.02,.17-.21,1.8-.07,3.57,.41,5.3,.09,.31,.08,.65-.04,.96-1.18,3.08-2.79,4.52-4.47,6.88-1.37,1.93-2.86,2.7-4.92,3.51-.15,.06-.2,.17-.14,.33l.09,.24s.03,.03,.05,.02c2.34-.82,4.68-1.6,7.03-2.34,1.79-.57,2.72-1.73,3.99-2.97,.12-.12,.25-.13,.37-.01l.18,.18s.02,.02,0,.04c-.52,.58-1.05,1.16-1.58,1.74-1.61,1.76-7.53,4.24-9.87,3.94-.69-.09-1.12-.11-1.29-.07-1.82,.46-1.82,.76,.02,.91,5.27,.4,9.66-1.28,13.16-5.04,.64-.69,.97-.56,.97,.38v.77c.02,.8-.23,1.5-.75,2.11-2.64,3.12-6.01,4.83-10.09,5.11-.18,0-.28,.11-.28,.3v.29c0,.06,.03,.09,.09,.09,4.15,.12,9.75-.56,12.77-3.75,.02-.03,.05-.05,.07-.06,.04-.03,.09-.05,.13-.06,.04-.02,.08-.02,.13-.02s.1,.01,.15,.03c.09,.02,.17,.09,.23,.17,3.05,4.56,5.97,9.27,8.76,14.12,1.78,3.08,2.88,7.5,3.32,13.28,.03,.36-.14,.55-.5,.58l-4.77,.33c-.05,0-.07,.02-.07,.05l.04,.26c.04,.18,.16,.28,.34,.29,2.44,.14,4,.17,4.7,.07,1.8-.27,4.44-1.23,7.92-2.87,1.02-.49,1.67-1.39,2.61-2.06,.35-.25,.47-.17,.37,.25-1.75,7.42-9.08,11.66-16.43,10.3-.09-.02-.15,.01-.18,.11h0c-.02,.1,.02,.16,.11,.19,6.01,1.64,11.48,.63,16.4-3.03,1.05-.78,2.21-2.8,3.48-6.07,3.26,9.86,8.27,18.49,15.05,25.9,1.56,1.69,3.22,3.12,4.98,4.28,.42,.28,.65,.67,.67,1.17,.23,4.14-.27,8.25-1.5,12.31-.88,2.88-3.68,2.08-5.75,2.55-10.73,1.44-21.18,6.96-30.88,11.46-6.63,3.07-11.6,4.6-18.36,6.08-12.28,2.7-19.44,11.74-25.9,21.83-14.94,23.35-25.76,46.94-38.55,76.88-.13,.3-.07,.57,.18,.79,5.67,4.9,11.72,9.28,18.15,13.13,.3,.17,.43,.54,.31,.87-14.76,40.76-25.19,82.89-30.08,125.99-1.4,12.32-.93,25.1,1.41,38.36,.31,1.72,.32,3.48,.02,5.28-2.06,12.59,.58,24.21,1.83,36.36,1.04,10.09,4.21,12.26,12.66,16.59,1.14,.58,2.5,1.64,3.12,2.53,6.33,9.24,14.76,9.88,24.5,11.76,9.61,1.85,7.81-8.95,1-10.38-.34-.08-.52-.29-.55-.63l-.03-.34c-.01-.22,.09-.32,.29-.3,2.81,.17,6.64-.51,6.91-3.67,.49-5.64-8.73-5.21-11.81-4.88-.36,.03-.59-.12-.7-.46-.22-.73-.64-1.32-1.24-1.78-.26-.2-.61-.27-.93-.17l-1.77,.52c-.34,.1-.5-.03-.46-.38,.66-6.3-1.91-10.48-3.29-16.28-.08-.34,0-.64,.26-.88l5.67-5.51s.02-.02,.04-.03c.04-.04,.08-.06,.12-.08,.02-.01,.05-.02,.07-.03,.07-.03,.14-.04,.21-.04,.05,0,.1,.01,.15,.02,.03,0,.07,.02,.1,.04,.04,.01,.08,.04,.11,.07,.04,.02,.07,.05,.1,.09,2.88,3.46,5.73,7.09,8.53,10.87,2.12,2.86,4.88,3.77,8.28,2.72,6.19-1.91,4.41-6.53,2.07-10.97-3.07-5.84-5.63-11.88-7.69-18.13-2.2-6.72-5.38-11.11-10.06-15.87-1.69-1.71-.71-4.98-.08-7.18,8.88-30.93,18.53-61.61,28.97-92.04,1.6-4.65,3.92-10.3,5.71-15.59,.44-1.56,1.15-3.05,2.13-4.47-1.54,13.78-1.45,27.58,.28,41.4,2.02,16.1-3.44,28.1-11.08,41.63-3.56,6.31-.54,9.9,2.91,14.93,.64,.92,.75,2.11,.29,3.14-5.97,13.51-10.67,30.43-2.79,44.26,.69,1.21,.69,1.97,.77,3.28,.86,15.03,.38,30.02-1.43,44.98-1.2,9.91-3.04,20.47-3.37,29.73-.6,16.46,.48,32.71,4.76,48.68,.1,.33,.06,.65-.11,.96-3.36,6.2-5.05,8.78-2.91,16.43,.12,.41,0,.75-.35,1.01-2.82,2.09-5.34,3.18-5.52,7.28-.14,3.32,1.89,5.36,4.44,7.27,3.68,2.75,7.39,5.39,11.11,7.92,.98,.67,1.47,1.85,1.24,3.01-1.62,8.31-4.54,18.2-5.88,24.65-2.34,11.22-3.53,22.07-3.55,32.57-.04,23.96,2.82,48.3,8.59,73.01,.08,.32,.03,.66-.14,.95-3.16,5.53-5.06,7.87-2.96,14.78,.8,2.65,2.76,5.03,.79,7.86-7.5,10.79-13.29,22.7-17.37,35.73-.46,1.48-1.02,2.9-1.68,4.27-.8,1.65-1.43,3.05-1.91,4.19-2.17,3.3-3.02,6.52-2.54,9.64,1.1,7.19,7.09,9.32,13.4,10.29,16.98,2.6,33.24,2.73,49.98-1.57,9.82-2.53,12.63-7.8,13.71-17.19,.18-2.7,.55-4.59,1.1-5.65,2.88-5.57,7.41-13.85,7.94-19.3,.54-5.65-2.27-9.45-5.57-13.38-.77-.93-1.03-2.19-.69-3.35,1.19-4.01,3.47-9.14,2.47-13.21-.08-.33-.02-.63,.16-.91,2.56-3.82,3.15-7.92,1.76-12.3-.96-3.01-3.15-4.1-2.86-7.61,.98-11.76,2.88-23.36,5.69-34.8,1.72-6.97,5.14-16.08,6.8-23.7,1.82-8.3,2.06-16.91,.7-25.85-.71-4.68-.63-8.58,.61-12.65,2.9-9.5,7.45-18.5,13.65-27.01,4.47-6.15,13.26-4.49,13.73-14,.27-5.31-1.69-9.9-4.38-14.07-.44-.69-.51-1.54-.2-2.29l7.38-17.59s.03-.05,.05-.08c.02-.02,.04-.05,.07-.06,.01-.01,.02-.02,.03-.02h0c.07-.04,.15-.04,.22-.02,.03,.01,.05,.02,.08,.04,.03,0,.05,.03,.07,.06,.02,.02,.03,.04,.05,.07,2.66,5.61,5.36,11.18,8.12,16.72,1.21,2.42,1.76,4.19,.7,6.93-1.35,3.48-2.07,5.84-2.15,7.07-.63,9.79,5.89,9.96,13.4,10.57,.38,.02,.47,.2,.25,.52l-2.42,3.58c-.32,.48-.2,1.13,.28,1.47,5.6,3.92,8.6,13.07,12.29,18.87,3.62,5.68,6.8,9.79,6.44,16.99-.48,9.23-1.31,17.88,.34,27.61,.5,2.97,1.66,7.7,3.46,14.18,4.51,16.22,7.55,31.5,8.74,48.4,.38,5.29-4.86,8.1-4.56,14.1,.14,2.9,1.92,4.82,1.91,7.98-.02,4.93,.65,9.78,2.01,14.56,.09,.31,.04,.66-.14,.95-2.44,3.89-4.91,7.58-4.73,12.29,.21,5.74,4.57,11.95,8.6,16.24,2.75,2.92,2.98,5.9,2.67,9.67,.33,10.3,6.98,15.73,16.48,17.49,9.39,1.74,18.51,2.39,28.27,1.6,8.41-.69,18.7-1.69,26.14-4.67,5.56-2.22,7.71-6.65,6.46-13.27-.8-7.32-6.63-11.36-9.54-16.24-.97-1.64-2.92-5.63-5.85-11.97-3.23-7.02-7.33-13.57-12.29-19.65-.41-.51-.53-1.2-.3-1.82,2.56-6.93,3.25-13.44-2.24-19.28-.23-.25-.32-.6-.24-.93,.69-2.66,2.04-7.58,4.05-14.75,4.8-17.11,5.94-37.31,6.5-56.49,.58-19.4-2.57-38.01-8.58-56.17-1.28-3.87-.79-7.43,1.45-10.69,3.23-4.68,13.54-15.37,6.78-20.81l-.06-.06s-.05-.06-.06-.09c-.02-.03-.04-.07-.04-.1-.02-.05-.03-.1-.03-.15s.01-.11,.03-.16c0-.02,.01-.03,.02-.05,.01-.03,.03-.06,.05-.09,.02-.03,.04-.06,.07-.08,4.46-3.9,.79-10.1-3.07-12.85-.26-.19-.34-.53-.19-.81,4.63-8.73,5.49-17.62,5.38-27.64-.04-3.89-.47-7.13-1.29-9.73-1.88-6.02-1.86-9.37,.04-15.57,.92-3,1.16-7.65,.72-13.95-.27-3.98-.99-9.91-2.16-17.77-1.26-8.5-.46-16.4,.75-24.99,.5-3.54,.73-6.88,.67-10.03-.29-18.11-1.39-29.21-4.02-43.76-.07-.43,.13-.85,.51-1.05,5.72-3.12,11.65-7.95,8.54-15.4-2.03-4.85-6.25-12.36-6.38-16.87-.44-15.24-2.38-28.79-5.84-40.63-2.22-7.64-3.3-12.8-3.24-15.49,.22-8.18,.25-16.37,.09-24.57,.36,.04,.63,.33,.8,.89,1.76,5.66,4.08,12.51,6.96,20.56,10.41,30.69,19.99,61.57,28.73,92.64,.55,1.94,.97,3.82,1.26,5.62,.12,.72-.07,1.46-.52,2.04-1.38,1.78-2.83,3.62-4.37,5.52-3.71,4.62-4.13,8.87-5.83,14.24-1.82,5.7-4.64,11.25-7.2,16.71-1.51,3.22-2.61,6.29,.54,8.1,6.65,3.81,9.85,.64,13.75-4.94,1.64-2.33,3.34-4.62,5.11-6.86,.24-.31,.51-.33,.79-.06l4.7,4.24c.48,.42,.66,1.09,.47,1.71-1.4,4.6-3.23,9.83-2.29,14.59,.01,.04,.01,.06,.01,.1h0c0,.14-.05,.27-.14,.36-.08,.11-.2,.18-.34,.2-1.7,.24-2.93,1.14-3.67,2.68-.15,.32-.41,.46-.77,.41-3.54-.51-12.73,.15-12.15,5.61,.31,2.97,2.92,3.67,5.52,3.78,1.16,.05,1.22,.34,.18,.86-2.59,1.3-5.14,4.67-4.68,7.65,.41,2.6,2.83,3.91,5.49,3.16,10.12-2.86,16.53-3.2,24.14-12,5.56-6.42,13.54-5.47,15.11-16.04,1.98-13.32,5.17-27.71,2.6-41.11-.28-1.51-.36-2.54-.24-3.1,1.15-5.15,1.8-9.9,1.94-14.25,.72-20.86-1.06-41.87-5.32-63.03-6.09-30.28-14.46-59.87-25.11-88.77Zm-36.7-256.75h0c.07-.05,.12-.03,.16,.04,1.34,2.41,3,4.57,5,6.48,.06,.05,.08,.08,.06,.1h0c-.07,.08-.14,.09-.21,.04-2.1-1.77-3.79-3.88-5.07-6.34-.08-.16-.06-.26,.06-.32Zm-27.63-65.27l.17-.27c.04-.06,.09-.07,.14-.02,10.49,9.24,16.44,20.85,17.86,34.84,.08,.78,0,.79-.24,.05-1.13-3.63-2.43-7.36-3.91-11.2-3.18-8.28-7.83-15.89-13.97-22.83-.15-.18-.17-.37-.05-.57ZM80.94,158.74c-.57,1.9-1.72,3.17-3.46,3.8-1.68,.6-1.79,.37-.35-.67,1.29-.94,2.37-2.07,3.25-3.39,.78-1.16,.96-1.08,.56,.26Zm1.1-7.7c-.04,.14-.09,.21-.17,.2h-.01s-.06-.03-.06-.07c.08-1.99,.02-3.98-.17-5.96-.02-.25,.09-.38,.34-.38h.27c.13-.01,.2,.05,.21,.18,.27,2.04,.13,4.05-.41,6.03Zm2.19-74.71l-3.04,14.82c-.13,.65-.24,.65-.32,0-.62-4.96,.59-10.31,3.11-14.9,.28-.51,.37-.48,.25,.09Zm9.99-22.64c-2.53,5.5-6.15,10.19-9.67,15-.36,.49-.44,.45-.25-.13,1.88-5.48,6.53-11.65,9.9-16.37,.08-.1,.09-.2,.03-.3-.04-.08-.09-.16-.13-.24-.04-.08-.03-.16,.01-.24,1.62-2.88,3.57-5.5,5.86-7.87,.16-.16,.32-.17,.48-.03l.2,.17c.06,.04,.07,.1,.02,.17-2.35,3.08-4.82,6.29-6.45,9.84Zm7.7,140.74c-1.68,1.72-2.32,1.4-1.93-.98,.53-3.16,.38-6.28-.45-9.34-.1-.4,.03-.53,.41-.39,.34,.12,.63,.36,.89,.73,1.52,1.46,2.47,3.19,2.84,5.2,.07,.37,.24,.43,.52,.17,1.36-1.32,2.8-2.04,4.33-2.16l-6.61,6.77ZM136.13,14.99c-4.3,.56-8.39,1.56-12.28,3.02-.08,.02-.13,0-.17-.08l-.11-.25c-.05-.14,.01-.29,.14-.34,2.57-1.17,9.85-3.8,12.46-2.65,.36,.15,.34,.25-.04,.3Zm11.76-1.82c-2.5-.17-4.86-.67-7.31,.34-2.78,1.15-6.74,.08-9.91,.52-.01,0-.02-.02-.03-.03l-.03-.25c-.02-.17,.06-.27,.22-.29,2.43-.43,4.87-.62,7.32-.56,3.51,.08,5.93-1.48,9.75,.23,.08,.03,.08,.04-.01,.04Zm13.42-2.38h-.09c-.38,.03-.76,.04-1.14,.04-.72,0-1.44-.05-2.16-.16-.56-.09-.54-.16,.06-.22,1.16-.11,2.18,.32,3.24,.34,.03,0,.06-.01,.09-.01h0Z"
		/>
		<path
			d="M155.74,1.24s-.02,.01,0,.02c1.41,.38,2.48,.19,3.2-.56l-3.2,.54Z"
		/>
		<path d="M76.84,90.13c.01-.1-.12-.1-.39,0h.39Z" />
		<path
			d="M282.08,152.96c-.26-.1-.5-.22-.74-.37-.82-.53-1.54-1.16-2.17-1.9-.45-.54-.67-.45-.66,.26v.91c.02,.24,.15,.39,.39,.44,.62,.11,1.13,.36,1.52,.76,.08,.07,.18,.1,.28,.1l.33-.02c.31-.02,.58,.07,.81,.27,.27,.22,.57,.37,.9,.46,.38,.1,.45-.01,.2-.31-.24-.29-.53-.49-.86-.6Z"
		/>
		<polygon
			points="75.08 168.8 75.1 168.79 75.08 168.79 75.08 168.8"
		/>
		<path
			d="M75.08,168.8c1.58,.04,3.06-.34,4.42-1.14,.1-.06,.12-.14,.06-.23h0c-.05-.11-.13-.13-.23-.07-.28,.16-.6,.32-.96,.48l-.33,.15s-.09,.04-.13,.05c-.19,.08-.38,.16-.57,.23-.17,.07-.34,.13-.51,.18-.09,.03-.18,.06-.26,.08-.09,.03-.17,.05-.25,.07-.06,.02-.11,.03-.17,.04-.1,.03-.21,.05-.31,.06-.22,.05-.43,.08-.63,.08-.03,.01-.06,.01-.08,.01h.01l4.19-1.43-1.1,.37-3.13,1.06h-.02Z"
		/>
		</g>
	</g>
	</g>
</svg>
