<?xml version="1.0" encoding="UTF-8"?>
<svg id="Layer_2" data-name="Layer 2" xmlns="http://www.w3.org/2000/svg" viewBox="0 0 188.86 680.41">
  <defs>
    <style>
      .cls-1 {
        stroke-width: 0px;
      }
    </style>
  </defs>
  <g id="Layer_1-2" data-name="Layer 1">
    <path class="cls-1" d="m188.47,352.99c-1.19-5.03-.87-10.52-2-15.6-.37-3.88-.92-7.66-.81-11.54.39-14.78.55-29.56.5-44.35,0-.79.07-1.78.22-2.99,1.01-8.32.37-17.31.48-25.72.06-4.68-.89-9.3-1.33-14.06-1.93-6.04-4.11-12.03-6.54-17.98-.96-2.36-1.38-7.45-1.35-9.91.12-10.21-.1-16.83-.65-19.84-1.39-7.54-3.39-16.33-1.1-23.8.7-2.27,1.08-4.11,1.14-5.52.61-14.04.21-28.61-12.16-37.91-2.97-2.24-7.21-3.92-10.85-5.57l-7.75-2.76c-8.35-3.69-29.57-12.59-29.59-18.27-.01-3.41-.31-6.8-.89-10.17-.07-.43.13-.81.6-1.15,3.53-2.54,4.3-15.05,4.35-18.62,0-.36.19-.52.54-.48,1.67.18,2.51-.01,3.49-1.45,1.81-2.67,2.88-5.58,3.19-8.73.06-2.23.02-4.42-.12-6.56-.07-.95-.84-1.57-2.32-1.84,0,0,0,0,0,0-.11-.02-.18-.13-.15-.23l3.29-14.41c.43-5.08-1.15-9.39-4.73-12.92-.07-.07-.12-.16-.15-.26-.07-.3.11-.6.41-.68l5-1.18c.36-.08.42-.26.18-.54-1.3-1.51-3.6-2.04-5.46-2.58-.45-.13-.92-.19-1.39-.19h-1.9c-.1,0-.2-.06-.26-.14-.1-.14-.07-.34.07-.45l5-3.68c-.59-.66-1.17-.98-1.74-.97l-8.39-.68c-.07,0-.13-.03-.18-.07-.15-.12-.17-.33-.06-.48.99-1.22,2.24-2.03,3.76-2.44.35-.09.53-.32.54-.68,0-.5-.25-.83-.77-.99-.22-.07-.44-.03-.56.11-.02.02-.02.07-.03.11-.07-.49-.36-.83-.89-1.01-1.83-.62-3.34-.19-4.53,1.29-.01.01-.03.02-.04.02-.16.02-.3-.02-.42-.13,0,0-.01-.01-.02-.02-.06-.07-.05-.18.02-.23.15-.13.27-.28.35-.44.17-.34.06-.5-.32-.48l-2.63.16c-.37.02-.73,0-1.09-.08-1.59-.35-3.19-.22-4.81.41-.72.69-1.61,1.07-2.67,1.12-.17.01-.24-.07-.23-.24l.07-.67s0-.03,0-.05c.04-.13.18-.21.31-.17.94.27,1.51.17,1.72-.32-.36-1.21.84-2.18,3.61-2.91.66-.17.68-.39.05-.65-1.75-.73-3.6-.51-5.55.66-.92.55-1.78.54-2.58-.03-.26-.19-.55-.27-.87-.25-1.69.1-3.11.74-4.27,1.92-.09.09-.19.1-.3.05l-.33-.15c-.26-.13-.52-.12-.78.01l-10.48,5.51s-.09.02-.11-.02c-.03-.04-.02-.1.01-.14,1.07-.83,2.24-1.79,3.49-2.87.28-.25.46-.51.55-.79.09-.31.15-.62.19-.93.05-.41-.11-.53-.5-.36-4.17,1.96-7.8,4.16-8.5,8.43-.04.27-.19.37-.46.29l-.38-.11c-.31-.09-.46-.3-.43-.63.06-.83-.03-1.63-.28-2.42-.1-.35-.06-.67.13-.98l.99-1.58c-.44-.37-.88-.3-1.33.22l-1.64,1.92c-.56.65-.76,1.54-.53,2.37.33,1.18.42,2.37.29,3.57-.03.32-.23.6-.52.73-1.28.58-2.56,1.15-3.83,1.71-.47.21-.78.61-.91,1.21-.07.31.05.46.36.47l.98.04c.11,0,.22.04.31.12.2.18.23.49.05.69-.39.47-.47.99-.24,1.56.13.33.11.64-.06.95-1.71,3.13-2.49,6.19-2.34,9.17.37,7.48.52,12.31.47,14.5-.01.7.37,1.08,1.14,1.13.4.03.65.23.74.62.06.25.07.51.03.76-.06.34-.26.5-.61.49l-.52-.02c-.35,0-.6.14-.76.45-1.26,2.45-.08,5.35.23,7.93.43,3.52,1.92,6.54,3.32,9.68.14.32.38.5.73.53,1.15.11,2.22.5,3.21,1.16.27.17.39.42.38.73-.09,1.99,0,3.59.25,4.79,1.32,6.16,3.03,19.06-.04,24.69-3.46,6.34-18.3,11.45-24.61,13.52l-22.19,8.18-7.48,4.75c-5.89,6.65-8.48,13.42-9.94,21.8l-1.54,21.31-2.78,23.71c-.49,8.64.43,18.11-.78,26.26-1.03,6.96-3.65,13.41-5.02,20.33-1.27,11.78-1.04,26.16.34,36.44.93,6.91,1.4,11.89,1.42,14.94,1.57,9.23,3.29,18.51,3.83,27.87.21,3.71.4,7.42.56,11.11.4,5.02.31,10.08-.26,15.19-.47,4.18-.55,8.36-.25,12.54.39,5.37,4.34,11.33,6.57,16.17,1.64,3.54,5.3,2.23,7.8,4.48.27.25.64.37,1.02.34,1.58-.16,3.05.16,4.4.97.28.16.6.26.93.28,1.57.07,2.94-.42,4.11-1.47.07-.07.17-.1.27-.1.22,0,.39.18.38.4-.14,30.67-.17,52.92-.1,66.77.02,3.91.51,8.11,1.48,12.6.06.25.01.51-.12.73l-2.37,3.94c-.14.23-.19.49-.16.75l.42,3.45c1.02,7.55.72,14.96-.9,22.21-2.09,9.34-3.17,15.22-4.38,23.14l-.65,20.15.16,25.48c.07,10.35.13,20.88.17,31.58,0,.02.08,1.09.23,3.21.1,1.36-.06,2.65-.47,3.87.43,2.39.83,4.87,1.19,7.42.64,4.49,1.3,8.97,1.99,13.45.42,2.74,2.4,4.91,2.16,7.68-.19,2.28.28,4.41,1.43,6.39.17.29.19.6.07.91l-4.6,11.52c-5.53,7.53-9.38,15.61-11.55,24.23-.18,1.77-.36,3.5-.53,5.17-.75,7.15,9.07,6.88,13.17,7.71,1.29,0,2.57.23,3.82.7.31.12.65.16.98.11,9.11-1.41,21.03-2.42,20.54-15.14l-.02-9.03c0-.42.27-.8.68-.91,2.37-.65,4.29-1.9,5.78-3.74,1.98-2.45,1.28-6.41,1.19-9.43-.16-6.95.2-14.01,1.08-21.18.65-4.51,1.32-9.08,2.01-13.7.47-3.12-.89-5.78.35-9.32,1.81-5.2,1.25-13.85,1.14-19.41l.06-2.74.07-2.75.21-41.6c.4-5.08-.14-10.12.57-15.04.28-1.98.51-3.9.69-5.75l.97-5.47c1.37-5.04,2.75-10.12,4.14-15.23.91-3.36,1.21-7.27,2.18-10.91.07-.26.08-.54.02-.81-.24-1.02.27-1.77.39-2.58,2.29-14.25,5.73-28.3,8.71-42.42l2.43-12.49,8.65-43.29c.03-.15.09-.26.19-.33.05-.03.1-.06.16-.07.06-.01.13-.02.21,0,.35.04.56.28.62.71,2.27,16.11,4.54,32.26,6.8,48.42.75,5.39,1.51,10.77,2.26,16.17l3.32,23.27.82,10.6.82,10.61c-.02,1.51,0,3.16.03,4.96.03,1.89,1.29,4.01.49,6.42-.1.3-.12.62-.06.93.75,3.84.66,7.64-.27,11.4.23,4.01-.75,8.12-.73,11.64,0,3.54.05,7.01.14,10.4l.13,21.6c.01,9.36-.39,18.96.42,28.26.23,2.62.42,5.25.59,7.89l1.06,7.8c.41,4.68,1.4,9.2,2.97,13.56.11.33.1.65-.03.97-1.11,2.63-.94,5.16.5,7.59l3.3,7.6c.07,6.08-.78,12.45.06,18.53.26,1.87,1.31,2.6,2.81,3.45,1.78.7,3.67,1.27,5.68,1.68,2.01.42,4.15.7,6.4.84,1.17.07,2.16.7,2.95,1.87.54.79,1.09,1.59,1.67,2.39,1.73,2.41,3.66,4.88,5.78,7.4l2.33,1.76c7.09,3.47,14.56,4.9,22.43,4.3,4.34-.37,7.88-1.79,10.62-4.25.29-6.88-2.01-12.28-6.91-16.21-3.39-3.29-7.02-5.7-9.84-9.47-2.71-3.61-5.48-7.15-8.33-10.64-2.45-3-3.63-6.01-3.53-9.03.93-5.34,1.06-10.52.39-15.55-.16-1.2-.71-2.43-1.64-3.69-.65.09-.93-.05-.84-.43,1.92-8.09,2.12-16.41,2.16-24.58v-21.23s0-23.98,0-23.98l-.03-20.6c.15-1.81.24-3.78.27-5.93.07-5.77,1.69-11.58,2.22-17.29l-.38-13.09-1.52-18.35c-.03-.33.05-.63.24-.9,1.77-2.54,1.4-4.31,2.39-6.59.13-.29.21-.6.24-.92l.36-3.55c.81-4.62,1.69-9.19,2.09-13.91.31-3.55.59-6.77.86-9.66l1.37-22.13.06-37.81c-.06-9.41.49-19.71-.85-28.99-.32-2.21-.26-4.68-.51-6.7-.56-4.52-1.06-9.24-1.51-14.17l-5.25-23.59c-1.28-4.21-2.3-8.48-3.05-12.83-2.53-14.57-3.57-29.25-3.1-44.02.07-2.45.52-4.87,1.35-7.26,1.44-4.18,2.95-8.34,4.53-12.49.02-.05.06-.1.11-.13,0,0,.01,0,.02,0,.03-.02.06-.01.1-.02.04,0,.07-.01.1,0,0,0,.01,0,.02,0,.05.02.1.06.13.11.19.29.29.66.31,1.09.16,3.12,1.86,6.36,2.48,8.66.73,2.68,1.63,5.04,1.63,7.85,0,2-.05,4-.14,5.99-.24,5.11.35,10.03.58,15.06.56,12.18,3.52,24.68,6.88,36.77l5.31,25.12c.45,2.72.72,5.49.79,8.32.06,2.21-.33,4.38-1.16,6.53-1.09,2.82-2.16,5.14-3.21,6.95-1.76,3.06-3.08,4.98-3.35,8.56-.42,5.72-.61,11.45-.57,17.18,0,.63-.1,1.16-.33,1.59-.17,1.93-.21,4.61-.14,8.04.02,1.17.47,1.99,1.35,2.47.27.15.39.38.34.69l-.61,4.41c-.09.63.31,1.23.93,1.4l5.84,1.58c.33.09.61.26.84.51l.36.39c.19-.06.33-.14.42-.23.16-.17.13-.3-.09-.38l-.5-.18c-.18-.07-.25-.19-.2-.38.03-.09.08-.18.16-.25.05-.06.13-.1.23-.12,3.09-.69,6.2-1.42,9.35-2.19,2.05-1.34,2.65-4.04,3.51-5.52,3.64-6.27,5.71-10.38,6.22-12.34.32-1.25.25-2.84-.2-4.75Zm-160.23,9.98c.49,1.85.19,3.51-.88,5-.25.35-.55.41-.92.19-.37-.22-.77-.32-1.21-.31-.3,0-.55-.24-.55-.54,0-.08.02-.17.05-.25.2-.42.3-.86.3-1.32,0-.2-.17-.37-.38-.37,0,0-.01,0-.02,0-.09,0-.17,0-.26.01-.28.01-.52-.18-.58-.45l-1.57-7.51c-.06-.27,0-.52.17-.73.33-.41.45-.86.38-1.37-.06-.43.13-.7.56-.79,1-.21,1.81-.72,2.43-1.53.3-.4.87-.47,1.27-.17.12.09.21.21.27.34,1.3,2.83,1.61,5.76.92,8.78-.08.34-.07.68.02,1.02Zm20.35-102.77c-.59,4.4-1.12,8.66-2.15,13.02-1.12,4.77-2.26,9.53-3.43,14.29-2.11,8.01-3.78,16.18-5.01,24.52-.48,2.98-1.19,5.85-1.39,8.91-.27,4.03-1.17,8.31-.81,12.31.25,2.62-.78,4.99-.41,7.75.05.39-.04.66-.27.8-.16.09-.37.04-.47-.12,0,0,0,0,0,0l-5.95-10.67-3.64-6.23c-.61-2.1-1.4-3.9-1.42-6.1-.17-16.09,1.47-31.99,4.94-47.69.66-3,.94-6.1,1.44-9.1l.46-4.32c-.11-7.79-.16-15.56-.17-23.31,0-4.64.31-8.19,2.01-12.83,2.13-5.81,3.67-11.7,4.61-17.67.29-1.85.76-1.9,1.4-.14,1.25,3.41,2.35,6.99,3.95,10.43,3.72,7.99,6.34,15.15,7.33,24.05.25,7.08-.09,14.45-1.02,22.11Zm124.99,99.37c-.19.29-.29.61-.32.96-.3,3.88-.93,6.25-3.95,8.28-.87.59-1.1.41-.67-.56l1.08-2.44c.35-.79.12-1.7-.55-2.18-.14-.1-.22-.39-.24-.88-.09-2.19-.15-4.39-.2-6.59-.04-2.02.45-3.82,2.93-3.22.32.07.58.3.69.6.36.97.96,1.74,1.81,2.31.31.21.44.49.4.86-.1,1.03-.43,1.99-.98,2.86Z"/>
  </g>
</svg>