<?xml version="1.0" encoding="UTF-8"?>
<svg id="Layer_2" data-name="Layer 2" xmlns="http://www.w3.org/2000/svg" viewBox="0 0 199.54 732.48">
  <defs>
    <style>
      .cls-1 {
        stroke-width: 0px;
      }
    </style>
  </defs>
  <g id="Layer_1-2" data-name="Layer 1">
    <path class="cls-1" d="m198.51,708.77c-1.09-4.69-4.54-9-9.52-9.52-2.25-.23-4.94-1.29-6.64-1.63-5.83-1.17-11.36-3.16-16.6-5.95-3.61-1.93-6.53-5.07-9.72-7.83-2.62-2.27-5.48-5.89-8.57-10.88-2.11-3.43-3.35-6-3.71-7.7-1.63-7.75-2.3-15.58-2-23.51.14-3.65-4.44-2.65-6.77-2.5-.17,0-.26-.07-.28-.24l-.03-.27c-.02-.17.05-.26.21-.29,2.77-.48,5.17-1.63,7.2-3.44-1.5-1.27-2.22-2.27-2.16-3,.15-1.89,1.06-3.22,2.73-3.98.31-.14.53-.41.6-.74.42-1.95.45-3.89.08-5.83-2.8-4.63-2.39-12.17-2.08-16.99l.37-13.39.1-3.27c0-.07.06-.13.12-.13h.01c.08,0,.12.04.12.13-.02.61.06,1.2.25,1.79l.65-7.27.69-4.82,4.61-48.61c.03-.32-.08-.59-.31-.8-.2-.18-.28-.37-.23-.58.43-1.92,1.49-3.42,3.2-4.51.32-.21.56-.48.71-.83.76-1.71.33-2.84-1.28-3.41-.34-.11-.52-.35-.54-.72-.11-2.67,4.86-1.48,3.08-6.3-.57-.45-.96-1.01-1.17-1.67-.09-.28.07-.58.35-.68,4.04-1.31,2.02-6.4,1.7-9.43-.03-.34.07-.63.32-.87,1.31-1.25.61-4.24,1.11-5.83.39-1.25-.22-3.59.12-5.33.77-3.98,1.03-7.73,2.2-11.73,1.02-3.51,1.49-6.68,2.84-10.56,1.24-5.59,2.64-11.16,4.19-16.71,1.82-6.5,3.71-16.89,5.68-31.18,1.47-10.64,3.93-25.94,7.39-45.91l2.66-10.84,6.36-15.27c.19-.44.3-.92.35-1.4.48-5.47.24-11.04-.73-16.71-.29-.28-.4-.88-.33-1.79l-4.12-44.21c-.8-6.97-2.42-13.85-4.85-20.63-2.19-5.13-3.5-9.05-3.94-11.74-.38-2.35-.65-7.45-.8-15.3l.08-22.43c-.85-4.35-1.08-8.67-.7-12.98.29-3.32,1.79-6.55,2.9-9.78,2.78-8.02,4.14-16.12,4.07-24.29-.33-12.39-5.84-23.19-16.64-29.52-2.03-1.18-5.11-2.84-9.25-4.99-6.7-2.55-13.3-5.36-18.06-11-2.55-2.35-4.48-4.39-5.78-6.14-.7-.95-1.07-2.3-1.11-4.07-.1-4.38-.33-8.8-.69-13.25l.34-10.24c.01-.34.12-.65.33-.93,3.83-5.19,4.67-9.99,5.04-16.55.05-.75.19-1.31.43-1.68.49-.73,1.14-.88,1.96-.45,4.56-4.58,5.28-12.55,5.26-18.73-.17-.88-.41-1.29-.71-1.24-.86.15-1.72.38-2.59.69-.34.13-.51.01-.5-.35.04-2.21,1.16-4.08,1.26-6.06.27-5.64.4-11.3.37-16.98-.3-8.19-3.92-14.4-10.87-18.64-1.07-.65-3.03-1.5-5.88-2.53-8.31-3.19-18.79-1.88-27.44,1.64-6.8,3.28-11.56,8.61-14.29,15.99-2.27,8.56-2.18,16.98.27,25.27.1.33,0,.58-.32.73-1.29.64-2.63,1.03-4.01,1.17-.41,2.15-.2,4.83.64,8.04.91,3.48,2.17,7,3.78,10.57.05.12.14.21.22.3.06.07.12.12.18.18.06.05.13.09.2.13.07.04.15.06.22.09.08.02.16.03.24.04.08,0,.16,0,.24,0,.08,0,.17-.03.25-.06.12-.04.23-.08.34-.15.43-.29.86-.38,1.3-.26.33.09.53.3.62.63l1.05,3.92c.16,3.18,1.22,5.86,1.08,8.98-.25,5.27.37,11.01-1.3,16.05-.69,3.44-1.5,6.28-2.45,8.51-1.42,3.34-7.78,6.59-12.86,8.66-.75.4-1.63.88-2.65,1.44-.89.49-1.8.89-2.74,1.22-7.34,2.54-14.71,4.98-22.11,7.33-6.33,2.01-10.55,3.66-12.67,4.97-12.32,7.54-18.88,24.12-19.79,37.82-1.04,7.82-.03,14.6-2.01,23.08-.76,3.78-1.61,7.74-2.56,11.87-2,8.81-2.12,17.81-2.81,26.76-.45,5.84-.21,11.95-1.57,17.71l-.4,13.54c-.49,10.68,3.75,20.06,8.89,29.35l3.39,5.72,7.67,11.56c6.63,9.91,13.28,19.8,19.59,30.01,3.35,5.42,4.56,11.39,3.65,17.91l-2.43,22.69-3.29,25.28c.13,1.63-.08,3.2-.61,4.71l-1.45,12.82-1.58,23.12c-.68,3.97-.33,8.2-.56,11.79-.17,2.61-.14,5.21.07,7.82.09,1.11-.75,2.65-.76,4.02-.05,4.62.79,11.41-.87,15.63-.69,1.74-.21,3.03,1.44,3.87.35.18.38.4.08.67-1.47,1.32-2.47,2.97-2.98,4.95-.05.2-.05.4.01.59.49,1.55,1.38,2.76,2.67,3.64.33.23.36.48.07.76-.81.77-1.73,1.3-2.77,1.59-.11.03-.21.07-.31.11-1.18.52-1.73,1.9-1.21,3.08l1.97,4.52c.15.33.06.58-.26.75-1.41.75-2.46,1.86-3.13,3.32-.15.32-.17.69-.06,1.02.34,1.03.87,1.95,1.59,2.74.19.21.15.38-.11.49l-1.01.45-4.26,13.07c-2.74,10.65-4.56,21.63-5.47,32.94l-1.11,21.19c-.04,14.12.74,28.5-2.23,42.33-.8,3.73-1.08,8.14,2.17,10.78,1.92,1.56,4.43,4.3,6.81,5.01.09.03.17.09.23.17.12.19.07.43-.12.55-3.38,2.33-6.06,2.43-8.03,6.51-2.29,4.76,6.76,16.65,5.46,17.88-.23.21-.36.47-.39.77-.09.77.08,1.45.51,2.05.22.3.33.63.34,1,.15,11.58-1.07,23.34-4.66,34.38-1.01,3.09-2.03,6.31-3.07,9.66.37,1.84.24,3.62-.41,5.35.35,1.08.42,2.59.22,4.53-.55,5.36,2.62,7.24,7.08,8.63,10.08,3.16,20,3.57,29.77,1.24,1.71-.41,4.96-2.36,5-4.74.19-9.81-1.63-19.29-1.61-28.96l.13-24.01c.49-1.77,1.03-3.44,1.61-5.01.21-.58.25-1.52.11-2.82-.04-.3-.16-.59-.34-.85-.57-.79-.52-1.57.16-2.35,1.21-1.39,2.13-2.7,2.74-3.91.16-.32.2-.66.12-1.02-.79-3.31-.49-5.91.9-7.79,4.02-4.67-5.93-8.42-8.21-10.23-.02-.02-.05-.02-.08-.02-.03,0-.05-.03-.08-.02-.03,0-.05.03-.07.04-.03.01-.06.02-.08.04-.07.08-.16.1-.27.07-.19-.05-.19-.12-.02-.21,2.47-1.22,6.11-1.94,7.59-4.47.16-.26.18-.58.06-.86l-2.66-6.2-3.84-4.49s-.06-.08-.09-.12c-.36-.55-.22-1.29.33-1.65l2.66-1.78c.21-.14.34-.36.36-.61l1.17-14.63,3.04-22.91,3.44-36.68c-.19-7.35,1.56-12.1,5.42-19.08.16-.29.23-.61.22-.94-.15-3.07,1.03-5.48,3.53-7.21.28-.2.47-.51.51-.85l.59-4.78,7.01-23.67c3.01-16.62,6.48-33.13,10.41-49.54l6.53-17.82c1.85-5.69,4.24-10.63,7.15-14.83,1.71-2.47,2.43-2.21,2.15.78-.4,4.14.96,8.33,1.24,11.92.59,7.64,2,14.79,1.87,22.41l-.02,35.62c0,.35-.13.64-.4.87l-.84.72c-.27.23-.43.53-.48.88-.4,3.37,1.52,5.49.53,9.23-.07,3.4-1.27,10.01.87,12.52.23.27.36.6.37.95.06,1.47-.15,2.9-.63,4.29-.11.31-.12.65-.02.97.38,1.23.47,2.44.26,3.64l-.4.83c-.14.3-.37.5-.68.61-1.51.51-1.93,1.58-1.27,3.21.73,1.79.95,3.46.66,4.99-.92,4.96-1.83,9.92-2.74,14.87-.15.79-.43,1.33-.86,1.63.29.24.37.65.23,1.24-1.43,6.05-2.32,12.45-2.67,19.22l.56,23.81-.09,9.3c.44,2.65.67,4.37.69,5.16.11,3.99.22,7.98.33,11.95.02.74.18,1.54.47,2.39,1.82,5.31-4.62,10.64,4.7,11.9.44.06.66.2.66.41,0,.5-.36.93-.85,1-3.2.49-5.74,1.7-7.61,3.63.83,1.05,1.36,1.99,1.6,2.82.03.12.11.19.24.21l.37.04c.19.03.29.14.29.33,0,.18-.08.31-.23.38.09.39.27.73.55,1.04.23.25.35.56.34.91-.16,6.41-.88,12.75-2.16,19.02-.06.29.04.58.25.78.35.32.6.7.76,1.13.09.23.1.49.02.72l-1.37,4.1c-.09.26.05.54.3.63l3.77,1.38c.29.11.51.34.6.64.17.53-.13,1.09-.65,1.25-2.89.88-1.29,4.5-1.53,6.88.11,5.49,0,9.06-.35,10.72-.83,4.07-1.2,7.94-1.11,11.63l-.75,18.71c-.07,1.62,1.14,3.04,2.81,3.31.58.1,1.59,1.1,2.47,1.34,5.19,1.39,10.5,1.87,15.94,1.44l2.64-.23c.31-.03.57-.24.67-.53l.69-2.19c.29-.91.89-1.22,1.8-.91l19.71,6.67c8.48,1.92,17.41,2.6,26.79,2.04,7.69-.41,15.8-1.52,24.33-3.32.39-.08.62-.31.7-.69-.41-4.49-.75-7.32-1.03-8.51Zm-36.74-401.01l.24-.07c.16-.05.27,0,.32.16,1.7,4.78,6.55,19.18,3.29,23.34-.3.38-.47.33-.52-.15l-.45-5.28c-1.08-3.11-1.61-6.56-1.58-10.36l-1.32-7.61s0-.02.02-.03Zm-108.03-25.19l-3.11,27.46c-.12,1.07-.45,1.13-.99.2-1.01-1.77-1.83-3.7-2.44-5.8-.43-1.48-1.35-2.96-1.63-4.61-.21-1.24-.81-1.98-1.04-3.07-2.31-10.99-4.21-18.16-5.7-21.51-2.83-6.35-5.69-12.67-8.58-18.98l-2.04-6.89c-.09-.31-.05-.64.1-.92,2.72-5.03,4.83-9.97,6.32-14.84l4.29-13.61,1.83-9c.21-1.01.52-1.04.95-.11,4.79,10.48,8.57,21.4,11.36,32.76,3.23,13.15,1.59,25.81.68,38.92Z"/>
  </g>
</svg>