<?xml version="1.0" encoding="UTF-8"?>
<svg id="Layer_2" data-name="Layer 2" xmlns="http://www.w3.org/2000/svg" viewBox="0 0 84.53 288.56">
  <defs>
    <style>
      .cls-1 {
        fill: #010101;
        stroke-width: 0px;
      }
    </style>
  </defs>
  <g id="Layer_1-2" data-name="Layer 1">
    <path class="cls-1" d="m66.83,286.67c-6.71,2.79-12.86,2.5-18.45-.87-.12-2.03-.08-3.94.13-5.74.28-2.49.42-4.38.43-5.69,0-4.37.39-8.92,1.14-13.63.17-1.07.02-2.2-.45-3.39-.11-.29-.08-.56.11-.81.59-.79.8-1.66.64-2.59-.05-.32-.22-.56-.49-.72l-1.39-.81c-.31-.18-.47-.53-.41-.88.31-1.75.96-3.36,1.95-4.83.55-.82.44-1.68-.34-2.57-1.11-1.28-.33-3.42-.33-4.53.03-7.88.12-15.75.27-23.62.02-1.03.12-2.07.31-3.12.06-.35,0-.67-.19-.96l-.5-.76c-.18-.27-.1-.64.18-.82.04-.02.08-.04.12-.06l1.84-.66c.31-.11.48-.45.37-.77-.05-.13-.14-.24-.26-.31-.65-.4-1.36-.67-2.13-.81-.41-.07-.56-.31-.47-.72.25-1.01-.05-1.85-.89-2.52-.26-.2-.3-.57-.1-.83.06-.08.15-.14.24-.18.4-.17.81-.25,1.22-.25.34,0,.49-.17.44-.51l-.25-1.68c-.05-.37-.31-.68-.67-.82-1.03-.39-1.64-1.13-1.84-2.2-.07-.39.06-.78.34-1.06l1.55-1.5c.42-.41.44-1.09.03-1.51-.03-.03-.06-.06-.09-.09l-.92-.77c-.25-.2-.37-.46-.36-.78.35-10.6-1.62-20.74-5.91-30.43-.16-.35-.57-.51-.92-.36-.16.07-.29.2-.36.36-3.86,8.9-8.6,20.03-9.32,29.74-.03.36-.18.7-.44.95l-1.56,1.48c-.4.38-.41,1.02-.03,1.41.14.15.32.25.52.29.48.1.96.25,1.45.46.32.14.54.32.66.53.14.26.2.56.18.89-.02.33-.19.54-.51.62l-2.02.49c-.3.07-.49.37-.42.67,0,.03.02.06.03.09.17.41.41.75.74,1.04.31.28.31.55-.02.82-.19.15-.41.24-.66.26-.17.01-.26.1-.29.26-.03.16,0,.29.08.4.21.29.5.46.86.51.65.09,1.15.41,1.51.97.13.2.08.46-.12.6-.07.05-.15.07-.23.07-.64.03-1.1.33-1.38.91-.05.11-.04.21.05.3l.22.23c.1.1.1.27,0,.37-.02.02-.05.04-.07.05-.38.19-.79.28-1.22.28-.25,0-.39.13-.42.38-.05.4.09.65.4.74.92.29,1.79.55,2.6.77.45.13.64.42.57.88l-.05.32c-.02.19-.2.33-.4.3,0,0,0,0,0,0l-1.49-.19c-.3-.04-.57.16-.61.46-.02.15.02.3.12.42,2.44,2.97,4.11,6.25,5,9.86.88,3.56,1.99,10.81,2.56,16.08.03.35.21.58.54.69,2.66.91,3.55,2.7,2.66,5.37-.38,1.14-1.37,1.75-2.15,2.68-.24.29-.24.57,0,.85,1.84,2.13,3.32,4.48,4.43,7.05,1.13,2.61,3.88,2.96,5,5.7.92,2.25.97,4.57.16,6.97-.21.62-.7,1.11-1.32,1.32-4.07,1.41-8.3,5.69-11.76,8.43-2.85,2.26-2.7,5.02-6.51,7.46-4.93,1.26-9.84,1.48-14.72.66-.01-3.36-.51-6.25,1.74-8.09,1.97-1.61,3.94-3.24,5.91-4.87,3.44-2.86,4.76-11.68,6.18-16.31.24-.79-.09-1.29-1-1.48-.27-.05-.47-.26-.52-.53-.17-.88-.52-1.68-1.04-2.41-.22-.31-.33-.65-.34-1.03,0-1.55-.73-3.04-2.18-4.46-1.05-1.03-1.11-2.21-.16-3.54.17-.23.25-.52.24-.8-.06-1.18-.56-2.11-1.51-2.78-.29-.21-.48-.48-.58-.83-1.07-3.65-1.94-7.23-3.35-10.82-1.33-3.35-2.54-6.74-3.64-10.17-.88-2.74-2.78-3.91-.87-7.37.16-.27.06-.62-.21-.78-.1-.06-.22-.08-.34-.07-1.27.11-1.94-.54-1.99-1.94-.06-1.49-.3-2.94-.73-4.37-.11-.38-.08-.74.11-1.08l1.76-3.12c.2-.35.18-.69-.07-1.02l-.32-.43c-.2-.27-.33-.56-.38-.89-.19-1.12.04-2.15.7-3.08.18-.26.27-.55.28-.86.23-12.94.64-23.65,1.21-32.13.27-3.87,1.27-7.84,1.45-12.36.1-2.61.97-5.05.44-7.52-.63-3-1.75-5.82-3.36-8.45C5.7,122.39-1.4,109.56.24,100.68c1.14-6.22,2.25-12.44,3.34-18.66.07-.38-.03-.7-.3-.97l-.23-.23c-.25-.25-.33-.54-.24-.88,1.89-7.37,3.87-14.7,5.96-22,.6-2.06,1.32-3.35,3.29-4.46,4.8-2.69,10.12-3.84,14.7-5.8,2.11-.91,4.23-1.79,6.35-2.66,3.57-1.45,1.12-13.46.18-16.29-.11-.33-.37-.59-.7-.7l-1.21-.37c-.29-.09-.51-.27-.67-.53-2.3-3.75-1.02-5.51-.38-8.86.06-.34.03-.67-.09-.98-1.25-3.11-1.22-6.39.07-9.82C32.84.76,42.91-2,48.8,1.56c.31.19.69.25,1.05.17l.99-.22c.28-.07.51,0,.7.23,1.43,1.65,2.65,3.43,3.66,5.33,1.95,3.66.95,8.38.17,12.27-.07.35.05.62.36.79l.59.33c.27.15.42.38.46.69.4,2.88-.64,4.94-3.13,6.17-.32.16-.53.41-.63.76-1.05,3.64-1.63,7.61-1.75,11.9-.08,2.88.68,4.25,3.29,5.66,6.66,3.6,13.53,6.27,20.51,9.16,1.72.71,2.27,3.89,2.64,5.47,1.57,6.81,3.08,13.62,4.53,20.45.07.29.2.55.39.77.17.19.25.41.26.67.01.27-.11.46-.36.56l-.97.37c-.34.14-.55.49-.49.86.33,2.18.63,4.36.9,6.54.63,5.09,2.76,11.27,2.54,15.88-.39,8.42-7.06,19.94-11.99,28.84-1.11,2-1.95,5.49-2.54,10.47-.25,2.14-1.93,6.41-1.32,8.26,1.23,3.72,1.37,7.44.42,11.17-.56,2.17-.62,5.55-.67,7.87-.13,5.73-.25,11.47-.34,17.2-.03,1.73-.58,2.59-2.19,3.1-.42.13-.44.3-.05.51,3.26,1.72,3.11,5.69.13,7.56-.18.12-.23.36-.11.54.04.07.11.12.18.15,1.3.48,2.61,1.18,2.89,2.68.27,1.48-.23,2.48-1.52,3.01-.34.14-.5.52-.36.86.07.18.22.31.4.37,1.18.39,1.63.96,1.59,2.25-.21,8.38-1.07,16.69-2.58,24.93-.19,1.04-.61,1.56-1.18,2.42-.18.27-.11.64.15.82,1.39.96,1.86,2.31,1.41,4.05-.06.24-.21.45-.41.6-.32.23-.68.37-1.09.41-1.09.11-1.77,1.22-1.51,2.46.09.45.31.88.61,1.24.61.71,1.1,1.5,1.45,2.36.31.75.09,1.3-.64,1.64-.59.27-1.2.38-1.84.33-.38-.03-.57.14-.58.53v.52c0,.3-.11.58-.3.8-.39.43-.58.94-.58,1.52,0,.38.13.68.42.9.2.16.42.28.67.36.36.13.57.38.64.75.07.46.01.9-.19,1.32-.14.31-.38.47-.73.48l-.53.02c-.76.02-1.36.65-1.34,1.42,0,.19.05.38.13.55.31.66.73,1.27,1.25,1.82.23.25.35.56.36.89.06,5.55.58,9.42,3.75,13.84,1.78,2.47,1.93,5.29.46,8.48Z"/>
  </g>
</svg>