<?xml version="1.0" encoding="UTF-8"?>
<svg id="Layer_2" data-name="Layer 2" xmlns="http://www.w3.org/2000/svg" viewBox="0 0 83.02 359.09">
  <defs>
    <style>
      .cls-1 {
        stroke-width: 0px;
      }
    </style>
  </defs>
  <g id="Layer_1-2" data-name="Layer 1">
    <path class="cls-1" d="m77.83,342.99c2.12-1.08,2.02-4.84,2.36-6.93.37-2.34,1.37-3.98,2.54-5.93.39-.64.39-1.45,0-2.09-2-3.3-2.58-8.03-7.01-8.76-.05,0-.09-.02-.14-.03-.5-.16-.77-.7-.61-1.21.77-2.35,1.29-4.56,1.43-7.14.53-9.76.64-16.65.33-20.68-.88-11.15-4.13-20.19-7.05-30.22-1.83-6.29-.45-12.83-4.74-18.2-1.6-2-1.91-2.63-1.67-5.08.99-10.39.85-20.65.99-31.07,0-.34.08-.66.25-.95.85-1.5-.95-3.14-1.58-4.51-.16-.33-.2-.68-.11-1.04l4.66-20.32c.06-.23.02-.47-.11-.66-.88-1.37-1.3-2.33-1.25-2.86.21-2.65-.02-5.29-.68-7.92-.08-.32-.01-.66.17-.93,2.11-3.08,2.28-5.29,3.2-8.8.93-3.53,2.87-5.46,3.03-9.46.16-3.92,1.07-6.63,1.6-10.17.46-3.07,1.93-5.92,2.32-9.06.65-5.39.71-10.96.16-16.69-.21-2.15.51-4.03.34-6.26-.16-2.15-.18-3.69-.06-4.61.77-5.87,1.3-11.77,1.6-17.69.53-10.82-2.47-20.5-9-29.04-2.55-3.33-4.74-5.39-6.59-6.18-4.11-1.76-7.86-4.13-11.24-7.12-.27-.24-.44-.53-.52-.88-.47-2.02-1.41-3.78-2.83-5.27-.23-.25-.33-.54-.3-.88,1.07-9.9,7.44-16.08,1.25-26.45C40.99-4.78,17.95-1.72,16.43,13.71c-.17,1.81-.38,3.13-.61,3.94-.63,2.2-1.74,4.3-1.31,6.78.23,1.36,1.34,2.55,1.4,4.04.16,4.29,1.3,18.45,7.19,18.24,1.49-.05,1.65.38.48,1.31-2.31,1.83-4.93,3.01-7.86,3.54-.17.03-.33.09-.48.17-.75.42-1.02,1.36-.6,2.1,1.59,2.88,5.07,7.03,4.07,10.37-2.85,9.49-4.89,18.09-5.91,28.54-.89,9.18-1.97,18.34-3.25,27.48-.62,4.36-.14,8.5-1.08,13-1.25,6.01-3.6,14.92-2.09,20.08,1.62,5.52.17,10.54-.16,15.99-.69,11.26-2.97,23.63.24,34.7,4.8,16.5,7.95,33.52,11.5,50.33.65,3.08.72,5.04,3.96,6.36.36.15.43.38.22.71-2.41,3.56-1.7,6.24,2.15,8.03.24.11.4.32.44.57.49,2.9.74,5.31.76,7.23.1,9.25.22,18.5.35,27.75.03,2.03.49,4.75,1.39,8.16.08.31.02.64-.18.9-.49.65-1.1,1.16-1.83,1.53-.28.14-.51.38-.65.67-1.27,2.71,1.85,6.08,3.56,8.02.54.61.49,1.53-.1,2.08-1.54,1.44-3.07,2.6-2.31,5.34.09.34.05.67-.12.98-1.87,3.43-10.05,13.03-13.32,13.6-5.09.89-11.53,1-11.79,6.74-.02.34-.1.66-.25.97-.18.35-.26.73-.23,1.14.02.33.19.52.52.57.85.13,1.54.52,2.07,1.16,7.43-.35,14.9-.24,22.4.35,3.26.26,6.56,1.71,10.03,1.81,9.53.25,17.53.03,24-.66,6.59-.7,13.13-1.32,19.62-1.87.75.42,1.38.32,1.89-.3.2-.26.25-.54.14-.85-1.3-3.73-1.7-7.4-3.32-10.99-.22-.5-.02-1.08.47-1.33Zm-26.43-28.68c-1.13-1.18-1.62-2.58-1.45-4.2l1.4-13.91c.02-.21.21-.36.42-.33.13.02.24.1.3.21,1.45,3.06,4.56,8.78,3.71,12.13-.59,2.33-1.1,4.34-1.52,6.02-.41,1.61-1.19,1.82-2.34.62l-.52-.54Zm2.96,20.87c-.7,1.85-1.64,3.21-2.08,3.04-.45-.17-.24-1.81.46-3.66s1.64-3.21,2.08-3.04c.45.17.24,1.81-.46,3.66Zm2.49-9.41c-.01.36-.31.64-.67.63l-2.96-.09c-.36-.01-.64-.31-.63-.67v-.1c.01-.36.31-.64.67-.63l2.96.09c.36.01.64.31.63.67v.1Z"/>
  </g>
</svg>