<?xml version="1.0" encoding="UTF-8"?>
<svg id="Layer_2" data-name="Layer 2" xmlns="http://www.w3.org/2000/svg" viewBox="0 0 216.48 664.5">
  <defs>
    <style>
      .cls-1 {
        stroke-width: 0px;
      }
    </style>
  </defs>
  <g id="Layer_1-2" data-name="Layer 1">
    <path class="cls-1" d="m216.46,637.19c-.01-5.61-2.93-9.28-8.74-11.02-12.61-3.79-21.84-7.37-28.38-18.9-2.92-5.16-6.79-9.54-11.62-13.14-.58-.43-.7-1.24-.28-1.82,3.34-4.68,1.04-11.82-.01-16.95-.06-.29-.31-.59-.75-.92-.27-.2-.42-.47-.44-.81-.16-2.84-.38-5.26,1.33-7.79,1.22-1.81,3.78-4.61,2.49-6.81-1.29-2.2-3.45-4.61-6.46-7.24-.49-.43-.52-.89-.1-1.39,2.25-2.62,5.16-7.08,1.97-10.26-.23-.23-.37-.51-.41-.84-.19-1.57-.27-2.73-.24-3.49.45-12.75.73-25.51.86-38.27,0-.96-.14-1.89-.44-2.8-.11-.32-.32-.56-.61-.71-.3-.15-.48-.38-.53-.67-.06-.33,2.57-4.54,3.02-5.63,2.13-5.15-.51-7.55-4.54-9.96-.05-.03-.11-.07-.15-.11-.41-.37-.45-1.01-.08-1.43,5.52-6.11,5.28-11.54,4.41-19.18-.41-3.55.15-5.91,1.8-9.39,2.6-5.49,4.14-10.53,4.62-15.1,3.16-29.94,6.51-59.86,10.05-89.75.76-6.43,3.67-12.18,6.73-17.79,0,0,0-.01,0-.02.22-.38.7-.5,1.08-.28l3.52,2c.27.15.59.19.88.1.61-.18.96-.81.79-1.42-.2-.67-.25-1.4-.16-2.19.78-6.57,1.67-13.13,2.66-19.68.22-1.47.41-2.95.57-4.43.23-2.1,1.6-5.67.79-8.69-.54-2.03-.82-3.4-.83-4.11-.09-5.2.47-8.14,2.1-14.16,1.06-3.92,1.18-7.9.36-11.94-.84-4.11-.01-7.88-.52-12.04-.58-4.68,3.21-6.92,2.8-10.53-.32-2.82-2.41-4.64-4.36-6.48-.24-.23-.37-.54-.36-.87.03-3.4-.31-6.76-1-10.08-1.09-5.19-.33-10.54-.94-15.77-2.73-23.51-5.83-46.96-9.28-70.37-.12-.83-.55-2.03-1.29-3.6-.14-.3-.37-.55-.66-.72-1.37-.79-2.8-1.47-4.3-2.02-9.91-3.65-19.67-7.7-29.28-12.15-5.73-2.65-5.69-10.97-10.86-12.96-.33-.13-.5-.37-.53-.72-.44-5.71-1.32-11.84.22-17.48.82-2.98,1.53-6.01,2.13-9.09.07-.33.26-.55.58-.65,3.74-1.2,3.93-3.55,5.29-7.65.98-2.93,3.05-13.51-1.51-14.05,0,0-.01,0-.02,0-.24-.05-.4-.28-.36-.53l2.37-12.02c.05-.29.19-.52.42-.7.97-.79,1.03-2.09.18-3.9-.16-.35-.07-.76.23-.99,3.75-2.93,1.44-8.62-2.12-10.6-.09-.05-.14-.14-.14-.24,0-.16.12-.29.28-.3.27,0,.52.05.75.18.04.02.08.03.12.04.21.03.4-.11.43-.32l.1-.59c.07-.43-.11-.63-.55-.58l-4.5.47c-.06,0-.12-.02-.16-.07-.07-.08-.06-.21.02-.28.17-.13.35-.2.55-.22.37-.03.69-.16.96-.39,1.61-1.37,2.3-2.98,2.07-4.84-.39-3.17-2.34-6.83-5.76-7.71-.77-.19-.81-.08-.14.33,3.03,1.86,3.95,4.5,2.76,7.93-.06.2-.22.35-.42.4-.33.09-.66-.11-.75-.43-.49-1.68-.49-3.56-1.54-4.89-2.26-2.83-6.3-2.21-9.18-2.46-.46-.04-.58-.26-.35-.66,1.17-2.1,1.97-4.36.53-6.58-1.96-3.02-4.88-3.77-8.76-2.26-.29.11-.6.15-.9.1-2.46-.41-4.71.05-6.75,1.4-.32.21-.72.27-1.09.17-1.51-.41-1.76,1.21-2.43,2.1-.21.27-.43.29-.68.06-4.24-3.9-10.95-1.08-13.01,3.32-1.19,2.54-2.32,3.36-4.27,5.02-.25.22-.43.49-.53.8-.99,3.06-5.25,7.31-1.01,9.28.14.08.21.23.19.38-.03.21-.22.36-.42.33-5.21-.99-1.46-5.18-1.42-7.89,0-.81-.26-.92-.81-.33-2.97,3.19-3.08,6.49-.31,9.91.22.27.2.53-.05.78-1.88,1.8-3.6,4.33-3.28,7.05.16,1.36,1.18,2.31,1.54,3.71.03.12.11.22.22.26.19.08.42,0,.5-.2.42-.97,1-1.84,1.73-2.62.39-.41.46-.36.21.15-2.67,5.47.45,12.54,2.16,17.95.23.71.02.88-.62.5-.99-.59-1.82-.21-2.49,1.14-2.21,4.46.02,10,1.62,14.35,1.24,3.37,1.61,5.59,5.15,5.87.32.03.5.2.55.51,1.12,7.74,4.89,13.75,2.32,21.55-.1.29-.35.5-.65.56-3.57.61-4.68,3.51-6.55,6.41-1.65,2.55-4.47,4.51-6.73,6.54-3.02,2.7-11.85,5.32-16.5,6.4-7.25,1.69-14.47,3.52-21.65,5.49-5.53,1.52-9.41,2.38-10.42,7.98-5.08,28.11-12.28,51.65-17.13,81.26-1.13,6.9-1.58,17.06-2.87,27.68-.41,3.45-.09,6.73.98,9.84,2.75,8,5.13,14.8,6.38,22.62,1,6.32,1.78,12.48,3.83,18.3,1.22,3.46,2.57,6.83,4.06,10.12.21.48.16.93-.15,1.35-9.4,12.39-19.34,24.27-28.97,36.47-1.61,2.05-3.06,4.06-4.35,6.03-.5.77-.32,1.8.42,2.34,11.67,8.65,24.3,15.57,37.89,20.75.4.15.85.01,1.1-.34l11.42-16.27c.15-.21.35-.37.59-.45.65-.25,1.38.08,1.62.73.23.59.38,1.33.46,2.22,2.31,25.91,3.06,51.87,2.24,77.87-.12,3.82.2,7.61.95,11.36.07.33.04.65-.07.96-.94,2.69-2.34,5.84-2.27,8.72.08,2.67,2.93,4.39,5.04,5.51.3.16.36.38.18.67-2.26,3.47-8,5.39-4.89,10.5.42.69.29,1.25-.38,1.69-2.35,1.54-4.02,3.23-4.99,5.08-1.52,2.87.49,7.14-.11,9.98-3.73,17.77-4.68,35.7-2.86,53.77.68,6.76,2.67,13.06,3.5,19.73.04.33-.09.57-.4.71-2.83,1.26-5.64,2.22-5.77,5.9-.16,4.75,1.17,9.03,4,12.86.2.27.29.58.28.91-.09,3.33-.51,5.56,1.69,8.33.23.29.18.51-.17.65-.27.11-.56.1-.89-.05-.31-.13-.64-.16-.97-.08-4.02,1,.53,8.87,1.82,10.57.2.27.33.58.36.91.32,2.8.03,6.5,2.44,8.4.27.21.38.49.34.83-1.23,10.05-4.35,19.41-9.37,28.07-3.62,5.91-7.35,13.18-6.8,20.31-.12,1.95.46,3.45,1.75,4.5,1.37.19,2.42.78,3.15,1.77.54.15.72.3.55.45,1.61-.08,4.11.2,7.48.84,6.57,1.24,25.95-.49,25.91-11.24-.01-2.83-.17-5.67-.46-8.5-.03-.34.06-.69.25-.97.89-1.29,1.97-2.4,3.22-3.33.27-.2.43-.51.43-.84v-6.38c-.65-8.04-.65-15.26-1.94-24.34-.13-.92.35-2.45,1.44-4.6.15-.29.37-.49.66-.62,6.63-3.01,4.15-9.43-.39-12.64-.3-.21-.29-.41.02-.6,2.75-1.66,5.89-4.45,5.88-7.78-.02-4.24-4.95-5.27-8.12-6.24-.04-.01-.07-.03-.1-.04-.35-.17-.49-.59-.32-.94,4.58-9.28,8.11-17.47,9.3-28.54,1.17-10.85,2.19-21.72,3.08-32.6.21-2.47.31-4.91.3-7.33-.01-5.08-1.21-8.29,1.91-13.11,2.26-3.49-1.34-5.36-3.6-7.07-.02-.01-.04-.03-.06-.05-.43-.37-.48-1.02-.11-1.44,10.85-12.8,10.63-25.19,13.65-41.75,4.47-24.45,10.78-48.29,18.92-71.54.17-.49.29-.47.36.04,2.31,18.01,4.5,36.07,6.59,54.19,1.43,12.48,2,24.95,2.07,37.5,0,.35-.12.64-.37.89-1.07,1.05-2.3,1.97-2.71,3.41-.98,3.38.84,6.46,2.93,8.97.21.26.25.54.1.84-3.67,7.66-4.06,16.6-3.81,25.3.35,12.23,1.35,23.17,2.98,32.84,1.28,7.57,3.99,15.2,8.14,22.89,1.69,3.15-3.64,8.76-4.42,12.3-.29,1.32-.56,2.64-.81,3.96-.64,3.32,2.62,5.71,5.43,6.25.09.02.18.07.25.13.19.19.19.49,0,.67-4.79,4.89-6.68,9.79-.66,15.06.66.57.87,1.28.63,2.12-2.49,8.73-3.78,17.91-3.89,27.55-.03,3.13,1.33,4.93,4.08,5.4,2.87.48,5.69,1.38,8.46,2.69,1.75-.47,4.06-.14,6.95.97.06.02.13.04.19.06.86.21,1.74-.32,1.95-1.18.87-3.66,7.72-.77,9.84-.03.31.11.58.31.77.58,2.11,2.9,3.76,5.09,7.69,6.32,8.67,2.7,17.92,3.9,27.77,3.6,5.38-.16,9.8-.59,13.27-1.29,3.56-1.47,3.22-2.72,3.2-6.51Zm-44.77-394.74c.89,1.57,1.41,3.24,1.54,5.03.02.33-.2.62-.52.69l-.36.09c-.17.03-.33-.07-.36-.23,0-.01,0-.03,0-.04l-.5-5.47c-.03-.36.04-.38.21-.07Zm-23.94-216.7c2.86,1.21,4.22,3.4,4.07,6.58-.02.48-.27.92-.67,1.19l-.7.47c-.15.11-.36.07-.47-.08-.06-.08-.08-.18-.06-.27.74-3.45-1.45-4.81-2.59-7.47-.21-.49-.07-.63.42-.42Zm-54.74,2.44l-3.07,5.43s-.09.07-.13.04c0,0,0,0,0,0l-.04-.02c-.63-.36-.46-1.86.39-3.35l.11-.2c.85-1.49,2.04-2.42,2.67-2.06l.04.03s.06.08.04.13Zm5.95-15.33l-.29.89c-.09.25-.14.5-.17.75l-.13,1.19c-.02.19-.19.33-.38.31-.15-.02-.27-.13-.31-.27-.25-1.21.04-2.25.88-3.12.49-.51.63-.43.4.25Zm-36.47,223.26l-7.78,15.9s-.06.04-.1.02c-.02-.01-.04-.04-.03-.06.41-2.79.57-5.6.5-8.41-.05-1.77-1.2-3.01-3.47-3.73-.5-.16-.54-.39-.12-.7,2.87-2.11,5.71-6.94,2.02-9.94-.29-.23-.34-.51-.16-.83,3.56-6.17,4.79-11.33,6.32-17.68.03-.11.04-.11.05,0,.4,8.47,1.39,16.43,2.97,23.87.11.52.04,1.07-.2,1.56ZM100.6,8.25c1.11-4.13,5.6-5.12,9.55-4.37,1.15.22,1.17.52.06.9-.21.07-.6.05-1.19-.06-.21-.04-.43,0-.62.1l-7.36,3.79c-.42.22-.57.1-.44-.36Zm10.9,1.71l-.09.24s0,.01-.02.01c-4.57-1.95-8.96.39-10.26,4.74-.35,1.16-.63,1.15-.85-.04-.23-1.25.16-2.55,1.17-3.88,2.74-3.62,6.27-2.67,9.89-1.39.16.05.21.16.16.32Zm11-3.9c-.06.09-.15.15-.25.18-2.03.5-3.6-.07-4.69-1.72-.18-.27-.15-.63.07-.87.24-.26.55-.4.94-.43.37-.02.79.15,1.25.5.56.43,1.41,1.02,2.56,1.77.19.12.25.38.12.57Zm7.03.45c-.16.03-.33.03-.5.02l-2.56-.23c-.32-.03-.62-.18-.83-.41-1.29-1.39-2.84-2.38-4.63-2.97-.14-.05-.23-.18-.24-.32,0-.18.06-.32.2-.41.34-.22,4.47-.46,5.45-.71,2.63-.69,4.17.27,4.62,2.88.18,1.01-.5,1.98-1.51,2.15Zm9.92,7.56l-.06.18s0,0-.01,0l-6.43-2.16s0,0,0-.01l.06-.18c.15-.42,1.65-.3,3.36.27l.25.08c1.71.58,2.98,1.39,2.83,1.82,0,0,0,0,0,0Z"/>
  </g>
</svg>