<?xml version="1.0" encoding="UTF-8"?>
<svg id="Layer_2" data-name="Layer 2" xmlns="http://www.w3.org/2000/svg" viewBox="0 0 122.8 335.98">
  <defs>
    <style>
      .cls-1 {
        stroke-width: 0px;
      }
    </style>
  </defs>
  <g id="Layer_1-2" data-name="Layer 1">
    <path class="cls-1" d="m116.37,325.1c-4.27-2.53-8.52-5.11-12.77-7.74-.37-.23-.53-.56-.49-.99.21-2.35.53-4.79.95-7.3.38-2.27,2.68-3.25,3.29-5.42,1.13-3.99-1.71-7.02-4.84-8.89-.66-.39-1.02-1.14-.92-1.91.97-7.45,1.98-14.94,3.02-22.47.63-4.53,3.41-7.83,2.19-12.58-1.18-4.64-1.56-7.8-.51-12.72,1.25-5.86,3.26-12.23,1.75-18.35-.96-3.89-1.74-7.81-2.35-11.76-.55-3.63-1.7-6.96-2.57-10.51-.22-.93-.26-2.25-.13-3.96.19-2.37-.41-4.56-1.82-6.58-1.65-2.37-3.68-3.51-3.97-6.78-.63-7.12-2.93-10.19-5.45-15.66-.14-.31-.19-.65-.14-.98.65-4.07.35-8.06-.9-11.95-.32-.98-.19-1.36.08-2.27,2.91-9.82,4.03-18.83,4.07-29.85.03-8.69-.04-17.38-.19-26.07,0-.3.17-.58.45-.7l5.33-2.25c.65-.28,1-.98.83-1.66-1.87-7.8-3.93-15.72-6.17-23.75-1.84-6.59-4.65-10.85-10.31-13.66-6.43-3.21-12.97-6.61-19.61-10.2-.61-.34-.88-1.08-.61-1.72,2.76-6.7,5.96-15.95,5.37-23.44-.16-2.11.67-3.64,1.38-5.56.96-2.64.41-4.2-.72-6.68-2.32-5.08-3.36-7.15-8.71-9.04-8.22-2.9-17.8-2.45-23.8,4.15-4.53,4.99-4.76,8.56-2.27,14.4.93,2.19.38,3.97.25,6.24-.21,3.39,2.93,5.35,5.05,7.63.23.25.38.54.44.87.37,2.1,1.57,10.84-.21,12.48-5.89,5.43-16.53,10.33-24.34,14.52-2.69,1.45-4.51,3.18-5.46,5.2C6.99,76.94,3.15,86.89.06,97.03c-.18.58.07,1.21.6,1.52l3.28,1.88c.49.29.74.85.63,1.4-1.93,9.52-5.17,17.72-1.68,27.41,4.32,12,10.8,22.91,16.35,34.33,1.14,2.33,1.72,4.22,1.73,5.66.06,5.91.3,11.81.72,17.72.25,3.51-.76,6.04-2.18,9.08-.12.26-.13.55-.02.81l1.44,3.34c.15.34.21.7.2,1.07-.21,5-.28,11.91-.23,20.73.02,3.21.53,6.09,1.54,8.65.68,1.73.41,2.92.15,4.58-.14.92.28,1.84,1.08,2.34,2.74,1.71,3.84,3.04,4.04,6.43.38,6.65.78,12.53.22,19.65-.66,8.58-.34,16.02,3.37,23.75.7,1.45,1.11,3.53.73,4.86-1.61,5.75-.6,10.81,3.05,15.19.21.26.34.56.38.89.43,3.59.46,7.18.09,10.75-.57,5.46-5.25,10.9-3.59,16.16.1.3.36.5.67.52,4.97.28,9.96.3,14.97.07,3.67-.17,5.65-2.41,5.73-5.89.12-4.99-.09-11.42-.64-19.27-.03-.33-.13-.64-.32-.92-4.22-6.25,4.22-13.01,1.08-16.78-1.57-1.87-2.32-2.57-2.37-5.19-.17-8.59-.34-17.19-.49-25.79-.05-2.65.57-5.72,1.86-9.2,1.61-4.36-2.39-11.21-.79-14,5.7-9.93,7.16-21.61,8.84-32.7.21-1.42.49-1.43.83-.04,2.38,9.91,4.98,18.97,7.81,27.18,1.71,4.95,5.25,6.44,8.24,9.98,1.68,1.99,2.28,3.92,1.8,5.79-.98,3.84-.83,7.17.44,9.99.94,2.08.97,3.15,1,5.25.11,7.53.32,15.06.63,22.61.01.33-.09.65-.28.92-1.57,2.16-3.39,4.29-3.99,6.8-1.66,6.92,1.41,11.13,5.71,16.19.22.26.28.55.18.88-1.84,5.87-2.75,11.89-2.74,18.06,0,.55.38,1.02.92,1.14,13.7,3.04,26.34,6.09,41.17,4.88.33-.03.51-.21.54-.55.4-5.12-1.96-7.43-6.39-10.06ZM28.55,128.59c-.52,3.52-2.3,6.08-4.26,9.13-2.39,3.72.12,7.1,1.18,10.7.06.18-.04.37-.21.43-.13.04-.28,0-.37-.1-1.27-1.43-2.23-3.17-2.88-5.23-2.43-7.76-4.86-15.37-7.28-22.83-.29-.9-.26-1.88.1-2.76,1.74-4.27,3.3-9.47,6.57-13.04.26-.28.7-.3.99-.04.06.06.11.12.15.2,3.19,6.32,7.07,16.34,6.01,23.54Z"/>
  </g>
</svg>