<?xml version="1.0" encoding="UTF-8"?>
<svg id="Layer_2" data-name="Layer 2" xmlns="http://www.w3.org/2000/svg" viewBox="0 0 225.8 832.1">
  <defs>
    <style>
      .cls-1 {
        stroke-width: 0px;
      }
    </style>
  </defs>
  <g id="Layer_1-2" data-name="Layer 1">
    <path class="cls-1" d="m128.62,425.11h-31.22c-.27,4.11.03,8.26-.95,12.08-1.26,4.91,0,9.87-.99,14.59-1.51,7.22-.61,14.42-.8,21.61-.09,3.35.72,6.72.89,10.09.17,3.32.04,6.66.04,10,0,3.5-.63,7.15.14,10.47,1.41,6.05.65,12.09.82,18.12.18,6.16.22,12.34-.03,18.5-.14,3.43-1.35,6.84-1.71,10.2-.45,4.15-2.57,7.92-2.22,12.15-2.02,2.39-.72,5.49-1.78,8.25-1,2.61-.24,5.92-.21,8.92.03,2.4-.1,4.74.88,7.13.81,1.98-.05,4.3.94,6.61,1.08,2.54.78,5.66,1.19,8.51.2,1.38.72,2.71.95,4.09.24,1.39-.52,3,1,4.11.16.12.06.64.02.97-.46,3.28.79,6.39.97,9.59.18,3.16.04,6.33.04,9.5s.13,6.34-.04,9.5c-.13,2.54-.63,5.06-.96,7.59-.31,2.37.66,4.85-.93,7.14-.47.67-.07,1.95-.07,2.95,0,18.83-.15,37.67.1,56.5.06,4.67.56,9.42,1.08,14.07.56,4.93.79,10.15,2.9,14.74,2.21,4.81,3.58,9.86,5.31,14.8.05.14.34.24.33.36-.27,4.86,3.06,9.66.28,14.57-.07.13-.03.33,0,.49.71,6.09-1.35,12.03-.97,18.08.09,1.38.53,2.76.99,4.08.46,1.3,1.11,2.54,1.73,3.78,2.67,5.29,2.75,7.59,1.38,14.2-.5,2.39-.42,5.01-.06,7.45.42,2.88-.88,5.38-1.18,8.09-.24,2.15-2.55,2.87-4.36,2.94-5.32.22-10.68.33-15.99-.05-2-.15-4.45-.6-5.85-2.67-.26-.39-.69-.82-.67-1.2.11-1.96-.96-3.84-.89-5.58.15-3.67-1.24-6.84-2.17-10.17-1.1-3.91-1.05-3.87-.08-8.71.47-2.32.56-4.73.91-7.08.69-4.72,2.74-9.25,2.19-14.14,1.62-2.89.68-6.06,1.04-9.08.28-2.36,1.75-4.81.86-7.05-1.54-3.87-1.33-7.91-.68-11.58.67-3.75.63-7.42.75-11.13.07-2.23.07-4.4-.87-6.63-.84-1.98-.19-4.31-.85-6.61-.66-2.3-.88-4.99-1.25-7.51-.38-2.69-.13-5.63-1.17-8.02-1.04-2.4-.77-4.91-1.73-7.28-.87-2.14-.67-4.7-1.14-7.03-.62-3.05-1.13-6.2-2.32-9.03-.56-1.33-.39-2.51-.66-3.73-.27-1.21-.72-2.38-.97-3.59-1.08-5.22-1.85-10.53-3.26-15.66-.99-3.6-1.4-7.33-2.68-10.87-.74-2.05-.13-4.76-1.23-6.46-1.36-2.1-.16-4.39-1.55-6.43-1.08-1.59-.31-3.92-1.15-5.99-.98-2.43-.45-5.45-1.26-7.99-.77-2.39-.36-4.87-1.03-7.08-.72-2.4-.84-4.72-.86-7.13-.02-2.67,0-5.33,0-8v-7.5c0-2.5-.39-5.08.09-7.48.81-4.05.65-8.18,1.75-12.23.73-2.68.39-5.7,1.1-8.56.65-2.62,1.56-5.27,1.07-8.07,2.42-1.9-.42-5.27,1.99-7.18.08-.06,0-.32.01-.49.37-8.36,1.94-16.75.81-25.06-.58-4.24-.55-8.41-.85-12.61-.13-1.88-.75-3.71-.93-5.59-.19-1.9.36-3.91-1.03-5.58.75-3.47-1.11-6.66-1.06-10.09.02-1.86-.66-3.72-.92-5.59-.24-1.72-.19-3.37-.83-5.15-.82-2.29-.73-5.03-.99-7.54-.52-5.1-1.57-10.11-2.4-15.12-.79-4.75-1.07-9.65-2.68-14.33-.97-2.81-.44-6.1-1.19-9.03-1.25-4.88-.56-10.13-2.92-14.78.47-2.79-.68-5.39-.98-8.09-.28-2.56-1.45-4.08-4.11-4.33-7.41-.7-13.86-4.41-21.04-6.25.53-2.1-.57-4.11.77-5.93,1.18-1.6-.68-4.02,1.37-5.43-.52-4.25,1.32-8.18,2.22-12.12,1.43-6.19,2.43-12.52,4.44-18.61,1.01-3.07,1.54-6.38,2.19-9.57,1.07-5.22,3.08-10.09,4.7-15.09,1.28-3.94,2.7-7.87,4.22-11.74,1.5-3.84,3.84-7.49,4.23-11.75,4.35-7.49,6.53-16.12,11.99-23.03,2.7-7.18,8.02-12.92,11.01-19.94,2.48-2.13,3.17-5.37,4.85-8,1.67-2.62,2.71-5.73,2.98-8.7.29-3.11,1.15-6.53-.79-9.6-.3-.48-.16-1.33-.02-1.97.64-2.99-.78-5.72-1.13-8.58-.33-2.75-1.29-5.54-1.67-8.23-.69-4.87-2.03-9.51-3.24-14.21-1.4-5.41-2.88-10.8-4.39-16.18-.86-3.07-1.86-6.11-3.6-9.05,0,1.28-.11,2.56.02,3.83.64,6.25-1.5,12.35-1.02,18.59-1.92,4.9-1.32,10.27-2.87,15.3-.77,2.51-.27,5.35-1.02,8.08-1.08,3.94-.71,8.2-2.07,12.15-.26.74,0,1.66-.04,2.49-.32,5.36-.1,10.84-1.16,16.05-.98,4.86-1.99,9.76-3.25,14.59-1.5,5.73-3.99,11.05-5.67,16.69-1.18,3.96-3.33,7.62-4.71,11.54-1.64,4.66-3.78,9.1-5.3,13.81-.84,2.6-2.3,5.01-3.31,7.62-3.11,8.05-6.19,16.1-9.08,24.23-.67,1.9-1.92,4.29-1.29,5.78.86,2.06.43,4.09,1.08,6.05.84,2.52,1.77,5.05,1.74,7.8,0,.88.55,1.76.76,2.66.14.62.36,1.36.16,1.91-1.49,4.19-.65,8.83-2.61,12.92-.9,1.87.39,4.25-1.36,5.94.23,4.24-1.79,8.31-.99,12.58.45,2.43-.74,3.99-2.98,5.49-.37-1.14-.95-2.15-.98-3.17-.11-3.83-.08-7.67-.03-11.5.04-3.22.07-6.43-1.44-9.43-.86,2.11-1.52,4.31-2.62,6.26-1.19,2.13-1.29,4.48-1.89,6.72-.32,1.18.21,2.36.84,3.62,3.22,6.37,6.45,12.7,11.85,17.57,1.08.97,1.61,2,1.27,2.93-.76-.76-1.72-1.72-2.99-2.99-1.55,2.18-2.51,3.52-3.4,4.78-9.48-7.77-13.58-18.83-18.21-29.34,1.17-3.22,2.84-6.44,3.49-9.84,1.68-8.76,4.85-17.15,6.09-26,2.22-3.69,2.36-8.01,3.6-12,1.2-3.88,1.86-7.97,2.35-12.02.75-6.21,2.01-12.36,2.18-18.66.04-1.42.9-2.94.93-4.59.03-1.57-.41-3.11.52-4.78.72-1.28.35-3.18.41-4.81.08-1.91,1.37-3.52,1.08-5.6-.24-1.69.18-3.37.74-5.13.79-2.5.51-5.32,1.06-8.05,1.52-7.5,3.04-14.97,5.66-22.18,2.64-7.24,5.6-14.36,7.93-21.73.67-2.12.31-4.26,1.33-6.45,1.22-2.61.26-6.21,1.36-8.92,1.45-3.55.44-7.21,1.62-10.81,1.08-3.32-.37-7.38.35-10.9,1.56-7.54.62-15.08.81-22.61.08-3.35-.72-6.72-.89-10.09-.17-3.32.5-6.78-.2-9.96-.6-2.74-.93-5.4-.79-8.12.11-2.21.75-4.38.92-6.59.17-2.15-.37-4.43.12-6.48,1.07-4.5,2.09-9.14,5.06-12.88,2-2.52,4.82-4.31,7.77-5.31,3.07-1.04,6.13-2.56,9.64-2.21,1.09.11,2.29-.8,3.8-1.39-.47-1.25-1.11-2.35-1.31-3.53-.59-3.57-1.54-7.1-2.28-10.61-.86-4.12-.9-8.15-.61-12.13.26-3.56.48-7.22,1.68-10.74.64-1.86.82-4.06,1.02-6.04.46-4.76,2.11-9.19,3.31-13.7.91-3.42,1.68-6.92,2.78-10.32.96-2.96,1.47-6.08,2.04-9.16.57-3.08,1.51-6.15,1.87-9.18.91-7.6,3.68-14.42,7.12-21.1.96-1.87,1.96-3.62,3.54-5.04,2.91-2.61,5.18-5.97,8.79-7.75,2.77-1.36,5.33-3.24,8.66-3.28,1.53-.02,3.3-1.28,4.54-.83,4.36,1.56,8.77.81,13.13.8,4.33-.01,7.99,1.64,11.47,3.75,6.75,4.09,12.79,13.54,14.94,20.7,1.71,5.71,2.92,11.5,4.14,17.32.75,3.59,1.92,7.27,2.57,10.84.88,4.8,2.12,9.48,3.26,14.2,1.06,4.38,2.19,8.75,3.35,13.11.73,2.74,1.17,5.55,1.81,8.28.99,4.24.71,8.41.82,12.62.19,7.23-.84,14.32-3.45,21.07-.49,1.27.21,1.42.63,1.76.43.35,1.21.47,1.8.4,3.65-.41,6.81,1.33,9.95,2.58,6.81,2.7,10.53,8.07,12.22,15.21.53,2.24.57,4.42.92,6.61.46,2.86,1.02,5.65,1.01,8.59,0,3.26-1.47,6.26-1.14,9.59.33,3.3.77,6.85-.09,9.95-1.36,4.92-.59,9.77-.8,14.63-.2,4.82-.63,9.76.12,14.47.75,4.73.18,9.5.99,14.08.87,4.89.81,9.87,1.87,14.69,1.28,5.79,2.03,11.72,4,17.34,1.33,3.78,2.91,7.46,4.37,11.19,2.12,5.37,3.37,10.98,4.62,16.59,1.2,5.39,2.39,10.75,3.1,16.25.59,4.56,1.35,9.11,2.04,13.66.36,2.37.31,4.86.98,7.07.73,2.4.34,4.85.95,7.1,1.74,6.38,1.92,13.03,3.74,19.42.79,2.79,1.11,5.9,1.6,8.87.46,2.78,1.02,5.63,1.77,8.28.98,3.42,1.6,6.99,2.89,10.28,1.33,3.37,1.79,6.9,2.87,10.31,1.82,5.77,2.26,11.91,4.71,17.55.83,1.9.91,4.09-1.14,5.79-.77.64-1.26,1.82-1.5,2.84-1.27,5.55-3.96,10.4-7.03,15.09-.26.39-.39.88-.72,1.2-1.97,1.94-3.88,3.9-5.33,6.29-.45.75-1.41,1.19-2.66,2.18-.21-2.3-.36-3.99-.57-6.34-1.77,1.45-3.07,2.51-4.35,3.57-.39-.39-.74-.74-1.14-1.14.06-.2.05-.52.21-.64,4.75-3.8,7.1-9.4,10.7-14.02,4.1-5.27,2.86-10.44,1.53-15.83-.7-2.82-1.97-5.5-3.4-9.35-.14,2.2-.26,3.27-.26,4.34-.02,5.17-.17,10.34.07,15.5.1,2.21-1.21,3.92-1.38,5.99-.05.55-1.09,1.02-2.41,2.17.26-3.11-2.81-4.99-.28-7.55-.44-2.2.73-4.49-.73-6.72-.62-.94-.11-2.57-.31-3.86-.19-1.22-.75-2.38-.95-3.59-.47-2.94-1.58-5.87-1.82-8.68-.48-5.64-1.1-11.52.9-17.03,3.17-8.73,1.89-12.29-.67-19.64-2.55-7.29-5.73-14.32-8.76-21.37-3.05-7.07-5.77-14.28-8.91-21.31-3.33-7.44-6.9-14.83-8.93-22.8-.96-3.77-2.99-7.28-2.83-11.33-1.48-1.84-.6-4.09-1.06-6.07-1.39-6-.37-12.11-1.11-18.08-.42-3.38-.7-6.72-.87-10.1-.08-1.54-.64-3.06-.95-4.59-.35-1.69-.68-3.39-1-5.09-.29-1.54.73-3.35-.98-4.61-.16-.12,0-.64-.02-.97-.33-3.86-.23-7.83-1.12-11.56-.89-3.73-.25-7.52-1.05-11.08-.71-3.21-.63-6.38-1.42-9.69-1.14,3.5-2.39,6.97-3.39,10.51-1.22,4.34-1.92,8.86-3.43,13.09-1.27,3.58-1.66,7.31-2.5,10.94-1.24,5.35-2.82,10.68-3.1,16.23-1.61,2.18-.75,4.71-1.03,7.08-.16,1.38-.95,2.73-.91,4.09.13,5.73,1.56,11.03,4.5,16.14,2.47,4.3,4.88,8.65,7.47,12.88,5.76,9.38,10.89,19.12,15.54,29.07,2.4,5.14,4.45,10.48,6.54,15.79,3.45,8.78,6.31,17.74,9.09,26.73,1.01,3.26,1.96,6.54,2.78,9.85.83,3.34.95,6.97,2.36,10.02.98,2.12.19,4.33,1.51,6.41,1.09,1.71.69,4.32,1.18,6.48,1.09,4.87,2.21,9.73,3.53,14.54,1.28,4.69.73,6.31-3.61,8.53-4.31,2.2-9.05,3.13-13.66,4.43-1.66.47-3.38.7-5.08,1.02-1.48.28-2.11,1.12-2.24,2.68-.41,5.09-1.55,10.08-2.15,15.15-.23,1.99-.26,4.23-.96,6.05-.79,2.08-.26,4.29-1.01,6.08-.87,2.09-.25,4.29-1,6.09-.8,1.93-.34,3.89-.94,5.61-1.63,4.66-1.27,9.63-2.81,14.32-.93,2.83-.72,6.03-1.13,9.05-.21,1.55-.75,3.05-.95,4.59-.18,1.41-.47,2.75-.86,4.13-.67,2.39-.71,5.05-.97,7.56-.52,5.1-1.68,10.08-2.41,15.12-.49,3.39.08,6.97-1,10.04-1.17,3.32.04,6.58-.87,9.64-1.3,4.36-.86,8.74-.86,13.11,0,2.2.74,4.38.91,6.59.17,2.15-.78,4.89.23,6.36,1.43,2.09-.45,4.76,1.78,6.31-.4,2.79.56,5.4,1.03,8.08.3,1.7.73,3.38.97,5.09.24,1.72-.52,3.62,1.01,5.09.08.08,0,.32.01.49.73,5.43,1.77,25.47.86,30.06-.54,2.73-.8,5.38-.87,8.11-.07,2.56-1.64,4.93-.99,7.59-2.05,2.38-.45,5.53-1.85,8.25-1.23,2.4-1.16,5.44-1.94,8.17-.77,2.68-1.53,5.46-2,8.13-.77,4.35-2.19,8.47-3.21,12.72-1.45,6.04-3.09,12.04-4.75,18.03-1.2,4.35-2.17,8.77-3.25,13.16-1.56,6.34-2.87,12.74-4.83,18.99-1.12,3.58-1.33,7.43-2.21,11.1-1.09,4.58-1.62,9.26-2.64,13.87-.86,3.92-.77,8.33.08,12.27.64,2.98.86,5.93.46,8.7-.97,6.63-1.24,10.85.12,17.19.1.48.04,1,0,1.5-.2,3.25.27,6.41.95,9.6.64,3.06.98,6.18,1.99,9.18.4,1.2-.06,2.66.11,3.97.13,1.05.8,2.04.93,3.09.46,3.74-1.29,7.14-2.16,10.61-.69,2.73-1.11,5.51-1.77,8.24-.4,1.67.52,3.54-1.23,5.02-1.81,1.54-3.98,1.8-6.1,2.18-1.45.27-2.99.05-4.49.05-2.83,0-5.67.02-8.5,0-1.59-.02-3.28.34-4.59-.99-2.5.75-2.09-1.83-3.11-2.77-.17-.15,0-.64-.03-.97-.33-4.86-.67-9.72-.99-14.59-.02-.33.03-.67,0-1-.91-6.87.2-8.76,2.11-12.79,1.81-3.82,2.7-7.72,2.86-11.81.29-7.05-1.58-13.99-1.03-21.09.23-2.88,1.2-5.52,1.76-8.27,1.34-6.6,4.61-12.44,6.78-18.71.77-2.22,1.69-4.38,1.6-6.87-.06-1.68.61-3.38.92-5.08.27-1.54-.67-3.34.99-4.61.16-.12,0-.64.02-.97.33-5.7.21-11.46,1.11-17.07,1.2-7.54,0-15.17,1.1-22.57.95-6.43.37-12.76.79-19.12.26-3.91-1.48-7.6-1.08-11.59.37-3.8.67-7.78-.09-11.46-.71-3.41-.49-6.76-.89-10.11-.36-3.02,1.06-5.68,1.1-8.59.03-2.72.02-5.37.76-8.14.68-2.51.52-5.38,1.2-8.03.69-2.72.86-5.53,1.84-8.23.74-2.04-.47-4.55,1.16-6.52-.73-3.31,1.06-6.34,1.01-9.59-.05-3.17.57-6.47-.15-9.47-1.06-4.43-.45-9.17-2.7-13.36-.82-1.52-.06-3.3-.9-5.13-1.14-2.5-.95-5.61-1.25-8.47-.38-3.52-.81-7.05-.97-10.59-.17-3.49.02-7-.05-10.5-.08-4.4,1.44-8.63,1.09-13.09-.34-4.31-.79-8.81.09-12.96,1.46-6.9.38-13.76.84-20.62.36-5.36,1.34-10.66,1.04-16.09-.34-6.19-1.66-12.34-1.04-18.58-1.58-3.24-.48-6.78-1.13-10.06-.4-2.03-.93-4-.83-6.4ZM68.3,82.17c-1.28,3.37-1.3,6.93-1.92,10.33-.65,3.55-.59,6.71.07,10.2.65,3.43.45,7.01.95,10.55.49,3.47,2.12,6.44,2.61,10.33,1.17-.91,1.89-1.48,2.59-2.03-.39-.45-.86-.77-.99-1.2-1.43-4.64-2.66-9.33-3.01-14.2-.14-1.96.37-4.15-.34-5.84-1.38-3.26-.19-6.5-.67-9.69,2.07-2.66.49-5.62.72-8.44Zm90.15-.98c-.29-.03-.58-.06-.87-.1,0,1.28-.46,2.81.09,3.79,1.39,2.5.85,5.07.88,7.62.06,4.7-.07,9.36-.83,14.08-.77,4.77-1.78,10.56-4.12,15.3-.1.2.15.58.28.99.75,0,1.53,0,2.32,0,1.45-3.17,2.86-6.36,2.38-9.99,1.91-2.67.4-5.77,1.06-8.55.68-2.85,1.26-5.68.91-8.58-.59-4.86-1.39-9.7-2.1-14.55Z"/>
  </g>
</svg>