<?xml version="1.0" encoding="UTF-8"?><svg xmlns="http://www.w3.org/2000/svg" viewBox="0 0 243.24 928.63"><defs><style>.d{fill:#181816;}</style></defs><g id="a"/><g id="b"><g id="c"><path class="d" d="M243.22,219.83c-2.57-9.27-5.51-18.47-8.81-27.6-2.53-7-4.89-12.36-7.07-16.07-5.02-8.56-13.37-11.16-22.07-14.52-4.37-1.68-6.96-2.25-8.23-7.44-.73-2.97-1.24-5.48-1.52-7.52-.07-.56,.15-.74,.67-.54,.13,.05,.26,.08,.39,.08,.31,.01,.45-.14,.41-.45-.83-6.95-1.38-13-5.22-19.11-3.02-4.8-5.69-9.77-8.01-14.91-.21-.46-.07-.61,.41-.44,.39,.14,.79,.48,1.18,1.02,6.69,9.24,14.75,20.44,14.69,32.45,0,.37-.13,.68-.38,.95-.45,.46-.99,.73-1.64,.82-.13,.02-.2,.1-.19,.23h.01c0,.13,.07,.19,.2,.19,6.79-.12,.98-14.21-.35-17.23-3.58-8.12-10.17-18.32-14.55-29.36-2.42-6.1-4.59-13.69-5.13-19.45-1.91-20.5-3.86-37.16-11.66-55.43-4.08-9.54-9.81-18.19-21.36-18.52-.59-.02-1.02-.17-1.28-.44-.27-.28-.55-.68-.85-1.19C139.44-.53,132.12-.13,126.19,.12c-24.15,1.02-39.88,17.05-48.16,38.81-4.2,11.03-9.91,27.19-15.99,43.21-2.23,5.87-4.34,11.78-6.31,17.73-.06,.19,0,.31,.18,.38l.24,.08s.06,0,.07-.03c2.77-7.39,6.08-14.11,9.93-20.16,.83-1.31,1.19-1.19,1.08,.36-.44,6.13-.9,26.39-6.16,30.22-3.31,2.4-6.38,2.39-9.23-.04-.09-.07-.21-.08-.31-.03-.15,.07-.21,.25-.14,.4,1.69,3.11,4.31,4.85,7.88,5.23,.03,0,.06,0,.09,.01,.63,.12,1.04,.73,.92,1.36-.78,4.2-2.03,12.03,3.95,12.98,.08,.01,.16,0,.23-.04,.18-.1,.25-.31,.15-.49-.28-.53-.69-.93-1.24-1.19-.25-.11-.44-.28-.59-.49-1.75-2.51-1.14-6.87-.6-10.32,.04-.23,.17-.38,.39-.45l4.51-1.42s.05-.01,.08-.01c.09,.01,.16,.1,.15,.19-.55,7.1-1.74,13.85-3.57,20.25-.69,2.4-1.4,3.85-2.14,4.36-3.22,2.2-7.84-.33-10.19-2.82-.36-.38-.51-.31-.45,.21,.33,2.74,2.53,5.25,4.44,7.19,.47,.48,.47,1.24,.01,1.72-.89,.93-2.11,1.47-3.68,1.62-.82,.08-1.33,.03-1.52-.15-.88-.84-1.3-.63-1.26,.64l.11,4.02c.01,.25-.16,.48-.41,.55-5.32,1.41-19.18,4.99-22.07,9.75-3.46,5.71-6.17,11.92-8.39,18.84-4.65,14.49-9.19,28.97-13.62,43.44-.08,.28,.02,.59,.25,.76,2.19,1.61,4.39,3.28,6.61,4.99,3.05,2.37,3.41,7.24,3.47,10.73,.39,21.73,.53,43.46,.43,65.19-.03,6.41-.56,11.31-1.61,14.68-2.52,8.14-5.64,16.36-5.73,24.8-.27,24.41-.48,59.91-.63,106.5-.01,4.07-.2,6.98-.56,8.75-2.41,11.87-4.62,23.78-6.65,35.73-.31,1.83-.15,3.13,.48,3.9,3.2,3.96,5.66,8.32,7.39,13.07,1.09,2.99,2.29,5.97,4.07,7.72,3.04,2.99,6.88,5.38,11.52,7.17,3.08,1.2,7.15,1.85,10.71,2.79,.3,.08,.52,.33,.56,.63,2.95,22.96,4.91,41.12,5.88,54.49,1.47,20.24,1.32,38.11-2.02,56.5-2.3,12.67-4.17,24.23-5.6,34.7-3.07,35.43,.38,71.79,6.23,106.78,2.97,17.77,4.86,29.27,5.67,34.51,.21,1.37,.34,3.31,.39,5.82,0,.34-.13,.61-.41,.81-1.21,.85-2.33,1.73-3.37,2.65-2.19,1.92-.46,7.22-1.34,9.64,.14,.47,.22,.97,.22,1.46,.05,.46,.19,.78,.29,.98,.39,.73,.92,.85,1.22,1.57,0,0,.17,.33,.16,.83-.32,10.89-1.48,22.5-5.05,33.03-2.69,6.75-6.36,14.04-7.81,20.5-.99,4.42-1.5,8.91-1.52,13.48,0,2.12-2.05,4.65-1.97,7.1,.22,6.31,9.73,8.39,14.65,9.17,10.79,1.71,21.54,1.51,32.26-.59,4.01-.79,6.99-1.79,8.94-3.02,6.3-3.97,.08-9.25,.61-14.41,.59-5.69,.9-10.82,.13-16.48-1.16-8.54-.92-17.05,.73-25.53,1.19-6.53,.81-12.98-1.12-19.33-.32-1.06-.36-2.71,.16-3.68,1.62-2.96,2.2-6.29,1.73-9.98-.29-2.26-1.06-2.62-3.27-3.12-2.93-.67-4.61-2.74-5.02-6.22-1.41-11.87-.03-23.32,1.2-34.91,1.78-16.68,3.65-33.35,5.61-50.01,1.96-16.65,1.65-37.59,3.6-56.45,2.16-18.55,6.05-34.85,9.6-52.19,1.48-7.2,2.5-15.17,2.95-21.61,1.73-24.4,4.13-45.32,7.2-62.75,3.7-21.02,7.85-42.02,10.22-63.24,.51-4.58,6.12-5.96,8.64-1.44,2.9,5.19,2.1,11.92,2.81,17.66,3.51,28.04,7.5,55.07,9.09,84.28,.6,10.91,1.16,21.82,1.67,32.73,.24,4.95,.48,9.66,1.42,14.65,2.27,12.1,4.4,24.23,6.4,36.39,1.92,14.31,2.95,25.01,3.08,32.12,.23,11.86,.14,23.91,1.13,35.68,1.8,21.33,4.24,42.59,6.07,63.92,.58,6.82,.93,13.65,1.04,20.49,.11,6.71-.88,9.38-7.17,11.93-.53,.22-.91,.69-1.02,1.25-.75,4.07-.18,7.9,1.71,11.49,.42,.81,.24,2.72-.08,3.78-2.87,9.57-.85,17.73,.27,26.84,.59,4.77,.5,9.7-.27,14.79,0,3.13-.14,6.55-.45,10.24-.21,2.63,.16,5.78,1.12,9.47,.08,.32,.07,.66-.03,.97-1.28,3.9-3.62,8.75-.28,11.38,3.25,2.55,9.55,3.95,13.59,4.64,11.58,1.99,29.33,2.63,40.08-2.96,7.11-3.7,1.51-8.76,1.21-13.66-.32-5.4-1.29-10.65-2.9-15.76-1.84-5.81-6.06-13.54-8.25-20.35-1.32-4.1-2.32-8.85-2.99-14.24l-1.25-14.51s.01-.1,.04-.13c.07-.08,.2-.01,.27-.03,.26-.06-.02-1.35,.11-2.63,.08-.73,.32-1.61,.04-1.75-.1-.05-.24,0-.33-.11-.06-.08-.07-.19-.04-.35,.72-2.99,.96-6,.72-9.03-.19-2.29-2.3-2.99-4.07-3.83-.28-.13-.45-.42-.44-.72,.11-3.05,.42-6.06,.93-9.03,7.74-45.3,15.85-90.4,13.38-136.62-.63-7.57-2.3-21.17-5-40.81-2.53-18.46-1.63-38.57,.83-57.92,3.03-23.8,6.18-47.58,9.45-71.35,.51-3.7,1.06-6.75,1.64-9.16,.32-1.31,.62-1.31,.89,.01,.97,4.75-.65,12.03-1.27,16.92-.32,2.56-.57,6.16,2.95,6.65,.32,.05,.62,0,.9-.16,6.21-3.42,7-8.18,5.65-14.71-.66-3.23,.23-6.05,2.67-8.47,.02-.02,.04-.03,.06-.05,.19-.13,.45-.08,.59,.11l3.98,5.75c.2,.28,.29,.63,.26,.98-.12,1.35-.66,2.44-.54,3.75,.21,2.33,.45,4.77,.73,7.32,.09,.78-.33,1.54-1.04,1.87-3.66,1.73-14.52,5.18-11.56,11.29,.16,.33,.41,.56,.76,.67l1.29,.43c.14,.05,.26,.14,.34,.27,.17,.29,.07,.65-.22,.82-1.41,.85-2.43,2.01-3.04,3.49-.92,2.23,.53,3.95,2.95,3.08,2.28-.82,4.61-1.9,7-3.24,3.12-1.76,13.53-9.96,14.03-13.58,.75-5.46,1.78-10.02,3.1-13.68,.71-1.98,2.2-3.8,3.33-5.6,.38-.6,.52-1.33,.39-2.03-1.48-8.07-4.35-29.98-4.35-29.98-.99-4.15-2.2-9.26-2.94-16.19,0,0-.26-1.36-.26-2.76-.03-32.84-.17-65.68-.41-98.53-.07-8.54-.16-15.28-2.66-23.08-2.9-9.03-4.96-16.19-5.01-25.93-.13-21.5-.07-43,.2-64.49,.08-6.41,1.01-10.79,5.4-14.65,3.35-2.96,6.87-5.61,10.55-7.94,.26-.16,.38-.47,.3-.76ZM23.28,513.1c-2.31,.59-4.02-.21-5.13-2.42-2.9-5.78-1.74-9.55,2.14-14.29,.09-.11,.21-.2,.35-.24,.41-.14,.85,.08,.99,.49,1.57,4.75,1.39,10.77,2.1,15.79,.05,.35-.1,.58-.45,.67Zm11.25,15.14c-.07,.1-.22,.13-.32,.06l-2.4-1.59c-.07-.04-.1-.12-.1-.2l.66-8.83c0-.09,.06-.17,.14-.2l.43-.19s.05-.02,.07-.02c.13-.01,.24,.08,.25,.21l1.31,10.6c0,.06,0,.12-.04,.16Zm1.07-129.63c-1.75,2.37-1.33,5.06-1.62,7.75-.43,4.06-2.33,8.29-2.74,11.82-.6,5.14,.14,11.63-.16,16.99-.6,10.71-1.05,21.14-1.35,31.27-.05,1.61-.36,1.67-.94,.16-3.84-10.04-3.33-19.11-1.43-31.31,1.57-10.01,3.25-20,5.05-29.97,1.46-8.11,3.43-15.72,5.67-23.26,.96-3.2,1.43-3.13,1.4,.21-.01,2.33,.11,5.38,.38,9.16,.13,1.77-3.18,5.73-4.26,7.18Zm9.38-47.84c-.95,1.71-1.23,1.61-.84-.31,2.49-12.11,.14-24.04,1.5-36.51,1.87-17.1,2.94-34.2,4.43-51.32,.04-.51,.16-.53,.37-.06,1.51,3.52,2.76,7.12,3.76,10.79,1.21,4.43,.6,8.96,.4,13.58-.42,10,.89,19.76,3.94,29.29,1.67,5.22-10.07,28.21-13.56,34.54ZM182.34,105.58c-1.68-3.54-2.92-7.23-3.72-11.07-.01-.06,.01-.09,.07-.1l.25-.06c.13-.02,.19-.03,.19-.02,1.53,4.34,3.55,9.2,6.07,14.58,.05,.1,.02,.14-.09,.11-.13-.03-.25-.12-.35-.27-.68-1.06-1.79-1.86-2.42-3.17Zm9.81,29.25l.06-.02h0c.06-.02,.12,.02,.13,.08l2.48,9.07c.01,.06-.02,.12-.08,.13l-.06,.02h0c-.9,.25-2.18-1.58-2.87-4.08l-.06-.23c-.68-2.5-.51-4.72,.39-4.97Zm-1.1,16.63c.04-.25,.19-.39,.44-.44,.74-.14,1.14,.11,1.21,.76,.14,1.33,.62,3.11,1.43,5.34,.35,.93,.08,1.16-.79,.69l-2.45-1.3c-.34-.18-.53-.56-.47-.94l.63-4.11Zm4.65,186.72c-.03,1.17-.16,1.18-.39,.03-3.54-17.29-7.46-34.84-9.18-52.51-.8-8.15,.28-16.01,3.24-23.59,.71-1.82,1.27-3.23,1.68-4.24,.59-1.49,.91-1.43,.95,.17,.36,14.02,1.16,28.08,2.41,42.18,1.24,13.89,1.58,25.29,1.29,37.96Zm19.19,117.58c-1.15,3.76-.96,7.29-.39,10.14h0c-.73,4.62-1.78,8.28-2.34,8.18h-.07c-.33-.07-.42-1.96,.18-8.12-.1-2.58-.24-6.28-.43-10.75-.53-12.44-.88-18.65-.93-19.4-.47-6.83-1.09-13.65-1.87-20.46-.01-.14,.05-.22,.19-.25l.27-.06s.04,.01,.05,.03c3.56,12.79,5.32,26.88,5.57,40,0,.13-.12,.35-.23,.69Z"/></g></g></svg>