<?xml version="1.0" encoding="UTF-8"?>
<svg id="Layer_2" data-name="Layer 2" xmlns="http://www.w3.org/2000/svg" viewBox="0 0 162.62 636.49">
  <defs>
    <style>
      .cls-1 {
        stroke-width: 0px;
      }
    </style>
  </defs>
  <g id="Layer_1-2" data-name="Layer 1">
    <path class="cls-1" d="m162.56,359.31c-10.51-28.67-19.48-57.82-26.91-87.44-.07-.32-.04-.62.11-.91,1.35-2.63,3.4-6.39,6.13-11.28,6.23-11.15,12.27-24.68,18.11-40.58,1.73-4.71,1.86-6.82-.42-11.46-.02-.05-.04-.11-.05-.17-.05-.32.17-.61.48-.65l.46-.07c.3-.05.46-.22.47-.51.09-1.49-.4-2.7-1.47-3.63-.25-.22-.4-.49-.45-.81-.69-4.13-1.94-10.79-3.74-19.97-2.53-12.86-4.54-27.03-6.03-42.5-.47-4.95-1.68-10.95-3.61-18.01-.09-.35.01-.61.31-.8,4.31-2.74,6.96-6.76,7.29-11.97.57-9.08-5.24-14.89-17.43-17.42-.4-.08-.75-.31-.97-.65l-.16-.24c-.21-.31-.13-.45.25-.41,5.8.66,11.46.09,16.98-1.7.21-.07.34-.28.32-.5-.01-.09-.02-.17-.02-.26,0-.01,0-.03,0-.04-.02-.13-.14-.22-.28-.21l-6.56,1.02c-.1.01-.17-.03-.21-.12l-.12-.32c-.03-.08,0-.13.08-.16,2.61-.71,12.63-3.68,7.87-8.39-.17-.17-.4-.22-.68-.15-.36.09-.46.31-.31.65.91,1.98.47,3.41-1.33,4.3-5.87,2.89-12.48,4.24-19.81,4.05-.34,0-.37-.11-.1-.32,4.19-3.07,6.61-6.56,3.26-11.56-2.55-3.81-5.87-4.54-9.57-6.65-.32-.19-.32-.37-.01-.56,1.49-.91,2.97-1.87,4.43-2.87,7.94-5.44,5.53-12.44-1.93-16.89-5.72-3.41-10.6-13.84-12.4-19.89-.25-.86-.06-.98.58-.35,3.66,3.59,7.55,7.07,7.69,12.72.02.75.1,1.36.25,1.83.27.87.53,1.45.78,1.72,1.43,1.57,1.7,1.39.81-.54-1.11-2.39-.41-5.18-1.43-7.65-2.04-4.88-4.96-7.53-8.07-11.13-1.73-2.01-2.1-4.38-3.08-7-2.16-5.79-5.89-9.99-11.2-12.62-4.15-2.05-7.47-1.01-11.54-.84-.34.02-.62-.1-.84-.37-6.3-7.74-13.88-5.16-21.46-1.49-3.07,1.49-5.55,3.53-7.43,6.12-1,1.37-1.64,3.32-2.58,4.94-.3.52-.15.99.06,1.49.15.35.1.67-.13.97-.69.88-1.15,1.87-1.38,2.98-.06.3-.25.57-.51.74-4.33,2.76-7.55,6.49-9.64,11.2-.14.29-.35.55-.61.73-5.76,3.99-11.86,5.08-18.31,3.29-5.49-1.53-9.09-5.13-7.76-11.09.13-.55.03-.59-.3-.13-2.33,3.24-1.58,6.98.88,9.97,3.39,4.14,7.81,5.35,13.14,5.4.13,0,.25.07.31.18.1.18.04.4-.13.51-9.67,5.64-19.3,19.44-7.9,29,.25.21.31.46.19.75-2.22,5.54-1.55,10.04,1.22,15.26.17.33.1.58-.23.76-8.39,4.56-11.32,17.01.19,20.33.35.1.58.33.68.69.61,2.23,1.71,4.21,3.28,5.93.12.14.2.31.21.5.02.45-.32.83-.77.85-3.09.15-5.25-1.21-6.5-4.07-.15-.33-.37-.39-.67-.18l-.26.2c-.25.17-.24.34.02.51.17.11.33.24.48.39.15.16.29.41.4.75,1.37,4.36,5.18,4,8.82,3.04.28-.07.59-.04.84.1.57.3.79,1.01.49,1.58-3.39,6.37-5.09,13.32-5.09,20.85-.01,22.61-1.89,45.07-5.63,67.38-.22,1.32-.78,2.11-1.9,2.73-.29.16-.33.38-.14.65,2.35,3.33.61,3.54.17,6.45-3.26,21.34-4.46,42.76-6.63,64.2-.28,2.74.33,4.84-.77,7.56-3.49,8.63-7.03,17.26-10.62,25.89-.24.57-.29,1.2-.14,1.8l3.61,14.93c.08.33.06.65-.07.97L.09,345.41c-.21.54-.03,1.16.44,1.51,8.42,6.18,15.99,13.26,22.7,21.24.12.14.27.25.44.31,1.11.39,1.62-.08,1.53-1.41-.52-7.77-.83-15.45-.93-23.03,0,0,0-.01,0-.02,0-.42.35-.76.76-.75l1.76.03c.45.01.72.24.79.69,2.72,16.63,5.47,33.35,8.25,50.16,1.87,11.29,2.48,22.76,5.59,33.94,1.8,6.49,3.72,12.6,4.43,19.36,1.29,12.17,4.22,23.9,8.78,35.21,5.23,12.95,10.04,25.99,14.7,39.15,2.46,6.95,4.44,14.05,5.94,21.28,2.3,11.03-.56,20.58-1.64,30.64-.35,3.3-1.03,5.13-2.86,7.61-6.23,8.43-11.68,15.83-11,27,.07,1.11.66,1.7,1.77,1.77,4.15.24,8.01-.65,11.56-2.66.43-.25.61-.12.56.37-.57,5.18-1.82,9.3-1.02,15.3,1.25,3.77,3.37,7.15,6.37,10.12,1.86,2.18,3.73,4.46,6.45,2.53,1.73-1.23,3.27-2.42,4.62-3.58,2.55-2.35,4.7-4.87,6.43-7.56.99-1.53,1.55-3.26,1.68-5.18.37-5.23-1.44-10.16-2.63-15.11-.56-4.56-.94-9.17-1.13-13.83-.07-1.74.38-3.57.4-5.17.09-7.98-.45-17.82,3.09-25.09.35-.72.58-.69.7.1l4.1,27.18c.03.19.13.3.31.34l.3.08c.41.1.59-.06.56-.48-.71-9.76-.67-21.72.12-35.87.24-4.35-1.18-8.5-4.27-12.46-.21-.27-.28-.57-.22-.91.59-3.08,1.31-6.13,2.17-9.15,5.01-17.57,10.9-35.82,14.07-53.24,2.72-14.91,1.03-29.62-.72-44.75-.59-5.05-.32-11.63.81-19.74,2.89-20.84,7.99-41.05,13.33-61.4,0-.02.01-.05.02-.07.11-.25.4-.37.66-.26,1.98.9,3.96,1.84,5.95,2.82,1.74.86,1.91,1.57,1.89,3.4-.04,6.45-.5,12.6-1.38,18.47-.19,1.28.22,1.53,1.25.74,7.79-5.98,15.03-10.94,24.33-14.32,0,0,0,0,.01,0,.57-.21.86-.84.65-1.41ZM25.01,68.51c-.17-.08-.32-.19-.44-.33-8.76-9.43,1.05-19.74,9.24-24.49,4.06-2.35,10.77-3.7,13.9-7.17.41-.46.52-.4.32.18-.67,1.94-1.61,3.29-2.81,4.04-5.77,3.61-10.33,6.57-13.68,8.88-5.01,3.47-7.78,10.15-3.76,15.67.18.25.21.59.07.87l-.81,1.66c-.37.75-1.27,1.06-2.03.69Zm15.13,40.73c.15.16.16.4.02.56l-.2.22c-.17.19-.35.21-.55.05-2.66-2.05-3.78-4.55-3.36-7.49.86-5.93,4.09-9,8.66-12.77.44-.36.52-.29.25.21l-5.88,10.7c-.17.31-.23.65-.19,1,.34,2.82-1.15,5.04,1.25,7.52Zm-10.41-47.11c-.05.09-.1.26-.15.49-.09.43-.37.55-.84.36-.16-.06-.27-.2-.31-.36-1.1-4.59.23-8.23,4-10.92,3.68-2.63,7.26-5.16,10.75-7.58.83-.58.92-.48.28.3-4.68,5.67-10.12,10.77-13.73,17.71Zm3.76,6.28c-.23.71-.72,1.01-1.46.88-1.04-.17-.67-1.36,1.1-3.56.4-.5.68-.39.83.32.08.39-.08,1.18-.47,2.36Zm-3.49,1.51c.11-.22.37-.32.59-.22.08.04.14.09.19.17.57.93.93,1.96,1.09,3.08.05.34.25.65.54.83,1.76,1.13,3.14-1.14,3.76-2.36.61-1.21.91-1.14.89.22-.14,9.18-10.18,5.07-7.06-1.72Zm.29,10.61c.06-.3.35-.51.66-.45l2.05.36c.31.05.52.35.46.66-.02.12-.08.24-.17.32l-2.61,2.51c-.23.22-.59.2-.81-.03-.12-.13-.18-.32-.14-.49l.56-2.88Zm1.54,6.73c2.49-1.49,4.36-3.56,5.59-6.19.17-.36.45-.53.84-.51l2.4.13c.4.02.6.23.6.64,0,.27-.06.54-.17.79-.12.26-.43.38-.69.25-.06-.03-.11-.07-.16-.11l-.78-.83c-.22-.23-.59-.24-.81-.03-.04.04-.08.09-.11.14l-4.64,8.16c-.25.44-.57.5-.96.17-.56-.48-1.01-1.04-1.36-1.69-.21-.39-.12-.69.25-.92Zm3.71,1.14l3.5-4.65c.05-.06.15-.07.21-.02l.03.02c.49.36.1,1.71-.87,3.01,0,0,0,0,0,.01l-.14.19c-.98,1.3-2.17,2.05-2.66,1.68,0,0,0,0,0,0l-.03-.03c-.07-.05-.08-.14-.03-.21Zm-9.37-13.48c.11-.49.3-.52.56-.08,1.07,1.82,2.76,4.09,2.01,6.33-.13.38-.39.52-.78.42-2.35-.61-2.22-4.87-1.79-6.67Zm.29,27.59c-.12.49-.62.8-1.11.68-.16-.04-.31-.12-.43-.24-4.7-4.68-1.17-10.8,3.52-13.55.25-.15.48-.11.68.1l2.33,2.44c.21.22.22.56.02.79-2.46,2.84-4.13,6.1-5.01,9.78Zm10.23,11.2l-.48.24c-.87.43-1.6.26-2.19-.52-1.75-2.31-3.08-4.83-3.99-7.57-.11-.34-.1-.7.04-1.03l2.92-7.01c.07-.16.26-.23.42-.16.12.06.2.18.19.32-.82,5.56-.88,10.24,3.33,14.06.73.67.65,1.23-.24,1.67Zm11.72,96.71c-2.61,9.5-6.48,18.55-10.36,27.38-.58,1.31-.72,1.26-.41-.13,1.33-5.98,1.88-12.85,3.78-18.79,1.15-3.61,3-5.33.67-9.41-.04-.06-.04-.14-.01-.2,2.97-5.71,3.58-13.65,4.57-19.96.25-1.57.4-2.94.47-4.09.05-.93.19-.95.44-.05,2.12,7.82,3.03,17.26.85,25.25ZM57.11,20.86l-9.62,9.95s-.07.04-.1.01c0,0,0,0,0,0l-.02-.03c-.4-.41,1.39-2.93,4-5.63l.22-.23c2.62-2.71,5.07-4.58,5.49-4.19l.03.02s.03.07,0,.1c0,0,0,0,0,0ZM75.29,1.14c3.15-.58,6.06-.03,8.75,1.64.07.05.1.11.07.19l-.1.26c-.03.07-.08.1-.15.08-2.81-.85-5.66-1.49-8.57-1.92-.51-.07-.51-.16,0-.25Zm-14.29,11.39c-.97,1.12-1.76,1.98-2.36,2.57-.61.59-.74.5-.38-.27,3.14-6.82,12.37-13.74,20.29-10.32.43.19.41.3-.05.34-5.98.52-13.93,3.52-17.5,7.68Zm23.7,368.8c-.9,14.32-2.21,26.68-1.16,39.17.73,8.75,2.44,19.2,1.26,26.58-.81,5.13-1.44,10.26-1.88,15.41-.02.24-.23.43-.47.43h-.28c-.11-.01-.17-.07-.17-.19.54-10.89-5.63-20.87-9.07-30.29-.74-2.05-1.12-4.34-1.13-6.88-.07-19.32-.19-38.52.24-57.97.19-8.71.3-17.41.34-26.09,0-.51.43-.93.94-.92.01,0,.02,0,.03,0l11.6.41c.34.01.51.19.51.53.19,15.26-.06,28.53-.76,39.81Zm63.4-272.82c.42-3.12,1.07-3.17,1.96-.16,1.36,4.59.17,8.02-3.57,10.28-1.74,1.05-2.13.68-1.17-1.11.47-.86,1.09-1.87,1.87-3.04,1.22-1.83.7-4.38.91-5.97Zm-12.58-10.94l.14-.27c.05-.09.17-.13.26-.08,3.67,1.62,6.69,4.05,10.14,6.06.29.17.5.45.6.77.91,3.01.89,6.01-.07,9-.57,1.79-.99,1.75-1.24-.11-.9-6.69-4.18-11.81-9.83-15.36h0Zm8.24,15.09c.32.83.04,1.34-.84,1.52-.33.07-.91-.18-1.74-.73-.8-.53-1.89-1.85-3.26-3.94-3.39-5.17-6.22-9.63-12.47-11.56-.75-.23-.73-.34.05-.33,8.18.13,15.44,7.7,18.26,15.04Zm-11.02-4.96v.03c-.05.08-.16.11-.24.07l-10.03-5.24c-.08-.04-.11-.15-.07-.23v-.03c.37-.7,2.9-.09,5.67,1.35,0,0,0,0,.01,0l.31.17c2.76,1.44,4.7,3.17,4.35,3.87Zm-4.72-31.04c5.06.95,6.55,7.27,2.18,10.26-.15.1-.36.06-.46-.09-.04-.06-.06-.14-.05-.22.46-3.39-.24-6.49-2.1-9.3-.37-.55-.23-.77.43-.65Zm.19-25.84c4.2,3.77,5.26,7.8,3.19,12.07-.4.83-.91,1.45-1.53,1.85-.41.27-.55.17-.42-.3.93-3.62.56-7.11-1.13-10.48-.57-1.15-.93-1.99-1.07-2.54-.33-1.28-.01-1.48.96-.6Zm-8.45-4.47h0c.07-.06.14-.05.19.02,4.44,5.43,9.2,9.94,6.93,17.8-.21.71-.59,1.29-1.14,1.73-.25.21-.35.15-.32-.17.77-6.94-2.12-13.39-5.7-19.2-.05-.07-.03-.13.04-.18Zm1.57,21.69s0,0,0,0h-.03c-.07,0-.12-.04-.13-.11,0,0,0,0,0,0l-.77-10.55c0-.07.04-.12.11-.13,0,0,0,0,0,0h.03c1.14-.09,2.24,2.19,2.45,5.1,0,0,0,0,0,0l.02.28c.21,2.9-.54,5.32-1.68,5.41Zm-3.51,2.33c2.7,2.12,11.69,11.21,8.8,14.93-.07.09-.13.08-.19-.01-2.61-4.47-5.18-8.45-7.72-11.92-.33-.44-.71-1.38-1.15-2.82-.11-.34-.02-.4.26-.18Zm11.96,172.96c-.16.39-.36.67-.6.85-.23.18-.57.13-.74-.1-.06-.08-.1-.18-.11-.29-.19-2.95-.86-5.8-2.01-8.56-2.38-5.71-4.82-11.39-7.31-17.05-6.99-15.89.28-41.98,6.42-57.31.3-.75.57-.74.82.03,2.49,7.63,4.8,15.44,6.93,23.41,1.68,6.28,3.52,12.51,5.52,18.69.1.32.06.62-.11.9l-.76,1.27c-.19.32-.18.72.03,1.03.41.59.97.99,1.67,1.21.28.09.44.39.36.68-.02.08-.07.15-.13.21-2,2.13-.81,3.82-1.3,6.25-1.97,9.87-4.87,19.47-8.68,28.78Z"/>
  </g>
</svg>