<svg width="195" height="24" viewBox="0 0 195 24" fill="none" xmlns="http://www.w3.org/2000/svg">
<g clip-path="url(#clip0_1_1907)">
<path d="M40.3094 5.15991V18.6699H37.0194V13.0999H31.8994V18.6599H28.6094V5.15991H31.8994V10.4499H37.0194V5.15991H40.3094Z" fill="black"/>
<path d="M51.7395 14.0803H44.2895C44.3395 14.7503 44.5595 15.2603 44.9295 15.6103C45.3095 15.9603 45.7695 16.1403 46.3295 16.1403C47.1495 16.1403 47.7195 15.7903 48.0395 15.1003H51.5395C51.3595 15.8103 51.0395 16.4403 50.5695 17.0003C50.0995 17.5703 49.5095 18.0103 48.8095 18.3303C48.0995 18.6503 47.3195 18.8103 46.4395 18.8103C45.3895 18.8103 44.4495 18.5903 43.6295 18.1403C42.8095 17.6903 42.1695 17.0503 41.7095 16.2203C41.2495 15.3903 41.0195 14.4103 41.0195 13.3003C41.0195 12.1903 41.2495 11.2103 41.6995 10.3703C42.1595 9.54027 42.7895 8.90027 43.6095 8.45027C44.4295 8.00027 45.3695 7.78027 46.4395 7.78027C47.4795 7.78027 48.3995 8.00027 49.2095 8.43027C50.0195 8.87027 50.6495 9.49027 51.1095 10.3003C51.5695 11.1103 51.7895 12.0503 51.7895 13.1303C51.7995 13.4303 51.7795 13.7503 51.7395 14.0803ZM48.4295 12.2603C48.4295 11.7003 48.2395 11.2503 47.8495 10.9103C47.4695 10.5803 46.9795 10.4103 46.4095 10.4103C45.8595 10.4103 45.3895 10.5703 45.0095 10.8903C44.6295 11.2103 44.3995 11.6703 44.3095 12.2603H48.4295Z" fill="black"/>
<path d="M52.7687 6.3C52.3987 5.96 52.2188 5.54 52.2188 5.04C52.2188 4.53 52.3987 4.1 52.7687 3.76C53.1387 3.42 53.6087 3.25 54.1787 3.25C54.7387 3.25 55.2088 3.42 55.5788 3.76C55.9488 4.1 56.1287 4.53 56.1287 5.04C56.1287 5.54 55.9488 5.96 55.5788 6.3C55.2088 6.64 54.7487 6.81 54.1787 6.81C53.6087 6.81 53.1387 6.64 52.7687 6.3ZM55.8187 7.93V18.67H52.5287V7.93H55.8187Z" fill="black"/>
<path d="M63.2788 8.22953C63.8488 8.53953 64.2888 8.93953 64.5988 9.43953V7.92953H67.8888V18.6495C67.8888 19.6395 67.6888 20.5295 67.2988 21.3295C66.9088 22.1295 66.3088 22.7695 65.5088 23.2395C64.7088 23.7095 63.7088 23.9495 62.5188 23.9495C60.9288 23.9495 59.6388 23.5695 58.6488 22.8295C57.6588 22.0795 57.0988 21.0595 56.9588 19.7795H60.2088C60.3088 20.1895 60.5588 20.5095 60.9388 20.7495C61.3188 20.9895 61.7988 21.1095 62.3588 21.1095C63.0388 21.1095 63.5788 20.9095 63.9888 20.5195C64.3888 20.1295 64.5988 19.4995 64.5988 18.6395V17.1195C64.2788 17.6195 63.8388 18.0295 63.2688 18.3395C62.7088 18.6495 62.0388 18.8095 61.2888 18.8095C60.3988 18.8095 59.5988 18.5795 58.8788 18.1295C58.1588 17.6695 57.5888 17.0295 57.1788 16.1895C56.7588 15.3495 56.5488 14.3795 56.5488 13.2695C56.5488 12.1595 56.7588 11.1995 57.1788 10.3595C57.5988 9.52953 58.1588 8.88953 58.8788 8.43953C59.5988 7.99953 60.3988 7.76953 61.2788 7.76953C62.0388 7.76953 62.6988 7.92953 63.2788 8.22953ZM63.9088 11.3495C63.4488 10.8795 62.8988 10.6395 62.2488 10.6395C61.5988 10.6395 61.0388 10.8695 60.5888 11.3395C60.1288 11.8095 59.9088 12.4495 59.9088 13.2695C59.9088 14.0895 60.1388 14.7395 60.5888 15.2195C61.0488 15.6995 61.5988 15.9395 62.2488 15.9395C62.8988 15.9395 63.4588 15.6995 63.9088 15.2295C64.3688 14.7595 64.5888 14.1095 64.5888 13.2895C64.5888 12.4695 64.3688 11.8295 63.9088 11.3495Z" fill="black"/>
<path d="M78.8293 9.02992C79.5693 9.83992 79.9493 10.9599 79.9493 12.3899V18.6599H76.6793V12.8299C76.6793 12.1099 76.4893 11.5499 76.1193 11.1599C75.7493 10.7599 75.2493 10.5599 74.6193 10.5599C73.9893 10.5599 73.4893 10.7599 73.1193 11.1599C72.7493 11.5599 72.5593 12.1199 72.5593 12.8299V18.6599H69.2693V4.41992H72.5593V9.35992C72.8893 8.88992 73.3493 8.50992 73.9293 8.22992C74.5093 7.94992 75.1493 7.80992 75.8693 7.80992C77.0993 7.80992 78.0893 8.21992 78.8293 9.02992Z" fill="black"/>
<path d="M87.2192 15.8696V18.6596H85.5492C84.3592 18.6596 83.4292 18.3696 82.7592 17.7796C82.0892 17.1996 81.7592 16.2396 81.7592 14.9196V10.6496H80.4492V7.92957H81.7592V5.30957H85.0492V7.92957H87.2092V10.6596H85.0492V14.9696C85.0492 15.2896 85.1292 15.5196 85.2792 15.6596C85.4292 15.7996 85.6892 15.8696 86.0492 15.8696H87.2192Z" fill="black"/>
<path d="M88.6395 8.37957C89.2195 7.32957 90.0095 6.51957 91.0095 5.93957C92.0095 5.35957 93.1295 5.05957 94.3595 5.05957C95.8595 5.05957 97.1495 5.41957 98.2195 6.12957C99.2895 6.83957 100.07 7.84957 100.56 9.13957H98.9795C98.5895 8.22957 98.0095 7.51957 97.2195 6.99957C96.4295 6.48957 95.4795 6.22957 94.3595 6.22957C93.3695 6.22957 92.4795 6.45957 91.6895 6.91957C90.8995 7.37957 90.2795 8.03957 89.8295 8.90957C89.3795 9.77957 89.1595 10.7796 89.1595 11.9196C89.1595 13.0596 89.3795 14.0596 89.8295 14.9196C90.2795 15.7796 90.8995 16.4396 91.6895 16.8996C92.4795 17.3596 93.3695 17.5896 94.3595 17.5896C95.4795 17.5896 96.4295 17.3396 97.2195 16.8296C98.0095 16.3196 98.5995 15.6196 98.9795 14.7196H100.56C100.07 15.9996 99.2895 16.9996 98.2095 17.6996C97.1295 18.4096 95.8495 18.7596 94.3595 18.7596C93.1295 18.7596 92.0095 18.4696 91.0095 17.8796C90.0095 17.2896 89.2195 16.4796 88.6395 15.4496C88.0595 14.4096 87.7695 13.2296 87.7695 11.9096C87.7795 10.6096 88.0695 9.41957 88.6395 8.37957Z" fill="black"/>
<path d="M104.159 18.15C103.369 17.71 102.749 17.08 102.289 16.26C101.829 15.44 101.609 14.49 101.609 13.4C101.609 12.31 101.839 11.36 102.299 10.54C102.759 9.71999 103.389 9.09999 104.189 8.64999C104.979 8.20999 105.879 7.98999 106.859 7.98999C107.849 7.98999 108.739 8.20999 109.539 8.64999C110.339 9.08999 110.969 9.71999 111.419 10.54C111.879 11.35 112.099 12.31 112.099 13.4C112.099 14.48 111.869 15.43 111.409 16.25C110.949 17.07 110.309 17.7 109.499 18.15C108.689 18.6 107.789 18.81 106.809 18.81C105.839 18.82 104.949 18.6 104.159 18.15ZM108.749 17.17C109.339 16.86 109.819 16.38 110.179 15.75C110.549 15.12 110.729 14.34 110.729 13.41C110.729 12.48 110.549 11.71 110.189 11.07C109.829 10.44 109.359 9.95999 108.769 9.64999C108.179 9.33999 107.539 9.17999 106.849 9.17999C106.159 9.17999 105.519 9.33999 104.929 9.64999C104.339 9.95999 103.869 10.44 103.519 11.07C103.169 11.7 102.989 12.48 102.989 13.41C102.989 14.34 103.169 15.11 103.519 15.75C103.869 16.38 104.339 16.86 104.919 17.17C105.499 17.48 106.139 17.64 106.829 17.64C107.519 17.64 108.159 17.49 108.749 17.17Z" fill="black"/>
<path d="M129.099 9.12991C129.879 9.90991 130.259 11.0299 130.259 12.5099V18.6699H128.929V12.6699C128.929 11.5299 128.649 10.6599 128.099 10.0499C127.549 9.44991 126.799 9.14991 125.849 9.14991C124.859 9.14991 124.069 9.47991 123.479 10.1299C122.889 10.7799 122.589 11.7299 122.589 12.9799V18.6799H121.259V12.6799C121.259 11.5399 120.979 10.6699 120.429 10.0599C119.879 9.45991 119.119 9.15991 118.159 9.15991C117.169 9.15991 116.379 9.48991 115.789 10.1399C115.199 10.7899 114.909 11.7399 114.909 12.9899V18.6899H113.559V8.15991H114.909V9.96991C115.239 9.31991 115.719 8.81991 116.329 8.47991C116.949 8.13991 117.629 7.96991 118.389 7.96991C119.299 7.96991 120.099 8.18991 120.789 8.61991C121.479 9.04991 121.969 9.69991 122.279 10.5399C122.559 9.70991 123.049 9.06991 123.729 8.62991C124.419 8.18991 125.189 7.96991 126.069 7.96991C127.319 7.95991 128.319 8.34991 129.099 9.12991Z" fill="black"/>
<path d="M135.16 8.70977C135.88 8.23977 136.75 8.00977 137.75 8.00977C138.7 8.00977 139.55 8.22977 140.32 8.66977C141.08 9.10977 141.68 9.73977 142.11 10.5598C142.54 11.3798 142.75 12.3198 142.75 13.3998C142.75 14.4798 142.54 15.4298 142.11 16.2498C141.68 17.0698 141.08 17.7098 140.32 18.1598C139.56 18.6098 138.7 18.8298 137.75 18.8298C136.76 18.8298 135.9 18.5998 135.17 18.1298C134.44 17.6598 133.91 17.0798 133.57 16.3698V23.6398H132.24V8.15977H133.57V10.4698C133.91 9.75977 134.44 9.16977 135.16 8.70977ZM140.88 11.1298C140.54 10.4998 140.08 10.0098 139.49 9.67977C138.9 9.34977 138.23 9.17977 137.49 9.17977C136.77 9.17977 136.11 9.34977 135.52 9.69977C134.93 10.0498 134.45 10.5398 134.11 11.1798C133.76 11.8198 133.59 12.5698 133.59 13.4098C133.59 14.2498 133.76 14.9998 134.11 15.6398C134.46 16.2798 134.93 16.7698 135.52 17.1198C136.12 17.4698 136.77 17.6398 137.49 17.6398C138.23 17.6398 138.9 17.4698 139.49 17.1298C140.08 16.7898 140.54 16.2998 140.88 15.6498C141.22 14.9998 141.39 14.2498 141.39 13.3898C141.39 12.5198 141.22 11.7698 140.88 11.1298Z" fill="black"/>
<path d="M144.259 10.55C144.689 9.74 145.289 9.11 146.049 8.66C146.809 8.22 147.679 8 148.639 8C149.639 8 150.499 8.23 151.229 8.69C151.949 9.15 152.479 9.74 152.799 10.46V8.16H154.149V18.67H152.799V16.34C152.469 17.06 151.939 17.65 151.209 18.12C150.489 18.59 149.619 18.82 148.619 18.82C147.669 18.82 146.809 18.6 146.049 18.15C145.289 17.7 144.689 17.07 144.259 16.24C143.829 15.42 143.619 14.47 143.619 13.39C143.619 12.31 143.829 11.37 144.259 10.55ZM152.279 11.18C151.929 10.54 151.459 10.05 150.869 9.7C150.279 9.35 149.619 9.18 148.899 9.18C148.159 9.18 147.489 9.35 146.899 9.68C146.309 10.01 145.849 10.5 145.509 11.13C145.169 11.77 144.999 12.52 144.999 13.39C144.999 14.25 145.169 15 145.509 15.65C145.849 16.3 146.309 16.79 146.899 17.13C147.489 17.47 148.159 17.64 148.899 17.64C149.619 17.64 150.279 17.47 150.869 17.12C151.469 16.77 151.939 16.28 152.279 15.64C152.629 15 152.799 14.25 152.799 13.41C152.799 12.57 152.619 11.82 152.279 11.18Z" fill="black"/>
<path d="M158.929 8.49996C159.539 8.13996 160.289 7.95996 161.169 7.95996V9.35996H160.799C159.819 9.35996 159.039 9.61996 158.449 10.15C157.859 10.68 157.569 11.55 157.569 12.79V18.66H156.219V8.15996H157.569V10.03C157.859 9.36996 158.319 8.85996 158.929 8.49996Z" fill="black"/>
<path d="M162.169 5.8902C161.979 5.7002 161.879 5.4602 161.879 5.1802C161.879 4.9002 161.979 4.6602 162.169 4.4802C162.359 4.2902 162.589 4.2002 162.859 4.2002C163.129 4.2002 163.359 4.2902 163.549 4.4802C163.739 4.6702 163.839 4.9002 163.839 5.1802C163.839 5.4602 163.739 5.7002 163.549 5.8902C163.359 6.0802 163.129 6.1802 162.859 6.1802C162.589 6.1802 162.359 6.0802 162.169 5.8902ZM163.529 8.1602V18.6702H162.179V8.1602H163.529Z" fill="black"/>
<path d="M166.259 17.98C165.499 17.42 165.069 16.66 164.979 15.7H166.359C166.419 16.29 166.699 16.77 167.199 17.13C167.689 17.5 168.359 17.68 169.189 17.68C169.919 17.68 170.489 17.51 170.909 17.16C171.329 16.81 171.539 16.38 171.539 15.87C171.539 15.51 171.419 15.22 171.189 14.99C170.959 14.76 170.669 14.58 170.309 14.44C169.959 14.31 169.479 14.16 168.879 14.01C168.099 13.8 167.459 13.6 166.969 13.39C166.479 13.18 166.069 12.88 165.729 12.48C165.389 12.08 165.219 11.53 165.219 10.86C165.219 10.35 165.369 9.87 165.679 9.44C165.989 9 166.419 8.66 166.989 8.4C167.559 8.13 168.199 8 168.919 8C170.049 8 170.959 8.29 171.649 8.86C172.339 9.43 172.709 10.22 172.769 11.22H171.419C171.379 10.6 171.139 10.11 170.699 9.73C170.259 9.35 169.649 9.16 168.879 9.16C168.199 9.16 167.649 9.32 167.219 9.64C166.799 9.96 166.589 10.36 166.589 10.83C166.589 11.24 166.709 11.58 166.969 11.84C167.219 12.1 167.529 12.31 167.899 12.46C168.269 12.61 168.769 12.77 169.399 12.95C170.159 13.16 170.759 13.35 171.209 13.55C171.659 13.74 172.039 14.02 172.359 14.4C172.679 14.77 172.849 15.27 172.859 15.88C172.859 16.44 172.709 16.95 172.399 17.39C172.089 17.83 171.659 18.18 171.109 18.44C170.559 18.7 169.919 18.82 169.209 18.82C167.999 18.82 167.019 18.54 166.259 17.98Z" fill="black"/>
<path d="M176.339 18.1502C175.549 17.7102 174.929 17.0802 174.469 16.2602C174.009 15.4402 173.789 14.4902 173.789 13.4002C173.789 12.3102 174.019 11.3602 174.479 10.5402C174.939 9.72023 175.569 9.10023 176.369 8.65023C177.159 8.21023 178.059 7.99023 179.039 7.99023C180.029 7.99023 180.919 8.21023 181.719 8.65023C182.519 9.09023 183.149 9.72023 183.599 10.5402C184.059 11.3502 184.279 12.3102 184.279 13.4002C184.279 14.4802 184.049 15.4302 183.589 16.2502C183.129 17.0702 182.489 17.7002 181.679 18.1502C180.869 18.6002 179.969 18.8102 178.989 18.8102C178.019 18.8202 177.129 18.6002 176.339 18.1502ZM180.929 17.1702C181.519 16.8602 181.999 16.3802 182.359 15.7502C182.729 15.1202 182.909 14.3402 182.909 13.4102C182.909 12.4802 182.729 11.7102 182.369 11.0702C182.009 10.4402 181.539 9.96023 180.949 9.65023C180.359 9.34023 179.719 9.18023 179.029 9.18023C178.339 9.18023 177.699 9.34023 177.109 9.65023C176.519 9.96023 176.049 10.4402 175.699 11.0702C175.349 11.7002 175.169 12.4802 175.169 13.4102C175.169 14.3402 175.349 15.1102 175.699 15.7502C176.049 16.3802 176.519 16.8602 177.099 17.1702C177.679 17.4802 178.319 17.6402 179.009 17.6402C179.699 17.6402 180.339 17.4902 180.929 17.1702Z" fill="black"/>
<path d="M193.76 9.12991C194.55 9.90991 194.95 11.0299 194.95 12.5099V18.6699H193.62V12.6699C193.62 11.5299 193.33 10.6599 192.76 10.0499C192.19 9.44991 191.41 9.14991 190.42 9.14991C189.41 9.14991 188.6 9.46991 188 10.1099C187.4 10.7499 187.1 11.6899 187.1 12.9399V18.6699H185.75V8.15991H187.1V9.94991C187.43 9.30991 187.91 8.81991 188.54 8.47991C189.17 8.13991 189.88 7.96991 190.68 7.96991C191.94 7.95991 192.97 8.34991 193.76 9.12991Z" fill="black"/>
<path d="M24 0V24H12V13.71H8.57V24H6.86V3.43H3.43V24H0V0H24Z" fill="#FF822C"/>
<path d="M6.85969 3.42969H3.42969V23.9997H6.85969V3.42969Z" fill="white"/>
<path d="M12.0003 13.71H8.57031V24H12.0003V13.71Z" fill="white"/>
<path d="M6.85969 3.42969H3.42969V23.9997H6.85969V3.42969Z" fill="white"/>
<path d="M12.0003 13.71H8.57031V24H12.0003V13.71Z" fill="white"/>
</g>
<defs>
<clipPath id="clip0_1_1907">
<rect width="194.96" height="24" fill="white"/>
</clipPath>
</defs>
</svg>
