<?xml version="1.0" encoding="UTF-8" standalone="no"?>
<!-- Created with Inkscape (http://www.inkscape.org/) -->

<svg
   version="1.1"
   id="svg1"
   width="123.50795"
   height="387.45694"
   viewBox="0 0 123.50795 387.45694"
   sodipodi:docname="4130483_2186946.eps"
   xmlns:inkscape="http://www.inkscape.org/namespaces/inkscape"
   xmlns:sodipodi="http://sodipodi.sourceforge.net/DTD/sodipodi-0.dtd"
   xmlns="http://www.w3.org/2000/svg"
   xmlns:svg="http://www.w3.org/2000/svg">
  <defs
     id="defs1" />
  <sodipodi:namedview
     id="namedview1"
     pagecolor="#505050"
     bordercolor="#eeeeee"
     borderopacity="1"
     inkscape:showpageshadow="0"
     inkscape:pageopacity="0"
     inkscape:pagecheckerboard="0"
     inkscape:deskcolor="#505050">
    <inkscape:page
       x="0"
       y="0"
       width="123.50795"
       height="387.45694"
       id="page2"
       margin="0"
       bleed="0" />
  </sodipodi:namedview>
  <g
     id="g1"
     inkscape:groupmode="layer"
     inkscape:label="1"
     transform="translate(-137.03618,-137.94742)">
    <g
       id="group-R5">
      <path
         id="path3"
         d="m 1816.19,2844.73 c -19.83,-52.54 -39.67,-105.08 -59.51,-157.62 -0.7,-1.87 -1.42,-3.74 -2.12,-5.61 -2.25,35.8 -4.81,71.73 -4.06,108.12 0.66,32.05 0.72,64.57 9.5,95.39 4.18,14.7 10.34,29.01 11.73,44.23 1.76,19.35 -4.31,39.19 0.18,58.09 2.32,9.76 7.29,18.67 10.92,28.01 2.5,-9.5 4.66,-19.62 4.26,-29.28 -2.12,1.44 -4.24,2.88 -6.37,4.33 11.92,-30.8 20.71,-62.8 26.19,-95.36 0.79,-4.66 1.55,-9.47 3.99,-13.52 1.62,-2.7 3.94,-4.98 5.16,-7.87 4.07,-9.6 -5.29,-19.22 -13.62,-25.48 4.58,-1.14 9.17,-2.29 13.75,-3.43 z m -553.32,-49.76 c -3.81,19.58 -6.55,40.74 2.04,58.74 -4.91,0.82 -9.67,2.56 -13.95,5.11 3.03,66.47 15.71,142.76 26.08,212.83 -0.14,-4.57 -0.1,-9.13 -0.33,-13.68 -0.99,-20.3 -2.82,-40.68 -0.75,-60.9 1.44,-14.04 4.74,-27.84 6.27,-41.88 1.93,-17.92 0.94,-36.02 -0.33,-53.99 -3.09,-43.81 -7.85,-87.46 -13.46,-131.02 -1.95,8.25 -3.95,16.48 -5.57,24.79 z m 675.98,295.78 c -5.37,5.77 2.59,14.82 1.61,22.64 -0.45,3.58 -2.76,6.6 -4.32,9.85 -4.79,10.09 -1.27,23.4 7.89,29.79 -9.89,7.02 -13.54,20.2 -13.37,32.34 0.17,12.13 3.42,24.03 4.21,36.15 1.03,15.74 -2.1,31.41 -5.22,46.88 -5.04,24.99 -10.07,49.99 -15.11,74.98 -0.63,3.13 -1.33,6.4 -3.4,8.82 -1.79,2.09 -4.4,3.28 -6.91,4.42 -65.15,29.39 -128.46,62.88 -189.42,100.2 -15.14,9.27 -30.39,18.98 -42,32.42 -11.61,13.44 -19.29,31.32 -16.62,48.89 -4.63,1.4 -9.26,2.81 -13.89,4.22 0.46,19.38 1.28,38.95 7.09,57.41 7.52,23.88 22.86,44.37 34.64,66.46 14.34,26.89 23.42,56.2 32.41,85.31 4.45,14.42 8.94,29.05 9.43,44.13 0.41,12.74 -2.5,24.7 -9.03,35.62 -0.14,0.24 -0.27,0.48 -0.41,0.72 0.05,0.03 0.12,0.02 0.18,0.06 3.76,2.54 3.48,7.6 3.93,11.92 1.34,12.84 -1.58,25.73 -7.42,37.17 -7.27,14.21 -18.56,25.99 -30.82,36.21 -13.97,11.63 -30.09,21.78 -48.14,23.97 -3.7,0.45 -7.44,0.55 -11.11,1.17 -4.85,0.82 -9.5,2.49 -14.15,4.07 -55.01,18.62 -114.6,23.55 -171.93,14.24 -14.42,-2.34 -28.97,-5.67 -41.59,-13.04 2.97,1.56 6.52,-1.84 6.63,-5.19 0.1,-3.35 -1.86,-6.36 -3.38,-9.35 -4.68,-9.23 -5.44,-19.88 -6.11,-30.2 4.91,1.93 8.61,-5.52 6.92,-10.51 -1.69,-5 -5.91,-9.07 -6.52,-14.31 -0.97,-8.42 7.53,-14.72 10.38,-22.72 2.25,-6.32 0.55,-13.87 -4.2,-18.62 1.12,-4.1 3.61,-7.52 6.77,-10.36 -8.07,-21.61 -15.29,-43.6 -22.93,-65.36 -0.88,-2.51 -1.78,-5.19 -1.15,-7.77 0.49,-1.97 1.78,-3.61 2.92,-5.29 7.3,-10.83 8.06,-25.19 4.2,-37.67 -3.87,-12.49 -11.91,-23.31 -21.06,-32.63 -1.14,-1.16 -2.32,-2.34 -2.9,-3.84 -1.45,-3.75 1.33,-7.83 4.51,-10.29 3.19,-2.45 7.05,-4.29 9.14,-7.72 5.26,-8.6 -3.57,-21.51 2.88,-29.25 1.01,-1.2 2.34,-2.19 2.89,-3.65 1.23,-3.24 -1.95,-6.51 -2.14,-9.97 -0.23,-4.31 4.03,-7.37 5.92,-11.25 1.79,-3.71 1.34,-8.06 0.95,-12.15 -1.03,-10.91 -1.28,-21.89 -0.76,-32.82 0.35,-7.47 1.48,-15.75 7.25,-20.5 6.48,-5.35 15.98,-4.03 24.23,-2.42 9.52,1.87 19.04,3.78 28.55,5.74 -3.58,-7.58 -6.09,-15.63 -7.59,-24.16 -1.24,-7.02 -1.79,-14.61 -6.2,-20.21 -2.75,-3.48 -6.7,-5.77 -10.58,-7.92 -64.13,-35.38 -136.62,-52.04 -208.04,-68.29 -1.98,-19.51 -10.83,-38.25 -24.66,-52.16 -6.08,-6.11 -13.77,-13.94 -10.41,-21.88 1.44,-3.38 4.77,-5.92 5.37,-9.55 -8.12,-3.72 -10.29,-14.04 -11.45,-22.9 -6.59,-50.75 -13.18,-101.5 -19.77,-152.25 l 3.33,5.02 c -2.06,-16.84 -3.11,-34.48 -3.33,-54.15 -0.89,-80.46 -3.32,-172.58 -10.87,-252.69 -0.42,-4.47 -0.93,-9.16 -3.53,-12.81 -1.98,-2.77 -4.96,-4.66 -7.21,-7.21 -4.97,-5.64 -5.74,-13.74 -5.97,-21.26 -2.99,-99.93 49.05,-191.92 101.07,-277.71 -0.39,-0.96 -0.64,-1.95 -1.04,-2.9 -2.34,-5.56 -5.05,-11.28 -4.65,-17.3 0.61,-9.07 7.99,-16.05 15.07,-21.73 0.34,-0.27 0.69,-0.51 1.03,-0.77 3.93,-101.47 -16.16,-205.42 -20.06,-307.23 -2.51,-65.4 -3.02,-130.89 -1.53,-196.32 0.65,-28.09 1.7,-56.49 9.33,-83.54 4.42,-15.68 10.99,-30.69 15.47,-46.35 5.11,-17.88 7.43,-36.43 9.74,-54.89 3.5,-27.97 6.99,-55.96 9.5,-84.04 9.78,-109.62 4.34,-220.59 -16.12,-328.73 -0.05,-0.29 -0.09,-0.6 -0.15,-0.9 -1.3,-0.63 -2.57,-1.35 -3.78,-2.2 -8.67,-6.12 -13.05,-19.35 -18.26,-28.19 -14.12,-23.96 -30.37,-47.28 -52.53,-64.53 -31.47,-24.48 -71.68,-34.44 -106.45,-53.97 -11.05,-6.21 -21.84,-13.68 -28.74,-24.32 -9.35,-14.41 -10.13,-33.96 -1.95,-49.07 38.27,-16.17 81.82,-14.85 122.62,-6.95 40.79,7.89 80.15,21.95 120.77,30.68 53.97,11.58 110.21,13.76 162.15,32.43 -2.06,49.37 -11.05,98.44 -26.64,145.33 -3.21,1.7 -6.61,2.8 -10.07,3.66 12.74,13.5 17.43,33.02 20.94,51.49 21.19,111.47 27.59,225.75 18.97,338.9 -2.71,35.46 -6.88,70.89 -6.6,106.47 0.78,102.41 38.04,200.23 62.85,299.79 6.08,-55.68 12.16,-111.34 18.25,-167.02 4.22,-38.69 8.22,-77.42 12.68,-116.08 1.28,-11.76 2.58,-23.6 6.21,-34.85 2.82,-8.76 7.01,-17.02 10.2,-25.65 7.66,-20.7 9.44,-43.03 11.16,-65.03 3.07,-39.41 6.15,-78.92 5.08,-118.44 -2.09,-77.04 -19.89,-153.47 -15.89,-230.43 0.49,-9.34 1.23,-19.06 -2.35,-27.69 -2.69,-6.47 -7.82,-12.84 -6.14,-19.66 0.96,-3.92 4.05,-6.89 7.2,-9.48 -1.61,-7.45 -3.12,-14.79 -4.96,-21.46 -7.3,-26.42 -15.62,-52.56 -24.64,-78.45 -18.25,-52.3 -39.4,-103.52 -61.21,-154.41 -4.7,-10.96 -9.18,-24.51 -1.92,-33.98 5.29,-6.92 14.82,-8.67 23.48,-9.64 25.55,-2.88 51.37,-3.39 77.02,-1.52 29.54,2.14 59.96,7.89 84.04,25.14 23.97,17.18 39.06,43.79 53.41,69.55 1.58,2.84 3.18,5.76 3.6,8.97 0.76,5.85 -2.49,11.37 -4.64,16.87 -5.76,14.8 -3.7,31.3 -2.35,47.12 2.14,25.18 2.26,50.47 2.37,75.74 0.02,4.77 -0.05,9.58 -0.27,14.37 1.42,0.43 2.8,0.97 4.05,1.79 4.3,2.82 6.57,7.84 8.16,12.73 11.51,35.39 -0.88,77.68 19.55,108.78 4.53,6.91 10.5,12.85 14.3,20.19 9.22,17.72 4.03,39.05 2.96,59 -1.58,29.73 6.56,58.98 12.87,88.09 12.64,58.22 18.18,117.98 16.47,177.55 -0.44,15.43 -1.39,30.96 -5.32,45.88 -4.08,15.55 -11.31,30.09 -16.1,45.44 -9.09,29.11 -9.17,60.15 -9.18,90.64 0,77.33 0,154.86 8.67,231.71 4.7,41.76 11.96,83.35 12.97,125.36 0.97,40.94 -4.01,81.75 -8.98,122.39 -0.07,0.55 -0.16,1.11 -0.23,1.67 6.71,0.96 13.42,1.91 20.14,2.87 -3.9,12.43 -7.92,24.97 -11.01,37.6 5.92,-1.49 11.78,-3.26 17.43,-5.61 56.37,72.76 119.62,150.65 131.29,241.95 4.35,34.04 33.57,62.67 31.76,96.94 -0.51,9.69 -3.12,20.86 3.44,28.02 1.18,1.28 2.65,2.42 3.13,4.09 0.84,2.91 -1.67,5.63 -2.51,8.54 -2.01,6.9 5.3,12.6 8.53,19.03 2.28,4.51 2.54,9.74 2.69,14.79 2.03,64.42 -7.78,128.94 -14.96,192.98"
         style="fill:#100f0d;fill-opacity:1;fill-rule:nonzero;stroke:none"
         transform="matrix(0.13333333,0,0,-0.13333333,0,666.66667)" />
    </g>
  </g>
</svg>
