<?xml version="1.0" encoding="UTF-8" standalone="no"?>
<!-- Created with Inkscape (http://www.inkscape.org/) -->

<svg
   version="1.1"
   id="svg1"
   width="91.57148"
   height="391.60104"
   viewBox="0 0 91.57148 391.60105"
   sodipodi:docname="4130483_2186946.eps"
   xmlns:inkscape="http://www.inkscape.org/namespaces/inkscape"
   xmlns:sodipodi="http://sodipodi.sourceforge.net/DTD/sodipodi-0.dtd"
   xmlns="http://www.w3.org/2000/svg"
   xmlns:svg="http://www.w3.org/2000/svg">
  <defs
     id="defs1" />
  <sodipodi:namedview
     id="namedview1"
     pagecolor="#505050"
     bordercolor="#eeeeee"
     borderopacity="1"
     inkscape:showpageshadow="0"
     inkscape:pageopacity="0"
     inkscape:pagecheckerboard="0"
     inkscape:deskcolor="#505050">
    <inkscape:page
       x="0"
       y="0"
       width="91.57148"
       height="391.60104"
       id="page2"
       margin="0"
       bleed="0" />
  </sodipodi:namedview>
  <g
     id="g1"
     inkscape:groupmode="layer"
     inkscape:label="1"
     transform="translate(-41.904243,-133.048)">
    <g
       id="group-R5">
      <path
         id="path4"
         d="m 55.245559,340.37103 c 0.098,1.38533 0.190667,2.772 0.262533,4.16133 -0.351066,-1.35333 -0.3692,-2.748 -0.262533,-4.16133 z m -2.6812,-26.004 c 0.468267,0.012 0.9364,0.0173 1.404667,10e-4 -0.02347,0.472 -0.0484,0.944 -0.074,1.41467 -0.239467,1.34266 -0.389467,2.70133 -0.4244,4.07333 -0.01987,0.78533 -0.0047,1.56933 0.03227,2.35333 -0.113066,1.59867 -0.256266,3.19467 -0.3932,4.79067 -0.4328,-0.99333 -0.825066,-1.99867 -1.064666,-3.05067 -0.716134,-3.148 -0.05613,-6.36533 0.519333,-9.58266 z m 11.5036,-136.10134 c 0.436533,1.032 1.095866,1.96134 1.900533,2.74 -0.0344,0.45334 -0.07547,0.904 -0.121867,1.35467 -0.948933,-1.17067 -1.5844,-2.59867 -1.778666,-4.09467 z m 2.141733,-4.89466 c -0.0188,2.37733 -0.0428,4.764 -0.203733,7.13466 -0.518667,-0.61066 -0.952,-1.28133 -1.231734,-2.036 -0.6656,-1.79866 -0.218666,-4.12666 1.435467,-5.09866 z m 61.799468,126.89066 c 1.47813,0.848 3.34947,-0.64533 3.764,-2.29866 0.4152,-1.65334 -0.0317,-3.39467 0.0568,-5.096 0.11933,-2.304 1.21667,-4.508 1.09747,-6.81067 -0.0901,-1.752 -0.874,-3.38 -1.55107,-4.996 -5.26933,-12.58133 -4.5724,-26.82666 -2.58547,-40.32 1.98694,-13.49333 5.18227,-26.952 4.61934,-40.57867 -0.0355,-0.84266 -0.1068,-1.74533 -0.636,-2.40133 -0.45574,-0.56533 -1.1692,-0.844 -1.852,-1.092 -3.012,-1.096 -6.074,-2.05467 -9.172,-2.88133 -0.91454,-2.108 -1.5104,-4.39067 -1.83907,-6.656 -0.71813,-4.94267 -0.44213,-9.984 -1.0468,-14.94134 -1.0912,-8.95066 -4.99267,-17.28266 -8.84267,-25.43733 -1.20733,-2.55866 -2.44386,-5.16 -4.3584,-7.24266 -2.08546,-2.26667 -4.84586,-3.78134 -7.583332,-5.19334 -2.444267,-1.26 -4.267733,-1.776 -6.809867,-0.636 -1.817733,0.816 -2.379733,-0.148 -4.209333,-0.20533 -4.500533,-0.14133 -9.0652,4.79333 -11.360933,8.132 -2.057866,2.992 -3.615733,6.29333 -5.1636,9.57867 -2.109333,4.47466 -4.218266,8.95066 -6.326533,13.42666 -1.600533,3.39467 -3.235466,6.94667 -3.1584,10.69867 0.06667,3.24133 1.836533,6.65466 4.699467,7.93066 -0.1448,1.176 -0.334267,2.34534 -0.594267,3.504 -0.411467,1.84134 -0.983867,3.64534 -1.4432,5.47334 -3.6344,0.02 -7.702533,1.12933 -11.235866,1.588 -0.6808,0.088 -1.395334,0.19066 -1.940667,0.608 -0.512533,0.392 -0.797467,1.00666 -1.0484,1.60133 -4.436,10.496 -4.316133,22.276 -4.124533,33.66933 0.312,18.61201 0.624533,37.22401 0.9364,55.83601 0.131333,7.81466 0.166267,16.03866 -3.604667,22.88533 -0.527066,0.95733 -1.1312,2.13466 -0.560933,3.068 0.298533,0.488 0.848533,0.75333 1.3756,0.976 0.6536,0.276 1.321867,0.512 1.995733,0.72933 -0.178533,1.57333 -0.3572,3.14533 -0.535866,4.71867 -0.328134,2.88266 -0.6568,5.79466 -0.330267,8.67733 0.221333,1.956 0.741733,3.872 0.944267,5.83067 0.219333,2.09866 0.07093,4.22533 0.295333,6.324 0.209467,1.95866 0.740133,3.86533 1.268267,5.76133 0.3828,1.37333 0.7896,2.79467 1.714533,3.87733 0.574533,0.67467 1.317733,1.17867 2.051066,1.67467 1.399467,0.94667 2.7984,1.89333 4.197867,2.84 0.226133,-0.48667 0.450533,-0.98667 0.653733,-1.49467 0.2516,11.39467 -0.326,22.80667 -1.766133,34.11067 1.673867,1.11467 3.545333,1.80267 5.4984,2.26933 1.236933,27.24667 1.640133,54.58 10.7136,80.10667 1.1176,3.144 2.368133,6.264 2.993733,9.54133 1.922933,10.08933 -2.232267,20.22667 -3.558933,30.41067 -0.391067,3 -0.516134,6.15466 0.6568,8.94266 1.172933,2.78934 3.9568,5.09467 6.970799,4.84267 4.7552,-0.396 6.8412,-6.084 7.836534,-10.75067 1.976533,-9.268 3.942133,-18.99066 1.3068,-28.092 -0.931867,-3.216 -2.417734,-6.25733 -3.2376,-9.504 -1.030134,-4.08266 -0.9724,-8.35066 -0.908267,-12.56266 0.288533,-18.956 0.577067,-37.91467 0.865067,-56.872 0.0636,-4.132 0.125466,-8.26133 0.189066,-12.39333 0.0073,-0.50134 0.01667,-1.00267 0.024,-1.504 3.409334,0.15733 6.820267,0.24533 10.230133,0.20266 0.1604,2.852 0.4104,5.696 0.81,8.52667 0.836934,5.92267 2.310934,11.75733 2.8004,17.72 0.689067,8.40933 -0.595733,16.85066 -0.571866,25.28666 0.02147,7.544 1.090666,15.07467 0.733866,22.60934 -0.817733,17.29866 -9.0088,33.296 -13.104666,50.12133 -0.647867,2.66 -1.106267,5.752 0.6016,7.892 0.856267,1.07333 2.150533,1.724 3.480133,2.06133 6.338533,1.608 12.710002,-3.624 15.053202,-9.728 2.34267,-6.10533 1.83533,-12.86666 1.9812,-19.404 0.56147,-25.19866 11.24893,-49.25866 12.60107,-74.42799 0.438,-8.15334 -0.11094,-16.32534 -0.0703,-24.48934 0.0187,-3.74266 0.17653,-7.48133 0.4364,-11.21333 0.4052,-0.28267 0.7688,-0.61467 1.00107,-1.048 0.33226,-0.62 0.3588,-1.35067 0.38546,-2.05467 0.4708,-12.37733 3.23947,-24.53333 5.23374,-36.75733 1.4048,-5.61867 2.02866,-11.824 2.136,-17.904 1.80266,-0.48133 3.50933,-1.24267 5.0568,-2.39333 0.39626,-0.29334 0.79106,-0.62934 0.9844,-1.084 0.27386,-0.64534 0.0895,-1.38267 -0.098,-2.05734 -1.99014,-7.176 -3.03014,-14.356 -5.02027,-21.532"
         style="fill:#100f0d;fill-opacity:1;fill-rule:nonzero;stroke:none;stroke-width:0.133333" />
    </g>
  </g>
</svg>
