<?xml version="1.0" encoding="UTF-8" standalone="no"?>
<!-- Created with Inkscape (http://www.inkscape.org/) -->

<svg
   version="1.1"
   id="svg1"
   width="126.81769"
   height="398.40228"
   viewBox="0 0 126.81769 398.40228"
   sodipodi:docname="4130483_2186946.eps"
   xmlns:inkscape="http://www.inkscape.org/namespaces/inkscape"
   xmlns:sodipodi="http://sodipodi.sourceforge.net/DTD/sodipodi-0.dtd"
   xmlns="http://www.w3.org/2000/svg"
   xmlns:svg="http://www.w3.org/2000/svg">
  <defs
     id="defs1" />
  <sodipodi:namedview
     id="namedview1"
     pagecolor="#505050"
     bordercolor="#eeeeee"
     borderopacity="1"
     inkscape:showpageshadow="0"
     inkscape:pageopacity="0"
     inkscape:pagecheckerboard="0"
     inkscape:deskcolor="#505050">
    <inkscape:page
       x="0"
       y="0"
       width="126.81769"
       height="398.40228"
       id="page2"
       margin="0"
       bleed="0" />
  </sodipodi:namedview>
  <g
     id="g1"
     inkscape:groupmode="layer"
     inkscape:label="1"
     transform="translate(-501.78862,-135.3382)">
    <g
       id="group-R5">
      <path
         id="path5"
         d="m 4554.33,2498.13 c -3.2,-4.68 -6.42,-9.41 -8.53,-14.67 -1.48,-3.7 -2.36,-7.58 -2.98,-11.53 -6.61,60.29 -15.2,129.37 -15.57,186.27 -0.48,71.52 9.43,145.9 30.08,214.01 5.38,17.75 12.17,35.08 19.05,52.36 2.07,-8.09 4.08,-16.18 6.05,-24.28 0.91,-3.72 1.75,-7.58 0.95,-11.33 -20.35,-95.67 1.72,-181.26 -1.9,-248.36 -1.97,-36.53 -11.95,-72.26 -13.83,-108.79 2.29,-1.3 4.65,-2.58 7.05,-3.83 -6.79,-9.95 -13.59,-19.89 -20.37,-29.85 z m -9.47,-174.11 c -0.28,-0.62 -0.57,-1.25 -0.88,-1.87 -1.83,16.19 -3.6,32.4 -5.52,48.59 7.57,0.79 14.84,5.29 18.08,12.24 0.84,-20.21 -3.19,-40.6 -11.68,-58.96 z m -14.49,112.4 c 3.17,0.99 6.5,2.13 9.8,3.23 -0.44,-6.64 -1.04,-13.28 -1.34,-19.94 -0.37,-7.91 -0.81,-16.05 -3.33,-23.46 -1.62,13.4 -3.46,26.78 -5.13,40.17 z m 178.59,421.1 c 6.77,19.21 7.41,40.52 1.8,60.1 -2.65,9.27 -6.7,18.35 -6.86,27.99 -0.1,5.65 1.15,11.22 1.71,16.84 0.96,9.61 -0.1,19.3 -1.05,28.92 -10.64,108.41 -11.42,222.36 -31.03,329.52 -4.38,23.98 -10.77,49.2 -28.37,66.07 -6.63,6.36 -14.6,11.23 -20.9,17.91 -6.3,6.68 -10.9,16.07 -8.52,24.94 -61.62,25.88 -120.39,58.48 -175.08,96.91 -2.13,1.96 -4.35,3.82 -6.76,5.43 -2.33,1.56 -4.74,2.86 -7.21,4.01 -1.19,3.18 -4.28,5.57 -7.12,7.68 -29.73,22.04 -43.85,59.86 -48,96.64 -1,8.91 -1.49,17.86 -1.71,26.81 6.6,63.06 7.27,126.63 7.84,190.06 0.1,10.23 0.18,20.57 -1.99,30.56 -0.99,4.59 -2.47,9.14 -2.57,13.84 -0.04,2.26 0.23,4.58 -0.36,6.77 -0.68,2.56 -2.46,4.66 -4.19,6.67 -8.24,9.48 -16.41,19.19 -25.88,27.5 -5.54,4.87 -9.74,9.39 -14.7,11.41 -0.69,1.24 -1.46,2.47 -2.37,3.66 -7,9.13 -18.02,13.77 -28.54,17.59 -4.85,1.75 -9.75,3.49 -14.8,4.59 -5.34,1.17 -10.82,1.63 -16.27,2.08 -10.77,0.9 -21.53,1.79 -32.29,2.69 -3.49,0.29 -7.09,0.56 -10.39,-0.57 -3.4,-1.17 -6.12,-3.69 -9,-5.82 -10.08,-7.45 -22.78,-10.46 -35.25,-11.68 -12.48,-1.22 -25.08,-0.82 -37.52,-2.34 -1.17,-0.14 -2.39,-0.32 -3.35,-1.01 -1.02,-0.74 -1.58,-1.94 -2.39,-2.9 -1.81,-2.17 -4.72,-3 -7.45,-3.72 -14.15,-3.75 -28.3,-7.49 -42.45,-11.23 -1.31,-0.35 -2.67,-0.71 -3.73,-1.56 -4.86,-3.83 0.5,-11.72 -0.96,-17.72 -1.38,-5.62 -8.21,-7.9 -11.4,-12.73 -4.84,-7.32 0.09,-17.86 -3.98,-25.64 -0.63,-1.18 -1.45,-2.31 -1.63,-3.62 -0.56,-4 4.7,-6.32 5.95,-10.16 0.83,-2.51 -0.22,-5.27 0.18,-7.89 0.68,-4.53 5.35,-7.42 6.94,-11.72 0.81,-2.2 1,-4.81 1.64,-7.05 -2.64,-17.74 -4.35,-35.68 -2.5,-53.57 0.45,-4.28 1.1,-8.56 0.97,-12.85 -0.19,-6.56 -0.6,-13.52 -3.71,-19.3 -7.26,-13.55 -13.7,-18.09 -13.78,-28.87 -0.02,-1.82 0.02,-3.72 0.83,-5.35 0.9,-1.82 2.63,-3.07 4.02,-4.56 5.5,-5.84 15.38,-17.92 15.84,-25.92 0.47,-7.97 1.71,-15.88 2.95,-23.76 2.06,-13.16 4.13,-26.31 6.2,-39.47 2.03,-12.96 4.06,-25.92 6.1,-38.89 0.35,-2.25 0.76,-4.63 2.26,-6.36 1.51,-1.73 3.82,-2.47 6.03,-3.13 11.95,-3.58 24.2,-7.05 36.68,-6.67 12.27,0.37 23.85,4.4 35.19,9.31 0.34,-1.29 0.72,-2.56 1.03,-3.85 5.25,-22.01 8.97,-46.17 2.03,-68.07 -32.94,-14.18 -65.88,-28.37 -98.82,-42.56 -2.79,-0.65 -5.88,-1.6 -9.31,-2.88 -28.69,-10.64 -56.66,-27.59 -84.36,-40.81 7.69,-57.65 4.86,-116.12 2.02,-174.2 -3.25,-66.56 -6.5,-133.11 -9.75,-199.66 -2.05,-42.07 -4.15,-84.42 -13.78,-125.42 -9.26,-39.43 -25.32,-76.91 -42.53,-113.57 -22.72,-48.39 -36.59,-77.07 -63.46,-123.29 -12.08,-20.79 -25.01,-45.06 -16.75,-67.65 2.15,-5.87 5.66,-11.05 9.57,-15.97 -4.97,-0.27 -9.77,-1.36 -14.11,-3.7 -22.49,-12.14 -39.71,-36.83 -55.11,-56.46 -8.07,-10.28 -16.51,-21.53 -16.98,-34.6 -0.32,-9.08 3.31,-17.89 3.62,-26.97 0.4,-12.1 -5.11,-23.67 -5.84,-35.75 -1.45,-24.15 15.86,-44.91 32.12,-62.83 1.55,-1.71 3.2,-3.49 5.4,-4.21 4.59,-1.52 9.51,2.51 10.87,7.17 1.37,4.64 0.26,9.61 -0.62,14.38 -3.35,18.08 -3.31,36.79 0.13,54.85 0.97,5.17 2.29,10.42 5.24,14.78 1.91,2.84 4.45,5.2 6.97,7.53 8.27,7.65 16.54,15.29 24.81,22.94 2.07,-8.17 -1.8,-16.68 -6.69,-23.53 -4.89,-6.85 -10.97,-13.01 -14.32,-20.74 -3.34,-7.73 -3.1,-17.94 3.41,-23.28 9.18,-3.76 18.7,5.12 22.93,14.08 4.24,8.98 6.86,19.67 15.2,25.05 3.32,2.15 7.2,3.17 10.8,4.81 7.51,3.44 13.52,9.48 18.63,15.97 8.31,10.58 14.7,22.93 16.88,36.21 0.73,4.4 0.88,8.86 0.65,13.29 14.79,-9.54 30.86,-16.13 48.6,-17.27 17.42,33.01 33.97,66.17 49.57,99.53 -2.8,-65.8 -7.99,-149.37 -27.16,-192.13 12.39,-3.39 24.63,-6.19 36.82,-8.71 1.08,-30.04 2.55,-57.23 3.08,-76.87 2.61,-98.35 6.96,-399.84 14.84,-423.9 10.91,-33.28 8.95,-70.7 8.57,-107.09 -0.78,-75.31 5.75,-149.73 19.43,-221.92 5.29,-27.94 12.04,-49.65 21.93,-75.79 15.09,-39.85 30.18,-79.7 45.27,-119.56 13.35,-35.29 26.04,-77.24 3.89,-112.94 -4.34,-7.01 -10.19,-15.17 -7.26,-21.95 1.85,-4.3 6.71,-6.23 9.7,-9.75 9.47,-11.12 -3.03,-29.94 -2.34,-45.31 0.02,-0.3 0.13,-0.55 0.16,-0.83 -2.61,-4.28 -5.32,-8.49 -8.58,-12.36 -11.79,-13.99 -25.53,-26.34 -40.74,-36.51 -38.17,-25.5 -83.85,-36.66 -128.28,-48.19 -3.09,-0.8 -6.35,-1.71 -8.55,-4.01 -2.28,-2.41 -2.99,-5.86 -3.48,-9.14 -1.45,-9.6 -1.89,-19.36 -1.3,-29.05 0.15,-2.51 0.39,-5.08 1.56,-7.3 1.51,-2.89 4.39,-4.8 7.27,-6.33 10.56,-5.66 22.53,-8.08 34.33,-10.14 24.3,-4.24 48.82,-7.27 73.42,-9.06 18.48,-1.35 37.1,-2 55.46,0.41 15.58,2.03 30.77,6.25 45.99,10.15 52.18,13.36 105.27,23.17 158.78,29.32 0.34,25.04 -2.15,50.11 -7.38,74.59 -2.59,12.12 -6.1,24.4 -11.98,35.18 15.65,9.98 39.79,19.21 32.64,27.37 23.04,10.36 -23.65,172.75 -18.07,189.87 8.37,25.71 9.23,52.2 9.65,78.19 1.01,62.05 -26.8,158.54 -29.8,220 -1.42,29.37 -11.63,128.91 -13.33,135.96 -5.15,21.33 -3.88,56.15 -0.85,78.94 3.91,29.43 -8.21,56.7 -7.08,86 0.43,11.11 2.77,22.26 5.23,33.42 1.55,-15.83 3.1,-31.66 4.66,-47.5 2.38,-24.28 5.44,-50.24 21.32,-68.75 5.22,-6.09 11.91,-11.55 13.9,-19.32 5.19,-20.25 -24.55,-38.2 -17.65,-57.94 22.22,-21.51 30.73,-53.14 38.3,-83.12 24.09,-95.28 48.17,-190.55 72.24,-285.82 8.44,-33.39 16.9,-68.49 8.26,-101.83 -4.09,-15.78 -11.38,-34.31 -0.94,-46.84 7.86,-9.44 23.2,-10.99 29.26,-21.68 5.57,-9.82 0.48,-22.03 0.66,-33.32 0.29,-18.85 15.07,-33.73 24.99,-49.76 9.91,-16.03 13.1,-41.17 -3.37,-50.32 2.22,-0.87 4.49,-1.64 6.73,-2.49 -0.39,-0.59 -0.78,-1.2 -1.18,-1.78 -24.45,-36.14 -54.48,-68.5 -88.75,-95.49 -6.21,-4.89 -12.67,-9.75 -16.96,-16.38 -6.06,-9.38 -6.97,-21.13 -6.89,-32.31 0.02,-2.73 0.11,-5.54 1.28,-7.99 2.38,-4.95 8.28,-6.91 13.6,-8.25 47.27,-11.88 96.48,-12.919 145.21,-13.899 10.29,-0.199 20.75,-0.391 30.71,2.238 11.52,3.041 21.71,9.671 31.68,16.221 17,11.14 34.01,22.29 51.02,33.45 4.14,2.71 8.45,5.6 10.77,9.98 1.83,3.46 2.21,7.5 2.46,11.41 1.03,16.15 0.43,32.4 -1.79,48.44 -1.4,10.06 -3.45,20.11 -7.35,29.48 -1.21,2.88 -2.75,5.57 -4.25,8.28 10.52,25.06 2.51,57.72 -20.21,73.3 26.56,10.97 37.4,48.74 20.71,72.12 -4.98,6.98 -11.9,12.75 -15.02,20.73 -3.13,7.94 -1.99,16.83 -1.27,25.34 5.01,59.65 -13.18,118.43 -25.1,177.09 -21.92,107.76 -22.95,218.52 -34.03,327.93 -1.13,11.06 -2.34,22.31 -0.2,33.22 1.77,8.99 5.76,17.4 8.16,26.26 4.61,16.92 3.31,34.82 1.91,52.3 -8.9,111.88 -19.81,223.58 -32.28,335.11 0.27,-0.1 0.46,-0.3 0.74,-0.38 5.5,-1.39 10.46,3.47 13.87,8.01 15.24,20.34 25.67,44.26 30.21,69.27 1.57,0.11 3.17,-0.27 4.52,-1.08 -1.05,-24.65 -9.02,-48.96 -22.79,-69.44 -2.71,-4.03 -5.78,-8.8 -4.11,-13.36 2.37,-6.45 11.51,-6.31 18.13,-4.49 6.41,1.75 13.38,4.59 15.96,10.71 0.76,1.8 1.08,3.79 2.16,5.4 2.13,3.19 6.39,3.93 10.04,5.1 11.86,3.8 20.7,15.55 21.05,28.01 9.43,2.18 20.72,6.27 22.18,15.85 0.29,1.9 0.14,3.93 0.98,5.66 1.24,2.54 4.17,3.66 6.41,5.37 7.31,5.59 6.72,16.47 6.74,25.67 0.03,17.85 5,35.25 8.72,52.69 3.71,17.45 6.15,35.81 1.22,52.95 -2.28,7.9 -7.33,14.88 -11.34,22.08 11.78,3.08 23.29,7.15 34.37,12.21 2.24,56.87 3.43,113.78 3.57,170.69 0.04,16.78 -0.02,33.57 -1.52,50.28 -3.27,36.48 -10.82,71.83 1.34,106.37"
         style="fill:#100f0d;fill-opacity:1;fill-rule:nonzero;stroke:none"
         transform="matrix(0.13333333,0,0,-0.13333333,0,666.66667)"
         sodipodi:nodetypes="ccccccccsccccccccccccccccccccscccccccccccccccccccccccccccccccccccccccccccccccccccccccccccccccccccccccccccsccscccccccccccccccccccccccccccccccccscccccccccccccccscccccccscscccscccccccccccccccccccccsccccccscccccccccc" />
    </g>
  </g>
</svg>
