<?xml version="1.0" encoding="UTF-8" standalone="no"?>
<!-- Created with Inkscape (http://www.inkscape.org/) -->

<svg
   version="1.1"
   id="svg1"
   width="107.71771"
   height="383.39474"
   viewBox="0 0 107.71771 383.39475"
   sodipodi:docname="4130483_2186946.eps"
   xmlns:inkscape="http://www.inkscape.org/namespaces/inkscape"
   xmlns:sodipodi="http://sodipodi.sourceforge.net/DTD/sodipodi-0.dtd"
   xmlns="http://www.w3.org/2000/svg"
   xmlns:svg="http://www.w3.org/2000/svg">
  <defs
     id="defs1" />
  <sodipodi:namedview
     id="namedview1"
     pagecolor="#505050"
     bordercolor="#eeeeee"
     borderopacity="1"
     inkscape:showpageshadow="0"
     inkscape:pageopacity="0"
     inkscape:pagecheckerboard="0"
     inkscape:deskcolor="#505050">
    <inkscape:page
       x="0"
       y="0"
       width="107.71771"
       height="383.39474"
       id="page2"
       margin="0"
       bleed="0" />
  </sodipodi:namedview>
  <g
     id="g1"
     inkscape:groupmode="layer"
     inkscape:label="1"
     transform="translate(-388.64768,-135.33678)">
    <g
       id="group-R5">
      <path
         id="path6"
         d="m 3177.4,2822.98 c -4.38,-24.72 -13.27,-48.37 -23.65,-71.28 -4.13,1.84 -12.9,5.58 -24.78,10.64 l 15.6,65.01 c 3.01,12.55 5.99,25.39 6.04,38.2 9.96,-2.18 20.14,-2.93 30.53,-1.73 -0.32,-13.69 -1.34,-27.36 -3.74,-40.84 z m 378.87,763.18 c 4.83,33.4 23.09,64.86 21.17,98.56 11.77,-16.76 15.88,-38.68 10.99,-58.57 -4.5,-18.28 -16.6,-34.47 -32.67,-44.27 0.17,1.43 0.3,2.86 0.51,4.28 z m 166.22,-2440.19 c -1.55,8.51 -9.79,13.82 -16.88,18.77 -35.79,25.01 -57.39,64.28 -73.5,103.85 -3.98,9.78 -7.3,18.52 -9.58,27.39 4.68,0.69 9.34,1.39 13.98,2.3 2.42,166.6 11.81,333.1 28.16,498.92 0.91,9.15 1.83,18.34 1.64,27.54 -0.16,7.81 -1.11,15.58 -1.97,23.35 -0.74,6.6 -1.39,13.21 -2,19.83 -5.16,56.64 -6.46,113.63 -3.87,170.45 9.69,213.03 71.06,431.7 7.68,635.31 10.35,7.4 15.11,20.71 15.42,33.43 0.31,12.72 -3.18,25.19 -6.35,37.51 -10.94,42.61 -18.31,86.12 -21.98,129.96 -2.35,28.01 -3.18,56.37 1.28,84.13 2.9,18.05 8.02,35.7 10.31,53.83 5.29,41.63 -4.44,84.23 2.19,125.67 4.2,26.29 14.94,52.28 11.19,78.63 -2.45,17.16 -10.91,32.91 -14.39,49.89 -10.31,50.14 23.09,106.16 -1.09,151.27 -14.66,27.36 -46.09,40.77 -75.84,49.67 -24,7.18 -45.75,10.32 -70.5,14.24 -1.35,-3.55 -14.11,14.1 -15.45,10.55 5.67,12.18 12.56,23.8 20.51,34.63 -0.88,-13.38 -6.87,-26.37 -16.46,-35.74 12.7,8.98 23.84,20.16 32.75,32.9 6.12,8.75 11.23,18.31 13.95,28.63 1.93,7.35 2.62,14.95 3.35,22.53 38.85,14.62 64.77,58.18 58.52,99.31 -1.51,9.96 -4.65,19.59 -8.06,29.06 -10.18,28.32 -22.83,55.76 -37.76,81.89 -4.46,7.82 -9.15,15.56 -12.38,23.95 -7.49,19.44 -6.73,41.07 -12.15,61.19 -8.95,33.28 -35.87,61.14 -68.83,71.23 -21.41,39.37 -78.1,52.57 -119.67,35.83 -41.59,-16.73 -71.53,-53.53 -95.85,-91.18 -19.09,-29.55 -36.07,-60.88 -45.61,-94.76 -11.86,-42.11 -11.83,-86.49 -15.66,-130.07 -3.82,-43.59 -12.29,-88.57 -38.2,-123.82 -2.18,-2.98 -4.61,-6.37 -3.92,-10 0.35,-1.84 1.48,-3.42 2.39,-5.07 5.41,-9.85 1.87,-23.64 -7.63,-29.66 -9.49,-6.03 -23.47,-3.36 -30.08,5.74 -5.31,-14.87 12.17,-32.04 26.94,-26.48 -4.13,-4.13 1.2,-10.71 6.05,-13.96 -11.68,0.8 -22.56,-5.03 -30.42,-13.89 -25.61,-7.7 -40.04,-57.2 -39.16,-76.77 0.44,-9.69 2.44,-19.42 1.03,-29.03 -1.63,-11.15 -7.69,-21.08 -11.57,-31.65 -9.02,-24.54 -6.13,-51.61 -3.73,-77.63 3.86,-42.03 6.13,-84.2 6.78,-126.39 0.1,-5.96 0.15,-12.01 -1.52,-17.74 -3.4,-11.73 -13.33,-20.2 -22.77,-27.95 6.93,-6.86 12.24,-15.33 15.41,-24.55 -10.24,-1.95 -8.57,-17.39 -14.28,-26.1 -3.23,-4.94 -8.95,-7.54 -13.66,-11.09 -4.72,-3.55 -8.84,-9.53 -6.75,-15.05 1.53,-4.03 5.99,-6.55 7.06,-10.73 0.86,-3.36 -0.69,-6.78 -1.59,-10.12 -2.8,-10.47 1.03,-21.81 7.56,-30.47 3.61,-4.8 8.01,-8.9 12.68,-12.7 -8.78,-37.5 -13.32,-77.09 -16.54,-116.57 -60.01,26.63 -120.97,55.48 -120.24,63.04 -9.39,-145.74 -8.72,-292.58 2.02,-438.16 35.57,-12.82 71.01,-26.28 106.37,-40.08 2.02,-19.72 5.52,-41.54 21.47,-53.14 2.52,2.93 7.38,2.39 10.55,0.18 3.16,-2.22 5.21,-5.63 7.78,-8.51 8.33,-9.34 22.82,-12.24 34.27,-7.36 20.94,-12.81 43.2,-23.48 66.09,-32.54 2.82,-89.54 3.81,-178.99 -16.03,-265.94 -13.23,-57.99 -35.64,-114.31 -39.81,-173.64 -4.46,-63.28 12.08,-125.87 21.93,-188.53 9.86,-62.67 12.29,-130.17 -17.72,-186.05 3.85,-5.14 9.05,-9.12 14.88,-11.74 -8.2,-13.38 -16.4,-26.77 -24.61,-40.15 5.31,-3.16 19.86,-52.54 31.67,-70.73 11.83,-18.2 26.67,-34.65 35.25,-54.57 3.74,-8.71 6.31,-18.08 11.93,-25.7 11.27,-15.27 31.83,-19.88 50.65,-22.2 22.1,-2.74 44.41,-3.85 66.67,-3.33 14.26,0.33 31.17,3.02 37.3,15.9 4.17,8.77 1.47,19.5 -3.96,27.54 -5.42,8.06 -13.21,14.14 -20.37,20.71 -32.4,29.74 -51.99,70.03 -67.82,110.39 -3.13,7.99 -5.39,16.72 -7.43,25.67 8.08,0.15 15.82,2.71 21.46,8.57 11.65,12.14 10.02,31.36 8.02,48.07 -14.52,121.24 -7.4,245.05 20.94,363.83 4.14,17.35 9.5,35.83 23.44,46.99 59.29,134.59 97.64,278.39 113.24,424.64 28.39,-130.45 37.53,-264.2 46.59,-397.39 0.89,-12.94 1.77,-25.88 2.65,-38.82 1.72,-25.19 3.43,-50.45 1.92,-75.65 -0.7,-11.91 -2.13,-23.76 -3.11,-35.65 -3.46,-41.63 -1.54,-83.49 0.4,-125.21 5.48,-118.76 10.98,-237.53 16.47,-356.29 4.66,-1.33 9.38,-2.46 14.08,-3.57 -3.41,-36.82 -6.81,-73.65 -10.23,-110.48 -0.8,-8.72 -1.61,-17.44 -2.42,-26.16 -0.27,-2.81 -0.41,-5.98 1.48,-8.08 1.77,-1.95 4.68,-2.25 7.31,-2.5 31.86,-3.03 61.09,-18.17 90.11,-31.67 13.9,-6.46 28.52,-12.72 43.82,-12.34 7.6,0.19 15.06,2 22.63,2.6 8.29,0.64 16.67,-0.18 24.9,0.99 9.72,1.36 19.01,5.56 26.48,11.95 6.12,5.24 11.26,12.97 9.8,20.9"
         style="fill:#100f0d;fill-opacity:1;fill-rule:nonzero;stroke:none"
         transform="matrix(0.13333333,0,0,-0.13333333,0,666.66667)"
         sodipodi:nodetypes="cccccccccccccccccccccccsccscccccsccccscccccccccccccscccccccccccccccccsccccccccccccccccccccccccccccccsccccccccccccccccccc" />
    </g>
  </g>
</svg>
