<?xml version="1.0" encoding="UTF-8" standalone="no"?>
<!-- Created with Inkscape (http://www.inkscape.org/) -->

<svg
   version="1.1"
   id="svg1"
   width="119.54096"
   height="406.01849"
   viewBox="0 0 119.54096 406.0185"
   sodipodi:docname="4130483_2186946.eps"
   xmlns:inkscape="http://www.inkscape.org/namespaces/inkscape"
   xmlns:sodipodi="http://sodipodi.sourceforge.net/DTD/sodipodi-0.dtd"
   xmlns="http://www.w3.org/2000/svg"
   xmlns:svg="http://www.w3.org/2000/svg">
  <defs
     id="defs1" />
  <sodipodi:namedview
     id="namedview1"
     pagecolor="#505050"
     bordercolor="#eeeeee"
     borderopacity="1"
     inkscape:showpageshadow="0"
     inkscape:pageopacity="0"
     inkscape:pagecheckerboard="0"
     inkscape:deskcolor="#505050">
    <inkscape:page
       x="0"
       y="0"
       width="119.54096"
       height="406.01849"
       id="page2"
       margin="0"
       bleed="0" />
  </sodipodi:namedview>
  <g
     id="g1"
     inkscape:groupmode="layer"
     inkscape:label="1"
     transform="translate(-275.40495,-135.97548)">
    <g
       id="group-R5">
      <path
         id="path7"
         d="m 2275.66,3563.6 c 3.07,11.53 7.56,22.58 11.06,33.95 -0.79,-25.52 -2.65,-51.02 -9.8,-75.43 -5.18,-17.7 -13.08,-34.42 -21.81,-50.7 14.67,27.59 12.42,61.64 20.55,92.18 z m 680.36,-2419.05 c -2.49,1.96 -5.46,3.16 -8.38,4.36 -38.25,15.7 -74.44,36.35 -107.39,61.3 -5.8,4.39 -10.77,8.97 -15.62,13.43 5.92,4.41 10.95,8.88 14.41,13.18 9.71,12.08 -30.97,523.51 -26.01,537.18 4.51,12.44 15.63,22.17 17.73,35.23 2.27,14.09 -6.53,27.24 -11.37,40.66 -9.65,26.84 -3.5,56.37 -0.31,84.72 12.05,107.15 -20.32,215.01 -13.47,322.62 4.18,65.96 -17.99,129.49 -27.03,194.97 -1.41,10.24 -2.01,22.6 6.26,28.82 -14.57,11.04 -15.94,31.91 -17.96,50.08 -2.78,25.11 -9.2,49.81 -19.01,73.1 -1.65,3.91 -3.42,7.87 -3.77,12.1 -0.32,3.77 0.51,7.52 1.07,11.26 1.89,12.66 0.79,25.56 -0.33,38.3 -2.92,33.68 -5.85,67.34 -8.78,101.01 0.5,0.13 1,0.2 1.48,0.38 4.53,1.66 7.78,5.61 11.81,8.28 15.03,10 40.07,2.26 49.6,17.6 2.84,4.59 3.34,10.26 3.16,15.66 -0.53,15.47 -6.07,30.32 -7.95,45.68 -1.87,15.36 0.92,32.91 13.22,42.29 -29.82,41.65 -60.93,87.16 -60.29,138.38 0.43,34.63 15.6,69.53 6.66,102.99 -2.95,11.03 -8.43,21.33 -10.45,32.56 -1.49,8.29 -1.05,16.8 -1.03,25.22 0.12,45.13 -12.49,90.13 -35.68,128.83 -31.46,151.6 -49.04,306.08 -52.25,460.88 -0.33,15.57 -0.52,31.29 -4.29,46.4 -3.83,15.36 -11.22,29.56 -16.72,44.4 -6.33,17.08 -10.36,35.43 -20.99,50.23 -10.61,14.8 -28.79,19.66 -46.78,22.44 -13.67,2.1 -21.9,20.07 -47.49,28.3 -18.72,6.01 -39.62,1.81 -56.83,-7.69 -17.21,-9.49 -31.23,-23.85 -43.88,-38.89 -49.67,-14.44 -91.62,-53.25 -109.87,-101.64 -10.71,-28.39 -13.5,-59.07 -15.47,-89.35 -1.04,-16.13 -1.77,-32.28 -2.45,-48.43 -0.09,0.7 -0.16,1.4 -0.24,2.09 l 0.91,38.12 c 0.36,-35.03 -5.14,-69.79 -10.61,-104.33 -8.26,-52.11 -16.51,-104.22 -24.77,-156.32 -1.93,-3.59 -3.85,-7.17 -5.83,-10.71 -6.31,-11.24 -12.91,-22.32 -19.6,-33.33 -27.58,-21.91 -55.82,-43.01 -84.71,-63.17 -13.26,-9.26 -26.97,-18.62 -36.28,-31.85 -16.01,-22.72 -16.38,-52.73 -14.03,-80.43 2.36,-27.7 6.73,-56.28 -1.72,-82.77 -8.58,-26.9 -30.19,-52.37 -23.34,-79.75 2.2,-8.81 7.25,-16.64 10.27,-25.19 4.78,-13.57 4.2,-28.96 -1.6,-42.12 -5.7,-12.92 -16.41,-26.41 -11,-39.45 2.38,-5.74 7.51,-9.82 11.23,-14.8 10.06,-13.43 9.06,-31.99 6.11,-48.51 -2.95,-16.53 -7.38,-33.66 -2.74,-49.78 4.49,-15.6 3.17,-32.64 2.67,-48.87 14.85,-0.58 28.49,-12.48 31.1,-27.11 1.44,-8.09 0.86,-18.39 8.17,-22.16 3.43,-1.78 7.54,-1.32 11.37,-0.81 26.6,3.5 53.2,7.01 79.81,10.51 2.18,-9.22 4.36,-18.45 6.53,-27.67 3.29,4.47 6.57,8.93 9.85,13.41 1.48,2.01 3.58,4.28 6.02,3.72 2.74,-0.63 3.75,-4.45 6.46,-5.2 2.11,-0.59 4.16,0.93 5.95,2.2 7.67,5.43 17.04,7.41 26.48,8.58 -19.7,-54.39 -39.4,-108.79 -59.11,-163.18 -5.79,-15.99 -11.61,-32.09 -14.26,-48.89 -2.57,-16.28 -2.09,-32.87 -1.62,-49.34 0.74,-25.09 1.46,-50.2 3.31,-75.24 9.77,-132.99 50.75,-262.82 53.3,-396.15 0.38,-20.14 -0.01,-40.89 7.43,-59.61 3.59,-9.05 9.08,-18.4 6.79,-27.87 -1.19,-4.9 -4.37,-9.11 -5.81,-13.94 -2.24,-7.51 -0.08,-15.54 2.08,-23.07 3.6,-12.55 7.19,-25.1 10.79,-37.66 12.47,-10.3 -0.91,-29.13 -7.1,-44.08 -5.61,-13.54 -5.94,-28.61 -6.06,-43.27 -0.92,-110.98 5.22,-222.02 18.36,-332.23 4.21,-35.32 9.15,-70.74 8.17,-106.31 -0.55,-20.19 -3,-40.3 -4.27,-60.47 -3.77,-59.77 3.01,-120.21 19.94,-177.66 2.77,-9.39 6.23,-18.94 12.46,-26.31 -1.58,-14.1 -2.86,-28.23 -3.74,-42.38 -0.41,-6.55 -0.7,-13.36 1.87,-19.39 2.4,-5.62 7.05,-9.97 11.97,-13.59 21.44,-15.8 48.93,-20.499 72.81,-32.269 20.84,-10.269 38.8,-25.871 60.07,-35.242 30.71,-13.527 65.53,-12.949 99.07,-12.141 14.75,0.352 30.19,0.891 43,8.184 21.28,12.109 28.6,43.707 14.22,63.518 -4.39,6.04 -10.28,10.81 -16.16,15.41 -24.54,19.15 -50.43,36.65 -73.49,57.56 -13.48,12.22 -25.98,25.82 -36.17,40.84 17.36,14.44 28.1,26.87 28.66,28.7 2.99,9.76 -18.3,484.67 -21.9,500.97 -4.11,18.6 -2.91,37.91 -1.68,56.91 3.38,52.7 6.77,105.38 10.16,158.08 5.73,89.13 45.07,273.2 45.07,273.2 0,0 57.27,-143.12 66.8,-219.38 3.61,-28.92 4.47,-58.11 5.15,-87.25 4.99,-210.41 7.36,-403.1 -4.32,-613.24 4.81,-3.01 9.81,-5.7 14.86,-8.28 -0.67,-3.87 -1.25,-7.74 -1.63,-11.6 -2.55,-25.69 0.01,-51.67 -2.22,-77.38 35.47,-10.54 73.5,-0.3 110.47,-1.77 22.72,-0.9 44.99,-6.24 67.42,-9.91 33.73,-5.52 67.97,-7.28 102.15,-7.73 13.39,-0.18 27.76,0.15 38.63,7.97 10.88,7.81 15.01,26.05 4.52,34.35"
         style="fill:#100f0d;fill-opacity:1;fill-rule:nonzero;stroke:none"
         transform="matrix(0.13333333,0,0,-0.13333333,0,666.66667)"
         sodipodi:nodetypes="ccccccccccccccccccccccccccccccccccccsccccccccccccccccccccccccscccccccccccccccccccsccccccccccccccccccccccccccccccccccc" />
    </g>
  </g>
</svg>
