<?xml version="1.0" standalone="no"?>
<!DOCTYPE svg PUBLIC "-//W3C//DTD SVG 20010904//EN"
 "http://www.w3.org/TR/2001/REC-SVG-20010904/DTD/svg10.dtd">
<svg version="1.0" xmlns="http://www.w3.org/2000/svg"
 width="150.000000pt" height="450.000000pt" viewBox="0 0 150.000000 450.000000"
 preserveAspectRatio="xMidYMid meet">

<g transform="translate(0.000000,450.000000) scale(0.100000,-0.100000)"
fill="#000000" stroke="none">
<path d="M620 4321 c-20 -16 -44 -30 -55 -32 -11 -3 -26 -17 -33 -32 -7 -15
-20 -27 -28 -27 -13 0 -18 -12 -15 -32 0 -4 -8 -31 -20 -59 -11 -29 -16 -55
-12 -58 4 -3 8 -26 9 -50 1 -23 6 -46 11 -50 6 -3 14 -26 18 -51 11 -72 13
-76 43 -76 26 0 27 1 23 44 -3 47 16 132 30 132 5 0 9 6 9 14 0 23 52 16 73
-10 20 -26 66 -32 122 -15 17 4 39 5 50 1 16 -6 11 -9 -23 -15 -48 -8 -84 -47
-64 -67 8 -8 15 -8 26 1 11 9 15 9 18 0 3 -8 11 -10 24 -4 10 4 27 7 37 6 25
-3 21 6 -10 24 l-28 15 29 -2 c35 -4 40 -18 39 -115 l-1 -72 34 40 c26 32 34
52 40 99 4 33 9 60 13 60 3 0 7 12 7 28 1 15 3 45 4 67 4 44 -3 83 -19 113 -6
11 -7 22 -4 26 3 3 -1 6 -11 6 -9 0 -19 7 -22 15 -3 8 -14 17 -25 20 -11 4
-17 10 -14 15 5 7 -24 38 -32 33 -1 -2 -4 -3 -5 -2 -2 0 -12 2 -23 4 -11 1
-47 10 -80 19 -81 22 -95 21 -135 -13z m83 12 c-7 -2 -21 -2 -30 0 -10 3 -4 5
12 5 17 0 24 -2 18 -5z m-33 -34 c-24 -19 -23 -19 19 1 33 17 52 20 80 14 22
-4 29 -9 19 -11 -10 -3 -18 -8 -18 -12 0 -5 -12 -6 -27 -4 -25 3 -24 2 10 -17
22 -12 37 -24 34 -27 -3 -2 -14 0 -25 6 -27 14 -53 15 -32 1 13 -9 13 -10 0
-10 -13 0 -13 -2 -1 -9 11 -7 10 -10 -5 -13 -17 -4 -16 -6 6 -16 14 -6 18 -11
10 -11 -9 -1 -27 7 -40 16 l-25 17 19 -23 c37 -42 22 -62 -22 -28 -9 7 -11 6
-6 -7 3 -9 10 -16 15 -16 5 0 9 -5 9 -11 0 -7 -10 -9 -25 -7 -21 5 -23 3 -14
-15 8 -15 8 -18 -1 -12 -7 4 -18 21 -26 39 l-15 31 4 -34 c4 -31 3 -32 -10
-16 -10 14 -13 15 -14 4 0 -8 -4 -6 -9 6 -7 17 -9 16 -9 -10 -1 -22 -4 -26
-10 -16 -7 11 -10 9 -13 -10 -2 -14 -9 -23 -17 -21 -10 2 -12 -5 -7 -30 4 -23
3 -29 -4 -18 -8 13 -10 12 -10 -3 0 -15 -2 -16 -14 -5 -7 7 -12 17 -10 23 2 5
0 23 -4 40 -5 18 -3 43 5 68 7 21 11 43 7 48 -3 5 -2 8 3 7 5 -2 21 7 37 20
16 12 23 22 16 22 -10 0 -10 3 0 15 7 8 19 15 28 15 8 0 12 -3 9 -6 -3 -4 -2
-15 4 -25 8 -15 14 -17 29 -9 11 6 32 8 47 5 24 -4 23 -3 -7 11 -19 9 -36 17
-38 19 -6 5 10 35 17 31 4 -3 13 -1 21 5 28 17 35 9 10 -12z m-59 -20 c-9 -22
-10 -22 -10 -3 -1 11 2 24 6 27 12 12 14 0 4 -24z m-84 -391 c-16 -10 -21 -2
-13 19 6 15 9 15 16 3 6 -9 5 -17 -3 -22z m403 -43 c-7 -9 -15 -13 -18 -10 -3
2 1 11 8 20 7 9 15 13 18 10 3 -2 -1 -11 -8 -20z"/>
<path d="M585 3990 c-4 -6 7 -10 26 -10 l31 0 -23 -18 -22 -19 28 -7 c15 -4
31 -4 34 1 3 4 13 8 21 8 8 0 16 10 18 21 2 15 -4 23 -20 28 -35 9 -86 7 -93
-4z"/>
<path d="M747 3843 c-13 -12 -7 -23 13 -23 11 0 20 7 20 15 0 15 -21 21 -33 8z"/>
<path d="M700 3836 c0 -2 7 -7 16 -10 8 -3 12 -2 9 4 -6 10 -25 14 -25 6z"/>
<path d="M550 3820 c-13 -8 -13 -10 1 -10 29 0 55 -152 31 -186 -4 -5 -32 -23
-62 -38 -30 -16 -64 -35 -75 -43 -23 -17 -19 -16 48 15 27 12 52 22 57 22 24
0 50 55 50 104 l0 51 21 -30 c12 -17 46 -50 77 -75 30 -24 59 -54 64 -66 7
-15 16 -20 30 -16 17 4 19 0 16 -39 l-3 -44 -53 -1 c-29 -1 -56 -4 -59 -8 -9
-9 86 -7 129 3 26 6 36 6 31 -2 -4 -7 4 -8 25 -4 21 4 34 1 43 -9 7 -8 18 -13
26 -10 8 3 11 1 8 -4 -3 -6 1 -13 11 -17 9 -3 43 -32 76 -63 44 -43 58 -63 58
-86 0 -16 3 -40 5 -54 3 -14 -2 -7 -10 15 -9 22 -22 46 -30 54 -12 12 -14 8
-10 -32 2 -26 6 -56 10 -67 5 -15 3 -18 -9 -14 -11 4 -16 0 -16 -12 0 -16 -2
-17 -10 -4 -15 24 -12 -7 16 -138 4 -19 -1 -17 -35 17 -21 21 -44 47 -50 57
-10 18 -10 18 -11 -1 0 -11 9 -65 19 -119 22 -111 17 -142 -22 -130 -30 9 -28
4 -53 96 -12 46 -23 76 -23 67 -1 -20 77 -327 87 -343 3 -6 -8 0 -25 14 -17
14 -29 28 -27 31 6 10 -21 18 -42 14 -11 -2 -25 -4 -32 -4 -8 -1 -12 -9 -10
-18 2 -10 10 -17 16 -16 21 5 13 -14 -9 -20 -17 -5 -20 -11 -15 -41 3 -20 2
-36 -3 -36 -5 0 -7 -20 -4 -45 4 -37 1 -46 -14 -51 -10 -4 -40 -17 -68 -29
-61 -27 -111 -40 -235 -60 -150 -25 -139 -25 -136 2 2 17 16 30 52 48 59 29
117 84 87 82 -21 -2 -20 33 3 46 8 4 14 15 14 23 0 8 7 25 15 37 8 13 16 36
19 53 2 16 6 36 9 44 11 30 16 63 8 54 -16 -18 -52 -115 -46 -124 3 -6 2 -10
-4 -10 -6 0 -26 -33 -45 -72 -19 -40 -47 -86 -61 -103 -15 -16 -24 -24 -20
-16 4 7 2 17 -6 22 -11 7 -12 12 -2 26 25 36 46 78 49 98 1 11 5 29 9 40 4 11
-3 5 -15 -13 -13 -18 -24 -31 -27 -29 -2 3 17 54 42 115 48 117 53 142 32 142
-8 0 -24 -33 -40 -82 -21 -67 -26 -76 -26 -48 0 19 4 64 9 100 16 116 20 170
10 170 -6 0 -10 -9 -10 -19 0 -11 -4 -23 -10 -26 -5 -3 -7 0 -4 9 12 30 30
197 22 202 -4 3 -8 -7 -9 -23 0 -15 -5 -37 -10 -48 -7 -14 -8 -3 -4 38 3 31 1
57 -4 57 -5 0 -5 20 0 47 5 25 7 48 4 51 -2 3 -7 -14 -11 -37 -4 -22 -9 -41
-13 -41 -6 0 -32 61 -51 123 -7 21 -14 37 -16 35 -2 -2 3 -26 11 -53 8 -26 15
-64 14 -84 l-1 -36 -18 50 c-21 58 -25 48 -9 -25 16 -74 4 -73 -19 1 -29 93
-26 38 2 -61 38 -129 25 -116 -23 25 -9 28 -10 27 -4 -10 3 -22 13 -56 21 -75
16 -36 24 -110 12 -110 -3 0 -15 6 -26 14 -18 14 -18 15 5 24 l25 9 -23 6
c-12 3 -25 15 -28 26 -7 26 -15 26 -31 1 -8 -13 -8 -20 -1 -20 5 0 8 -4 5 -9
-4 -5 0 -12 6 -14 24 -10 -16 -7 -54 3 -20 6 -39 18 -41 28 -4 14 -5 14 -6 -3
0 -10 10 -28 23 -40 l24 -20 -9 -130 c-5 -71 -11 -170 -13 -220 l-3 -90 7 80
c4 44 10 123 14 175 12 165 8 156 69 154 72 -2 97 -11 98 -37 3 -48 -3 -112
-11 -115 -4 -2 -5 -12 -2 -24 3 -13 1 -19 -5 -15 -6 4 -16 -7 -23 -24 -11 -25
-18 -30 -37 -26 -27 5 -26 5 -12 -26 13 -29 58 -54 60 -34 0 6 4 0 9 -15 4
-15 6 -87 4 -160 -6 -144 5 -215 37 -244 14 -12 35 -17 78 -17 32 1 96 -5 142
-13 l84 -14 -75 5 c-41 2 -91 8 -110 11 l-35 7 50 -42 c52 -44 84 -80 85 -93
0 -16 -27 -7 -60 20 -19 16 -46 35 -58 41 -22 12 -23 11 -17 -11 8 -25 8 -26
6 -45 -3 -33 -96 -53 -117 -25 -13 16 -14 16 -8 0 12 -35 -5 -17 -42 42 -42
69 -57 76 -19 9 22 -39 25 -55 25 -147 0 -96 35 -450 45 -461 8 -7 6 20 -16
210 -11 99 -18 206 -16 237 l4 57 55 0 c45 0 60 5 93 31 l38 31 36 -18 c20
-10 66 -25 104 -35 37 -9 67 -19 67 -23 0 -4 -39 3 -87 15 -94 24 -139 29
-147 16 -3 -5 38 -19 90 -31 51 -13 96 -26 98 -30 3 -4 -42 -7 -99 -7 -93 1
-127 -5 -114 -19 3 -2 52 -11 110 -18 94 -13 100 -15 64 -21 -22 -4 -55 -12
-74 -18 -18 -6 -64 -11 -102 -12 -73 -1 -78 -14 -9 -23 28 -4 37 -9 28 -14 -8
-5 10 -9 47 -9 l60 -1 -55 -29 c-65 -34 -63 -35 31 -15 40 9 74 14 76 12 2 -2
-28 -16 -67 -31 -38 -15 -70 -32 -70 -38 0 -5 8 -7 18 -4 40 11 86 17 77 9 -5
-4 -12 -24 -13 -43 -2 -19 -11 -48 -19 -64 -10 -20 -12 -31 -5 -34 6 -2 8 -10
5 -17 -2 -8 -6 -36 -7 -62 -2 -26 -8 -75 -15 -107 -10 -48 -10 -60 0 -67 20
-12 -18 -49 -50 -49 -14 0 -32 -4 -40 -9 -25 -16 33 -45 77 -38 l37 6 -35 -17
c-30 -15 -37 -15 -52 -3 -20 17 -81 23 -90 8 -5 -8 -9 -6 -14 6 -8 21 1 47 16
47 6 0 8 -5 5 -10 -3 -6 6 -15 21 -20 15 -6 27 -9 28 -8 1 2 -17 21 -39 43
l-41 40 1 -47 c0 -26 5 -52 12 -59 9 -9 9 -17 0 -33 -14 -24 -17 -107 -4 -99
5 3 6 21 2 40 -5 26 -2 40 10 53 9 10 14 24 10 29 -8 14 -9 14 45 -3 29 -10
37 -15 22 -15 -21 -1 -82 -27 -82 -35 0 -2 19 0 41 5 23 6 44 7 47 5 5 -6 -7
-11 -50 -20 -16 -4 -28 -10 -28 -15 0 -6 13 -6 32 0 46 13 46 12 7 -16 -56
-42 -69 -64 -67 -120 l2 -50 3 47 c4 43 8 51 48 78 53 37 69 39 32 5 -33 -31
-34 -38 -4 -30 18 5 16 3 -8 -15 -28 -20 -29 -21 -5 -15 l25 6 -23 -20 c-31
-27 -28 -32 12 -16 30 13 35 13 40 0 3 -8 11 -15 18 -15 10 0 14 -31 16 -121
3 -87 1 -119 -7 -115 -6 4 -20 5 -30 1 -24 -7 -17 -39 15 -64 13 -10 24 -25
24 -32 0 -9 -7 -6 -21 8 -18 18 -25 19 -50 10 -30 -12 -36 -21 -19 -32 5 -3
-8 -22 -28 -41 -20 -20 -32 -34 -27 -31 6 3 16 -2 24 -10 12 -13 11 -14 -10
-8 -23 7 -24 7 -6 -12 12 -14 16 -29 12 -46 -4 -14 -2 -28 4 -31 23 -14 11
-36 -18 -36 -32 0 -61 -22 -61 -46 0 -21 22 -26 56 -14 l29 11 -34 -35 c-41
-42 -31 -49 12 -8 l28 27 -10 -28 c-21 -55 -44 -93 -79 -129 -28 -29 -36 -47
-40 -86 -4 -49 -3 -51 29 -68 25 -14 56 -19 119 -19 77 0 89 3 130 29 26 16
57 45 70 65 22 32 25 48 27 145 1 61 5 128 8 150 4 23 7 55 8 73 1 17 6 35 10
39 11 12 8 51 -5 62 -10 8 -12 73 -10 279 3 295 3 303 13 298 3 -3 7 17 8 43
0 26 3 72 6 102 3 30 10 105 16 165 9 97 50 333 65 375 8 24 19 -2 42 -105 33
-148 45 -232 39 -262 -3 -15 1 -39 8 -53 7 -14 11 -39 8 -57 -3 -18 -2 -33 3
-33 5 0 10 -24 11 -52 4 -89 8 -116 16 -111 4 2 7 -3 7 -12 0 -9 -5 -13 -11
-9 -7 4 -9 2 -5 -7 3 -8 9 -22 12 -32 4 -9 11 -17 16 -17 6 0 7 -11 3 -27 -3
-15 -6 -59 -6 -97 0 -39 -4 -116 -10 -170 -7 -70 -7 -101 0 -106 15 -9 7 -67
-13 -88 -14 -17 -14 -19 1 -35 16 -16 16 -17 -5 -17 -20 0 -21 -3 -12 -21 7
-11 9 -32 6 -45 -9 -34 10 -67 35 -59 12 4 19 2 19 -6 0 -7 -3 -10 -6 -6 -10
9 -36 -21 -29 -33 4 -6 7 -54 9 -108 2 -77 6 -106 24 -138 23 -45 58 -70 47
-34 -6 18 -3 20 21 14 20 -5 25 -4 19 6 -5 8 3 21 21 36 38 31 97 31 144 2
l35 -22 -44 -8 c-54 -9 -65 -18 -22 -18 l32 0 -34 -29 c-28 -25 -43 -30 -98
-33 -61 -3 -63 -4 -39 -18 15 -9 52 -15 95 -15 61 0 76 4 117 30 27 17 48 38
48 48 0 22 -23 67 -60 118 -55 76 -65 136 -15 89 34 -32 32 -13 -2 22 -15 15
-28 37 -30 47 -4 26 32 34 54 13 16 -16 14 -17 -18 -22 -31 -5 -32 -6 -11 -12
49 -14 68 14 32 47 -14 12 -28 16 -50 12 -22 -5 -30 -3 -30 8 0 7 4 16 9 19 4
3 7 18 5 33 -4 25 -3 26 6 8 9 -17 9 -16 5 8 -3 16 -1 35 6 43 9 11 9 20 -1
40 -11 19 -11 27 -2 36 15 15 15 51 1 65 -9 9 -9 20 0 44 6 17 10 66 9 108
l-2 76 -6 -70 -6 -70 -2 70 c0 39 2 100 6 137 5 37 4 77 0 89 -6 16 -4 27 7
38 13 14 15 14 15 -2 0 -9 -5 -17 -12 -17 -9 0 -9 -3 0 -12 7 -7 10 -37 7 -87
-4 -74 -4 -74 5 -21 12 69 10 251 -3 267 -5 7 -6 29 -3 48 4 20 2 50 -5 68 -9
27 -7 66 10 208 13 96 21 193 18 215 -3 30 -4 26 -5 -20 -1 -33 -5 -57 -8 -53
-3 3 -2 57 2 119 8 108 9 110 15 53 5 -51 6 -44 7 46 1 59 5 121 9 139 4 25 3
31 -6 26 -8 -5 -6 6 4 31 30 69 37 92 33 115 -4 23 -5 23 -14 2 -20 -46 -129
-172 -140 -162 -4 4 -1 16 7 25 13 17 13 17 -7 0 -20 -16 -22 -16 -39 3 -16
17 -17 25 -7 40 16 26 -3 36 -31 16 -12 -9 -37 -28 -55 -41 -18 -13 -40 -21
-48 -18 -10 3 -12 0 -9 -10 4 -10 -3 -16 -26 -21 -18 -3 -34 -4 -37 -2 -11 12
10 37 36 42 16 3 56 30 88 60 37 34 74 58 99 65 71 19 89 32 105 77 13 38 13
47 -3 91 -9 27 -17 66 -17 88 0 21 -5 44 -11 50 -19 19 -11 375 10 396 8 8 11
6 11 -6 0 -33 22 -117 29 -112 5 2 7 -34 6 -80 l-2 -85 29 0 c15 0 28 3 28 8
1 4 10 18 21 32 l21 25 23 -30 c18 -22 23 -24 20 -9 -2 10 -4 23 -4 27 -1 5
-6 5 -12 2 -7 -5 -9 4 -5 29 4 22 2 36 -4 36 -7 0 -7 6 0 20 5 10 9 32 9 47
-4 67 2 124 11 118 6 -4 10 10 10 33 0 35 3 41 28 47 15 4 21 10 15 12 -7 3
-13 14 -13 26 1 22 1 22 15 3 18 -24 18 -22 0 34 -9 25 -14 33 -11 17 5 -41
-6 -23 -21 31 -16 62 -15 88 2 37 23 -68 16 -22 -11 82 -40 153 -58 177 -171
230 -53 24 -102 42 -110 39 -8 -3 -12 -2 -9 2 6 10 -68 52 -90 52 -7 0 -29 14
-49 31 -21 19 -33 24 -29 15 4 -10 23 -28 43 -41 45 -31 23 -33 -24 -2 -32 20
-35 26 -35 70 0 30 4 46 10 42 6 -3 10 2 10 12 0 10 3 29 7 43 4 20 -1 16 -26
-18 -37 -49 -85 -82 -122 -82 -30 0 -114 53 -135 84 -7 12 -17 36 -20 54 -7
34 -11 37 -34 22z m614 -334 c42 -19 76 -37 76 -40 0 -5 -151 61 -159 70 -11
10 13 1 83 -30z m-324 5 c0 -6 -4 -13 -10 -16 -5 -3 -10 1 -10 9 0 9 5 16 10
16 6 0 10 -4 10 -9z m459 -141 c10 -30 22 -71 25 -90 4 -19 -7 3 -23 49 -16
46 -34 88 -40 94 -6 6 -11 16 -11 21 0 24 32 -24 49 -74z m-152 -22 c-3 -7 -5
-2 -5 12 0 14 2 19 5 13 2 -7 2 -19 0 -25z m-800 -110 c-3 -8 -6 -5 -6 6 -1
11 2 17 5 13 3 -3 4 -12 1 -19z m42 -471 c0 -34 0 -69 1 -77 2 -37 -17 -149
-28 -163 -7 -8 -10 -26 -7 -39 4 -14 0 -31 -10 -43 -15 -19 -16 -15 -10 59 3
45 1 110 -6 151 -10 65 -9 85 10 179 11 58 21 109 22 113 3 31 28 -131 28
-180z m848 163 c-3 -11 0 -26 6 -33 15 -16 21 -94 7 -102 -6 -4 -10 5 -10 20
0 20 -4 26 -15 21 -11 -4 -15 1 -15 17 0 13 -4 27 -8 33 -5 5 -13 21 -20 37
-11 27 -11 27 24 27 32 0 36 -3 31 -20z m-930 -172 c-3 -8 -6 -5 -6 6 -1 11 2
17 5 13 3 -3 4 -12 1 -19z m198 -398 c108 -28 252 -26 395 6 l25 5 -24 -17
c-31 -22 -162 -54 -222 -54 -26 0 -90 14 -144 30 -54 17 -103 30 -111 30 -7 0
-16 5 -19 10 -9 15 12 12 100 -10z m-73 -15 c33 -14 95 -34 137 -46 42 -11 80
-25 85 -30 12 -11 -264 1 -284 12 -10 6 0 9 30 9 l45 1 -30 14 -30 14 30 -5
c27 -4 26 -2 -12 18 -24 12 -43 26 -43 30 0 12 4 11 72 -17z m216 18 c-21 -2
-55 -2 -75 0 -21 2 -4 4 37 4 41 0 58 -2 38 -4z m45 -150 c-7 -2 -19 -2 -25 0
-7 3 -2 5 12 5 14 0 19 -2 13 -5z m22 -73 c0 -23 -43 -23 -105 -1 l-55 20 80
-2 c64 -2 80 -5 80 -17z m83 11 c11 -2 9 -75 -3 -83 -18 -13 -45 -8 -45 8 0 8
-4 12 -10 9 -6 -4 -9 9 -7 32 2 35 4 38 30 37 15 -1 30 -2 35 -3z m62 -11
c-19 -13 -30 -13 -30 0 0 6 10 10 23 10 18 0 19 -2 7 -10z m-140 -62 c0 -21
-34 -24 -92 -7 -26 6 -38 16 -38 27 0 10 -5 23 -10 28 -6 6 23 1 65 -10 57
-16 75 -25 75 -38z m300 7 c10 -13 9 -15 -12 -15 -20 0 -94 -16 -163 -36 -14
-4 -17 -3 -10 4 6 6 36 18 67 26 32 8 66 19 75 25 24 14 28 13 43 -4z m30 -45
c0 -5 -6 -10 -14 -10 -8 0 -16 -4 -18 -10 -3 -10 -141 -34 -161 -27 -14 5 137
54 171 56 12 1 22 -3 22 -9z m-51 -106 c2 -2 -20 -4 -50 -4 -38 0 -50 3 -39
10 13 8 78 4 89 -6z m36 -54 c30 -5 -46 -16 -80 -12 -32 4 -36 6 -20 13 17 6
54 6 100 -1z m-51 -61 c-3 -5 10 -9 28 -10 27 0 30 -2 13 -9 l-20 -9 20 -1
c18 -1 17 -2 -4 -11 -25 -10 -81 6 -121 34 -14 10 -8 12 36 13 30 1 51 -2 48
-7z m-11 -64 c26 -8 54 -21 62 -29 20 -19 20 -162 0 -235 -10 -40 -11 -59 -3
-74 11 -21 -5 -97 -21 -97 -5 0 -16 21 -26 48 -10 26 -25 57 -33 70 -8 13 -10
22 -4 22 6 0 14 -5 17 -10 4 -6 10 -8 15 -5 5 3 0 22 -11 41 -10 19 -17 39
-14 44 3 5 0 12 -6 15 -5 4 -8 14 -5 22 3 8 -1 27 -9 43 -12 23 -13 34 -4 48
9 14 7 27 -10 60 -11 23 -21 44 -21 47 0 8 22 6 73 -10z m194 -107 c-2 -13 -4
-5 -4 17 -1 22 1 32 4 23 2 -10 2 -28 0 -40z m-10 -75 c-3 -10 -5 -2 -5 17 0
19 2 27 5 18 2 -10 2 -26 0 -35z m-10 -75 c-2 -13 -4 -5 -4 17 -1 22 1 32 4
23 2 -10 2 -28 0 -40z m-10 -85 c-3 -10 -5 -4 -5 12 0 17 2 24 5 18 2 -7 2
-21 0 -30z m16 -104 c-6 -6 -9 -1 -7 13 3 33 6 36 11 14 3 -10 1 -22 -4 -27z
m-282 -22 c-8 -8 -11 -7 -11 4 0 20 13 34 18 19 3 -7 -1 -17 -7 -23z m29 -58
c0 -6 -4 -7 -10 -4 -5 3 -10 11 -10 16 0 6 5 7 10 4 6 -3 10 -11 10 -16z m270
-9 c0 -5 -8 -10 -17 -10 -15 0 -16 2 -3 10 19 12 20 12 20 0z m-690 -130 c-8
-5 -22 -9 -30 -9 -10 0 -8 3 5 9 27 12 43 12 25 0z m420 -328 c0 -10 7 -28 16
-40 15 -21 16 -21 47 -5 18 9 48 28 67 42 l35 25 -25 -28 c-14 -15 -42 -37
-62 -47 -21 -11 -38 -24 -38 -30 0 -5 -13 6 -30 24 -29 34 -40 77 -20 77 6 0
10 -8 10 -18z m10 -105 c0 -2 -12 -14 -27 -28 l-26 -24 19 27 c16 23 34 36 34
25z m-450 -17 c0 -5 -5 -10 -12 -10 -6 0 -19 -6 -27 -14 -9 -7 -27 -17 -41
-20 -23 -6 -22 -4 10 24 33 29 70 40 70 20z m190 -50 c0 -5 -2 -10 -4 -10 -3
0 -8 5 -11 10 -3 6 -1 10 4 10 6 0 11 -4 11 -10z m-156 -112 c-8 -48 -17 -58
-55 -58 -30 0 -49 17 -49 44 0 33 29 56 72 56 l38 0 -6 -42z m540 15 c-12 -57
-16 -63 -40 -69 -37 -9 -54 2 -54 35 0 35 31 61 72 61 26 0 28 -3 22 -27z
m-144 13 c0 -2 -7 -6 -15 -10 -8 -3 -15 -1 -15 4 0 6 7 10 15 10 8 0 15 -2 15
-4z m-540 -91 c10 -12 9 -16 -4 -21 -9 -3 -23 -3 -32 0 -13 5 -14 9 -4 21 16
19 24 19 40 0z m657 -41 c-3 -3 -12 -4 -19 -1 -8 3 -5 6 6 6 11 1 17 -2 13 -5z
m-71 -29 c-4 -11 1 -15 19 -15 16 0 25 -6 25 -15 0 -9 9 -25 20 -37 27 -29 25
-70 -3 -96 -27 -26 -37 -20 -37 21 0 26 2 28 17 16 15 -13 15 -12 1 16 -8 17
-13 36 -10 44 2 8 0 11 -6 7 -6 -3 -19 6 -30 20 -16 23 -20 24 -25 10 -4 -9
-3 -15 2 -11 5 3 19 -8 31 -25 12 -16 19 -30 15 -30 -15 0 -45 22 -56 41 -9
17 -7 25 12 45 26 28 34 30 25 9z m-469 -11 c-3 -3 -12 -4 -19 -1 -8 3 -5 6 6
6 11 1 17 -2 13 -5z m-67 -29 c0 -3 -12 -17 -27 -31 -19 -17 -22 -24 -10 -20
15 5 14 1 -5 -25 -12 -16 -33 -32 -45 -35 -13 -4 -28 -14 -33 -23 -6 -10 -10
-11 -10 -3 0 7 25 39 55 70 30 31 55 60 55 65 0 4 5 7 10 7 6 0 10 -2 10 -5z
m78 -2 c-10 -2 -26 -2 -35 0 -10 3 -2 5 17 5 19 0 27 -2 18 -5z m579 1 c-3 -3
-12 -4 -19 -1 -8 3 -5 6 6 6 11 1 17 -2 13 -5z m-582 -24 c15 -7 9 -9 -25 -9
-33 -1 -41 2 -30 9 18 12 28 12 55 0z m598 -7 c-7 -2 -19 -2 -25 0 -7 3 -2 5
12 5 14 0 19 -2 13 -5z m-615 -30 c-10 -2 -26 -2 -35 0 -10 3 -2 5 17 5 19 0
27 -2 18 -5z m47 -3 c3 -5 1 -10 -4 -10 -6 0 -11 5 -11 10 0 6 2 10 4 10 3 0
8 -4 11 -10z m582 4 c-3 -3 -12 -4 -19 -1 -8 3 -5 6 6 6 11 1 17 -2 13 -5z
m-602 -58 l30 -24 -50 -7 c-75 -10 -84 -13 -42 -14 20 0 37 -5 37 -11 0 -5 -6
-10 -13 -10 -7 0 -18 -9 -25 -20 -10 -16 -23 -20 -71 -20 -78 0 -91 6 -91 41
0 24 4 29 25 29 14 0 24 5 23 11 -5 19 55 48 102 48 33 1 53 -5 75 -23z"/>
<path d="M990 235 c0 -5 5 -17 10 -25 5 -8 10 -10 10 -5 0 6 -5 17 -10 25 -5
8 -10 11 -10 5z"/>
<path d="M725 3780 c-22 -4 -43 -6 -47 -3 -5 2 -8 -1 -8 -6 0 -7 27 -11 70
-11 40 0 70 4 70 10 0 6 -4 10 -9 10 -5 0 -15 2 -23 4 -7 2 -31 0 -53 -4z"/>
<path d="M710 3730 c0 -5 13 -10 29 -10 17 0 33 5 36 10 4 6 -8 10 -29 10 -20
0 -36 -4 -36 -10z"/>
<path d="M580 3517 c0 -11 74 -57 90 -57 8 1 -2 9 -24 20 -21 11 -44 24 -52
31 -8 6 -14 9 -14 6z"/>
<path d="M236 3440 c-26 -31 -60 -126 -70 -196 -4 -22 5 0 19 49 29 101 50
147 69 147 8 0 16 7 20 15 9 25 -11 17 -38 -15z"/>
<path d="M678 3433 c7 -3 16 -2 19 1 4 3 -2 6 -13 5 -11 0 -14 -3 -6 -6z"/>
<path d="M750 3430 l-45 -7 40 -1 c22 0 49 3 60 8 23 10 9 10 -55 0z"/>
<path d="M151 3184 c0 -11 3 -14 6 -6 3 7 2 16 -1 19 -3 4 -6 -2 -5 -13z"/>
<path d="M142 3140 c0 -14 2 -19 5 -12 2 6 2 18 0 25 -3 6 -5 1 -5 -13z"/>
<path d="M1333 2830 c0 -36 2 -50 4 -32 2 17 2 47 0 65 -2 17 -4 3 -4 -33z"/>
<path d="M581 2863 c0 -6 -4 -20 -7 -30 -5 -14 -4 -15 5 -7 7 7 11 20 8 30 -3
11 -5 14 -6 7z"/>
<path d="M496 2765 c-9 -26 -7 -32 5 -12 6 10 9 21 6 23 -2 3 -7 -2 -11 -11z"/>
<path d="M1342 2740 c0 -14 2 -19 5 -12 2 6 2 18 0 25 -3 6 -5 1 -5 -13z"/>
<path d="M820 2735 c0 -16 16 -20 24 -6 3 5 -1 11 -9 15 -9 3 -15 0 -15 -9z"/>
<path d="M1348 2618 c-4 -61 -15 -124 -33 -183 -41 -134 -41 -156 1 -30 27 84
37 133 41 208 3 53 3 97 1 97 -3 0 -8 -42 -10 -92z"/>
<path d="M1308 2615 c6 -35 24 -44 20 -9 -2 15 -8 29 -14 31 -7 2 -10 -6 -6
-22z"/>
<path d="M595 2586 c-6 -6 -26 -33 -45 -60 -20 -27 -61 -66 -95 -88 l-60 -39
40 7 c75 12 256 82 270 104 4 6 -16 0 -44 -14 -61 -32 -74 -33 -66 -6 4 12 1
27 -5 35 -10 12 -10 15 0 15 7 0 10 6 7 14 -3 7 0 19 6 25 6 6 9 13 6 15 -2 2
-9 -1 -14 -8z"/>
<path d="M1172 2485 c0 -58 1 -65 9 -43 7 18 7 42 1 70 -10 42 -10 41 -10 -27z"/>
<path d="M152 2520 c0 -14 2 -19 5 -12 2 6 2 18 0 25 -3 6 -5 1 -5 -13z"/>
<path d="M161 2483 c-1 -7 9 -48 20 -90 12 -43 25 -100 29 -128 7 -49 8 -49 9
-10 1 35 -56 259 -58 228z"/>
<path d="M1271 2274 c0 -11 3 -14 6 -6 3 7 2 16 -1 19 -3 4 -6 -2 -5 -13z"/>
<path d="M1260 2228 c0 -13 -11 -47 -25 -77 -14 -30 -23 -56 -20 -59 2 -3 14
17 26 44 22 52 36 114 25 114 -3 0 -6 -10 -6 -22z"/>
<path d="M388 1983 c23 -2 59 -2 80 0 20 2 1 4 -43 4 -44 0 -61 -2 -37 -4z"/>
<path d="M468 1903 c12 -2 32 -2 45 0 12 2 2 4 -23 4 -25 0 -35 -2 -22 -4z"/>
<path d="M390 1806 c0 -2 11 -6 25 -8 13 -3 22 -1 19 3 -5 9 -44 13 -44 5z"/>
<path d="M332 1475 c0 -16 2 -22 5 -12 2 9 2 23 0 30 -3 6 -5 -1 -5 -18z"/>
<path d="M342 1415 c0 -16 2 -22 5 -12 2 9 2 23 0 30 -3 6 -5 -1 -5 -18z"/>
<path d="M872 1060 c0 -14 2 -19 5 -12 2 6 2 18 0 25 -3 6 -5 1 -5 -13z"/>
<path d="M861 994 c0 -11 3 -14 6 -6 3 7 2 16 -1 19 -3 4 -6 -2 -5 -13z"/>
<path d="M873 910 c0 -25 2 -35 4 -22 2 12 2 32 0 45 -2 12 -4 2 -4 -23z"/>
<path d="M342 910 c0 -19 2 -27 5 -17 2 9 2 25 0 35 -3 9 -5 1 -5 -18z"/>
<path d="M353 820 c0 -25 2 -35 4 -22 2 12 2 32 0 45 -2 12 -4 2 -4 -23z"/>
<path d="M390 743 c0 -7 12 -25 26 -40 16 -18 22 -21 15 -8 -15 32 -40 61 -41
48z"/>
<path d="M351 664 c0 -11 3 -14 6 -6 3 7 2 16 -1 19 -3 4 -6 -2 -5 -13z"/>
</g>
</svg>
