<?xml version="1.0" standalone="no"?>
<!DOCTYPE svg PUBLIC "-//W3C//DTD SVG 20010904//EN"
 "http://www.w3.org/TR/2001/REC-SVG-20010904/DTD/svg10.dtd">
<svg version="1.0" xmlns="http://www.w3.org/2000/svg"
 width="130.000000pt" height="300.000000pt" viewBox="0 0 130.000000 300.000000"
 preserveAspectRatio="xMidYMid meet">

<g transform="translate(0.000000,300.000000) scale(0.100000,-0.100000)"
fill="#000000" stroke="none">
<path d="M598 2970 c-9 -6 -29 -11 -45 -12 -42 -4 -108 -74 -116 -124 -5 -33
1 -86 13 -129 2 -5 0 -22 -4 -36 -8 -30 16 -89 37 -89 18 0 57 -75 57 -110 0
-38 -16 -70 -35 -70 -7 0 -20 -6 -27 -14 -20 -20 -87 -52 -124 -60 -42 -9 -59
-30 -78 -96 -9 -30 -27 -93 -41 -141 -31 -105 -31 -117 -1 -129 13 -5 27 -13
30 -18 3 -5 -4 -51 -15 -103 -17 -80 -19 -129 -18 -337 l2 -242 31 -30 c17
-16 39 -36 49 -42 22 -16 26 -127 10 -278 -6 -58 -7 -106 -3 -108 36 -14 40
-26 29 -99 -9 -58 -8 -101 5 -210 17 -147 9 -249 -21 -260 -8 -3 -26 -28 -41
-55 -15 -27 -35 -64 -44 -81 -26 -46 -8 -59 91 -65 l81 -5 39 44 c37 41 39 47
34 94 -3 28 -14 74 -24 103 -18 51 -18 59 -5 130 9 43 20 93 26 112 5 19 13
73 16 120 8 138 11 148 46 166 l30 16 -4 86 c-4 67 -1 101 13 147 10 33 19 72
19 87 0 15 4 30 10 33 14 9 40 -61 50 -135 17 -121 30 -205 35 -217 2 -6 14
-13 27 -15 33 -4 49 -46 64 -167 7 -58 24 -151 38 -206 30 -118 31 -121 10
-160 -9 -16 -18 -59 -19 -94 -4 -63 -3 -64 36 -102 39 -37 44 -39 105 -39 104
0 127 24 79 82 -14 16 -25 41 -25 54 0 15 -12 36 -30 52 -43 40 -55 102 -43
237 9 104 5 192 -12 312 -7 50 -6 53 19 63 29 11 31 23 15 101 -17 80 -19 239
-3 239 25 0 71 50 83 89 8 29 9 52 2 78 -5 21 -10 132 -11 246 0 145 -5 227
-15 270 -19 80 -19 96 3 104 46 16 47 6 -15 213 -40 132 -41 134 -151 186
-118 56 -132 68 -132 110 0 38 35 98 67 113 25 12 49 76 35 94 -6 8 -6 34 1
74 9 53 8 67 -8 102 -23 51 -39 66 -115 102 -66 31 -85 34 -112 19z m322
-1140 c6 -47 19 -119 30 -160 28 -115 34 -201 19 -286 -7 -41 -16 -74 -20 -74
-7 0 -20 77 -25 155 -10 152 -25 280 -34 289 -5 5 -10 25 -10 44 0 32 20 126
25 120 2 -2 8 -41 15 -88z m-530 30 c0 -27 -7 -74 -15 -105 -8 -31 -12 -62 -9
-69 3 -7 -4 -50 -15 -95 -17 -70 -19 -87 -8 -114 14 -36 11 -107 -4 -107 -17
0 -39 66 -39 115 0 41 23 159 51 266 5 20 9 57 9 82 0 25 3 52 6 61 12 32 24
15 24 -34z m-60 -606 c0 -35 -13 -46 -24 -18 -3 9 -6 29 -6 46 0 26 2 29 15
18 8 -7 15 -28 15 -46z m680 4 c0 -22 -46 -72 -59 -63 -18 11 -12 35 9 35 15
0 20 7 20 28 0 16 3 32 7 35 8 9 23 -13 23 -35z"/>
</g>
</svg>
