<?xml version="1.0" standalone="no"?>
<!DOCTYPE svg PUBLIC "-//W3C//DTD SVG 20010904//EN"
 "http://www.w3.org/TR/2001/REC-SVG-20010904/DTD/svg10.dtd">
<svg version="1.0" xmlns="http://www.w3.org/2000/svg"
 width="360.000000pt" height="540.000000pt" viewBox="0 0 360.000000 540.000000"
 preserveAspectRatio="xMidYMid meet">

<g transform="translate(0.000000,540.000000) scale(0.100000,-0.100000)"
fill="#000000" stroke="none">
<path d="M1630 5008 c-94 -26 -143 -101 -146 -223 -1 -44 -7 -92 -14 -106 -17
-37 3 -103 44 -144 40 -40 58 -100 54 -185 l-3 -65 -150 -48 c-197 -63 -222
-74 -244 -111 -16 -27 -121 -360 -121 -385 0 -5 14 -14 30 -20 36 -12 37 -16
10 -176 -23 -143 -26 -329 -9 -735 8 -196 16 -283 26 -303 22 -44 91 -89 125
-82 l28 7 0 -70 c0 -38 7 -105 15 -148 25 -139 20 -401 -9 -433 -9 -10 -14
-24 -11 -32 3 -8 1 -37 -4 -64 -8 -39 -7 -53 4 -64 11 -12 10 -18 -7 -42 -20
-27 -21 -32 -9 -256 11 -234 9 -267 -25 -337 l-19 -38 25 -20 24 -19 -19 -35
-18 -34 26 -28 c30 -32 34 -54 12 -72 -8 -7 -15 -28 -15 -46 0 -26 -14 -51
-65 -114 -73 -90 -95 -128 -95 -163 0 -22 5 -25 61 -31 87 -9 154 -8 182 3 14
6 56 41 94 78 l68 69 -3 83 c-4 73 -7 83 -25 90 -20 8 -20 8 5 14 21 6 28 17
42 66 16 58 16 61 -4 93 -26 43 -25 81 2 154 21 55 23 76 23 294 0 222 1 238
23 284 12 27 22 68 22 91 0 25 11 67 27 101 17 38 29 87 35 144 5 47 22 126
39 177 16 50 39 154 50 230 10 76 21 145 22 153 5 27 44 -63 82 -190 20 -68
54 -165 74 -215 44 -103 45 -105 71 -261 11 -65 29 -145 39 -178 28 -91 42
-224 39 -386 -1 -136 0 -151 28 -235 20 -62 29 -111 29 -157 0 -61 3 -70 33
-103 36 -42 38 -45 18 -45 -24 0 -29 -20 -12 -39 15 -16 15 -19 1 -31 -10 -9
-15 -28 -14 -60 1 -26 -1 -51 -4 -56 -8 -14 3 -27 44 -52 21 -12 44 -33 52
-46 26 -39 77 -56 165 -56 43 0 100 3 126 6 40 6 46 10 46 31 0 36 -23 73 -80
128 -67 65 -100 116 -93 144 3 12 0 33 -7 46 -11 21 -9 27 20 63 28 36 30 42
19 64 -7 12 -12 35 -10 50 1 17 -12 51 -39 95 l-42 68 6 167 c4 109 2 186 -6
220 -12 59 -13 80 -2 156 5 42 3 56 -10 71 -11 13 -14 21 -7 26 18 11 12 44
-15 91 -20 34 -27 61 -29 112 -2 37 -6 162 -10 277 l-8 211 40 26 c85 56 103
159 106 603 l2 280 -32 143 c-32 140 -42 242 -24 242 5 0 21 4 34 9 l25 10
-30 103 c-16 57 -35 138 -43 180 -15 81 -32 118 -68 141 -33 21 -192 76 -280
97 -43 10 -85 24 -93 31 -10 8 -14 33 -14 83 1 81 19 141 49 162 30 22 56 116
40 146 -7 13 -13 55 -14 93 -1 84 -37 171 -81 202 -60 42 -145 54 -224 31z
m-289 -1623 c-17 -270 -24 -321 -44 -343 -12 -13 -16 -28 -12 -45 5 -16 1 -34
-9 -48 -11 -16 -13 -35 -9 -65 3 -24 2 -51 -2 -61 -5 -10 -7 -46 -6 -80 2 -35
0 -63 -3 -63 -4 0 -20 15 -36 33 -54 59 -54 74 -14 278 25 132 38 229 44 344
8 152 27 260 61 340 12 29 12 29 27 -45 11 -62 12 -105 3 -245z m816 168 c14
-51 28 -133 33 -198 4 -63 21 -164 38 -235 17 -69 36 -159 43 -201 11 -75 11
-77 -16 -123 -15 -25 -31 -49 -36 -52 -14 -8 -29 42 -29 95 0 27 -6 66 -14 87
-7 22 -16 72 -20 113 -4 41 -14 83 -21 95 -17 27 -30 300 -20 425 4 51 9 90
12 88 2 -3 16 -45 30 -94z m77 -899 c27 -26 16 -114 -13 -114 -4 0 -7 29 -7
65 -1 36 0 65 2 65 1 0 10 -7 18 -16z m16 -174 c-6 -11 -15 -18 -21 -14 -6 4
-6 11 2 20 17 21 31 17 19 -6z m-43 -1974 c32 -29 67 -56 78 -59 11 -4 72 -2
135 2 63 5 117 7 119 5 10 -10 -11 -14 -107 -24 -124 -13 -164 -4 -212 46 -19
19 -47 42 -62 50 -27 14 -38 34 -19 34 6 0 36 -24 68 -54z m-737 35 c0 -5 -10
-13 -22 -17 -13 -3 -44 -30 -70 -58 l-48 -51 -125 -3 c-85 -3 -125 0 -125 7 0
7 41 11 122 11 l121 0 41 44 c23 24 55 51 71 59 36 19 35 19 35 8z"/>
</g>
</svg>
