<?xml version="1.0" encoding="UTF-8"?>
<svg id="Layer_2" data-name="Layer 2" xmlns="http://www.w3.org/2000/svg" viewBox="0 0 134.39 431.29">
  <defs>
    <style>
      .cls-1 {
        stroke-width: 0px;
      }
    </style>
  </defs>
  <g id="Layer_1-2" data-name="Layer 1">
    <path class="cls-1" d="m131.92,203.83c2.65-15.74,3.17-31.56,1.55-47.46-.53-5.17-1.54-11.64-1.78-17.75-.6-14.75-1.45-30.92-7.2-44.1-3.62-8.28-7.75-14.67-12.39-19.16-5.38-5.2-11.22-6.06-17.87-7.77-.05-.01-.09-.03-.13-.05-.35-.17-.5-.59-.33-.94.89-1.83,1.42-3.83,1.57-6.02,1.04-14.25-2.6-29.23-7.55-42.49-3.63-9.72-8.25-19.39-20.79-17.18-.34.06-.67.03-1-.1-19.54-7.65-27.23,40.99-28.05,51.5-.39,4.99.09,9.74,1.43,14.25.16.55-.04.87-.6.98-8.06,1.58-14.45,3.12-19.7,10-8.89,11.67-13.94,24.86-15.13,39.55-.35,4.32-.61,13.73-.77,28.24-.05,4.58-1.56,11.06-1.71,16.36-.22,7.72-.13,15.43.27,23.14.31,5.97.96,11.9,1.96,17.78.3,1.79.35,3.03.14,3.72-1.49,4.95-3.43,10.91-3.04,16.11.25,3.24,2.46,6.04,3.5,8.98.69,1.95,1.97,3.01,3.84,3.19.37.04.7.25.89.57.96,1.66,2.33,2.84,4.1,3.54.25.1.39.34.36.6-1.75,13.68-2,27.49-2.68,41.26-.33,6.64.34,13.16,2.03,19.56.36,1.36.5,2.26.41,2.7-2.03,10.41-2.42,21.31-1.19,32.7,2.02,18.69,4.23,35.11,6.64,49.28,1.2,7.09-2.22,14.69-5.53,22.5-1.05,2.51-2.25,4.71-3.59,6.62-1.75,2.51-4.47,3.58-7.13,4.97-2.63,1.38-2.76,5.79-2.14,8.36.17.69.61,1.05,1.32,1.08l16.42.68c1.98-1.03,3.17-1.97,3.57-2.84l6.83-11.19c1.39-2.27,1.99-2.08,1.81.58l-.67,9.92c-.05.75-.66,1.34-1.41,1.36l-3.8.12,3.38.17s.05.01.05.03c0,0-.01.01-.01.02,0,.02-.01.03-.03.03-3.95-.23-5.35.49-4.2,2.15,4.2,1.35,8.36,1.99,12.48,1.9.32,0,.5-.17.54-.49.75-6.59,1.09-13.19,1.02-19.82-.07-7.13,4.17-12.78-1.28-19.39-5.02-6.1,7.56-47.44,9.82-56.24,2.85-11.13,2.12-20.8.36-31.43-.05-.32,0-.64.17-.92,9.4-16.31,14.27-36.96,17.39-55.11.03-.18.13-.26.31-.23l.25.03s.03.02.03.04c-1.7,15.59-4.23,32.77-.44,47.78,1.34,5.35.12,9.36-1.31,15.33-1.34,5.62-1.68,13.04-1.01,22.25,1.17,16.02,3.21,35.09,1.7,48.3-.38,3.41-1.6,6.61-2.53,9.86-.32,1.14-.35,2.35-.08,3.51,1.88,8.16,1.16,16.95,1.29,25.33.08,5.13,2.91,7.74,7.45,9.13,5.67,1.73,13.09-.33,14.85-6.64.49-1.78.49-3.42-.01-4.92-2.93-8.89-4.93-16.93-6-24.12-.76-5.11-.12-8.99,1.49-13.7,3.11-9.06,7.19-21.4,12.24-37.01,2.35-7.29,4.16-14.7,5.42-22.25,1.19-7.19,1.47-12.69.83-16.49-.95-5.65-1.16-9.4-.65-11.25,5.44-19.53,11.49-39.25,18.16-59.14.26-.77,1.01-1.26,1.82-1.19.22.02.35.26.38.71.01.24-.04.49-.17.74-.34.71-.71,1.33-1.12,1.88-.1.13-.16.27-.19.43-.1.54.26,1.06.81,1.16,3.3.6,6.34-2.4,9.75-3.3.31-.08.58-.29.74-.57,1.59-2.75,3.07-5.57,4.43-8.46.81-1.72,1.19-3.48,1.16-5.27-.07-3.76-.55-7.47-1.43-11.13-.39-1.63-.56-3.43-.32-4.86Zm-118.04,25.42l-.31-.09c-.45-.12-.7-.41-.76-.86-.18-1.3-.24-2.75-.18-4.35.03-.79.09-1.25.16-1.4.68-1.29,1.1-1.2,1.26.27l.62,5.76c.07.61-.2.83-.79.67Zm15.75-82.64c-2.51,4.42-4.73,8.54-6.66,12.37-.99,1.96-1.29,1.86-.91-.3,1.08-6.11,3.86-12.69,5.78-18.64.68-2.1,1.47-7.15,2.36-15.14.01-.09.07-.14.16-.13s.14.06.13.15c-.26,5.41.04,10.8.91,16.15.21,1.26-.95,4.09-1.77,5.54Zm83.17,11.89c-.05.37-.19.4-.4.09-2.5-3.67-5.05-7.3-7.65-10.87-2.52-3.47-2.5-5.99-1.96-10.6.45-3.78.54-7.57.27-11.38,0-.04.02-.06.06-.07l.31-.03c.16-.01.25.06.27.22,1.37,10.72,4.35,20.97,8.95,30.76.22.47.27,1.09.15,1.88Zm8.51,68.86l-.13.97c-.03.22-.24.38-.46.35l-1.21-.16c-.22-.03-.38-.24-.35-.46l.13-.97c.5-3.76,1.28-6.76,1.75-6.72l.34.05c.46.07.43,3.17-.07,6.94Z"/>
  </g>
</svg>