<?xml version="1.0" encoding="UTF-8"?>
<svg id="Layer_2" data-name="Layer 2" xmlns="http://www.w3.org/2000/svg" viewBox="0 0 190.83 432.81">
  <defs>
    <style>
      .cls-1 {
        stroke-width: 0px;
      }
    </style>
  </defs>
  <g id="Layer_1-2" data-name="Layer 1">
    <path class="cls-1" d="m178,96.28c-2.91-1.95-8.62-5.97-17.15-12.06-12.05-8.61-25.2-14.7-39.47-18.27-.27-.07-.47-.29-.5-.57-1.69-15.86-4.66-31.52-8.9-46.97-2.38-8.65-9.45-21.88-20.87-17.41-.32.12-.64.12-.95,0-19.09-7.5-27.87,29.27-30.3,41.12-1.39,6.76-1.86,13.5-1.43,20.21.03.46-.29.88-.74.97-10.01,2.01-17.74,5.47-23.99,14.56-8.53,12.42-13.96,26.09-16.27,41-1.18,7.59-1.71,17.57-3.52,26.25-3.26,15.66-4.71,32.04-4.79,50.28-.03,7.56-2.73,14.45-2.46,21.89.07,2.05,1.16,3.54,1.88,5.43,1.59,4.2,4.57,6.71,8.64,8.4.34.15.66.35.93.61,1.68,1.62,3.34,1.47,4.98-.46.17-.2.18-.49.02-.7-3.47-4.6-5.67-6.06-3.77-12.35.13-.45.32-.75.56-.92.34-.24.72-.26,1.13-.05.33.17.5.45.49.82l-.1,3.51c-.04,1.21.39,2.38,1.19,3.27l.82.92c.83.93,1.32.77,1.45-.46,1.21-10.98,2.09-17.14-1.5-25.41-.95-2.18-.69-4.26.08-6.28.89-2.35,3.12-7.85,6.67-16.5,2.73-6.64,3.73-16.25,6.99-24.03,1.67-4,3.14-7.99,4.43-11.96.3-.92.5-.9.61.06.8,7.22-3.69,15.62-5.39,22.21-2.32,8.99-3.19,17.76-4.26,26.95-1.62,13.92-3.14,27.85-4.56,41.8-.6,5.91-1.2,11.82-1.79,17.73-.46,4.52.46,5.74,5.22,5.22,1.09-.11,1.63.38,1.62,1.47-.07,12.64.82,25.59,2.68,38.84.29,2.01.54,3.46-.3,5.47-4.45,10.61-6.81,21.86-7.1,33.75-.23,9.59-.78,26.09-1.64,49.5-.16,4.41-.57,7.33-1.23,8.77-2.53,5.52-5.12,11.01-7.77,16.47-1.37,2.84-3.06,5.07-5.06,6.68-4.1,3.32-15.35,2.4-11.95,10.72.16.39.52.66.94.7l17.04,1.69,4.78-.03c1.01-.39,2.08-.54,3.21-.45l6.78.41c1.97.69,3.99,1.2,6.07,1.52,1.61.24,2.57,1.17,3.86,2.02.61.23,1.22.25,1.82.07.31-.09.55-.32.65-.62l1.65-4.95c.47-.49.51-19.26.93-22.01.56-3.64,1.6-6.57-.04-10.14-.77-1.68-1.91-3.63-3.41-5.86-.19-.29-.29-.6-.3-.95-.08-2.25.28-4.43,1.08-6.55,3.87-10.27,8.07-20.41,12.6-30.4,3.83-8.46,6.76-17.2,8.77-26.22,1.22-5.49,1.55-11.75,2.13-17.58.06-.67.36-1.29.83-1.76,3.55-3.52,6.11-7.8,7.67-12.83,3.19-10.27,5.77-20.85,7.72-31.72,0,0,0,0,0,0,.02-.12.14-.2.27-.17l.3.05c.27.05.45.3.41.57-1.7,12.3-3.33,23.21-.71,31.59,1.09,3.46,3.57,9.27,3.15,12.82-1.57,13.16-1.1,24.11,1.05,38.45,1.65,10.97,3.12,21.96,4.43,32.97.61,5.15.58,10.27-.1,15.36-1.44,10.84-2.42,21.73-3.39,32.5,2.7,5.72,11.37,4.13,16.1,3.14,1.88-.4,4.05-1.52,6.5-3.35-.41-10.72-1.38-21.64-2.92-32.75-.5-3.64-.45-7.56.4-10.68,3.86-14.24,7.61-29.98,11.25-47.21,2.11-9.99,2.3-19.8.57-29.45-.35-1.97-.4-4.79-.04-6.32,3.95-16.47,8.38-32.79,13.27-48.98.12-.41.39-.68.8-.8,6.62-1.92,10.79-4.17,18.87-4.14,2.27.01,3.95-.46,3.72-3.06-1.19-13.15-3-26.2-5.43-39.15-2.72-14.5-4.75-24.15-11.48-35.17-2.23-3.65-3.48-6.23-3.73-7.72-1.83-10.76,13.64-14.65,21-17.61,11.35-4.57,20.85-11.6,28.52-21.09,7.4-9.16-2.5-19.43-10.22-24.61Zm-21.51,25.02c-.88,1.3-1.91,2.4-3.09,3.31-7.74,5.89-15.29,11.37-22.66,16.44-2.26,1.56-2.54,1.26-.85-.9,1.01-1.29,1.28-3.38.79-6.25-.54-3.14-2.24-7.35-1.03-10.36,2.83-7.07,7.72-9.96,14.67-8.67,4.01.75,8.07,3.7,11.99,5.71.33.17.39.41.18.72Z"/>
  </g>
</svg>