<?xml version="1.0" encoding="UTF-8"?>
<svg id="Layer_2" data-name="Layer 2" xmlns="http://www.w3.org/2000/svg" viewBox="0 0 126.92 362.31">
  <defs>
    <style>
      .cls-1 {
        fill: #090b0a;
        stroke-width: 0px;
      }
    </style>
  </defs>
  <g id="Layer_1-2" data-name="Layer 1">
    <path class="cls-1" d="m114.33,148.88c6.13-9.83,12.67-19.47,12.59-31.49-.01-2.87-.28-5.15-.79-6.83-3.41-11.25-6.81-22.5-10.19-33.76-3.04-10.14-9.57-17.54-20.04-20.05-.69-.17-1.01-.61-.96-1.32.17-2.13,2.56-3.79,1.73-6.23,0-.02-.5-.87-1.48-2.56-1.41-2.42-1.93-5.69-1.57-9.82.03-.35-.12-.48-.45-.41-.37.08-.52.55-.45,1.42,0,.04,0,.07-.02.11-.05.12-.19.17-.3.12l-.24-.11c-.35-.15-.54-.42-.55-.8-.02-1.07.2-2.07.67-3.02.16-.33.17-.65.02-.98-.92-2.08-3.34-3.23-3.33-5.49,0-.39.2-.52.57-.41,1.62.49,2.9,1.45,3.83,2.87.36.55.57.49.64-.16.19-1.83-2.86-3.68-4.7-4.86-.28-.18-.48-.46-.56-.79-.49-2.13-.05-4.59-.78-6.31-.89-2.07-2.74-3.6-5.57-4.59-.37-.13-.62-.48-.63-.87-.04-3.97-1.86-6.77-5.46-8.38-2.12-.96-4.64-.59-7.06-2.12-4.11-2.6-8.01-3.03-11.76.55-.45.43-1.07.66-1.69.62-4.59-.26-7.44,1.79-8.54,6.16-.07.26-.28.47-.55.53-3.16.67-4.99,2.54-5.48,5.61-.2,1.23.31,2.75.5,4.06.05.33-.02.65-.19.94-1.13,1.91-3.32,3.16-2.39,5.79,1.62,4.56-7.76,8.16-2.49,13,.31.29.32.58.03.89-2.04,2.13-5.57,4.05-3.84,7.92.05.11.14.16.27.15.09-.01.18-.02.27-.03.17,0,.23-.09.19-.26-.83-3.59,1.96-5.27,4.39-7.03.08-.06.19-.09.29-.07.23.03.4.23.37.46-.21,2.07-.97,3.89-2.27,5.48-.21.26-.26.55-.14.86.99,2.67.34,4.69-1.97,6.06-.31.18-.45.55-.34.9.15.43.45.73.91.89.28.1.4.3.36.6l-.09.59c-.05.34-.25.54-.59.59-3.38.54-5.61.99-6.7,1.35-9.54,3.19-15,12.65-17.4,22.66-1.39,5.83-4.15,15.07-8.27,27.74-5.39,16.56.32,28.92,7.38,43.66,1.81,3.79,1.84,7.96,4.02,11.98.15.29.15.63-.02.91-5.61,9.6-7.69,19.17-5.67,30.42,1.25,6.92,5.48,15.15,7.23,22.31,3.25,13.28,6.88,26.45,10.89,39.51,2.88,9.36-1.94,15.37-1.89,24.21.03,4.63.53,9.22,1.49,13.77,2.84,13.43,6.29,27.65,11.53,40.35,3.48,8.46-.33,12.22-4.51,18.84-4.8,7.6,9.6,7.55,13.82,7.17,2.39-.21,7.11-1.93,5.87-5.26-1.64-4.44-.86-7.7-.62-12.13.19-3.59-1.97-5.41-3.88-7.89-.19-.24-.28-.54-.25-.84.06-.67.15-1.33.27-1.99,2.21-11.9,4.55-23.78,7.03-35.63,1.91-9.14.22-15.69-.97-24.14-.86-6.06,2.22-10.06,3.09-14.24,2.45-11.76,1.92-26.42,2.87-39.42,0-.09.08-.17.17-.17.09,0,.17.08.17.17.68,10.31,1.42,20.62,2.22,30.91.41,5.31,1.77,10.73,4.1,16.28,1.7,4.05,1.94,6.89,1.51,10.96-.78,7.39-1.92,14.11-.06,21.5,2.96,11.76,6.31,23.29,8.28,35.29.2,1.19.41,1.98-.24,3.15-3.53,6.3-2.1,11.6-3.32,17.91-1.46,7.46,15.14,5.38,18.51,4.48,1.91-.51,3.19-1.97,2.41-4-1.56-4.08-8.47-10.39-7.2-14.58,4.52-14.85,8.11-29.93,10.77-45.24,1.05-6.02.95-11.27-.29-15.75-2.23-8.08-4.72-16.05-2.44-22.51,5.53-15.66,8.23-29.11,12-47.03,1.17-5.54,3.48-11.92,4.48-17.71,1.9-10.98.77-21.84-3.38-32.57-.12-.3-.06-.64.15-.88,3.26-3.76,4.36-8.24,6.68-11.97ZM38.12,38.6c-.41.16-1.12-.65-1.58-1.81s-.5-2.23-.09-2.4,1.12.65,1.58,1.81c.46,1.16.5,2.23.09,2.4Zm-6.42,76.9c-1.26,2.15-2.09,3.8-2.51,6.72-.56,3.85-1.69,5.81-3.44,9.17-2.66,5.11-4.71,10.8-6.16,17.09-.07.31-.26.44-.57.39l-.27-.05c-.11-.02-.15-.08-.14-.19,1.19-10.25.47-20.36-2.16-30.32-.09-.33-.01-.68.2-.94,3.25-4.05,5.68-8.54,7.29-13.46.03-.1.14-.16.24-.13.06.02.1.06.12.12,1.6,4.13,4.03,7.72,7.28,10.75.27.25.31.53.12.85Zm10.36-58.81c-.3.43-.73.64-.97.47-.24-.17-.2-.65.1-1.07s.73-.64.97-.47.2.65-.1,1.07Zm50.32-.12l-.64-.35c-.68-.37-.94-1.23-.56-1.92.05-.09.11-.18.18-.26l3.53-4.01c.09-.11.26-.11.37-.02l.27.22c.11.09.12.19.04.3-1.19,1.74-2,3.63-2.41,5.67-.1.47-.36.6-.78.37Zm12.58,85.78c-.05.6-.58,1.04-1.19.99,0,0,0,0-.01,0-.66-.07-1.1-.52-1.31-1.33-1.59-6.03-3.2-8.93-5.42-13.45-1.36-2.77-1.49-5.53-1.95-8.55-.23-1.51-1.04-2.52-1.69-3.92-.14-.29-.05-.65.21-.84,4.31-3.15,7.38-7.23,9.23-12.24.37-1.01.71-.99,1,.04,1.24,4.34,3.42,8.22,5.83,12.02.43.68.54,1.52.31,2.29-2.5,8.16-4.17,16.49-5.01,24.99Z"/>
  </g>
</svg>