<?xml version="1.0" encoding="UTF-8"?>
<svg id="Layer_2" data-name="Layer 2" xmlns="http://www.w3.org/2000/svg" viewBox="0 0 173.86 432.68">
  <defs>
    <style>
      .cls-1 {
        stroke-width: 0px;
      }
    </style>
  </defs>
  <g id="Layer_1-2" data-name="Layer 1">
    <g>
      <path class="cls-1" d="m50.41,170.85s.05.05.09.08c-.03-.02-.07-.04-.09-.08Z"/>
      <path class="cls-1" d="m50.65,170.99c.05,0,.11-.01.16-.04-.06.03-.13.03-.2.02.02,0,.03.02.04.02Z"/>
      <path class="cls-1" d="m173.78,223.5c-1.25-5.84-3.35-11.68-3.32-17.69.02-4.87-.15-8.5-.52-10.91-1.51-9.95-2.95-19.91-4.32-29.88-1.45-10.64-7.46-21.88-8.41-32.85-.65-7.59-1.28-15.17-1.88-22.75-1.03-13.09-6.71-33.72-20.05-39.61-.3-.13-.51-.4-.56-.72-.7-4.11-1.99-8.01-3.88-11.68-1.8-3.49-3.46-7.77-3.72-10.74-1.17-13.62-2.28-25-7.55-35.36-6.19-12.18-21.17-15.17-31.26-5.79-6.33,5.9-9.98,15.25-12.3,23.39-3.42,11.99-7.55,23.7-12.38,35.14-.23.55-.74.92-1.34.98-9.92.92-15.91,7.72-20,15.98-4.96,9.99-7.9,20.78-8.83,32.37-1.32,16.43-2.88,32.04-1.91,49.31.73,12.9,3.11,27.34,5.02,40.96.31,2.17.28,4.79-.07,6.99-1.52,9.37-1.18,18.92,4.58,26.88.74,1.01.69,1.72.64,2.89-.53,11.42-.95,22.84-1.25,34.27-.25,9.35-.63,15.99-1.16,19.94-1.98,14.8-7.38,28.64-10.18,43.28-3.38,17.63-6.37,35.33-8.96,53.1-.05.33-.02.66.1.97,1.94,5.13-7.77,22.08-10.26,26.78-2.34,4.43-5.75,6.84-9.34,9.87-.14.12-.26.25-.36.4-.57.86-.33,2.03.54,2.6l1.01.66c7.33.67,16.63.87,23.7-2.56,1.77-2.26,3.33-4.78,4.67-7.57.41-.86,1.07-1.42,1.99-1.68.69-.19,1.14.14,1.35.97.48,1.89.53,3.9.15,6.01-.03.19-.03.38.02.57.18.76.94,1.23,1.69,1.05,1.23-.29,2.43-.34,3.61-.15.36.06.7-.14.83-.48.18-.48.23-1.07.15-1.76v-7.73c0-.32.09-.6.29-.85,2.23-2.71,4.72-3.68,2.75-7.9-1.87-4.01-4.96-10.14-4.45-14.62,0-.03,0-.05.01-.08.11-.56.65-.93,1.22-.82,7.75,1.43,15.44,1.31,23.05-.34,2.81-.61,4.08-1.29,4.54-4.36,3.82-25.2,6.36-50.22,12.04-75.13.23-.99,1.39-6.65,3.5-16.98,3.64-17.87,10.37-34.38,14.76-53.95.99-4.41,1.47-9.44,2.26-14.15.03-.17.11-.21.26-.13.14.07.21.16.21.27.39,17.6-.73,36.47-1.56,54.76-.16,3.64-.06,8.89.31,15.74.32,6.05.18,13.22-.42,21.51-1.48,20.37-3.97,40.63-7.47,60.76-.75,4.3,5.84,6.64,9.05,7.2,0,0,0,0,.01,0,.37.07.61.43.54.8-.8,4.15-2.07,8.23-3.8,12.24-.67,1.54-.99,2.93-.94,4.18.12,3.32,2.28,6.23,1.37,9.3-1.21,4.08-1.73,7.67-1.56,10.78,2.35,3.35,5.84,4.82,10.47,4.42,4.15-.36,9.82-1.51,12.61-5.35,1.17-1.91,1.4-3.94.69-6.11-1.9-5.81-5.19-12.84-5.09-18.7.05-2.95.5-5.89,1.33-8.82.1-.34.33-.5.69-.49,6.14.25,11.07-.13,16.29-2.27.62-.26,1.03-.85,1.05-1.52.05-2.05.2-4.27.43-6.67,1.72-17.66,3.77-35.28,6.16-52.86,1.78-13.15,5.2-29.2,6.84-40.65,3.37-23.49,6.73-43.32,10.06-59.49.17-.83.36-.84.57-.01l.76,3.1c.03.14.08.27.15.4.39.78,1.24,1.12,1.88.76.14-.08.29-.36.46-.84.79-2.21,1.23-3.95,1.32-5.21.26-3.35.8-3.4,1.63-.14.08.3-.02,2.86,0,3.99.06,2.72-1.92,5.04-5.95,6.95-.76.37-1.28,1.1-1.36,1.94l-.07.77c-.17,1.74.52,2.22,2.09,1.44l7.8-3.89c.98-.49,1.77-1.3,2.23-2.3l4.46-9.62c.36-.79.47-1.67.29-2.51Zm-112.34-77.29c-6.13,6.43-9.07,15.98-10.26,24.41-.02,1.11-.23,1.86-.62,2.25-.36.35-.53.27-.5-.23l.34-8.2c.17-5,.11-10.01-.2-15.04-.23-3.75,2.06-5.06,3.12-7.79,1.55-3.97,2.85-7.86,3.91-11.65.3-1.07.62-1.08.95-.02,1.3,4.08,3.72,11.01,3.62,15.4,0,.33-.13.62-.36.87Zm76.95-6.07c-.27.18-.8-.16-1.19-.76-.39-.6-.49-1.22-.22-1.4.27-.18.8.16,1.19.76.39.6.49,1.22.22,1.4Z"/>
    </g>
  </g>
</svg>