<?xml version="1.0" standalone="no"?>
<!DOCTYPE svg PUBLIC "-//W3C//DTD SVG 20010904//EN"
 "http://www.w3.org/TR/2001/REC-SVG-20010904/DTD/svg10.dtd">
<svg version="1.0" xmlns="http://www.w3.org/2000/svg"
 width="152.000000pt" height="332.000000pt" viewBox="0 0 152.000000 332.000000"
 preserveAspectRatio="xMidYMid meet">

<g transform="translate(0.000000,332.000000) scale(0.100000,-0.100000)"
fill="#000000" stroke="none">
<path d="M605 3310 c-66 -7 -100 -22 -159 -69 -21 -17 -47 -31 -56 -31 -28 0
-89 -70 -111 -130 -25 -65 -30 -198 -10 -270 12 -40 11 -46 -5 -55 -32 -19
-54 -45 -54 -65 0 -26 85 -118 117 -126 13 -4 31 -20 39 -38 9 -17 33 -51 54
-76 l37 -45 -66 -61 c-36 -33 -90 -74 -120 -90 -30 -16 -67 -46 -82 -67 -29
-40 -75 -143 -116 -261 -26 -75 -23 -85 27 -86 51 -1 54 -11 26 -90 -34 -94
-56 -222 -56 -327 0 -72 -4 -91 -29 -141 -39 -78 -46 -129 -27 -195 18 -62 39
-86 59 -68 8 6 17 8 20 4 11 -11 8 38 -5 74 -10 29 -10 39 6 67 16 30 51 56
76 56 6 0 10 -12 10 -26 0 -15 5 -24 12 -22 19 7 36 72 37 141 0 50 8 81 34
143 19 44 37 86 41 94 3 8 4 -34 2 -94 -3 -60 0 -144 6 -186 10 -74 9 -80 -17
-146 -26 -63 -28 -79 -27 -189 1 -66 6 -151 11 -190 6 -38 6 -74 2 -80 -12
-15 -43 -308 -40 -386 l2 -66 -51 -49 c-37 -36 -52 -59 -57 -88 -9 -47 -4 -51
88 -62 116 -13 162 -8 233 25 63 30 64 30 64 71 0 22 -5 48 -11 58 -9 14 -4
28 25 70 41 61 47 82 76 244 11 64 25 129 30 144 6 14 7 42 4 61 -4 20 -1 60
6 89 14 57 23 62 78 48 44 -12 109 -198 123 -357 11 -128 25 -179 67 -239 27
-39 29 -46 16 -63 -8 -11 -14 -36 -12 -55 4 -41 41 -71 125 -97 51 -16 58 -16
126 1 40 9 83 16 97 14 21 -2 26 2 28 25 3 26 -40 117 -56 117 -4 1 -17 9 -29
19 -20 17 -21 22 -12 88 7 54 5 103 -10 227 -11 87 -24 163 -28 167 -6 6 -6
38 -1 77 5 37 8 119 7 182 -1 63 1 132 6 153 7 32 3 44 -25 90 -32 52 -32 52
-17 94 14 38 14 52 -4 173 -11 73 -18 136 -17 141 4 12 121 -148 146 -201 27
-55 88 -124 103 -114 6 3 9 19 7 35 -5 35 -1 36 28 8 18 -17 21 -28 17 -55 -6
-34 11 -69 27 -59 5 3 11 1 15 -5 24 -39 71 31 61 93 -9 57 -31 92 -91 150
-50 49 -56 61 -100 187 -47 136 -94 240 -122 272 -14 16 -11 19 41 42 31 14
56 27 56 30 0 17 -84 196 -119 256 -47 78 -86 113 -148 129 -24 7 -47 20 -53
31 -6 11 -31 31 -55 46 l-45 26 31 58 c23 40 37 56 48 53 24 -6 99 53 118 93
16 32 16 38 2 62 -8 15 -25 28 -38 30 -21 3 -22 7 -14 45 4 23 8 87 8 142 0
95 -2 103 -34 163 -60 110 -163 182 -287 199 -24 3 -41 10 -38 14 3 5 2 8 -3
8 -4 -1 -35 -5 -68 -9z"/>
</g>
</svg>
