<?xml version="1.0" standalone="no"?>
<!DOCTYPE svg PUBLIC "-//W3C//DTD SVG 20010904//EN"
 "http://www.w3.org/TR/2001/REC-SVG-20010904/DTD/svg10.dtd">
<svg version="1.0" xmlns="http://www.w3.org/2000/svg"
 width="150.000000pt" height="450.000000pt" viewBox="0 0 150.000000 450.000000"
 preserveAspectRatio="xMidYMid meet">

<g transform="translate(0.000000,450.000000) scale(0.100000,-0.100000)"
fill="#000000" stroke="none">
<path d="M610 4415 c-19 -7 -30 -14 -23 -14 18 -1 -29 -46 -50 -48 -16 -2 -17
1 -5 15 10 13 7 13 -9 -2 -13 -10 -20 -22 -18 -26 2 -4 -4 -15 -14 -25 -26
-23 -63 -117 -101 -255 -41 -153 -44 -164 -74 -245 -16 -44 -22 -73 -16 -79
19 -19 10 -54 -36 -146 -36 -73 -50 -114 -60 -184 -18 -117 -18 -124 5 -131
17 -5 19 -21 26 -178 5 -135 3 -190 -9 -257 -9 -47 -15 -105 -15 -130 1 -38 3
-34 10 25 5 39 14 86 19 105 6 19 10 111 10 204 0 93 3 166 7 163 3 -4 11 -3
17 2 20 17 46 -15 63 -75 21 -75 24 -438 3 -380 -6 18 -7 18 -13 2 -10 -25 -9
-38 2 -32 6 4 6 -5 1 -21 -11 -37 -36 -173 -55 -306 -14 -96 -14 -113 0 -166
19 -73 20 -217 3 -224 -8 -3 -6 -6 5 -6 9 -1 17 -5 17 -11 0 -13 -6 -13 -31 0
-15 9 -19 22 -19 70 0 65 -11 83 -29 44 -22 -50 -14 -93 27 -134 20 -20 45
-41 54 -46 13 -7 31 -60 62 -184 24 -96 48 -195 52 -220 10 -61 7 -178 -6
-301 -14 -122 -10 -155 40 -364 21 -88 42 -182 45 -210 4 -27 14 -65 21 -84
18 -43 12 -180 -10 -241 -9 -25 -35 -78 -57 -118 l-40 -73 21 -28 c11 -16 41
-39 66 -52 39 -18 57 -21 119 -16 40 3 92 1 115 -4 44 -10 110 -3 110 12 0 5
-17 9 -37 9 -52 0 -81 19 -33 21 35 1 35 1 -10 12 l-45 12 70 6 70 5 -60 4
c-33 2 -66 3 -72 3 -9 -1 -10 4 -2 19 8 16 8 19 -1 13 -16 -10 -2 57 14 67 8
5 7 8 -2 8 -9 0 -12 13 -11 39 2 21 8 38 13 38 26 -1 77 26 72 39 -8 21 21 5
39 -22 21 -32 30 -30 29 6 -1 28 -14 58 -14 32 0 -8 -18 -5 -52 8 -38 14 -47
16 -34 5 19 -15 19 -15 -2 -15 -17 0 -22 6 -22 28 0 15 6 34 13 41 8 10 8 12
0 7 -21 -11 -22 8 -6 73 l16 63 36 -6 c20 -3 43 -6 53 -6 14 0 16 -13 15 -97
-1 -56 2 -98 8 -100 6 -2 9 29 7 84 -3 69 0 95 14 120 14 26 15 37 6 55 -11
22 -12 22 -9 -7 2 -30 1 -30 -47 -30 -27 0 -51 5 -53 10 -2 6 15 9 42 7 25 -2
45 0 45 5 0 5 -12 9 -27 8 -20 0 -28 5 -28 17 0 9 -3 19 -7 23 -3 3 -2 22 3
41 6 19 7 40 3 47 -4 6 -4 9 1 5 13 -12 33 24 30 57 -1 17 2 35 7 42 6 7 3 15
-9 22 -12 7 -13 10 -4 11 11 0 11 3 1 14 -7 10 -8 21 -2 31 5 11 5 34 -1 61
-8 32 -7 64 3 116 16 91 25 108 53 108 l22 1 -23 12 c-21 12 -20 14 28 23 28
6 50 7 50 2 0 -5 4 -7 9 -4 5 4 11 0 14 -6 2 -7 3 59 3 147 0 151 2 170 37
322 21 90 52 209 69 265 20 68 31 127 32 173 1 39 8 91 16 117 13 44 12 54
-12 155 -61 251 -69 298 -78 485 -10 207 -6 274 19 301 14 17 86 57 100 57 3
0 5 -91 5 -202 l-1 -203 6 201 c4 148 10 205 20 217 21 26 -2 21 -64 -12 -51
-27 -68 -29 -46 -6 4 6 13 25 20 44 9 28 8 39 -4 58 -21 31 -36 21 -29 -20 4
-22 3 -28 -4 -19 -7 11 -11 10 -17 -5 -10 -23 -12 -29 -15 -50 -1 -10 -8 1
-17 25 -9 25 -19 39 -26 35 -6 -4 -8 -1 -5 8 3 9 -2 26 -13 40 -18 24 -18 24
-4 -16 17 -47 20 -129 5 -105 -7 11 -10 8 -10 -15 1 -29 1 -29 15 -11 8 11 16
36 16 55 1 26 4 18 11 -28 8 -50 7 -77 -5 -125 -19 -73 -38 -197 -38 -251 0
-5 7 -30 16 -54 18 -51 16 -55 -53 -72 -23 -7 -41 -14 -38 -16 2 -2 29 2 60
10 31 9 53 11 50 6 -3 -5 2 -12 10 -15 9 -3 15 -16 14 -30 -3 -31 -86 -69
-134 -61 -32 5 -32 5 -22 -25 8 -22 7 -33 -2 -41 -9 -9 -11 -9 -9 3 2 8 -7 34
-19 57 -12 23 -22 50 -21 60 0 11 3 13 6 6 7 -18 23 -16 23 2 0 13 -7 14 -37
8 -21 -4 -63 -8 -95 -8 -42 0 -54 -3 -47 -12 7 -7 6 -13 -1 -18 -16 -10 -12
-22 8 -21 9 1 17 -3 17 -9 0 -5 -8 -10 -18 -9 -15 1 -15 -1 -2 -16 19 -21 19
-30 1 -30 -25 0 -37 72 -14 86 6 4 -30 16 -80 26 -100 20 -185 50 -209 73 -13
13 -13 15 0 15 9 0 18 13 22 29 3 16 13 35 21 42 8 6 14 22 14 34 0 13 4 25 9
27 5 2 -2 27 -15 57 -21 46 -24 59 -14 80 9 21 13 22 22 10 8 -11 9 -10 4 4
-3 10 -6 32 -6 48 0 19 -5 29 -15 29 -9 0 -12 6 -8 17 5 12 2 15 -9 10 -29
-10 -29 6 -1 36 16 17 22 27 14 22 -29 -17 -3 21 30 43 30 21 58 55 30 38 -6
-4 -11 -1 -11 6 0 7 -8 1 -18 -15 -19 -31 -35 -31 -37 1 -1 11 2 19 6 16 4 -2
10 0 14 5 3 5 14 8 24 6 22 -4 37 23 21 39 -17 17 -11 101 10 147 11 24 20 57
20 73 0 16 3 26 7 23 8 -9 14 -233 7 -271 -4 -19 -9 -25 -14 -16 -5 9 -8 5 -8
-11 0 -13 -3 -35 -6 -49 -4 -14 4 -5 17 20 18 32 26 67 30 125 6 91 23 148 37
125 8 -12 10 -12 15 2 4 10 4 22 0 28 -3 5 0 13 9 16 8 3 18 19 21 36 5 19 33
56 74 97 l66 66 3 -39 c3 -29 6 -36 13 -25 10 16 4 -60 -11 -149 -10 -56 -5
-82 15 -82 7 0 17 -15 21 -32 6 -29 8 -31 16 -13 5 14 6 7 3 -20 -4 -26 -3
-35 4 -26 7 11 10 10 15 -7 4 -11 13 -23 21 -26 8 -3 15 -13 16 -23 0 -16 1
-16 9 2 6 13 9 15 9 5 1 -8 15 -21 32 -29 28 -12 31 -17 26 -47 -7 -42 -2 -43
17 -5 16 30 12 61 -17 114 -18 35 -12 73 9 56 10 -8 11 -15 4 -24 -7 -8 -5
-12 5 -12 8 0 12 3 10 7 -2 4 1 15 8 24 11 15 16 13 48 -19 28 -26 38 -32 42
-21 3 8 -3 26 -14 39 -10 14 -19 30 -19 36 0 6 -7 19 -15 29 -24 26 -85 123
-75 117 6 -4 10 2 10 12 1 13 5 10 16 -10 21 -39 30 -27 9 13 -9 17 -20 50
-25 73 l-9 42 4 -50 c4 -40 2 -46 -7 -31 -6 10 -12 63 -13 116 -2 54 -8 107
-14 118 -15 28 -31 72 -27 72 2 0 22 -28 45 -62 62 -96 99 -140 106 -128 3 5
3 10 -2 10 -13 0 -56 96 -51 111 3 8 1 24 -3 37 -5 13 -5 22 1 22 22 0 -3 39
-74 114 -28 30 -28 31 -12 4 50 -86 50 -85 16 -48 -17 19 -49 61 -71 92 -47
68 -65 83 -55 44 6 -24 4 -26 -23 -26 -33 0 -81 -19 -81 -32 0 -4 5 -8 10 -8
7 0 7 -6 0 -20 -9 -17 -8 -20 10 -20 11 0 20 -5 20 -11 0 -8 4 -8 15 1 8 6 23
9 34 5 11 -3 23 -1 27 6 10 18 -26 41 -58 36 -37 -5 -25 10 14 18 26 6 35 3
50 -15 25 -31 24 -140 -1 -196 -36 -80 -126 -122 -190 -90 -61 32 -121 144
-107 200 5 20 14 27 44 31 64 11 68 14 66 42 0 18 -8 30 -25 37 -13 5 -26 11
-28 13 -9 6 52 82 89 112 22 18 40 38 40 45 0 6 6 21 14 31 13 18 14 18 9 -7
-4 -20 0 -29 16 -37 12 -7 21 -10 22 -9 0 2 1 29 3 61 3 53 1 58 -21 63 -12 4
-23 9 -23 13 0 12 -49 31 -78 30 -15 0 -43 -7 -62 -14z m99 -5 c13 -6 17 -17
14 -35 -3 -14 -10 -25 -15 -25 -6 0 -8 -9 -5 -20 3 -11 0 -20 -6 -21 -8 0 -7
-3 1 -6 18 -7 -6 -42 -80 -118 -33 -33 -72 -84 -89 -112 -29 -51 -49 -73 -49
-55 0 11 79 125 94 134 6 4 7 8 2 8 -5 0 -3 7 4 15 7 8 15 13 19 11 4 -3 7 4
7 14 0 14 -3 16 -13 8 -16 -13 -16 -8 -3 28 17 43 -13 13 -35 -36 -10 -22 -22
-37 -26 -34 -8 4 9 49 51 135 15 33 15 37 1 34 -9 -1 -14 -9 -13 -16 2 -8 0
-11 -4 -7 -4 4 -14 2 -23 -4 -13 -10 -14 -10 -3 2 21 24 13 34 -10 14 l-23
-19 19 22 c10 13 22 21 26 18 4 -2 22 9 41 25 19 16 30 30 24 30 -17 2 29 19
53 19 13 1 31 -3 41 -9z m-112 -326 c-3 -3 -12 -4 -19 -1 -8 3 -5 6 6 6 11 1
17 -2 13 -5z m-99 -269 c9 16 11 4 12 -70 0 -74 -4 -99 -24 -141 -21 -46 -72
-101 -84 -90 -6 7 8 27 17 22 3 -3 7 4 7 14 0 18 -2 18 -18 3 -10 -9 -18 -12
-18 -6 0 5 11 16 25 23 14 7 25 18 25 23 0 5 9 20 20 34 11 14 20 33 20 42 0
9 -3 12 -8 6 -4 -6 -14 -10 -22 -10 -8 0 -21 -8 -28 -20 -12 -19 -13 -19 -7 5
3 14 -6 3 -20 -23 -15 -27 -29 -47 -31 -44 -3 3 2 20 11 38 10 18 19 48 21 68
6 56 38 133 51 120 7 -7 13 -2 18 18 l8 28 6 -30 c6 -28 7 -29 19 -10z m392
-36 c0 -17 -4 -28 -10 -24 -5 3 -10 1 -10 -6 0 -7 -2 -10 -5 -8 -4 5 16 69 22
69 2 0 3 -14 3 -31z m68 -139 c0 -36 2 -76 7 -89 5 -15 4 -21 -3 -17 -6 3 -18
30 -26 59 -9 28 -22 74 -31 100 -8 26 -10 45 -5 42 6 -4 10 9 10 30 0 24 4 34
11 29 6 -3 9 -21 7 -38 -3 -17 -1 -44 3 -61 5 -22 7 -10 9 45 l2 75 9 -55 c5
-30 8 -84 7 -120z m-613 109 c-9 -17 -19 -28 -22 -25 -6 6 23 56 32 56 3 0 -2
-14 -10 -31z m41 -74 c-3 -9 -11 -13 -16 -10 -8 5 -7 11 1 21 14 18 24 11 15
-11z m-61 -22 c-5 -10 -9 -22 -9 -27 -1 -5 -7 -11 -15 -14 -7 -2 -12 -1 -9 4
19 43 32 63 36 59 2 -2 1 -12 -3 -22z m504 -95 c-1 -31 -1 -31 -8 -8 -5 14 -6
28 -4 33 9 15 13 6 12 -25z m221 -93 c0 -3 -18 15 -40 40 -22 25 -40 51 -40
57 0 6 18 -12 40 -40 22 -27 40 -53 40 -57z m-764 68 c-3 -8 -6 -20 -7 -26 -1
-7 -5 -1 -9 13 -7 22 -8 21 -11 -15 -1 -22 -1 -50 0 -62 1 -13 -3 -23 -9 -23
-14 0 -13 83 1 114 12 26 45 25 35 -1z m144 -75 c-1 -36 -12 -55 -31 -51 -23
6 -24 12 -3 41 17 24 34 29 34 10z m524 -106 c10 -19 15 -36 13 -38 -6 -7 -47
60 -47 77 0 11 -2 11 -10 -1 -8 -12 -10 -12 -10 5 0 11 3 31 7 44 6 23 7 21
18 -15 6 -21 19 -54 29 -72z m-705 34 c16 -19 10 -68 -8 -61 -12 5 -12 3 0
-12 13 -15 12 -16 -6 -10 -16 6 -15 3 5 -13 l25 -20 -33 11 c-29 10 -32 15
-28 38 3 14 8 51 12 81 6 49 8 52 15 27 4 -16 12 -34 18 -41z m881 -76 c0 -14
-4 -30 -8 -37 -4 -6 -7 11 -7 37 0 26 3 43 7 37 4 -7 8 -23 8 -37z m-709 -320
c10 -86 1 -152 -25 -179 -15 -14 -16 0 -15 154 1 158 2 168 15 137 8 -19 19
-69 25 -112z m647 -170 c1 -94 1 -95 -15 -60 -8 19 -19 43 -24 52 -17 34 -3
259 19 292 8 13 19 -144 20 -284z m-625 -117 c30 -15 31 -15 18 0 -11 14 -11
17 0 17 8 -1 23 -6 35 -13 18 -10 19 -17 12 -44 -6 -25 -12 -31 -26 -26 -32
12 -62 35 -56 44 3 5 -2 12 -10 15 -9 3 -16 10 -16 15 0 13 6 11 43 -8z m103
-29 c-4 -9 -11 -36 -17 -60 -15 -58 -28 -65 -21 -11 6 54 18 87 33 87 6 0 8
-7 5 -16z m312 -58 c-2 -1 -31 -7 -66 -12 -67 -11 -81 1 -25 20 28 10 30 12
15 26 -15 14 -15 15 3 18 11 2 24 8 30 13 6 6 16 -4 28 -27 10 -20 17 -37 15
-38z m-225 57 c-7 -2 -19 -2 -25 0 -7 3 -2 5 12 5 14 0 19 -2 13 -5z m14 -18
c6 -2 11 -14 10 -25 -1 -20 -6 -21 -41 -16 -21 4 -46 11 -55 17 -12 8 -9 9 14
5 28 -5 28 -5 8 6 -13 6 -23 15 -23 19 0 7 57 3 87 -6z m443 -12 c0 -15 -2
-16 -10 -3 -17 26 -12 -13 5 -46 22 -42 19 -71 -7 -78 -36 -9 -88 -7 -88 4 0
6 -9 10 -20 10 -23 0 -46 36 -27 43 8 4 6 6 -4 6 -9 1 -16 8 -16 16 0 10 26
23 76 40 92 29 91 29 91 8z m-633 -20 c-4 -3 0 -11 9 -17 12 -10 13 -17 4 -41
-8 -21 -13 -26 -19 -16 -5 7 -11 12 -15 11 -12 -3 -66 22 -66 31 0 4 9 6 19 4
15 -3 18 1 14 12 -5 13 -2 15 15 11 12 -4 25 -2 28 3 3 5 8 9 11 9 4 0 3 -3 0
-7z m206 -74 c13 -16 17 -40 17 -95 0 -40 -4 -75 -8 -78 -5 -3 -49 -6 -98 -7
-161 -3 -185 -15 -49 -23 130 -8 158 -13 150 -26 -3 -4 -76 -8 -162 -7 -87 1
-142 4 -123 8 35 6 35 6 5 8 -16 1 -39 6 -50 11 -16 7 -14 9 15 9 25 1 31 4
20 10 -8 6 -18 7 -22 5 -4 -3 -8 0 -8 5 0 6 6 11 13 11 8 0 7 4 -3 10 -13 8
-12 10 3 10 14 0 16 4 9 18 -16 30 -3 43 36 38 21 -3 29 -3 19 0 -21 6 -18 29
4 29 8 1 13 6 12 12 -4 21 41 51 84 55 6 1 9 8 5 16 -9 26 108 9 131 -19z
m260 -19 c61 -52 75 -56 142 -40 27 6 42 5 46 -2 4 -6 13 -47 19 -91 17 -105
7 -248 -25 -373 -14 -53 -24 -103 -21 -111 7 -18 -4 -74 -14 -68 -4 2 -5 -7
-2 -22 3 -18 1 -24 -6 -19 -8 4 -10 2 -6 -8 8 -20 -15 -126 -27 -126 -5 0 -8
-12 -7 -27 3 -54 -2 -84 -13 -77 -8 4 -9 -4 -4 -27 4 -25 3 -30 -4 -19 -9 12
-11 10 -11 -12 0 -14 -3 -34 -7 -44 -4 -12 -3 -15 5 -10 7 4 12 1 12 -8 0 -9
-4 -16 -10 -16 -5 0 -10 -14 -10 -31 0 -21 4 -28 13 -23 8 5 9 4 2 -3 -28 -28
-128 -42 -170 -23 -15 7 -10 8 16 4 40 -6 114 10 125 28 5 8 1 9 -12 4 -34
-14 -104 -19 -104 -8 0 6 15 13 33 15 30 4 29 4 -8 6 -40 2 -107 30 -74 31 15
0 16 16 13 143 -7 303 -6 536 2 549 5 7 7 23 5 36 -2 20 2 22 41 23 64 1 96
17 36 18 -70 1 -71 21 -1 22 l58 1 -53 8 c-29 4 -56 10 -59 13 -5 6 45 21 121
37 32 7 20 9 -56 7 -54 -2 -95 -1 -93 2 3 2 49 14 102 27 101 23 93 32 -13 14
-114 -20 -119 -20 -106 -11 11 7 11 9 -2 14 -9 4 -16 17 -16 29 1 22 1 22 15
4 19 -25 19 -9 0 27 -8 16 -12 40 -9 56 4 18 0 32 -10 40 -18 15 -22 41 -6 41
6 0 10 9 10 19 0 11 8 21 18 23 54 11 68 7 125 -42z m-473 -2 c0 -15 -35 -8
-60 11 l-24 19 42 -11 c23 -6 42 -15 42 -19z m293 -42 c-1 -38 -6 -73 -11 -78
-11 -11 -42 50 -42 81 0 33 22 72 39 69 13 -3 16 -17 14 -72z m421 -173 c4
-27 2 -43 -4 -43 -5 0 -10 21 -10 47 0 55 5 54 14 -4z m-679 -12 c-15 -6 -8
-10 30 -15 70 -10 86 -16 79 -28 -4 -6 0 -14 7 -19 10 -6 3 -9 -21 -9 -52 0
-76 -20 -25 -20 22 -1 54 -7 70 -15 l30 -13 -35 -2 -35 -1 38 -16 c31 -13 37
-20 38 -47 1 -21 5 -12 13 29 9 51 14 60 35 63 13 2 27 0 32 -5 13 -13 22
-214 26 -583 8 -680 -1 -983 -37 -1195 -15 -86 -17 -90 -36 -71 -8 9 -30 16
-47 16 -23 0 -28 -3 -17 -9 8 -6 18 -7 22 -5 4 3 8 -2 8 -11 0 -9 -5 -13 -10
-10 -6 4 -10 3 -9 -2 3 -19 -2 -32 -13 -36 -7 -2 -5 -3 4 -2 9 2 19 -3 22 -11
3 -8 -1 -14 -9 -14 -8 0 -15 -4 -15 -10 0 -16 16 -11 36 12 10 12 13 18 6 14
-7 -4 -12 -1 -12 8 0 9 0 19 -1 23 0 4 4 9 9 11 6 2 13 -10 16 -25 10 -45 15
-143 8 -143 -12 1 -58 40 -47 40 17 0 16 40 -1 40 -11 0 -13 -6 -9 -20 6 -20
-9 -24 -97 -23 -10 0 -18 -4 -18 -9 0 -4 5 -8 11 -8 5 0 7 -6 3 -12 -6 -10 -4
-10 7 -1 20 20 93 16 120 -6 17 -13 23 -28 22 -54 -1 -20 -4 -40 -8 -46 -8
-13 -125 -14 -158 -2 -13 5 -27 16 -30 24 -5 13 0 13 30 5 19 -5 37 -7 40 -5
2 3 -9 8 -26 12 -17 4 -33 10 -36 15 -3 5 9 5 27 -1 18 -5 55 -8 83 -8 47 2
45 2 -18 9 -38 4 -72 11 -75 17 -4 5 -15 12 -25 16 -27 10 -33 38 -12 53 10 8
16 17 12 20 -7 7 12 46 38 79 12 15 18 17 24 7 4 -7 15 -10 24 -6 9 3 14 10
11 15 -3 5 -10 7 -15 4 -11 -7 -11 3 1 30 8 19 9 19 9 -2 1 -19 4 -20 25 -10
16 8 20 14 13 19 -6 4 -15 4 -19 2 -5 -3 -8 -2 -7 3 1 4 1 17 0 28 -1 18 -2
19 -12 2 -5 -9 -15 -17 -20 -17 -6 0 -3 10 5 22 10 13 12 27 7 37 -9 16 -14
52 -12 84 1 10 15 24 32 31 31 13 31 13 8 20 -23 7 -23 8 8 19 45 17 52 28 13
21 -26 -6 -32 -4 -28 7 17 46 19 59 6 59 -8 0 -9 3 -3 8 11 8 14 112 4 112 -3
0 -4 12 -1 26 3 19 1 25 -7 20 -12 -8 -11 28 2 40 4 4 2 13 -4 21 -9 10 -7 13
10 13 13 0 21 6 21 17 0 13 -3 14 -12 5 -16 -16 -28 -15 -28 3 0 8 5 15 12 15
6 0 3 9 -7 20 -10 11 -15 20 -12 20 3 0 0 15 -8 33 -11 26 -11 37 -2 46 9 9 9
16 0 30 -10 16 -9 18 9 13 14 -3 19 -1 15 6 -9 14 3 43 14 36 5 -3 6 2 3 10
-3 8 3 19 14 25 18 10 20 6 25 -52 4 -34 7 -171 8 -305 1 -187 -2 -246 -12
-258 -12 -14 -11 -16 6 -13 19 4 20 13 17 259 -1 140 -5 282 -8 315 -3 36 1
96 10 150 10 55 15 135 14 205 l-2 115 -3 -107 c-4 -105 -4 -108 -32 -128 -41
-28 -79 -34 -126 -16 l-40 15 33 0 c43 1 38 20 -9 37 -27 10 -29 13 -11 13 27
1 28 11 5 37 -14 15 -65 183 -77 252 -1 7 -7 17 -13 23 -6 6 -9 18 -6 25 3 8
0 28 -7 46 -13 37 -50 258 -54 328 -2 25 2 48 8 52 8 5 7 8 -1 8 -22 0 -14 18
10 23 l22 4 -22 8 c-13 4 -23 14 -23 21 0 8 10 14 23 14 20 1 20 2 5 11 -33
19 -18 28 50 32 37 2 74 4 82 4 8 1 6 -2 -5 -6z m157 -971 c-30 -25 -84 -35
-119 -21 -27 10 -27 10 7 6 23 -3 49 2 75 14 52 25 66 25 37 1z m337 -12 c0
-13 -3 -18 -5 -11 -4 8 -15 9 -37 2 -18 -5 -43 -9 -57 -8 -15 0 -2 8 35 19 33
10 61 18 63 19 1 0 2 -9 1 -21z m-353 -43 c-11 -8 -29 -15 -40 -14 -15 0 -11
4 14 14 45 17 49 17 26 0z m384 6 c0 -13 -39 -21 -95 -20 l-50 1 55 12 c73 15
90 16 90 7z m-457 -18 c-7 -2 -19 -2 -25 0 -7 3 -2 5 12 5 14 0 19 -2 13 -5z
m82 -33 c-3 -5 -21 -9 -38 -9 l-32 2 35 7 c19 4 36 8 38 9 2 0 0 -3 -3 -9z
m-75 -139 c0 -6 -4 -13 -10 -16 -5 -3 -10 1 -10 9 0 9 5 16 10 16 6 0 10 -4
10 -9z m0 -106 c0 -46 -15 -46 -16 0 0 19 3 35 8 35 4 0 8 -16 8 -35z m224
-653 c12 -7 -21 -20 -49 -21 -17 -1 -17 1 -5 9 8 5 11 10 7 10 -5 0 -6 4 -2
10 5 8 25 5 49 -8z m-80 -18 c3 -8 2 -12 -4 -9 -6 3 -10 10 -10 16 0 14 7 11
14 -7z"/>
<path d="M492 3690 c0 -14 2 -19 5 -12 2 6 2 18 0 25 -3 6 -5 1 -5 -13z"/>
<path d="M418 2393 c6 -2 18 -2 25 0 6 3 1 5 -13 5 -14 0 -19 -2 -12 -5z"/>
<path d="M880 2400 c-13 -9 -13 -10 0 -9 8 0 24 4 35 9 l20 9 -20 0 c-11 0
-27 -4 -35 -9z"/>
<path d="M885 2360 c-17 -7 -15 -9 10 -8 17 0 41 4 55 8 23 7 22 8 -10 8 -19
0 -44 -3 -55 -8z"/>
<path d="M664 1815 c0 -71 1 -99 3 -62 2 37 2 96 0 130 -2 34 -3 4 -3 -68z"/>
<path d="M661 514 c0 -11 3 -14 6 -6 3 7 2 16 -1 19 -3 4 -6 -2 -5 -13z"/>
<path d="M671 464 c0 -11 3 -14 6 -6 3 7 2 16 -1 19 -3 4 -6 -2 -5 -13z"/>
<path d="M670 390 c-13 -8 -12 -10 3 -10 9 0 17 5 17 10 0 12 -1 12 -20 0z"/>
<path d="M536 266 c-10 -39 -7 -53 14 -51 29 2 37 15 9 15 -19 0 -21 2 -9 10
11 7 11 10 2 10 -7 0 -11 4 -8 9 3 5 16 7 28 3 13 -3 19 -1 15 5 -4 6 -15 13
-26 16 -14 3 -21 -2 -25 -17z"/>
<path d="M825 4388 c11 -6 27 -16 35 -22 9 -6 5 -1 -8 12 -13 12 -28 22 -35
22 -7 0 -3 -6 8 -12z"/>
<path d="M939 4215 c-4 -19 30 -135 51 -175 22 -41 20 -13 -4 56 -12 38 -27
85 -33 104 -7 26 -11 30 -14 15z"/>
<path d="M660 3945 c0 -9 9 -15 21 -15 18 0 19 2 9 15 -7 8 -16 15 -21 15 -5
0 -9 -7 -9 -15z"/>
<path d="M710 3949 c0 -5 5 -7 10 -4 6 3 10 8 10 11 0 2 -4 4 -10 4 -5 0 -10
-5 -10 -11z"/>
<path d="M620 3890 c0 -12 136 -14 144 -2 3 5 -29 9 -70 11 -46 1 -74 -2 -74
-9z"/>
<path d="M660 3860 c8 -5 24 -9 35 -9 l20 0 -20 9 c-11 5 -27 9 -35 9 -13 1
-13 0 0 -9z"/>
<path d="M1080 3708 c0 -13 -5 -29 -11 -35 -7 -7 -9 -22 -4 -40 7 -26 8 -26
15 -8 6 15 9 7 10 -30 1 -35 4 -43 8 -27 8 26 16 27 54 4 29 -17 38 -36 81
-177 18 -58 22 -82 13 -87 -7 -5 -5 -8 7 -8 9 0 17 3 17 6 0 19 -72 232 -82
245 -7 8 -30 27 -50 43 -35 25 -38 31 -38 76 0 27 -4 52 -10 55 -6 3 -10 -4
-10 -17z"/>
<path d="M1022 3690 c0 -14 2 -19 5 -12 2 6 2 18 0 25 -3 6 -5 1 -5 -13z"/>
<path d="M531 3524 c0 -11 3 -14 6 -6 3 7 2 16 -1 19 -3 4 -6 -2 -5 -13z"/>
<path d="M1093 3495 c-8 -25 -8 -38 1 -50 9 -12 11 -5 13 35 2 28 1 50 0 50
-2 0 -8 -16 -14 -35z"/>
<path d="M517 3483 c-4 -3 -7 -13 -7 -22 1 -13 3 -13 11 2 11 19 8 33 -4 20z"/>
<path d="M1063 3332 c9 -28 12 -31 18 -16 11 28 10 41 -2 24 -9 -12 -10 -11
-6 6 2 12 -1 21 -8 21 -9 0 -10 -9 -2 -35z"/>
<path d="M1212 2820 c0 -14 4 -38 8 -55 7 -27 8 -27 8 -5 0 14 -4 39 -8 55 -7
27 -8 27 -8 5z"/>
<path d="M1233 2650 c0 -41 2 -58 4 -37 2 20 2 54 0 75 -2 20 -4 3 -4 -38z"/>
<path d="M204 2520 c0 -69 1 -97 3 -62 2 34 2 90 0 125 -2 34 -3 6 -3 -63z"/>
<path d="M1242 2375 c0 -16 2 -22 5 -12 2 9 2 23 0 30 -3 6 -5 -1 -5 -18z"/>
<path d="M183 2300 c-7 -52 -19 -121 -28 -153 -14 -54 -14 -61 6 -120 16 -48
28 -67 54 -85 51 -32 55 -27 7 8 -35 25 -42 36 -42 63 0 18 -6 42 -14 53 -12
17 -12 27 0 73 17 67 37 213 32 238 -2 10 -9 -25 -15 -77z"/>
<path d="M1252 2270 c0 -19 2 -27 5 -17 2 9 2 25 0 35 -3 9 -5 1 -5 -18z"/>
<path d="M1261 2204 c0 -11 3 -14 6 -6 3 7 2 16 -1 19 -3 4 -6 -2 -5 -13z"/>
<path d="M1272 2150 c0 -14 2 -19 5 -12 2 6 2 18 0 25 -3 6 -5 1 -5 -13z"/>
<path d="M1196 2100 c-3 -25 -7 -58 -8 -75 -2 -19 -11 -33 -23 -39 -21 -9 -49
-55 -40 -64 2 -3 25 12 50 32 44 37 45 39 44 94 0 31 -4 66 -8 77 -7 16 -10
11 -15 -25z"/>
<path d="M1152 2020 c0 -19 2 -27 5 -17 2 9 2 25 0 35 -3 9 -5 1 -5 -18z"/>
<path d="M1261 2024 c0 -11 3 -14 6 -6 3 7 2 16 -1 19 -3 4 -6 -2 -5 -13z"/>
<path d="M991 1204 c0 -11 3 -14 6 -6 3 7 2 16 -1 19 -3 4 -6 -2 -5 -13z"/>
<path d="M991 1052 c0 -18 -10 -78 -22 -133 -11 -54 -17 -103 -14 -109 3 -5 2
-10 -4 -10 -5 0 -12 6 -15 13 -4 6 -4 2 -2 -11 3 -17 1 -20 -7 -13 -9 7 -12 3
-12 -14 0 -13 3 -21 6 -19 4 2 9 -5 12 -16 3 -11 1 -18 -3 -15 -14 9 -24 -76
-10 -88 10 -10 11 -6 5 18 -3 16 -3 26 1 22 12 -11 64 212 57 243 -3 18 -2 21
5 12 15 -22 23 44 13 103 -7 41 -9 44 -10 17z m6 -84 c-3 -7 -5 -2 -5 12 0 14
2 19 5 13 2 -7 2 -19 0 -25z"/>
<path d="M1012 1045 c0 -16 2 -22 5 -12 2 9 2 23 0 30 -3 6 -5 -1 -5 -18z"/>
<path d="M810 436 c0 -2 8 -10 18 -17 15 -13 16 -12 3 4 -13 16 -21 21 -21 13z"/>
<path d="M830 392 c0 -12 19 -26 26 -19 2 2 -2 10 -11 17 -9 8 -15 8 -15 2z"/>
<path d="M922 260 c41 -78 42 -79 23 -100 -19 -21 -55 -28 -55 -10 0 18 -45
39 -100 46 -69 8 -59 -6 11 -17 34 -5 61 -17 78 -33 20 -19 30 -22 44 -15 9 6
22 7 29 3 6 -4 8 -3 4 4 -3 6 -1 14 5 18 7 4 9 3 6 -2 -3 -6 -2 -16 4 -24 7
-12 9 -9 9 10 0 28 -79 200 -91 200 -5 0 10 -36 33 -80z"/>
<path d="M834 279 c-3 -6 -3 -14 2 -18 5 -3 9 -19 9 -35 0 -16 6 -31 13 -34
14 -4 17 34 3 42 -5 3 -7 15 -4 25 5 21 -12 37 -23 20z"/>
<path d="M746 254 c-9 -22 1 -34 27 -33 18 1 19 2 4 6 -13 3 -17 11 -14 24 6
23 -8 26 -17 3z"/>
<path d="M937 85 c-15 -14 -24 -25 -19 -25 5 0 19 11 32 25 30 32 23 32 -13 0z"/>
</g>
</svg>
