<?xml version="1.0" standalone="no"?>
<!DOCTYPE svg PUBLIC "-//W3C//DTD SVG 20010904//EN"
 "http://www.w3.org/TR/2001/REC-SVG-20010904/DTD/svg10.dtd">
<svg version="1.0" xmlns="http://www.w3.org/2000/svg"
 width="130.000000pt" height="300.000000pt" viewBox="0 0 130.000000 300.000000"
 preserveAspectRatio="xMidYMid meet">

<g transform="translate(0.000000,300.000000) scale(0.100000,-0.100000)"
fill="#000000" stroke="none">
<path d="M561 2984 c-49 -34 -92 -186 -100 -349 l-6 -109 -45 -16 c-42 -15
-46 -20 -67 -75 -33 -92 -39 -146 -17 -162 18 -13 18 -7 -6 -178 -12 -88 -6
-123 36 -209 37 -76 42 -112 19 -155 -8 -16 -11 -32 -7 -36 4 -3 7 -66 8 -138
1 -126 12 -191 60 -372 41 -154 44 -171 38 -229 -9 -88 14 -308 41 -393 12
-39 20 -82 18 -95 -3 -15 2 -30 11 -37 9 -8 16 -19 16 -25 0 -6 7 -24 15 -39
10 -21 12 -34 5 -47 -6 -10 -10 -36 -10 -58 0 -21 -5 -64 -11 -96 -15 -81 -5
-114 38 -132 43 -18 89 -10 104 18 8 14 8 32 0 63 -6 24 -11 75 -11 113 0 44
-5 75 -15 88 -18 23 -19 54 -3 105 10 36 9 41 -12 64 -20 22 -22 29 -13 57 6
21 7 82 2 163 -10 165 -11 186 -9 507 1 276 2 282 40 258 12 -8 16 -54 22
-264 4 -159 11 -263 18 -276 6 -12 9 -28 6 -35 -3 -8 0 -40 5 -72 8 -44 7 -79
-3 -144 -12 -76 -12 -90 1 -118 12 -26 13 -40 4 -74 -8 -30 -8 -56 -1 -94 9
-44 8 -54 -6 -68 -20 -20 -21 -122 -2 -211 16 -76 19 -80 57 -88 80 -16 109
27 78 115 -11 30 -26 90 -34 134 l-15 79 31 60 c27 51 30 66 25 110 -4 33 -1
68 9 100 18 58 20 194 4 316 -11 89 -10 103 42 340 18 82 14 422 -5 470 -4 9
13 46 40 90 80 131 86 144 79 208 -4 31 -8 73 -9 92 -2 19 -7 44 -11 54 -7 16
-5 18 9 13 20 -8 14 6 -17 41 -27 30 -12 28 30 -4 45 -34 42 -14 -4 30 -37 34
-41 62 -6 35 17 -13 17 -12 2 6 -23 30 -39 73 -39 105 0 45 -26 102 -78 171
-19 24 -31 51 -29 61 3 9 -1 22 -8 28 -7 6 -25 50 -40 98 -60 195 -84 222
-192 222 -38 0 -67 -6 -82 -16z m-85 -959 c-7 -11 -15 -40 -19 -64 -6 -50 -23
-74 -36 -52 -5 7 -14 40 -21 73 -12 53 -11 68 9 151 13 52 30 98 39 105 16 12
18 4 29 -90 10 -84 10 -106 -1 -123z m400 182 c-6 -24 7 -42 46 -70 9 -7 23
-33 29 -58 11 -42 10 -51 -16 -117 -15 -40 -32 -72 -37 -72 -4 0 -8 18 -8 39
0 23 -9 56 -21 76 -31 52 -31 225 0 225 9 0 11 -7 7 -23z"/>
</g>
</svg>
