<?xml version="1.0" standalone="no"?>
<!DOCTYPE svg PUBLIC "-//W3C//DTD SVG 20010904//EN"
 "http://www.w3.org/TR/2001/REC-SVG-20010904/DTD/svg10.dtd">
<svg version="1.0" xmlns="http://www.w3.org/2000/svg"
 width="130.000000pt" height="300.000000pt" viewBox="0 0 130.000000 300.000000"
 preserveAspectRatio="xMidYMid meet">

<g transform="translate(0.000000,300.000000) scale(0.100000,-0.100000)"
fill="#000000" stroke="none">
<path d="M501 2954 c-59 -21 -112 -55 -144 -94 -59 -70 -93 -197 -82 -305 6
-54 4 -68 -18 -111 -50 -98 -55 -171 -13 -187 13 -5 13 -2 5 20 -11 29 6 133
21 133 5 0 17 -15 29 -32 11 -18 29 -39 40 -46 13 -7 21 -23 21 -40 1 -25 20
-62 33 -62 4 0 4 13 1 29 -4 16 -1 32 5 35 6 4 11 2 11 -4 0 -5 21 -31 48 -56
l47 -46 -32 -26 c-17 -15 -65 -39 -106 -55 -41 -15 -81 -35 -90 -45 -23 -25
-119 -251 -112 -262 4 -6 24 -19 46 -30 37 -20 39 -23 39 -69 0 -26 -5 -73
-10 -102 -15 -74 -14 -233 1 -340 15 -102 9 -134 -48 -282 -19 -49 -32 -94
-30 -100 2 -7 50 -23 108 -37 l104 -25 14 -74 c13 -67 12 -81 -2 -137 -25 -93
-22 -182 13 -314 16 -63 30 -122 30 -132 0 -11 -20 -24 -63 -40 -74 -29 -84
-55 -27 -75 38 -13 160 -15 200 -4 23 7 25 12 23 54 -2 26 -10 58 -18 71 -13
20 -14 46 -4 202 5 98 17 203 25 233 10 34 14 84 12 130 -2 65 0 76 15 79 15
3 17 -6 17 -81 0 -48 7 -105 15 -133 9 -28 20 -125 26 -226 11 -168 10 -179
-10 -236 -34 -95 -19 -108 123 -100 57 3 92 10 111 22 25 16 26 19 10 36 -9
10 -31 21 -49 24 -18 4 -41 15 -51 26 -18 20 -18 25 13 154 36 149 38 187 17
266 -8 30 -15 80 -15 110 0 52 13 126 23 136 2 3 35 12 73 22 l69 17 1 95 c1
67 6 105 17 127 39 74 27 326 -23 502 -37 127 -38 154 -7 168 12 6 36 22 53
36 l31 26 -59 121 c-64 131 -95 163 -196 203 -60 24 -72 34 -72 62 0 21 5 23
90 29 95 8 100 12 75 56 -19 33 -19 70 0 70 8 0 28 19 45 42 24 33 30 51 30
92 -1 146 8 249 24 264 15 15 18 15 44 0 49 -29 72 -74 72 -142 -1 -34 -8 -79
-16 -101 -9 -22 -19 -53 -23 -70 -5 -16 -21 -56 -36 -88 -26 -53 -27 -65 -22
-143 5 -86 24 -134 52 -134 12 0 11 6 -5 33 -23 37 -24 48 -9 100 14 52 25 46
32 -17 9 -90 58 -160 145 -205 27 -15 46 -4 19 10 -18 10 -52 68 -44 75 2 3
18 -7 35 -21 41 -35 48 -31 12 7 -53 55 -63 158 -22 233 13 22 17 57 17 138 0
59 3 107 7 107 10 0 38 -102 45 -169 7 -72 23 -81 23 -13 0 54 -22 153 -50
230 -11 29 -20 64 -20 77 0 33 -64 103 -115 126 -22 10 -58 19 -80 19 -22 0
-48 7 -58 14 -10 8 -26 12 -35 10 -11 -2 -28 12 -47 39 -33 45 -87 77 -170 98
-77 20 -174 21 -224 3z m404 -1605 c9 -17 14 -40 12 -52 -3 -21 -4 -21 -14 3
-14 34 -25 80 -18 80 2 0 12 -14 20 -31z"/>
</g>
</svg>
