<?xml version="1.0" encoding="UTF-8"?>
<svg id="Layer_2" data-name="Layer 2" xmlns="http://www.w3.org/2000/svg" viewBox="0 0 240.91 706.06">
  <defs>
    <style>
      .cls-1 {
        stroke-width: 0px;
      }
    </style>
  </defs>
  <g id="Layer_1-2" data-name="Layer 1">
    <path class="cls-1" d="m238.87,239.96s-.02,0-.03-.01c-.33-.17-.45-.58-.27-.92,1.35-2.48,2.13-5.14,2.34-7.98.02-.26-.16-.5-.41-.56l-6.65-1.66c-.27-.06-.47-.31-.47-.6.02-4.67.39-14.53-6.98-13.27-1.59.27-1.74.01-.43-.78,4.41-2.68,3.53-8.45,2.31-13.89-4.77-21.3-12.73-42.52-22.45-61.35-3.81-7.39-9.21-13-16.18-16.84-6.29-3.47-14.75-7.52-25.37-12.15-.33-.14-.55-.38-.66-.73-.28-.88-.39-2.22-.58-2.82-1.45-4.59-3.85-8.57-7.2-11.94-.43-.43-.45-1.13-.04-1.58,10.78-11.78,8.07-28.2,6.6-42.55-.03-.33-.16-.62-.38-.87-.47-.55-.66-1.03-.57-1.45,1.47-6.58,2.45-13.67,2.96-21.26.06-.92.43-1.81,1.12-2.68.11-.13.07-.21-.1-.24-.21-.03-.44,0-.68.08-.11.04-.23.03-.33-.02-.23-.11-.33-.38-.23-.61.45-.99,1.14-1.81,2.07-2.48.06-.04.1-.1.11-.17.02-.14-.08-.27-.22-.3-.55-.07-1.08-.02-1.61.16-.04.01-.09.02-.13.03-.3.03-.57-.2-.6-.51-.07-.87.19-1.64.78-2.32.17-.2.12-.32-.13-.36-1.78-.28-2.07-1.22-.86-2.82.1-.13.11-.32.01-.46-.12-.18-.37-.22-.54-.1-.23.15-.49.11-.77-.12-.19-.15-.32-.39-.41-.71-.47-1.68-1.28-3.19-2.41-4.54-.23-.27-.51-.46-.84-.57-.84-.29-1.4-.84-1.68-1.65-.06-.19-.19-.26-.39-.2-.12.03-.24.06-.35.09-.27.05-.52.01-.77-.12-6.29-3.44-13.02-5.47-20.17-6.09-1.69-.15-3.35.17-5.11.21-1.91.05-3.59.83-5.62.78-.97-.02-1.49.28-2.13.94-.26.27-.51.25-.75-.04-.05-.07-.1-.14-.15-.21-.22-.32-.52-.42-.89-.29-1.7.61-3.3,1.42-4.8,2.41-1.48.98-1.84.7-1.09-.84.15-.3.24-.62.28-.97.06-.51-.08-.57-.41-.19-2.83,3.24-7.05,3.77-10.22,6.56-3.6,3.16-8.52,9.29-8.79,14.36-.41,7.48-.27,17.69,2.72,24.65.15.36.03.53-.36.51-3.96-.22-3.62,5.65-3.01,8.05,1.17,4.63,1.45,9.3.83,14.03-.15,1.11.23,2.06,1.13,2.86.28.25.58.28.91.1l.58-.32c.45-.24.71-.11.78.39l1.21,8.07c.07.51-.13.67-.6.46-1.97-.87-3.2-.57-3.71.9-1.71,4.93-3.35,9.83-4.94,14.7-.12.37-.43.66-.82.76-15.17,3.85-34.68,8.97-46.38,19-17.44,14.94-28.81,41.47-34.79,62.83-4.42,15.81-7.47,31.88-9.15,48.21v27.75l2.94.2c.36.02.57.21.63.58,4.31,27.8,16.66,56.34,29.09,80.79,6.14,12.09,5.18,27.69,5.15,40.83,0,2.21.65,3.91,1.64,5.74.37.67.33,1.32-.11,1.95l-1.94,2.8c-.22.32-.16.75.14,1l2.32,1.93c.34.29.51.73.45,1.17-.8,5.49-1.02,10.85-.65,16.06,1.82,26.11,3.34,54.14,1.35,79-1.43,17.94-5.37,39.37-6.46,59.27-1.82,33.19-2.38,63.61-1.69,91.24.19,7.67,1.36,16.41,3.52,26.22.59,2.66,2.37,4.51,5.06,4.41.12,0,.23.01.35.05.58.17.91.77.73,1.34-2.36,8.04-4.6,15.9-4.43,24.22.28,13.82,34.05,12.02,41.93,10.58,6.35-1.15,5.11-9.39,3.46-13.64-2.55-6.56-5.11-12.51-6.71-19.34,0-.01,0-.02,0-.03-.1-.52.24-1.02.76-1.13,9.59-1.91,10.77-11.52,12-19.44.95-6.09-.65-10.98-2.78-17.08-.11-.31-.12-.65-.04-.97,3.34-12.93,6.83-25.31,8.32-38.65,2.27-20.31,3.81-41.74,8.73-61.31,3.36-13.36,8.5-26.61,12.79-39.23.82-2.43,1.23-2.36,1.23.2-.01,20.45.11,41.29.37,62.54.2,16.37,1.41,29.95,3.64,40.75,3.64,17.62,4.26,32.61,5.04,49.25.15,3.13-.08,6.24-.68,9.31-.11.56.25,1.11.81,1.23,1.64.37,2.41,1.52,2.31,3.47-.26,5.13-.39,10.27-.4,15.43,0,2.29.69,3.49,2.9,4.08,7.6,2.03,15.34,2.74,23.22,2.13.93-.07,1.41-.69,1.44-1.86,0-.4.19-.52.56-.36,1.78.75,3.57,1.48,5.38,2.18,4.75,1.82,9.99,5.29,13.72,6.55,3.88,1.31,7.52,2.18,10.91,2.61,13.03,1.64,26.29,1.48,39.77-.48,5.4-.79,3.24-6.04,2.6-9.42-.77-4.09-5.92-5.86-9.63-6.83-5.79-1.52-11.52-2.34-16.99-5.79-6.57-4.13-12.21-10.5-16.5-16.92-.05-.07-.09-.15-.11-.23-.14-.45.12-.94.58-1.08l.57-.17c.17-.05.32-.15.44-.29.35-.4.31-1.01-.09-1.35-4.46-3.81-6.7-8.17-6.14-14.25.53-5.65,1-11.31,1.41-16.96,1.01-13.91-2.11-26.99-2.42-40.79-.41-18.82-.25-37.64.5-56.46.05-1.21.12-2.05.68-3.19,2.36-4.76,4.43-9.64,6.22-14.65,3.93-11.01,7.94-21.98,12.02-32.93,4.25-11.39,7.19-20.8,8.82-28.22,5.4-24.71,8.88-39.56,15.22-60.76,3.43-11.45,5.18-25.67,8.19-38.34,1.83-7.73,3.93-14.9,4.46-22.91,1.4-21.25.2-42.62-1.25-63.83-.02-.32.09-.63.3-.87,1.54-1.7,3-2.18,3.97-4.54.43-1.04.74-3.57.95-7.6.07-1.41-.48-2.39-1.69-2.96Zm-23.93,73.84l-4.55,8.24c-.04.07-.13.1-.2.06-.04-.02-.07-.06-.08-.1-1.08-4.71-3.1-11.78-7.3-14.33-.21-.13-.27-.4-.15-.6.02-.04.05-.07.09-.1,2.14-1.88,3.67-4.18,4.59-6.89.09-.25.37-.39.63-.29.13.05.23.14.28.26,1.99,4.57,4.21,9.02,6.68,13.35.08.13.08.27.01.4Z"/>
  </g>
</svg>