<?xml version="1.0" encoding="UTF-8"?>
<svg id="Layer_2" data-name="Layer 2" xmlns="http://www.w3.org/2000/svg" viewBox="0 0 108.96 261.75">
  <defs>
    <style>
      .cls-1 {
        stroke-width: 0px;
      }
    </style>
  </defs>
  <g id="Layer_1-2" data-name="Layer 1">
    <path class="cls-1" d="m108.53,114.08c.41-.92.52-1.66.33-2.21-1.25-3.61-2.13-6.18-.91-9.47.33-.88.51-1.58.56-2.11.1-1.06.03-1.79-.2-2.2-1.87-3.34-2.89-6.89-3.06-10.66-.3-6.76-4.77-13.07-6.77-19.01-1.76-5.23-2.93-8.91-3.51-11.04-1.61-5.97-4.99-10.22-10.14-12.77-4.99-2.47-10.19-4.83-15.62-7.07-.72-.29-.91-.79-.56-1.48,1.09-2.19,1.86-4.62,2.31-7.31.32-1.85,1.7-4.02.7-6.54-.13-.33-.13-.66-.01-.99,3.11-8.34-.77-20.6-10.99-21.17-3.77-.21-9.59.17-12.96,2.48-5.37,3.67-7.2,9.11-5.51,16.34.08.33.05.68-.07.99-1.27,3.06-.87,5.84,1.18,8.33.26.32.4.73.39,1.15l-.28,6.54c-.01.33-.22.63-.53.75-4.47,1.81-8.96,3.59-13.45,5.34-14.95,5.83-23.37,23.21-25.08,38.38-.14,1.27-.55,2.73-1.22,4.36-1.64,4-.56,7.82-2.84,11.38-.32.51-.38,1.14-.17,1.7.69,1.81,1.49,3.64,2.4,5.51,1.02,2.08,3.02,2.34,3.96,4.82,2.31,6.1,3.62,10.44,8.3,16.5.82,1.06,1.28,2.56,1.21,3.76-.65,11.31-1.24,22.75.44,33.99,3.5,23.44,6.13,46.84,13.46,69.5,1.13,3.49-3.74,5.84-1.59,10.9.78,1.83,1.63,3.47,2.54,4.93.37.6.34,1.36-.07,1.93-1.8,2.49-4.57,6.03-5.38,9-.02.07-.03.14-.05.21-.19,1.13.58,2.2,1.72,2.39,2.55.42,5.05.59,7.48.5,3.92-.15,8.89-1.68,13.39-2.27,1.81-.23,2.59-1.45,2.32-3.66-.03-.27-.13-.51-.29-.73-.32-.43-.56-.9-.71-1.43-.08-.29-.02-.6.17-.84l2-2.46c.63-.78.7-1.88.16-2.73l-1.59-2.52c-.05-.08-.1-.17-.14-.27-.37-.89.05-1.91.94-2.27,5.09-2.12.44-7.19,1.21-10.91,1.03-4.91,1.44-8.75,1.24-11.52-1.41-19.52-.64-32.98.85-49.75.12-1.37-.1-3.33.18-4.99.07-.43.26-.5.57-.19.36.35.54.78.54,1.3.02,3.91.55,7.59,1.59,11.04.65,2.16.21,3.56-.77,5.4-.51.97-.59,3.03-.22,6.2.83,7.23,1.38,14.48,1.67,21.75.22,5.56-.44,11.3-.83,17-.39,5.53,3.06,5.6,3.96,9.78.62,2.84-.87,5.68-2.24,7.98-.56.92-.41,2.1.35,2.87,2.84,2.83.65,4.24.64,7.17,0,1.05.48,1.68,1.46,1.9,2.2.49,4.05,1.03,5.56,1.61,3.05,1.17,4.85,1.81,5.4,1.9,2.85.47,5.65.34,8.4-.39h0c.98-.27,1.56-1.27,1.3-2.25-.91-3.33-2.48-6.29-4.72-8.9-.01-.02-.03-.03-.04-.05-.37-.48-.28-1.16.2-1.53,1.45-1.12,2.78-2.14,3.6-3.89,1.41-2.98,2.87-6.91,2.22-8.96-.98-3.06-3.24-9.42-2.45-12.14,2.47-8.53,6.15-18.48,6.4-27.35.17-5.78.49-10.93.96-15.45.07-.64.65-3.81,1.74-9.52,1.8-9.39-1.09-18.51.35-27.76.51-3.33,2.22-10.49.66-13.11-1.46-2.45-2.28-4.34-2.45-5.65-.83-6.31-1.15-12.49-.97-18.53.03-.89.23-.94.62-.14,1.7,3.54,3.65,6.18,4.41,10.19.61,3.27,2.58,6.51,4.05,9.48,1.16,2.34.64,4.03.09,6.36-1.06,4.53-1.32,8.9-2.28,13.42,0,.04-.01.08-.02.12-.04.53.36,1,.89,1.04l.38.03c1.01.07,1.65-.37,1.92-1.34l1.29-4.58c.77-2.71,1.73-2.77,2.88-.18,1.02,2.29-.3,8.12-1.46,10.32-1.15,2.17-.65,2.66,1.5,1.47,4.72-2.62,4.36-7.21,4.53-12.11.05-1.41.76-2.21,1.47-3.35.17-.28.23-.62.16-.94-.41-1.84-.81-3.43-.66-5.36.38-5.02-.48-11.35,1.61-15.96Zm-88.83-19.41c-.11.2-.36.28-.56.17-.55-.29-.76-.74-.63-1.37.05-.24.28-.4.51-.35.05,0,.09.03.14.05.27.15.47.38.6.69.11.27.09.54-.06.81Zm.25-10.8c-.17.17-.44.16-.61,0-.06-.06-.1-.13-.11-.21-.11-.5.03-.91.41-1.22.27-.23.47-.17.59.17.17.49.07.91-.28,1.27Z"/>
  </g>
</svg>