<?xml version="1.0" encoding="UTF-8"?><svg xmlns="http://www.w3.org/2000/svg" viewBox="0 0 59.47 159.68"><g id="a"/><g id="b"><g id="c"><path d="M57.92,48.49c-.19-.58-.15-1.02,.45-1.27,.98-.41,.77-1.08,.41-1.8-.34-.71-.7-1.42-.99-2.16-1.49-3.8-2.96-7.6-4.82-11.24-1.53-2.98-3.54-5.4-6.8-6.59-2.13-.78-4.18-1.79-6.35-2.45-1.13-.35-2.16-1.3-3.52-.82-.01-.02-.02-.03-.03-.05h0s-.03-.02-.05-.03c.02-.03,.04-.06,.06-.11-.05-1.9-.13-3.53,.77-5.25,.73-1.41,1.47-3.33,.55-4.91-.69-1.18-.56-2.16-.46-3.34,.14-1.66,.5-3.35-.81-4.86C33.57,.4,29.99-.82,26,.56c-2.76,.96-5.09,2.95-4.82,6.64,.09,1.2,.84,2.29,.56,3.45-.85,3.45-.4,6.77,.92,9.97,.45,1.08,.07,1.39-.81,1.69-1.93,.67-3.85,1.38-5.77,2.06-2.18,.79-4.49,1.26-6.32,2.77-.09,0-.19,0-.29,.01-3.95,4.49-5.79,9.93-7.61,15.41,.01,.01,.02,.03,.02,.04-.06-.01-.12-.01-.19-.01-.43,.93-.78,1.77-1.15,2.6-.3,.66-.27,1.28,.43,1.59,1.09,.48,.95,1.24,.65,2.1C-.09,53.77-.31,58.79,.33,63.87c.49,3.95,1.18,7.87,1.66,11.82,.28,2.34,.7,4.64,1.76,6.72,1.78,3.5,2.53,7.24,3.2,11.06,.82,4.63,1.36,9.36,3.42,13.68,.4,.84,.62,1.64,.64,2.62-.01-.01-.03-.01-.05-.02,0,.01,0,.03-.02,.08-.03-.03-.07-.05-.1-.07-.77,1.57,.56,3.25-.46,4.77-.02,.04,.19,.28,.33,.36,.92,.57,.8,1.13,.01,1.69-.32,.22-.41,.51-.42,.87-.04,2.38-.43,4.74-.29,7.14,.13,2.32,.55,4.75,.08,6.97-.69,3.23-.28,6.45-.66,9.66-.1,.84,.2,1.52,.94,2.12t.01,.02l-.12,.03c-.12,.71-.22,1.29-.21,1.79,.09,0,.17,.03,.24,.08-.1,.05-.22,.09-.35,.13-.1,.87-.47,1.22-1.27,1.17-.74-.06-1.25,.28-1.07,1.11,.14,.65-.22,1.09-.48,1.58-.99,1.95-2.54,3.47-4.03,5.03-.99,1.03-1.52,2.24-1.65,3.64-.08,.8,.19,1.32,1.09,1.38,2.49,.15,4.98,.47,7.49,.24,1.02-.1,2.34-.23,2.74-1.13,.81-1.78,2.39-1.83,3.85-2.32,1.22-.4,2.23-1.03,1.43-2.67l.09-.06c-.45-.4-.23-.88-.45-1.29-.01-.01-.02-.01-.03-.02,.04,0,.09-.04,.13-.07,.12-1.74,.02-3.35-.22-4.97-.16-1.13-.6-2.59,1.49-2.65,.84-.02,1.13-.76,1.21-1.6,.31-3.16,1.12-6.22,1.8-9.32,.88-3.98,2.09-7.89,2.02-12.06-.02-1.48,.34-3.6,1.33-4.31,1.29-.92,1-2.01,1.41-3,.62-1.52,1.01-3.11,1.33-4.73,.54-2.67,1.02-5.35,1.48-8.05,.46,1.89,.82,3.77,1.16,5.65,.36,2.01,.91,3.97,1.42,5.95,.49,1.91,1.7,3.47,2.35,5.31,.35,.97,.81,2,1,3.01,.42,2.22,.58,4.49,.86,6.75,.62,5,2.66,9.74,2.71,14.84,.01,1.32,.73,1.82,1.95,1.79,.47-.01,.71,.26,.94,.75,.02,.02,.04,.05,.06,.07-.06-.01-.11-.03-.16-.05,.04,.92-.08,1.66-.4,2.4l.1,.1c-.08-.01-.15,0-.23-.02-.26,1.94-.43,3.74-.73,5.53-.28,1.7,.53,2.52,2.03,2.99,.39,.12,1.09-.06,1.04,.81-.09,1.45,.98,1.9,2.14,2.19,2.13,.53,4.3,.25,6.45,.24,3.3-.03,3.88-1.01,2.52-4.07-.11-.24-.31-.45-.58-.72,.03-.02,.06-.04,.08-.08-1.09-1.73-2.18-3.35-3.3-4.89,.01-.1-.02-.2-.07-.34,.04-1.5-1.43-2.08-1.8-3.28,.03-.02,.07-.03,.1-.05-.01,0-.01-.03-.07-.14,.01-.02,.02-.03,.04-.05-.12-.33-.2-.52-.39-.68,.04-.04,.09-.1,.14-.17,.23-1.12,.96-1.95,.84-3.02-.41-3.63,.48-7.24,.08-10.9-.32-2.92-.12-5.91,.04-8.86,.15-2.79-1.75-5.55-.1-8.34,.03-.06-.07-.21-.13-.31-.89-1.7-.19-3.56-.45-5.35-.15-1.04,.77-2.18,1.03-3.36,1.69-7.75,2.47-15.7,5.07-23.27,.61-1.8,1.85-3.41,1.7-5.48-.11-1.48,.18-2.94,.53-4.39,1.87-7.76,2.9-15.54,.32-23.36Zm-46.89,5.17c-.06,.02-.12,.02-.18,.04-1.07,5.49-.98,11.01-1.32,16.5-.03,.56-.11,1.11-.19,1.81,.03,.11,.05,.2,.06,.29-.04-.02-.07-.03-.11-.04-.02,.23-.02,.38,.05,.53-.24,.91-.41,1.71-.58,2.51-.11,0-.22,0-.33,0,.09-1.94,.14-3.88,.28-5.82,.3-4.01,.46-8.02,.06-12.03-.13-1.34,.98-2.23,1.21-3.55,.06-.07,.12-.12,.18-.17,.02-.78,.55-1.32,.96-2.12,.38,.82,.25,1.39-.09,2.06Zm39.66,21.67c-.15-1.75-.3-3.49-.43-5.39,.05-.09,.1-.14,.16-.17-.25-1.94-.36-3.86-.45-5.93,.04-.08,.08-.14,.11-.19-.11-.7-.15-1.4-.15-2.24,.01-.06,.05-.09,.08-.11-.46-1.95-.86-3.82-1.29-5.68-.07-.31-.39-.64,.08-.83,.43-.18,.56,.27,.73,.54,.44,.72,.8,1.45,.72,2.39-.09,1.07,.05,2.07,.04,3.31l.5,8.74c.43,1.9,.62,3.72-.1,5.56Z"/></g></g></svg>