<?xml version="1.0" encoding="UTF-8"?>
<svg id="Layer_2" data-name="Layer 2" xmlns="http://www.w3.org/2000/svg" viewBox="0 0 137.8 424.75">
  <defs>
    <style>
      .cls-1 {
        stroke-width: 0px;
      }
    </style>
  </defs>
  <g id="Layer_1-2" data-name="Layer 1">
    <path class="cls-1" d="m117.88,198.39c-.03-.12-.15-.19-.27-.16-.11.03-.18.13-.16.25,3.28,38.06-6.61,75.51-24.44,109.2-1.45,2.74-2.25,6.88-2.39,12.42-.6,24.8-11.25,48.8-19.56,71.83-.1.28-.02.6.21.8,1.89,1.67,3.11,3.75,3.66,6.25.07.33.23.63.46.88,6.37,6.98,13.92,10.22,22.79,13.69,5.73,2.23,6.01,11.27-.69,11.2-17.35-.17-34.69-.44-52.04-.83-11.95-.27-6.63-17.56-4.38-24.07.32-.93.69-1.53,1.11-1.78,8.04-4.87,5.58-13.69,3.33-21.5-2.27-7.86-4.49-15.74-6.64-23.63-5.13-18.79-.68-34.71,6.75-52.01.4-.95-.03-3.04-.47-4.23-4.31-11.77-8.79-23.48-13.45-35.13-3.2-8-7.39-15.44-12.57-22.31-.31-.41-.54-.37-.67.14-.94,3.65-1.16,7.32-.65,11.01.14,1.03-.57,1.98-1.6,2.12-.3.04-.61.01-.9-.09-7.38-2.65-14.08-10.25-15.15-18.09-.83-6.02,1.73-14.56,2.81-21.48,1.42-9.11-.33-20.84-.57-28.52-.35-10.83-.01-19.04,1.01-24.63,1.18-6.44,2.75-13.04,1.99-19.68C2.73,116.86.25,82.11,22.64,66.94c6.57-4.46,16.19-6.76,24.45-9.01,1.89-.51,2.17-1.48.86-2.93-2.48-2.73-3.24-11.94-3.79-18.62-.03-.31-.12-.59-.29-.85-1.57-2.35-2.79-4.87-3.66-7.56-.11-.33-.08-.68.09-.98.97-1.75.99-3.48.08-5.21-.19-.36-.22-.78-.09-1.17l.84-2.53c.1-.3.11-.62.03-.93-2.47-9.48,12.46-14.19,19.23-13.63.32.03.63-.06.9-.24,7.52-5.1,14.2-3.96,20.85,1.44,3.02,2.44,6.52,3.89,8.9,7.07,1.33,1.78,2.82,3.39,4.46,4.84.22.2.36.44.43.73l1.41,5.95c.08.33.25.62.5.85,3.73,3.36,6.42,5.92,6.57,10.43.09,2.62-1.87,5.52,1.02,8.1,5.24,4.67,3.5,6.48,2.35,12.71-.07.35.02.64.27.89,3.18,3.19,6.16,4.61,4.61,9.89-.09.32,0,.67.24.9l3.78,3.74c.27.26.32.68.13,1.01l-.71,1.21c-.15.26-.07.6.19.75,0,0,0,0,0,0,1.09.62,1.76,1.55,2.01,2.79.06.32-.08.64-.35.82l-1.48.92c-.37.23-.42.51-.15.85l1.51,1.92c.25.32.33.67.24,1.06-.23,1.07.1,1.8.98,2.21.8.37,1.14,1.32.77,2.11-.09.2-.23.38-.4.53l-.73.63c-.29.25-.32.69-.06.97.01.01.02.02.03.04l.84.84c.22.22.21.58-.01.79-.18.18-.46.21-.68.08-1.57-.97-2.33-2.42-2.27-4.36,0-.33-.11-.65-.33-.89l-5.06-5.61c-.13-.14-.34-.15-.48-.02-.07.06-.11.15-.11.24-.03.91,2.61,3.6,2.95,5.76,1.04,6.72,5.59,11.34,9.08,16.63,6.49,9.82,3.21,17.41-1.6,26.74-.15.29-.22.61-.21.94.06,1.16-.13,2.63.28,3.69,9.88,25.45,11.7,51.51,15.07,77.88,1.88,14.72,5.37,30.57-11.12,38.38-.31.14-.58.1-.82-.13-1.93-1.79-1.3-3.42.45-5.09,2.73-2.63,7.98-10.36,2.88-13.19-.34-.19-.5-.09-.47.3.12,1.77-.04,8.36-3.19,7.77-1.15-.21-1.91-1.32-1.7-2.47,0-.03.01-.07.02-.1.61-2.61.57-4.93-.21-7.8-1.71-6.28-.04-9.49,1.41-15.43.09-.36.06-.71-.07-1.05l-5.44-14.15Z"/>
  </g>
</svg>