<?xml version="1.0" encoding="UTF-8"?>
<svg id="Layer_2" data-name="Layer 2" xmlns="http://www.w3.org/2000/svg" viewBox="0 0 158.9 364.13">
  <defs>
    <style>
      .cls-1 {
        fill: #090b0a;
        stroke-width: 0px;
      }
    </style>
  </defs>
  <g id="Layer_1-2" data-name="Layer 1">
    <path class="cls-1" d="m144.09,141.33c4.39-6.45,8.16-13.24,11.31-20.37,3.16-7.11,5.17-11.71,1.61-18.28-5.39-9.93-10.73-19.89-16.02-29.88-4.95-9.35-11.93-16.63-22.17-18.91-.31-.07-.56-.31-.65-.61-.72-2.38-.96-6.12-2.99-7.57-1.55-1.1-3.14-2.18-4.79-3.25-.28-.18-.46-.49-.49-.82-.09-.96-.23-2.37-.42-4.22-.52-5.02-4.86-5.68-6.32-9.82-.61-1.74-1.24-5.01-2.75-5.87-1.77-1.02-3.16-1.85-3.82-3.97-2.2-7.04-4.43-12.33-11.09-16.19-3.63-2.11-7.71-2.09-12.24.06-.27.13-.58.14-.85.03-12.45-4.75-20.23,6.04-21.48,17-.03.32-.17.62-.39.85-2.25,2.43-3.99,2.64-4.34,6.93-.1,1.27-.19,2.59-.26,3.95-.01.33-.18.56-.49.68-1.97.75-3.74,1.81-5.32,3.16-2.09,1.8-2.91,4.35-4.02,6.88-.09.19-.03.31.18.36l.31.08c.19.04.38-.03.48-.19.89-1.39,1.5-2.87,1.85-4.45.41-1.86.69-1.83.82.09.63,9.21-12.54,7.53-9.95,17.69.03.09.09.16.18.19.09.03.19.06.29.09.03.01.07.02.1.02.21.01.39-.15.4-.36.09-1.29-.07-2.55-.46-3.8-.16-.49-.05-.92.33-1.27l.28-.25c.07-.06.15-.1.24-.12.24-.04.46.13.5.37l.75,4.32c.12.7-.14,1.41-.69,1.86-5.6,4.59-12.31,11.38-6.83,19.2.19.27.24.62.14.93-.97,3.03-2.65,6.12-3.57,8.83-2.82,8.26-5.86,16.44-9.13,24.54-4.51,11.17,6,27.44,11.74,37,.91,1.53.77,2.89-.43,4.09-6.11,6.12-9.44,12.99-13.15,21.87-4.1,9.84-4.88,17.22-5.85,29.83-.81,10.62-2.35,21.11-4.61,31.46-.12.53.08.88.59,1.05,4.83,1.69,9.62,3.61,14.39,5.74,3.52,1.57,6.88,1.36,10.47,3.34,3.66,2.02,6.54,3.53,10.7,4.48.33.07.57.26.72.57,1.99,4.05,3.05,8.29,3.19,12.7.21,6.95-2.74,13.72-3.04,20.72-.63,14.41,6.41,32.09,10.67,46.5.9,3.07,1.56,8.12,1.04,10.57-1.11,5.19-3.23,9.9-6.37,14.13-3.1,4.16-3.26,9.3,3.23,10.22,7.93,1.12,18.92,1.93,19.19-9.47.15-6.29-.08-12.48-1.3-18.7-1.36-6.93-1.62-12.49.73-19.68,3.33-10.22,9.71-24.15,7.98-34.24-.89-5.24-2.5-12.32-.48-17.26,1.45-3.53,2.91-7.05,4.38-10.55.03-.07.08-.12.15-.15.14-.05.3.02.35.16,2.37,5.7,4.54,11.66,3.49,17.98-1.03,6.2-2.04,11.52-1.52,17.88.99,12.01,7.22,22.33,7.34,34.15.05,5.2-2.27,11.2-2.89,15.84-.47,3.59-1.46,17.17,1.63,21.11,3.62,4.59,13.36,3.87,18.31,2.58,8.99-2.34-1.24-13.23-2.45-17.36-2.12-7.17-1.97-13.89.44-20.15,2.85-7.41,6.15-16.61,9.9-27.59,1.67-4.89,2.63-9.79,2.87-14.69.42-8.28-3.02-17.21-1.78-25.73.09-.63.58-1.12,1.21-1.2,8.93-1.19,17.92-3.49,25.32-8.48,5.47-3.69,9.07-6.62,14.83-8.15.53-.14.91-.62.93-1.17.33-12.39.23-24.55-.32-36.47-.36-7.92-2.43-15.39-4.36-23.02-2.46-9.66-6.51-17.29-12.6-24.96-.3-.39-.3-.77-.01-1.16,2.81-3.66,4.7-8.12,7.13-11.7Zm-99.49-22.71c-1.6,3.71-1.29,7.86-2.54,10.86-.75,1.81-1.79,3.45-3.11,4.94-.24.28-.58.45-.95.48-1.5.14-2.91.58-4.24,1.32-.25.14-.57.06-.71-.19-.04-.08-.07-.16-.07-.25-.15-7.58-1.64-14.87-4.48-21.88-.13-.31-.05-.57.23-.76,2.96-2.06,5.02-4.8,6.19-8.22.32-.93.59-.92.8.04,1.37,6.29,4.66,8.47,8.73,12.82.23.25.28.53.15.84Zm86.59,17.8c-.06.41-.29.54-.68.41l-1.69-.6c-.33-.11-.66-.13-1-.06l-4.8,1c-.44.09-.9-.07-1.18-.41-2.77-3.39-6.06-7.68-6.59-12.18-.24-2.06-.83-4.02-1.77-5.87-.15-.31-.11-.59.14-.84,6.17-6.19,10.37-11.1,9.35-20.59-.01-.07.01-.13.08-.18.09-.06.18-.1.25-.11.09-.03.16,0,.2.09,3.42,6.62,8.08,9.99,14.95,12.46.26.09.4.38.3.65,0,.01,0,.02-.01.03-3.73,8.38-6.24,17.11-7.55,26.2Z"/>
  </g>
</svg>