<?xml version="1.0" encoding="UTF-8"?>
<svg id="Layer_2" data-name="Layer 2" xmlns="http://www.w3.org/2000/svg" viewBox="0 0 141.18 425.13">
  <defs>
    <style>
      .cls-1 {
        stroke-width: 0px;
      }
    </style>
  </defs>
  <g id="Layer_1-2" data-name="Layer 1">
    <path class="cls-1" d="m136.98,211.79c3.43-20.12,6.22-43.8,2.25-63.38-1.77-8.77-2.97-15.05-3.58-18.84-.05-.35.02-.67.23-.96l.85-1.19c.21-.29.29-.6.24-.94-2.91-22.8-6.22-50.57-30.99-60.1-.72-.28-1.24-.91-1.37-1.66-1.86-10.45-3.88-20.96-6.07-31.52-2.89-13.96-7-29.52-22.96-32.69-15.26-3.03-24.31,7.86-27.09,21.66-2.91,14.47-4.77,29.1-5.56,43.89-.02.35-.2.58-.54.69-13.02,4.21-21.62,11.64-23.81,25.74-1.42,9.19-2.74,18.41-3.95,27.64-.39,2.95-1.58,6.18-1.99,9.4-.03.22.03.44.16.62l.94,1.24c.21.28.3.59.29.94-.26,6.83-.94,11.51-2.05,14.03-2.97,6.73-4.71,11.25-5.22,13.55C2.28,180.2.03,200.71,0,221.43c0,4.83.51,8.74,1.54,11.73,2.23,6.43,6.15,11.78,11.77,16.06.27.2.39.47.34.81-2.54,20.33-3.39,40.72-2.55,61.19.51,12.56,1.72,22.46,3.61,29.69,3.74,14.28,7.86,28.6,8.63,43.39.74,14.18-1.54,24.47-13.39,32.16-.28.18-.48.46-.54.79l-1.15,5.87c-.08.41.07.68.46.81,1.29.45,2.8.68,4.52.69,9.33.07,17.04,1.36,23.62-2.89.29-.18.64-.24.96-.15,4.79,1.27,11.94.26,15-4.32,2.4-3.58-.73-13.83-2.27-17.59-1.79-4.39-2.84-10.5-2.1-15.24.61-3.97.67-8,.18-12.1-.05-.41-.36-.74-.76-.81l-2.68-.51c-.67-.13-.93-.53-.78-1.2,4.03-17.73,7.52-31.72,3.65-49.53-1.04-4.77-.64-7.36,1.31-11.46,5.1-10.77,10.14-21.5,15.13-32.19.05-.11.15-.19.26-.21.2-.04.4.09.44.29,1.92,9.01,3.86,17.94,5.83,26.79,2.24,10.06,1.87,17.07.89,28.66-.31,3.67.35,11.86,1.99,24.57.34,2.63.7,7.85,1.07,15.68.02.47-.21.72-.68.73l-1.44.03c-.76.02-1.38.59-1.48,1.34-1.9,14.54-3.11,28.96-11.72,41.6-2.27,3.33-2.65,8.85,2.84,8.91,8.71.1,19.37.91,26.69-4.2,8.09-5.63.97-15.94,1.49-23.18.32-4.39.04-8.27,1.6-12.47,3.49-9.42,6.99-18.84,10.51-28.25,4.65-12.48,7.6-23.94,6.14-35.76-.97-7.82-2.63-15.79-1.85-23.53,1.69-16.82,5.93-34.9,15.28-49.27.13-.19.32-.34.55-.41l6.14-1.88c.11-.03.21-.1.27-.19,1.08-1.43,2.5-2.19,4.27-2.28.36-.01.7-.18.94-.45,5.46-6.13,4.55-20.04,2.69-27.12-.39-1.48-.47-2.89-.24-4.24Zm-122.71,28.32c-.19.35-.64.48-.99.29-.09-.05-.18-.12-.24-.21-2.45-3.31-3.81-7.04-4.1-11.18-.02-.33.13-.52.46-.56l.27-.04c.41-.05.62.12.65.53.2,2.71.99,5.24,2.36,7.59.19.32.45.57.78.75,1.21.67,1.48,1.62.81,2.83Zm10.2-47.95c-3.92,11.82-6.54,23.48-7.85,34.98-.02.17-.1.26-.23.25-.03,0-.06,0-.09-.01-.07,0-.11-.04-.12-.11-.27-4.14-1.31-8.03-3.13-11.68-1.37-2.74-1.97-7.24-.78-9.41,3.76-6.86,7.23-13.86,10.4-21.01.23-.52.5-.54.8-.05.51.84.67,1.8.46,2.87-.03.15-.01.3.06.44.7,1.34.86,2.58.48,3.73Zm93.84-33.98c-1.22-4.91-3.6-9.66-7.15-14.23-2.87-3.7-.92-4.28-.73-7.84,0-.21.05-.36.14-.44.31-.27.79-.24,1.05.07.07.08.13.18.16.29,1.6,5.95,3.72,11.78,6.37,17.47.69,1.48.79,3.25.88,4.56.23,2.92-.01,2.96-.72.12Z"/>
  </g>
</svg>