<?xml version="1.0" encoding="UTF-8"?>
<svg id="Layer_2" data-name="Layer 2" xmlns="http://www.w3.org/2000/svg" viewBox="0 0 87.55 268.92">
  <defs>
    <style>
      .cls-1 {
        fill: #101211;
        stroke-width: 0px;
      }
    </style>
  </defs>
  <g id="Layer_1-2" data-name="Layer 1">
    <path class="cls-1" d="m87.47,137.17c-.16-1.63-1.36-5.1-1.05-6.67.44-2.23.69-4.82.74-7.75.18-11.38.79-22.1-2.22-32.34-1.17-3.99-2-7.3-2.49-9.93-2.17-11.55-2.9-28.25-14.13-35.33-.06-.04-.11-.08-.16-.13-.39-.38-.4-1-.03-1.39l1.93-2.01c.21-.22.29-.48.24-.79-.33-1.71.3-2.9,1.89-3.58.07-.03.14-.06.2-.11.6-.39.77-1.19.38-1.78-1.33-2.03-1.82-4.23-1.47-6.6.19-1.32.37-2.3-.25-3.6-4.11-8.56-6.55-18.38-17.78-22.53-2.02-.75-4.14-.32-6.39-1.07-.26-.09-.54-.12-.81-.08l-2.05.31c-.34.05-.68-.06-.93-.3l-1.22-1.2c-.31-.3-.66-.36-1.06-.19-1.33.59-2.39,1.49-3.2,2.71-.05.08-.11.15-.18.21-.48.44-1.23.41-1.67-.07l-.87-.95c-.08-.09-.17-.16-.27-.21-.47-.25-1.06-.07-1.31.4l-1.31,2.46c-.16.3-.4.52-.71.67-2.97,1.36-3.38,3.83-6.16,5.1-.8.36-1.27,1.21-1.14,2.09.16,1.14-.12,2.11-.83,2.91-.25.28-.41.63-.46,1.01-.47,3.85-1.65,7.46-3.54,10.83-.07.13-.11.27-.12.41-.03.52.37.97.9,1,.69.03,1.35.2,1.99.49,0,0,0,0,0,0,.3.14.43.5.29.8-.62,1.39-.67,2.81-.15,4.27.1.29.3.46.59.52l1.02.23c.11.02.2.09.26.18.13.19.07.46-.12.59-.71.46-1.08,1.1-1.11,1.92,0,.21.08.36.27.47.21.11.43.12.66.03.06-.03.12-.07.15-.13.23-.37.5-.68.83-.93.27-.21.54-.21.81,0,.23.19.31.41.25.66-.07.31-.23.55-.49.72-.3.21-.47.5-.5.87-.04.45.27.85.72.92l3.16.52s.07.04.08.09l.02.28c.03.34-.2.65-.53.71-5.31,1.02-11.15,1.34-14.54,6.3-8.46,12.39-9.2,27.1-11.89,41.03-2.42,12.5-1.82,25.58-.98,38.17.65,9.61,3.03,16,9.37,22.57.28.29.55.28.8-.04l1.09-1.38c.07-.09.17-.17.27-.23.42-.23.95-.07,1.18.36.99,1.82,2.39,3.4,3.19,5.27,1.93,4.5,3.47,9.12,4.63,13.87,1.33,5.42,1.02,12.04,2.07,18.11.38,2.18.63,5.19.32,6.85-1.08,5.76-1.14,11.09-.19,16,.88,4.5,3.37,14.91,7.47,31.23.18.73.14,1.58-.13,2.57-.93,3.43.09,6.67-.95,10.37-.94,3.37-1.79,6.77-2.55,10.2-.74,3.32.3,5.59,3.91,5.68,6.61.15,13.23.15,19.84,0,4.3-.1,6.83-1.86,5.79-6.47-1.35-5.94-3.22-11.74-3.36-17.86,0-.33-.1-.62-.28-.89-.59-.91-.73-1.94-.41-3.09,2.99-10.78,6.94-22.64,8.69-32.75.84-4.87.62-10.04-.66-15.53-.32-1.38-.18-3.65.13-5.03,1.39-6.05,1.72-12.91,3.07-18.19,1.55-6.05,3.62-11.89,6.23-17.51.18-.38.55-.65.98-.69,1.92-.17,3.69-.79,5.32-1.84.18-.12.3-.31.33-.52l1.03-7.36c.05-.31.19-.37.44-.18.1.07.17.19.2.35.64,2.85,2.06,5.23,4.25,7.15.04.04.09.07.13.1.58.38,1.36.23,1.74-.35,2.24-3.36,3.17-7.02,2.79-10.98Zm-76.14,1.29c-.31.02-.6-.69-.64-1.57s.17-1.61.48-1.63c.31-.02.6.69.64,1.57.05.88-.17,1.61-.48,1.63Zm10.36-48.51c-.67,1.65-1.47,3.19-2.39,4.62-1.57,2.45-1.18,6.63-2.48,9.73-1.81,4.29-4.56,10.85-4.44,13.69.15,3.51.26,7.01.35,10.51.01.57-.11,1-.36,1.29-.2.22-.53.23-.75.03-.05-.04-.08-.09-.11-.14-2.38-4.54-4.59-7.87-3.12-13.68,1.65-6.52,3.99-13.28,5.46-19.35,1.22-5.04,2.11-10.1,3.87-14.98.4-1.11.72-1.08.95.08.51,2.59,1.49,4.99,2.93,7.21.19.29.23.67.09.99Zm23.45,101.27c-.09,1.06-.35,2.35-.76,3.88-1.48,5.43-2.02,9.82-1.63,13.15,1.18,9.99,2.34,21.68,1.39,31.67-.2,2.02-1.43,3.91-1.39,5.83.04,2.03-.04,4.04-.23,6.05-.01.11-.07.16-.18.16h-.08c-.06,0-.09-.01-.1-.06-.19-2.69-.48-5.37-.87-8.04-.05-.36-.28-.66-.6-.81-1.03-.46-1.51-1.22-1.46-2.29.56-10.97,1.46-21.89,2.69-32.78.88-7.82-2.92-14.55-1.81-21.8,1.31-8.62,2.23-17.24,2.75-25.86.01-.19.11-.27.3-.23l.3.06c.33.08.56.37.55.7-.03,5.63-.3,11.18-.81,16.65-.34,3.5,2.35,8.79,1.94,13.72Zm34.18-69.34c-.38,1.95-2.04,3.61-3.4,5.12-.89.98-1.15,1.85-1.65,3.04-.13.3-.22.29-.25-.04l-1.44-13.07c0-.09,0-.18.04-.26,1.03-2.65,1.14-4.95.34-6.92-1.34-3.3-6.43-13.61-3.56-16.53.23-.23.36-.53.39-.85.14-1.57,0-3.13-.44-4.66-.33-1.16-.25-1.92.22-2.27.51-.38.84-.26.99.36,1.91,7.91,2.68,16.66,5.43,23.45,1.27,3.13,3.98,9.37,3.33,12.63Z"/>
  </g>
</svg>