<?xml version="1.0" encoding="UTF-8"?>
<svg id="Layer_2" data-name="Layer 2" xmlns="http://www.w3.org/2000/svg" viewBox="0 0 87.79 257.47">
  <defs>
    <style>
      .cls-1 {
        fill: #101211;
        stroke-width: 0px;
      }
    </style>
  </defs>
  <g id="Layer_1-2" data-name="Layer 1">
    <path class="cls-1" d="m85.04,84.54c-1.85-13.49-2.51-27.77-9.79-39.37-1.41-2.25-3.87-3.85-7.38-4.81-.31-.09-.56-.34-.64-.66-.2-.85.05-1.85-.11-2.6-.42-2.03-.89-4.16-1.76-6.14-1.93-4.4-4.57-11.15-7.92-20.24C53.26-.62,39.02-4.15,31.32,5.96c-5.23,6.85-4.3,23.18-4.05,31.96.12,4.09-7.98,4.96-10.63,7.74-4.16,4.39-6.79,14.09-7.77,19.93-1.52,9.07-2.56,17.64-5.48,26.93C-.07,103.56.39,115.21.53,126.95c.1,8.09-3.03,16.57,4.82,22.32,1.27.93,2.56,1.28,3.86,1.05.22-.04.42-.13.59-.28.51-.44.56-1.21.12-1.72-2.5-2.92-5.07-5.37-3.76-9.66.75-2.43,1.52-2.44,2.31-.02.15.48.36,1.43.62,2.85.03.19.15.37.31.47.33.22.78.13,1-.2,1.47-2.21.05-6.48-.92-8.66-1.25-2.83-3.61-6.84-2.92-9.98.51-2.37,1.15-4.7,1.9-7.01,4.09-12.61,8.06-25.25,11.9-37.92.15-.5.32-.51.51-.02,2.24,5.81.18,13.25-1.63,19.86-3.61,13.15-5.56,26.51-5.85,40.09-.09,4.51.22,11.16.94,19.96,2.25,27.48,3.92,54.91,3.67,82.5h0c0,.42.33.76.74.76l11.3.12c.43,0,.63.22.6.64-.17,2.94-2.54,5.82-4.25,8.12-5.11,6.87,3.68,7.96,8.04,6.9,2.87-.69,4.87-3.1,7.01-5.07.36-.34.56-.82.53-1.32l-.59-9.75c-.03-.38.15-.57.53-.57l5.84-.06s.04,0,.06,0c.23.03.39.25.36.48-.86,6.53-2.58,15.36,6.63,16.53,2.72.35,12.42-.47,8.65-5.97-1.95-2.85-3.71-5.53-4.69-8.89-.02-.08-.03-.16-.03-.24,0-.48.39-.87.87-.87,4.46.02,8.95.3,13.18-1.04.91-.28,1.45-1.2,1.27-2.14-1.4-7.12-1.23-13.11-.7-21.87.94-15.57-.07-31.12.95-46.63.44-6.76.47-14.23,2.15-20.77.08-.32.27-.55.58-.68,4.7-2.05,9.19-6.47,9.43-11.86.16-3.74.01-7.57.33-11.12.68-7.39,1.01-14.2,1-20.42-.01-6.84-2.1-15.58-2.75-20.32Zm-8.75,35.08c-1.94-8.91-3.92-17.81-5.93-26.7-.84-3.72-1.07-7.09.05-10.39.33-.96.65-.96.97,0,2.59,7.92,4.07,17.64,5.57,23.43,1.46,5.62,3.77,11.81,4.15,17.58.04.67-.16,1.32-.56,1.86l-2.69,3.58c-.41.55-.61.48-.6-.21.05-2.95-.27-6-.96-9.15Zm5.54,19.95l-4.57,6.59c-.29.43-.39.39-.29-.12.49-2.55,2.24-6.13,3.54-7.86.21-.27.59-.33.86-.13.02.02.05.04.07.06l.29.29c.31.31.35.8.1,1.17Z"/>
  </g>
</svg>